<svg xmlns="http://www.w3.org/2000/svg" width="30" height="26.26" viewBox="0 0 30 26.26">
  <defs>
    <style>
      .a {
        fill: #1d3050;
      }
    </style>
  </defs>
  <g>
    <path class="a" d="M.07,9.44H29.93c0,.32.07.62.07.92Q30,16.18,30,22c0,2.81-1.48,4.26-4.29,4.26H4.09a3.75,3.75,0,0,1-4.08-4c0-4,0-8,0-12C0,10,0,9.76.07,9.44Z"/>
    <path class="a" d="M.06,7.43C.06,6,0,4.55.08,3.16A3.62,3.62,0,0,1,3.63,0c2.57,0,5.13,0,7.7,0a3.55,3.55,0,0,1,2.82,1.44c.32.39.63.78.91,1.2a2.5,2.5,0,0,0,2.31,1.13c2.94,0,5.88,0,8.82,0a3.58,3.58,0,0,1,3.7,3.66Z"/>
  </g>
</svg>
