<svg xmlns="http://www.w3.org/2000/svg" width="65" height="65" viewBox="0 0 65 65">
  <defs>
    <style>
      .a {
        fill: #f0db4f;
      }

      .b {
        fill: #323330;
      }
    </style>
  </defs>
  <g>
    <path class="a" d="M0,0V64.92H65V0Z"/>
    <path class="b" d="M29.29,45.24v-1q0-12.19,0-24.4a.83.83,0,0,0-.3-.7c-.41-.37-.79-.75-1.18-1.13l.06-.11H47.36A5.66,5.66,0,0,1,50.93,19,2.57,2.57,0,0,1,52,21.15c0,1.83,0,3.66,0,5.48,0,.25,0,.39-.31.48L43.16,30l-.25,0V22.46H38.36v.41c0,2,0,3.94,0,5.91,0,2.32,0,4.65,0,7a.6.6,0,0,1-.32.58l-3.84,2.57a.22.22,0,0,0-.11.16l17.87-6c0,.15,0,.25,0,.36C52,41.3,52,49.16,52,57a2.89,2.89,0,0,1-1.51,2.66,5.62,5.62,0,0,1-3,.78H33.73a5.4,5.4,0,0,1-3.38-1.09,2.46,2.46,0,0,1-1.06-2.11c0-1.8,0-3.6,0-5.41v-.51l9.06-3v7.58h4.56V55.4c0-4.27,0-8.55,0-12.82a.59.59,0,0,1,.31-.59c1.22-.8,2.42-1.61,3.62-2.41a1.11,1.11,0,0,0,.33-.32Z"/>
    <path class="b" d="M12.63,46.81v9.12h1.26c.95,0,1.9,0,2.85,0,.36,0,.45-.1.44-.45,0-4.51,0-9,0-13.52V17.9h9.06c0,.12,0,.26,0,.39q0,19.46,0,38.89a2.61,2.61,0,0,1-1.11,2.21,5,5,0,0,1-3,1c-1.85,0-3.69,0-5.54,0H8.09a4.53,4.53,0,0,1-4.23-2.37A2.51,2.51,0,0,1,3.56,57c0-2.26,0-4.53,0-6.79,0-.21,0-.35.26-.44,2.88-.95,5.76-1.92,8.63-2.88A.77.77,0,0,1,12.63,46.81Z"/>
    <path class="b" d="M63.18,63.16H1.93V1.91H43.06V.07H.07V65H65V23H63.18Z"/>
  </g>
</svg>
