<svg xmlns="http://www.w3.org/2000/svg" width="30" height="26.08" viewBox="0 0 30 26.08">
  <defs>
    <style>
      .a {
        fill: #1d3050;
      }
    </style>
  </defs>
  <g>
    <path class="a" d="M11.19,22.87c0,.53,0,1,0,1.55A1.57,1.57,0,0,1,10,25.94a1.93,1.93,0,0,1-2-.38c-1.21-1-2.42-2.06-3.59-3.12a1.52,1.52,0,0,1,0-2.47c1.16-1,2.35-2,3.52-3.06A2,2,0,0,1,10,16.43a1.61,1.61,0,0,1,1.18,1.69v1.47h2.72c2.22,0,4.45,0,6.67,0,3,0,5.29-1.77,5.68-4.38,0-.22,0-.43.08-.65a1.72,1.72,0,0,1,1.95-1.5A1.65,1.65,0,0,1,30,14.76c0,3.55-2.84,6.82-6.8,7.72a14.4,14.4,0,0,1-2.86.32c-2.83,0-5.65,0-8.47,0C11.69,22.82,11.5,22.85,11.19,22.87Z"/>
    <path class="a" d="M18.81,6.62c-3.66,0-7.18-.18-10.66.06a4.72,4.72,0,0,0-4.42,4.17c0,.27,0,.54-.1.81A1.71,1.71,0,0,1,1.73,13,1.61,1.61,0,0,1,0,11.42a7.46,7.46,0,0,1,3-6A10,10,0,0,1,9.36,3.27c3.1,0,6.2,0,9.45,0,0-.56,0-1.07,0-1.58A1.57,1.57,0,0,1,20,.15,1.92,1.92,0,0,1,22,.51c1.23,1.05,2.47,2.1,3.66,3.18a1.52,1.52,0,0,1,0,2.41c-1.18,1.05-2.39,2.08-3.59,3.12a2,2,0,0,1-2,.43,1.57,1.57,0,0,1-1.2-1.59C18.8,7.57,18.81,7.09,18.81,6.62Z"/>
  </g>
</svg>
