<?xml version="1.0" encoding="UTF-8"?>
<svg id="b" data-name="Слой 2" xmlns="http://www.w3.org/2000/svg" width="141.34" height="193.31" viewBox="0 0 141.34 193.31">
  <g id="c" data-name="Слой 1">
    <g id="d" data-name="3.1">
      <path d="m10.26,5.4c0,3.88-2.69,5.57-5.23,5.57-2.84,0-5.03-2.08-5.03-5.4C0,2.06,2.3,0,5.21,0s5.05,2.19,5.05,5.4Zm-8.33.11c0,2.3,1.32,4.04,3.19,4.04s3.19-1.71,3.19-4.08c0-1.78-.89-4.03-3.15-4.03S1.93,3.51,1.93,5.51Z"/>
      <path d="m22.18,5.4c0,3.88-2.69,5.57-5.23,5.57-2.84,0-5.03-2.08-5.03-5.4,0-3.51,2.3-5.57,5.21-5.57s5.05,2.19,5.05,5.4Zm-8.33.11c0,2.3,1.32,4.04,3.19,4.04s3.19-1.71,3.19-4.08c0-1.78-.89-4.03-3.15-4.03s-3.23,2.08-3.23,4.08Z"/>
      <path d="m34.09,5.4c0,3.88-2.69,5.57-5.23,5.57-2.84,0-5.03-2.08-5.03-5.4,0-3.51,2.3-5.57,5.21-5.57s5.05,2.19,5.05,5.4Zm-8.33.11c0,2.3,1.32,4.04,3.19,4.04s3.19-1.71,3.19-4.08c0-1.78-.89-4.03-3.15-4.03s-3.23,2.08-3.23,4.08Z"/>
      <path d="m46.01,5.4c0,3.88-2.69,5.57-5.23,5.57-2.84,0-5.03-2.08-5.03-5.4,0-3.51,2.3-5.57,5.21-5.57s5.05,2.19,5.05,5.4Zm-8.33.11c0,2.3,1.32,4.04,3.19,4.04s3.19-1.71,3.19-4.08c0-1.78-.89-4.03-3.15-4.03s-3.23,2.08-3.23,4.08Z"/>
      <path d="m57.93,5.4c0,3.88-2.69,5.57-5.23,5.57-2.84,0-5.03-2.08-5.03-5.4,0-3.51,2.3-5.57,5.21-5.57s5.06,2.19,5.06,5.4Zm-8.33.11c0,2.3,1.32,4.04,3.19,4.04s3.19-1.71,3.19-4.08c0-1.78-.89-4.03-3.14-4.03s-3.23,2.08-3.23,4.08Z"/>
      <path d="m69.84,5.4c0,3.88-2.69,5.57-5.23,5.57-2.84,0-5.03-2.08-5.03-5.4,0-3.51,2.3-5.57,5.21-5.57s5.06,2.19,5.06,5.4Zm-8.33.11c0,2.3,1.32,4.04,3.19,4.04s3.19-1.71,3.19-4.08c0-1.78-.89-4.03-3.14-4.03s-3.23,2.08-3.23,4.08Z"/>
      <path d="m81.76,5.4c0,3.88-2.69,5.57-5.23,5.57-2.84,0-5.03-2.08-5.03-5.4,0-3.51,2.3-5.57,5.21-5.57s5.06,2.19,5.06,5.4Zm-8.33.11c0,2.3,1.32,4.04,3.19,4.04s3.19-1.71,3.19-4.08c0-1.78-.89-4.03-3.14-4.03s-3.23,2.08-3.23,4.08Z"/>
      <path d="m93.68,5.4c0,3.88-2.69,5.57-5.23,5.57-2.84,0-5.03-2.08-5.03-5.4,0-3.51,2.3-5.57,5.21-5.57s5.06,2.19,5.06,5.4Zm-8.33.11c0,2.3,1.32,4.04,3.19,4.04s3.19-1.71,3.19-4.08c0-1.78-.89-4.03-3.14-4.03s-3.23,2.08-3.23,4.08Z"/>
      <path d="m105.59,5.4c0,3.88-2.69,5.57-5.23,5.57-2.84,0-5.03-2.08-5.03-5.4,0-3.51,2.3-5.57,5.21-5.57s5.06,2.19,5.06,5.4Zm-8.33.11c0,2.3,1.32,4.04,3.19,4.04s3.19-1.71,3.19-4.08c0-1.78-.89-4.03-3.14-4.03s-3.23,2.08-3.23,4.08Z"/>
      <path d="m117.51,5.4c0,3.88-2.69,5.57-5.23,5.57-2.84,0-5.03-2.08-5.03-5.4,0-3.51,2.3-5.57,5.21-5.57s5.06,2.19,5.06,5.4Zm-8.33.11c0,2.3,1.32,4.04,3.19,4.04s3.19-1.71,3.19-4.08c0-1.78-.89-4.03-3.14-4.03s-3.23,2.08-3.23,4.08Z"/>
      <path d="m129.43,5.4c0,3.88-2.69,5.57-5.23,5.57-2.84,0-5.03-2.08-5.03-5.4,0-3.51,2.3-5.57,5.21-5.57s5.06,2.19,5.06,5.4Zm-8.33.11c0,2.3,1.32,4.04,3.19,4.04s3.19-1.71,3.19-4.08c0-1.78-.89-4.03-3.14-4.03s-3.23,2.08-3.23,4.08Z"/>
      <path d="m141.34,5.4c0,3.88-2.69,5.57-5.23,5.57-2.84,0-5.03-2.08-5.03-5.4,0-3.51,2.3-5.57,5.21-5.57s5.06,2.19,5.06,5.4Zm-8.33.11c0,2.3,1.32,4.04,3.19,4.04s3.19-1.71,3.19-4.08c0-1.78-.89-4.03-3.14-4.03s-3.23,2.08-3.23,4.08Z"/>
      <path d="m10.26,31.45c0,3.88-2.69,5.57-5.23,5.57-2.84,0-5.03-2.08-5.03-5.4,0-3.51,2.3-5.57,5.21-5.57s5.05,2.19,5.05,5.4Zm-8.33.11c0,2.3,1.32,4.04,3.19,4.04s3.19-1.71,3.19-4.08c0-1.78-.89-4.03-3.15-4.03s-3.23,2.08-3.23,4.08Z"/>
      <path d="m22.18,31.45c0,3.88-2.69,5.57-5.23,5.57-2.84,0-5.03-2.08-5.03-5.4,0-3.51,2.3-5.57,5.21-5.57s5.05,2.19,5.05,5.4Zm-8.33.11c0,2.3,1.32,4.04,3.19,4.04s3.19-1.71,3.19-4.08c0-1.78-.89-4.03-3.15-4.03s-3.23,2.08-3.23,4.08Z"/>
      <path d="m34.09,31.45c0,3.88-2.69,5.57-5.23,5.57-2.84,0-5.03-2.08-5.03-5.4,0-3.51,2.3-5.57,5.21-5.57s5.05,2.19,5.05,5.4Zm-8.33.11c0,2.3,1.32,4.04,3.19,4.04s3.19-1.71,3.19-4.08c0-1.78-.89-4.03-3.15-4.03s-3.23,2.08-3.23,4.08Z"/>
      <path d="m46.01,31.45c0,3.88-2.69,5.57-5.23,5.57-2.84,0-5.03-2.08-5.03-5.4,0-3.51,2.3-5.57,5.21-5.57s5.05,2.19,5.05,5.4Zm-8.33.11c0,2.3,1.32,4.04,3.19,4.04s3.19-1.71,3.19-4.08c0-1.78-.89-4.03-3.15-4.03s-3.23,2.08-3.23,4.08Z"/>
      <path d="m57.93,31.45c0,3.88-2.69,5.57-5.23,5.57-2.84,0-5.03-2.08-5.03-5.4,0-3.51,2.3-5.57,5.21-5.57s5.06,2.19,5.06,5.4Zm-8.33.11c0,2.3,1.32,4.04,3.19,4.04s3.19-1.71,3.19-4.08c0-1.78-.89-4.03-3.14-4.03s-3.23,2.08-3.23,4.08Z"/>
      <path d="m69.84,31.45c0,3.88-2.69,5.57-5.23,5.57-2.84,0-5.03-2.08-5.03-5.4,0-3.51,2.3-5.57,5.21-5.57s5.06,2.19,5.06,5.4Zm-8.33.11c0,2.3,1.32,4.04,3.19,4.04s3.19-1.71,3.19-4.08c0-1.78-.89-4.03-3.14-4.03s-3.23,2.08-3.23,4.08Z"/>
      <path d="m81.76,31.45c0,3.88-2.69,5.57-5.23,5.57-2.84,0-5.03-2.08-5.03-5.4,0-3.51,2.3-5.57,5.21-5.57s5.06,2.19,5.06,5.4Zm-8.33.11c0,2.3,1.32,4.04,3.19,4.04s3.19-1.71,3.19-4.08c0-1.78-.89-4.03-3.14-4.03s-3.23,2.08-3.23,4.08Z"/>
      <path d="m93.68,31.45c0,3.88-2.69,5.57-5.23,5.57-2.84,0-5.03-2.08-5.03-5.4,0-3.51,2.3-5.57,5.21-5.57s5.06,2.19,5.06,5.4Zm-8.33.11c0,2.3,1.32,4.04,3.19,4.04s3.19-1.71,3.19-4.08c0-1.78-.89-4.03-3.14-4.03s-3.23,2.08-3.23,4.08Z"/>
      <path d="m105.59,31.45c0,3.88-2.69,5.57-5.23,5.57-2.84,0-5.03-2.08-5.03-5.4,0-3.51,2.3-5.57,5.21-5.57s5.06,2.19,5.06,5.4Zm-8.33.11c0,2.3,1.32,4.04,3.19,4.04s3.19-1.71,3.19-4.08c0-1.78-.89-4.03-3.14-4.03s-3.23,2.08-3.23,4.08Z"/>
      <path d="m117.51,31.45c0,3.88-2.69,5.57-5.23,5.57-2.84,0-5.03-2.08-5.03-5.4,0-3.51,2.3-5.57,5.21-5.57s5.06,2.19,5.06,5.4Zm-8.33.11c0,2.3,1.32,4.04,3.19,4.04s3.19-1.71,3.19-4.08c0-1.78-.89-4.03-3.14-4.03s-3.23,2.08-3.23,4.08Z"/>
      <path d="m129.43,31.45c0,3.88-2.69,5.57-5.23,5.57-2.84,0-5.03-2.08-5.03-5.4,0-3.51,2.3-5.57,5.21-5.57s5.06,2.19,5.06,5.4Zm-8.33.11c0,2.3,1.32,4.04,3.19,4.04s3.19-1.71,3.19-4.08c0-1.78-.89-4.03-3.14-4.03s-3.23,2.08-3.23,4.08Z"/>
      <path d="m10.26,57.5c0,3.88-2.69,5.57-5.23,5.57-2.84,0-5.03-2.08-5.03-5.4,0-3.51,2.3-5.57,5.21-5.57s5.05,2.19,5.05,5.4Zm-8.33.11c0,2.3,1.32,4.04,3.19,4.04s3.19-1.72,3.19-4.08c0-1.78-.89-4.04-3.15-4.04s-3.23,2.08-3.23,4.08Z"/>
      <path d="m22.18,57.5c0,3.88-2.69,5.57-5.23,5.57-2.84,0-5.03-2.08-5.03-5.4,0-3.51,2.3-5.57,5.21-5.57s5.05,2.19,5.05,5.4Zm-8.33.11c0,2.3,1.32,4.04,3.19,4.04s3.19-1.72,3.19-4.08c0-1.78-.89-4.04-3.15-4.04s-3.23,2.08-3.23,4.08Z"/>
      <path d="m34.09,57.5c0,3.88-2.69,5.57-5.23,5.57-2.84,0-5.03-2.08-5.03-5.4,0-3.51,2.3-5.57,5.21-5.57s5.05,2.19,5.05,5.4Zm-8.33.11c0,2.3,1.32,4.04,3.19,4.04s3.19-1.72,3.19-4.08c0-1.78-.89-4.04-3.15-4.04s-3.23,2.08-3.23,4.08Z"/>
      <path d="m46.01,57.5c0,3.88-2.69,5.57-5.23,5.57-2.84,0-5.03-2.08-5.03-5.4,0-3.51,2.3-5.57,5.21-5.57s5.05,2.19,5.05,5.4Zm-8.33.11c0,2.3,1.32,4.04,3.19,4.04s3.19-1.72,3.19-4.08c0-1.78-.89-4.04-3.15-4.04s-3.23,2.08-3.23,4.08Z"/>
      <path d="m57.93,57.5c0,3.88-2.69,5.57-5.23,5.57-2.84,0-5.03-2.08-5.03-5.4,0-3.51,2.3-5.57,5.21-5.57s5.06,2.19,5.06,5.4Zm-8.33.11c0,2.3,1.32,4.04,3.19,4.04s3.19-1.72,3.19-4.08c0-1.78-.89-4.04-3.14-4.04s-3.23,2.08-3.23,4.08Z"/>
      <path d="m69.84,57.5c0,3.88-2.69,5.57-5.23,5.57-2.84,0-5.03-2.08-5.03-5.4,0-3.51,2.3-5.57,5.21-5.57s5.06,2.19,5.06,5.4Zm-8.33.11c0,2.3,1.32,4.04,3.19,4.04s3.19-1.72,3.19-4.08c0-1.78-.89-4.04-3.14-4.04s-3.23,2.08-3.23,4.08Z"/>
      <path d="m81.76,57.5c0,3.88-2.69,5.57-5.23,5.57-2.84,0-5.03-2.08-5.03-5.4,0-3.51,2.3-5.57,5.21-5.57s5.06,2.19,5.06,5.4Zm-8.33.11c0,2.3,1.32,4.04,3.19,4.04s3.19-1.72,3.19-4.08c0-1.78-.89-4.04-3.14-4.04s-3.23,2.08-3.23,4.08Z"/>
      <path d="m93.68,57.5c0,3.88-2.69,5.57-5.23,5.57-2.84,0-5.03-2.08-5.03-5.4,0-3.51,2.3-5.57,5.21-5.57s5.06,2.19,5.06,5.4Zm-8.33.11c0,2.3,1.32,4.04,3.19,4.04s3.19-1.72,3.19-4.08c0-1.78-.89-4.04-3.14-4.04s-3.23,2.08-3.23,4.08Z"/>
      <path d="m105.59,57.5c0,3.88-2.69,5.57-5.23,5.57-2.84,0-5.03-2.08-5.03-5.4,0-3.51,2.3-5.57,5.21-5.57s5.06,2.19,5.06,5.4Zm-8.33.11c0,2.3,1.32,4.04,3.19,4.04s3.19-1.72,3.19-4.08c0-1.78-.89-4.04-3.14-4.04s-3.23,2.08-3.23,4.08Z"/>
      <path d="m117.51,57.5c0,3.88-2.69,5.57-5.23,5.57-2.84,0-5.03-2.08-5.03-5.4,0-3.51,2.3-5.57,5.21-5.57s5.06,2.19,5.06,5.4Zm-8.33.11c0,2.3,1.32,4.04,3.19,4.04s3.19-1.72,3.19-4.08c0-1.78-.89-4.04-3.14-4.04s-3.23,2.08-3.23,4.08Z"/>
      <path d="m10.26,83.54c0,3.88-2.69,5.57-5.23,5.57-2.84,0-5.03-2.08-5.03-5.4,0-3.52,2.3-5.57,5.21-5.57s5.05,2.19,5.05,5.4Zm-8.33.11c0,2.3,1.32,4.04,3.19,4.04s3.19-1.72,3.19-4.08c0-1.78-.89-4.04-3.15-4.04s-3.23,2.08-3.23,4.08Z"/>
      <path d="m22.18,83.54c0,3.88-2.69,5.57-5.23,5.57-2.84,0-5.03-2.08-5.03-5.4,0-3.52,2.3-5.57,5.21-5.57s5.05,2.19,5.05,5.4Zm-8.33.11c0,2.3,1.32,4.04,3.19,4.04s3.19-1.72,3.19-4.08c0-1.78-.89-4.04-3.15-4.04s-3.23,2.08-3.23,4.08Z"/>
      <path d="m34.09,83.54c0,3.88-2.69,5.57-5.23,5.57-2.84,0-5.03-2.08-5.03-5.4,0-3.52,2.3-5.57,5.21-5.57s5.05,2.19,5.05,5.4Zm-8.33.11c0,2.3,1.32,4.04,3.19,4.04s3.19-1.72,3.19-4.08c0-1.78-.89-4.04-3.15-4.04s-3.23,2.08-3.23,4.08Z"/>
      <path d="m46.01,83.54c0,3.88-2.69,5.57-5.23,5.57-2.84,0-5.03-2.08-5.03-5.4,0-3.52,2.3-5.57,5.21-5.57s5.05,2.19,5.05,5.4Zm-8.33.11c0,2.3,1.32,4.04,3.19,4.04s3.19-1.72,3.19-4.08c0-1.78-.89-4.04-3.15-4.04s-3.23,2.08-3.23,4.08Z"/>
      <path d="m57.93,83.54c0,3.88-2.69,5.57-5.23,5.57-2.84,0-5.03-2.08-5.03-5.4,0-3.52,2.3-5.57,5.21-5.57s5.06,2.19,5.06,5.4Zm-8.33.11c0,2.3,1.32,4.04,3.19,4.04s3.19-1.72,3.19-4.08c0-1.78-.89-4.04-3.14-4.04s-3.23,2.08-3.23,4.08Z"/>
      <path d="m69.84,83.54c0,3.88-2.69,5.57-5.23,5.57-2.84,0-5.03-2.08-5.03-5.4,0-3.52,2.3-5.57,5.21-5.57s5.06,2.19,5.06,5.4Zm-8.33.11c0,2.3,1.32,4.04,3.19,4.04s3.19-1.72,3.19-4.08c0-1.78-.89-4.04-3.14-4.04s-3.23,2.08-3.23,4.08Z"/>
      <path d="m81.76,83.54c0,3.88-2.69,5.57-5.23,5.57-2.84,0-5.03-2.08-5.03-5.4,0-3.52,2.3-5.57,5.21-5.57s5.06,2.19,5.06,5.4Zm-8.33.11c0,2.3,1.32,4.04,3.19,4.04s3.19-1.72,3.19-4.08c0-1.78-.89-4.04-3.14-4.04s-3.23,2.08-3.23,4.08Z"/>
      <path d="m93.68,83.54c0,3.88-2.69,5.57-5.23,5.57-2.84,0-5.03-2.08-5.03-5.4,0-3.52,2.3-5.57,5.21-5.57s5.06,2.19,5.06,5.4Zm-8.33.11c0,2.3,1.32,4.04,3.19,4.04s3.19-1.72,3.19-4.08c0-1.78-.89-4.04-3.14-4.04s-3.23,2.08-3.23,4.08Z"/>
      <path d="m105.59,83.54c0,3.88-2.69,5.57-5.23,5.57-2.84,0-5.03-2.08-5.03-5.4,0-3.52,2.3-5.57,5.21-5.57s5.06,2.19,5.06,5.4Zm-8.33.11c0,2.3,1.32,4.04,3.19,4.04s3.19-1.72,3.19-4.08c0-1.78-.89-4.04-3.14-4.04s-3.23,2.08-3.23,4.08Z"/>
      <path d="m10.26,109.59c0,3.88-2.69,5.57-5.23,5.57-2.84,0-5.03-2.08-5.03-5.4,0-3.52,2.3-5.57,5.21-5.57s5.05,2.19,5.05,5.4Zm-8.33.11c0,2.3,1.32,4.04,3.19,4.04s3.19-1.72,3.19-4.08c0-1.78-.89-4.04-3.15-4.04s-3.23,2.08-3.23,4.08Z"/>
      <path d="m22.18,109.59c0,3.88-2.69,5.57-5.23,5.57-2.84,0-5.03-2.08-5.03-5.4,0-3.52,2.3-5.57,5.21-5.57s5.05,2.19,5.05,5.4Zm-8.33.11c0,2.3,1.32,4.04,3.19,4.04s3.19-1.72,3.19-4.08c0-1.78-.89-4.04-3.15-4.04s-3.23,2.08-3.23,4.08Z"/>
      <path d="m34.09,109.59c0,3.88-2.69,5.57-5.23,5.57-2.84,0-5.03-2.08-5.03-5.4,0-3.52,2.3-5.57,5.21-5.57s5.05,2.19,5.05,5.4Zm-8.33.11c0,2.3,1.32,4.04,3.19,4.04s3.19-1.72,3.19-4.08c0-1.78-.89-4.04-3.15-4.04s-3.23,2.08-3.23,4.08Z"/>
      <path d="m46.01,109.59c0,3.88-2.69,5.57-5.23,5.57-2.84,0-5.03-2.08-5.03-5.4,0-3.52,2.3-5.57,5.21-5.57s5.05,2.19,5.05,5.4Zm-8.33.11c0,2.3,1.32,4.04,3.19,4.04s3.19-1.72,3.19-4.08c0-1.78-.89-4.04-3.15-4.04s-3.23,2.08-3.23,4.08Z"/>
      <path d="m57.93,109.59c0,3.88-2.69,5.57-5.23,5.57-2.84,0-5.03-2.08-5.03-5.4,0-3.52,2.3-5.57,5.21-5.57s5.06,2.19,5.06,5.4Zm-8.33.11c0,2.3,1.32,4.04,3.19,4.04s3.19-1.72,3.19-4.08c0-1.78-.89-4.04-3.14-4.04s-3.23,2.08-3.23,4.08Z"/>
      <path d="m69.84,109.59c0,3.88-2.69,5.57-5.23,5.57-2.84,0-5.03-2.08-5.03-5.4,0-3.52,2.3-5.57,5.21-5.57s5.06,2.19,5.06,5.4Zm-8.33.11c0,2.3,1.32,4.04,3.19,4.04s3.19-1.72,3.19-4.08c0-1.78-.89-4.04-3.14-4.04s-3.23,2.08-3.23,4.08Z"/>
      <path d="m81.76,109.59c0,3.88-2.69,5.57-5.23,5.57-2.84,0-5.03-2.08-5.03-5.4,0-3.52,2.3-5.57,5.21-5.57s5.06,2.19,5.06,5.4Zm-8.33.11c0,2.3,1.32,4.04,3.19,4.04s3.19-1.72,3.19-4.08c0-1.78-.89-4.04-3.14-4.04s-3.23,2.08-3.23,4.08Z"/>
      <path d="m93.68,109.59c0,3.88-2.69,5.57-5.23,5.57-2.84,0-5.03-2.08-5.03-5.4,0-3.52,2.3-5.57,5.21-5.57s5.06,2.19,5.06,5.4Zm-8.33.11c0,2.3,1.32,4.04,3.19,4.04s3.19-1.72,3.19-4.08c0-1.78-.89-4.04-3.14-4.04s-3.23,2.08-3.23,4.08Z"/>
      <path d="m1.52,139.84c0-.8.52-1.37,1.28-1.37s1.28.56,1.28,1.37-.5,1.37-1.28,1.37-1.3-.58-1.28-1.37Zm7.22,0c0-.8.54-1.37,1.3-1.37s1.26.56,1.28,1.37c0,.78-.52,1.37-1.3,1.37s-1.3-.58-1.28-1.37Zm7.22,0c0-.8.54-1.37,1.3-1.37s1.28.56,1.28,1.37-.5,1.37-1.3,1.37c-.76,0-1.28-.58-1.28-1.37Z"/>
      <path d="m10.26,161.68c0,3.88-2.69,5.57-5.23,5.57-2.84,0-5.03-2.08-5.03-5.4,0-3.51,2.3-5.57,5.21-5.57s5.05,2.19,5.05,5.4Zm-8.33.11c0,2.3,1.32,4.04,3.19,4.04s3.19-1.72,3.19-4.08c0-1.78-.89-4.04-3.15-4.04s-3.23,2.08-3.23,4.08Z"/>
      <path d="m22.18,161.68c0,3.88-2.69,5.57-5.23,5.57-2.84,0-5.03-2.08-5.03-5.4,0-3.51,2.3-5.57,5.21-5.57s5.05,2.19,5.05,5.4Zm-8.33.11c0,2.3,1.32,4.04,3.19,4.04s3.19-1.72,3.19-4.08c0-1.78-.89-4.04-3.15-4.04s-3.23,2.08-3.23,4.08Z"/>
      <path d="m10.26,187.73c0,3.88-2.69,5.57-5.23,5.57-2.84,0-5.03-2.08-5.03-5.4,0-3.51,2.3-5.57,5.21-5.57s5.05,2.19,5.05,5.4Zm-8.33.11c0,2.3,1.32,4.04,3.19,4.04s3.19-1.72,3.19-4.08c0-1.78-.89-4.04-3.15-4.04s-3.23,2.08-3.23,4.08Z"/>
    </g>
  </g>
</svg>