<?xml version="1.0" encoding="UTF-8"?>
<svg id="b" data-name="Слой 2" xmlns="http://www.w3.org/2000/svg" width="141.78" height="193.9" viewBox="0 0 141.78 193.9">
  <g id="c" data-name="Слой 1">
    <g id="d" data-name="3.2">
      <path d="m10.29,5.42c0,3.89-2.7,5.59-5.24,5.59-2.85,0-5.05-2.09-5.05-5.42C0,2.07,2.31,0,5.22,0s5.07,2.2,5.07,5.42Zm-8.36.11c0,2.31,1.33,4.05,3.2,4.05s3.2-1.72,3.2-4.09c0-1.78-.89-4.05-3.16-4.05S1.94,3.53,1.94,5.53Z"/>
      <path d="m22.25,5.42c0,3.89-2.7,5.59-5.24,5.59-2.85,0-5.05-2.09-5.05-5.42,0-3.53,2.31-5.59,5.22-5.59s5.07,2.2,5.07,5.42Zm-8.36.11c0,2.31,1.33,4.05,3.2,4.05s3.2-1.72,3.2-4.09c0-1.78-.89-4.05-3.16-4.05s-3.24,2.09-3.24,4.09Z"/>
      <path d="m34.2,5.42c0,3.89-2.7,5.59-5.24,5.59-2.85,0-5.05-2.09-5.05-5.42,0-3.53,2.31-5.59,5.22-5.59s5.07,2.2,5.07,5.42Zm-8.36.11c0,2.31,1.33,4.05,3.2,4.05s3.2-1.72,3.2-4.09c0-1.78-.89-4.05-3.16-4.05s-3.24,2.09-3.24,4.09Z"/>
      <path d="m46.15,5.42c0,3.89-2.7,5.59-5.24,5.59-2.85,0-5.05-2.09-5.05-5.42,0-3.53,2.31-5.59,5.22-5.59s5.07,2.2,5.07,5.42Zm-8.36.11c0,2.31,1.33,4.05,3.2,4.05s3.2-1.72,3.2-4.09c0-1.78-.89-4.05-3.16-4.05s-3.24,2.09-3.24,4.09Z"/>
      <path d="m58.11,5.42c0,3.89-2.7,5.59-5.24,5.59-2.85,0-5.05-2.09-5.05-5.42,0-3.53,2.31-5.59,5.22-5.59s5.07,2.2,5.07,5.42Zm-8.36.11c0,2.31,1.33,4.05,3.2,4.05s3.2-1.72,3.2-4.09c0-1.78-.89-4.05-3.16-4.05s-3.24,2.09-3.24,4.09Z"/>
      <path d="m70.06,5.42c0,3.89-2.7,5.59-5.24,5.59-2.85,0-5.05-2.09-5.05-5.42,0-3.53,2.31-5.59,5.22-5.59s5.07,2.2,5.07,5.42Zm-8.36.11c0,2.31,1.33,4.05,3.2,4.05s3.2-1.72,3.2-4.09c0-1.78-.89-4.05-3.16-4.05s-3.24,2.09-3.24,4.09Z"/>
      <path d="m82.01,5.42c0,3.89-2.7,5.59-5.24,5.59-2.85,0-5.05-2.09-5.05-5.42,0-3.53,2.31-5.59,5.22-5.59s5.07,2.2,5.07,5.42Zm-8.36.11c0,2.31,1.33,4.05,3.2,4.05s3.2-1.72,3.2-4.09c0-1.78-.89-4.05-3.16-4.05s-3.24,2.09-3.24,4.09Z"/>
      <path d="m93.96,5.42c0,3.89-2.7,5.59-5.24,5.59-2.85,0-5.05-2.09-5.05-5.42,0-3.53,2.31-5.59,5.22-5.59s5.07,2.2,5.07,5.42Zm-8.36.11c0,2.31,1.33,4.05,3.2,4.05s3.2-1.72,3.2-4.09c0-1.78-.89-4.05-3.16-4.05s-3.24,2.09-3.24,4.09Z"/>
      <path d="m105.92,5.42c0,3.89-2.7,5.59-5.24,5.59-2.85,0-5.05-2.09-5.05-5.42,0-3.53,2.31-5.59,5.22-5.59s5.07,2.2,5.07,5.42Zm-8.36.11c0,2.31,1.33,4.05,3.2,4.05s3.2-1.72,3.2-4.09c0-1.78-.89-4.05-3.16-4.05s-3.24,2.09-3.24,4.09Z"/>
      <path d="m117.87,5.42c0,3.89-2.7,5.59-5.24,5.59-2.85,0-5.05-2.09-5.05-5.42,0-3.53,2.31-5.59,5.22-5.59s5.07,2.2,5.07,5.42Zm-8.36.11c0,2.31,1.33,4.05,3.2,4.05s3.2-1.72,3.2-4.09c0-1.78-.89-4.05-3.16-4.05s-3.24,2.09-3.24,4.09Z"/>
      <path d="m129.82,5.42c0,3.89-2.7,5.59-5.24,5.59-2.85,0-5.05-2.09-5.05-5.42,0-3.53,2.31-5.59,5.22-5.59s5.07,2.2,5.07,5.42Zm-8.36.11c0,2.31,1.33,4.05,3.2,4.05s3.2-1.72,3.2-4.09c0-1.78-.89-4.05-3.16-4.05s-3.24,2.09-3.24,4.09Z"/>
      <path d="m141.78,5.42c0,3.89-2.7,5.59-5.24,5.59-2.85,0-5.05-2.09-5.05-5.42,0-3.53,2.31-5.59,5.22-5.59s5.07,2.2,5.07,5.42Zm-8.36.11c0,2.31,1.33,4.05,3.2,4.05s3.2-1.72,3.2-4.09c0-1.78-.89-4.05-3.15-4.05s-3.24,2.09-3.24,4.09Z"/>
      <path d="m14.91,31.55c0,3.89-2.7,5.59-5.24,5.59-2.85,0-5.05-2.09-5.05-5.42,0-3.53,2.31-5.59,5.22-5.59s5.07,2.2,5.07,5.42Zm-8.36.11c0,2.31,1.33,4.05,3.2,4.05s3.2-1.72,3.2-4.09c0-1.78-.89-4.05-3.16-4.05s-3.24,2.09-3.24,4.09Z"/>
      <path d="m26.86,31.55c0,3.89-2.7,5.59-5.24,5.59-2.85,0-5.05-2.09-5.05-5.42,0-3.53,2.31-5.59,5.22-5.59s5.07,2.2,5.07,5.42Zm-8.36.11c0,2.31,1.33,4.05,3.2,4.05s3.2-1.72,3.2-4.09c0-1.78-.89-4.05-3.16-4.05s-3.24,2.09-3.24,4.09Z"/>
      <path d="m38.81,31.55c0,3.89-2.7,5.59-5.24,5.59-2.85,0-5.05-2.09-5.05-5.42,0-3.53,2.31-5.59,5.22-5.59s5.07,2.2,5.07,5.42Zm-8.36.11c0,2.31,1.33,4.05,3.2,4.05s3.2-1.72,3.2-4.09c0-1.78-.89-4.05-3.16-4.05s-3.24,2.09-3.24,4.09Z"/>
      <path d="m50.77,31.55c0,3.89-2.7,5.59-5.24,5.59-2.85,0-5.05-2.09-5.05-5.42,0-3.53,2.31-5.59,5.22-5.59s5.07,2.2,5.07,5.42Zm-8.36.11c0,2.31,1.33,4.05,3.2,4.05s3.2-1.72,3.2-4.09c0-1.78-.89-4.05-3.16-4.05s-3.24,2.09-3.24,4.09Z"/>
      <path d="m62.72,31.55c0,3.89-2.7,5.59-5.24,5.59-2.85,0-5.05-2.09-5.05-5.42,0-3.53,2.31-5.59,5.22-5.59s5.07,2.2,5.07,5.42Zm-8.36.11c0,2.31,1.33,4.05,3.2,4.05s3.2-1.72,3.2-4.09c0-1.78-.89-4.05-3.16-4.05s-3.24,2.09-3.24,4.09Z"/>
      <path d="m74.67,31.55c0,3.89-2.7,5.59-5.24,5.59-2.85,0-5.05-2.09-5.05-5.42,0-3.53,2.31-5.59,5.22-5.59s5.07,2.2,5.07,5.42Zm-8.36.11c0,2.31,1.33,4.05,3.2,4.05s3.2-1.72,3.2-4.09c0-1.78-.89-4.05-3.16-4.05s-3.24,2.09-3.24,4.09Z"/>
      <path d="m86.63,31.55c0,3.89-2.7,5.59-5.24,5.59-2.85,0-5.05-2.09-5.05-5.42,0-3.53,2.31-5.59,5.22-5.59s5.07,2.2,5.07,5.42Zm-8.36.11c0,2.31,1.33,4.05,3.2,4.05s3.2-1.72,3.2-4.09c0-1.78-.89-4.05-3.16-4.05s-3.24,2.09-3.24,4.09Z"/>
      <path d="m98.58,31.55c0,3.89-2.7,5.59-5.24,5.59-2.85,0-5.05-2.09-5.05-5.42,0-3.53,2.31-5.59,5.22-5.59s5.07,2.2,5.07,5.42Zm-8.36.11c0,2.31,1.33,4.05,3.2,4.05s3.2-1.72,3.2-4.09c0-1.78-.89-4.05-3.16-4.05s-3.24,2.09-3.24,4.09Z"/>
      <path d="m110.53,31.55c0,3.89-2.7,5.59-5.24,5.59-2.85,0-5.05-2.09-5.05-5.42,0-3.53,2.31-5.59,5.22-5.59s5.07,2.2,5.07,5.42Zm-8.36.11c0,2.31,1.33,4.05,3.2,4.05s3.2-1.72,3.2-4.09c0-1.78-.89-4.05-3.16-4.05s-3.24,2.09-3.24,4.09Z"/>
      <path d="m122.49,31.55c0,3.89-2.7,5.59-5.24,5.59-2.85,0-5.05-2.09-5.05-5.42,0-3.53,2.31-5.59,5.22-5.59s5.07,2.2,5.07,5.42Zm-8.36.11c0,2.31,1.33,4.05,3.2,4.05s3.2-1.72,3.2-4.09c0-1.78-.89-4.05-3.16-4.05s-3.24,2.09-3.24,4.09Z"/>
      <path d="m134.44,31.55c0,3.89-2.7,5.59-5.24,5.59-2.85,0-5.05-2.09-5.05-5.42,0-3.53,2.31-5.59,5.22-5.59s5.07,2.2,5.07,5.42Zm-8.36.11c0,2.31,1.33,4.05,3.2,4.05s3.2-1.72,3.2-4.09c0-1.78-.89-4.05-3.15-4.05s-3.24,2.09-3.24,4.09Z"/>
      <path d="m19.52,57.67c0,3.89-2.7,5.59-5.24,5.59-2.85,0-5.05-2.09-5.05-5.42,0-3.53,2.31-5.59,5.22-5.59s5.07,2.2,5.07,5.42Zm-8.36.11c0,2.31,1.33,4.05,3.2,4.05s3.2-1.72,3.2-4.09c0-1.78-.89-4.05-3.16-4.05s-3.24,2.09-3.24,4.09Z"/>
      <path d="m31.48,57.67c0,3.89-2.7,5.59-5.24,5.59-2.85,0-5.05-2.09-5.05-5.42,0-3.53,2.31-5.59,5.22-5.59s5.07,2.2,5.07,5.42Zm-8.36.11c0,2.31,1.33,4.05,3.2,4.05s3.2-1.72,3.2-4.09c0-1.78-.89-4.05-3.16-4.05s-3.24,2.09-3.24,4.09Z"/>
      <path d="m43.43,57.67c0,3.89-2.7,5.59-5.24,5.59-2.85,0-5.05-2.09-5.05-5.42,0-3.53,2.31-5.59,5.22-5.59s5.07,2.2,5.07,5.42Zm-8.36.11c0,2.31,1.33,4.05,3.2,4.05s3.2-1.72,3.2-4.09c0-1.78-.89-4.05-3.16-4.05s-3.24,2.09-3.24,4.09Z"/>
      <path d="m55.38,57.67c0,3.89-2.7,5.59-5.24,5.59-2.85,0-5.05-2.09-5.05-5.42,0-3.53,2.31-5.59,5.22-5.59s5.07,2.2,5.07,5.42Zm-8.36.11c0,2.31,1.33,4.05,3.2,4.05s3.2-1.72,3.2-4.09c0-1.78-.89-4.05-3.16-4.05s-3.24,2.09-3.24,4.09Z"/>
      <path d="m67.34,57.67c0,3.89-2.7,5.59-5.24,5.59-2.85,0-5.05-2.09-5.05-5.42,0-3.53,2.31-5.59,5.22-5.59s5.07,2.2,5.07,5.42Zm-8.36.11c0,2.31,1.33,4.05,3.2,4.05s3.2-1.72,3.2-4.09c0-1.78-.89-4.05-3.16-4.05s-3.24,2.09-3.24,4.09Z"/>
      <path d="m79.29,57.67c0,3.89-2.7,5.59-5.24,5.59-2.85,0-5.05-2.09-5.05-5.42,0-3.53,2.31-5.59,5.22-5.59s5.07,2.2,5.07,5.42Zm-8.36.11c0,2.31,1.33,4.05,3.2,4.05s3.2-1.72,3.2-4.09c0-1.78-.89-4.05-3.16-4.05s-3.24,2.09-3.24,4.09Z"/>
      <path d="m91.24,57.67c0,3.89-2.7,5.59-5.24,5.59-2.85,0-5.05-2.09-5.05-5.42,0-3.53,2.31-5.59,5.22-5.59s5.07,2.2,5.07,5.42Zm-8.36.11c0,2.31,1.33,4.05,3.2,4.05s3.2-1.72,3.2-4.09c0-1.78-.89-4.05-3.16-4.05s-3.24,2.09-3.24,4.09Z"/>
      <path d="m103.2,57.67c0,3.89-2.7,5.59-5.24,5.59-2.85,0-5.05-2.09-5.05-5.42,0-3.53,2.31-5.59,5.22-5.59s5.07,2.2,5.07,5.42Zm-8.36.11c0,2.31,1.33,4.05,3.2,4.05s3.2-1.72,3.2-4.09c0-1.78-.89-4.05-3.16-4.05s-3.24,2.09-3.24,4.09Z"/>
      <path d="m115.15,57.67c0,3.89-2.7,5.59-5.24,5.59-2.85,0-5.05-2.09-5.05-5.42,0-3.53,2.31-5.59,5.22-5.59s5.07,2.2,5.07,5.42Zm-8.36.11c0,2.31,1.33,4.05,3.2,4.05s3.2-1.72,3.2-4.09c0-1.78-.89-4.05-3.16-4.05s-3.24,2.09-3.24,4.09Z"/>
      <path d="m127.1,57.67c0,3.89-2.7,5.59-5.24,5.59-2.85,0-5.05-2.09-5.05-5.42,0-3.53,2.31-5.59,5.22-5.59s5.07,2.2,5.07,5.42Zm-8.36.11c0,2.31,1.33,4.05,3.2,4.05s3.2-1.72,3.2-4.09c0-1.78-.89-4.05-3.16-4.05s-3.24,2.09-3.24,4.09Z"/>
      <path d="m24.14,83.8c0,3.89-2.7,5.59-5.24,5.59-2.85,0-5.05-2.09-5.05-5.42,0-3.53,2.31-5.59,5.22-5.59s5.07,2.2,5.07,5.42Zm-8.36.11c0,2.31,1.33,4.05,3.2,4.05s3.2-1.72,3.2-4.09c0-1.78-.89-4.05-3.16-4.05s-3.24,2.09-3.24,4.09Z"/>
      <path d="m36.09,83.8c0,3.89-2.7,5.59-5.24,5.59-2.85,0-5.05-2.09-5.05-5.42,0-3.53,2.31-5.59,5.22-5.59s5.07,2.2,5.07,5.42Zm-8.36.11c0,2.31,1.33,4.05,3.2,4.05s3.2-1.72,3.2-4.09c0-1.78-.89-4.05-3.16-4.05s-3.24,2.09-3.24,4.09Z"/>
      <path d="m48.05,83.8c0,3.89-2.7,5.59-5.24,5.59-2.85,0-5.05-2.09-5.05-5.42,0-3.53,2.31-5.59,5.22-5.59s5.07,2.2,5.07,5.42Zm-8.36.11c0,2.31,1.33,4.05,3.2,4.05s3.2-1.72,3.2-4.09c0-1.78-.89-4.05-3.16-4.05s-3.24,2.09-3.24,4.09Z"/>
      <path d="m60,83.8c0,3.89-2.7,5.59-5.24,5.59-2.85,0-5.05-2.09-5.05-5.42,0-3.53,2.31-5.59,5.22-5.59s5.07,2.2,5.07,5.42Zm-8.36.11c0,2.31,1.33,4.05,3.2,4.05s3.2-1.72,3.2-4.09c0-1.78-.89-4.05-3.16-4.05s-3.24,2.09-3.24,4.09Z"/>
      <path d="m71.95,83.8c0,3.89-2.7,5.59-5.24,5.59-2.85,0-5.05-2.09-5.05-5.42,0-3.53,2.31-5.59,5.22-5.59s5.07,2.2,5.07,5.42Zm-8.36.11c0,2.31,1.33,4.05,3.2,4.05s3.2-1.72,3.2-4.09c0-1.78-.89-4.05-3.16-4.05s-3.24,2.09-3.24,4.09Z"/>
      <path d="m83.91,83.8c0,3.89-2.7,5.59-5.24,5.59-2.85,0-5.05-2.09-5.05-5.42,0-3.53,2.31-5.59,5.22-5.59s5.07,2.2,5.07,5.42Zm-8.36.11c0,2.31,1.33,4.05,3.2,4.05s3.2-1.72,3.2-4.09c0-1.78-.89-4.05-3.16-4.05s-3.24,2.09-3.24,4.09Z"/>
      <path d="m95.86,83.8c0,3.89-2.7,5.59-5.24,5.59-2.85,0-5.05-2.09-5.05-5.42,0-3.53,2.31-5.59,5.22-5.59s5.07,2.2,5.07,5.42Zm-8.36.11c0,2.31,1.33,4.05,3.2,4.05s3.2-1.72,3.2-4.09c0-1.78-.89-4.05-3.16-4.05s-3.24,2.09-3.24,4.09Z"/>
      <path d="m107.81,83.8c0,3.89-2.7,5.59-5.24,5.59-2.85,0-5.05-2.09-5.05-5.42,0-3.53,2.31-5.59,5.22-5.59s5.07,2.2,5.07,5.42Zm-8.36.11c0,2.31,1.33,4.05,3.2,4.05s3.2-1.72,3.2-4.09c0-1.78-.89-4.05-3.16-4.05s-3.24,2.09-3.24,4.09Z"/>
      <path d="m119.77,83.8c0,3.89-2.7,5.59-5.24,5.59-2.85,0-5.05-2.09-5.05-5.42,0-3.53,2.31-5.59,5.22-5.59s5.07,2.2,5.07,5.42Zm-8.36.11c0,2.31,1.33,4.05,3.2,4.05s3.2-1.72,3.2-4.09c0-1.78-.89-4.05-3.16-4.05s-3.24,2.09-3.24,4.09Z"/>
      <path d="m28.75,109.93c0,3.89-2.7,5.59-5.24,5.59-2.85,0-5.05-2.09-5.05-5.42,0-3.53,2.31-5.59,5.22-5.59s5.07,2.2,5.07,5.42Zm-8.36.11c0,2.31,1.33,4.05,3.2,4.05s3.2-1.72,3.2-4.09c0-1.78-.89-4.05-3.16-4.05s-3.24,2.09-3.24,4.09Z"/>
      <path d="m40.71,109.93c0,3.89-2.7,5.59-5.24,5.59-2.85,0-5.05-2.09-5.05-5.42,0-3.53,2.31-5.59,5.22-5.59s5.07,2.2,5.07,5.42Zm-8.36.11c0,2.31,1.33,4.05,3.2,4.05s3.2-1.72,3.2-4.09c0-1.78-.89-4.05-3.16-4.05s-3.24,2.09-3.24,4.09Z"/>
      <path d="m52.66,109.93c0,3.89-2.7,5.59-5.24,5.59-2.85,0-5.05-2.09-5.05-5.42,0-3.53,2.31-5.59,5.22-5.59s5.07,2.2,5.07,5.42Zm-8.36.11c0,2.31,1.33,4.05,3.2,4.05s3.2-1.72,3.2-4.09c0-1.78-.89-4.05-3.16-4.05s-3.24,2.09-3.24,4.09Z"/>
      <path d="m64.61,109.93c0,3.89-2.7,5.59-5.24,5.59-2.85,0-5.05-2.09-5.05-5.42,0-3.53,2.31-5.59,5.22-5.59s5.07,2.2,5.07,5.42Zm-8.36.11c0,2.31,1.33,4.05,3.2,4.05s3.2-1.72,3.2-4.09c0-1.78-.89-4.05-3.16-4.05s-3.24,2.09-3.24,4.09Z"/>
      <path d="m76.57,109.93c0,3.89-2.7,5.59-5.24,5.59-2.85,0-5.05-2.09-5.05-5.42,0-3.53,2.31-5.59,5.22-5.59s5.07,2.2,5.07,5.42Zm-8.36.11c0,2.31,1.33,4.05,3.2,4.05s3.2-1.72,3.2-4.09c0-1.78-.89-4.05-3.16-4.05s-3.24,2.09-3.24,4.09Z"/>
      <path d="m88.52,109.93c0,3.89-2.7,5.59-5.24,5.59-2.85,0-5.05-2.09-5.05-5.42,0-3.53,2.31-5.59,5.22-5.59s5.07,2.2,5.07,5.42Zm-8.36.11c0,2.31,1.33,4.05,3.2,4.05s3.2-1.72,3.2-4.09c0-1.78-.89-4.05-3.16-4.05s-3.24,2.09-3.24,4.09Z"/>
      <path d="m100.47,109.93c0,3.89-2.7,5.59-5.24,5.59-2.85,0-5.05-2.09-5.05-5.42,0-3.53,2.31-5.59,5.22-5.59s5.07,2.2,5.07,5.42Zm-8.36.11c0,2.31,1.33,4.05,3.2,4.05s3.2-1.72,3.2-4.09c0-1.78-.89-4.05-3.16-4.05s-3.24,2.09-3.24,4.09Z"/>
      <path d="m112.43,109.93c0,3.89-2.7,5.59-5.24,5.59-2.85,0-5.05-2.09-5.05-5.42,0-3.53,2.31-5.59,5.22-5.59s5.07,2.2,5.07,5.42Zm-8.36.11c0,2.31,1.33,4.05,3.2,4.05s3.2-1.72,3.2-4.09c0-1.78-.89-4.05-3.16-4.05s-3.24,2.09-3.24,4.09Z"/>
      <path d="m58.45,140.27c0-.8.52-1.37,1.28-1.37s1.28.57,1.28,1.37-.5,1.37-1.28,1.37-1.31-.59-1.28-1.37Zm7.25,0c0-.8.54-1.37,1.31-1.37s1.26.57,1.28,1.37c0,.78-.52,1.37-1.31,1.37s-1.3-.59-1.28-1.37Zm7.25,0c0-.8.54-1.37,1.31-1.37s1.28.57,1.28,1.37-.5,1.37-1.3,1.37c-.76,0-1.28-.59-1.28-1.37Z"/>
      <path d="m65.45,162.18c0,3.89-2.7,5.59-5.24,5.59-2.85,0-5.05-2.09-5.05-5.42,0-3.52,2.31-5.59,5.22-5.59s5.07,2.2,5.07,5.42Zm-8.36.11c0,2.31,1.33,4.05,3.2,4.05s3.2-1.72,3.2-4.09c0-1.78-.89-4.05-3.16-4.05s-3.24,2.09-3.24,4.09Z"/>
      <path d="m77.4,162.18c0,3.89-2.7,5.59-5.24,5.59-2.85,0-5.05-2.09-5.05-5.42,0-3.52,2.31-5.59,5.22-5.59s5.07,2.2,5.07,5.42Zm-8.36.11c0,2.31,1.33,4.05,3.2,4.05s3.2-1.72,3.2-4.09c0-1.78-.89-4.05-3.16-4.05s-3.24,2.09-3.24,4.09Z"/>
      <path d="m72.06,188.31c0,3.89-2.7,5.59-5.24,5.59-2.85,0-5.05-2.09-5.05-5.42,0-3.52,2.31-5.59,5.22-5.59s5.07,2.2,5.07,5.42Zm-8.36.11c0,2.31,1.33,4.05,3.2,4.05s3.2-1.72,3.2-4.09c0-1.78-.89-4.05-3.16-4.05s-3.24,2.09-3.24,4.09Z"/>
    </g>
  </g>
</svg>