<?xml version="1.0" encoding="UTF-8"?>
<svg id="b" data-name="Слой 2" xmlns="http://www.w3.org/2000/svg" width="92" height="188.21" viewBox="0 0 92 188.21">
  <g id="c" data-name="Слой 1">
    <g id="d" data-name="2.1">
      <path d="m11.55,6.08c0,4.37-3.03,6.28-5.88,6.28-3.2,0-5.67-2.34-5.67-6.08C0,2.32,2.59,0,5.86,0s5.69,2.47,5.69,6.08Zm-9.38.12c0,2.59,1.49,4.54,3.59,4.54s3.59-1.93,3.59-4.59c0-2-1-4.54-3.54-4.54s-3.64,2.34-3.64,4.59Z"/>
      <path d="m11.55,35.39c0,4.37-3.03,6.28-5.88,6.28-3.2,0-5.67-2.34-5.67-6.08,0-3.96,2.59-6.28,5.86-6.28s5.69,2.47,5.69,6.08Zm-9.38.12c0,2.59,1.49,4.54,3.59,4.54s3.59-1.93,3.59-4.59c0-2-1-4.54-3.54-4.54s-3.64,2.34-3.64,4.59Z"/>
      <path d="m24.96,35.39c0,4.37-3.03,6.28-5.88,6.28-3.2,0-5.67-2.34-5.67-6.08,0-3.96,2.59-6.28,5.86-6.28s5.69,2.47,5.69,6.08Zm-9.38.12c0,2.59,1.49,4.54,3.59,4.54s3.59-1.93,3.59-4.59c0-2-1-4.54-3.54-4.54s-3.64,2.34-3.64,4.59Z"/>
      <path d="m11.55,64.7c0,4.37-3.03,6.28-5.88,6.28-3.2,0-5.67-2.34-5.67-6.08,0-3.96,2.59-6.28,5.86-6.28s5.69,2.47,5.69,6.08Zm-9.38.12c0,2.59,1.49,4.54,3.59,4.54s3.59-1.93,3.59-4.59c0-2-1-4.54-3.54-4.54s-3.64,2.34-3.64,4.59Z"/>
      <path d="m24.96,64.7c0,4.37-3.03,6.28-5.88,6.28-3.2,0-5.67-2.34-5.67-6.08,0-3.96,2.59-6.28,5.86-6.28s5.69,2.47,5.69,6.08Zm-9.38.12c0,2.59,1.49,4.54,3.59,4.54s3.59-1.93,3.59-4.59c0-2-1-4.54-3.54-4.54s-3.64,2.34-3.64,4.59Z"/>
      <path d="m38.37,64.7c0,4.37-3.03,6.28-5.88,6.28-3.2,0-5.67-2.34-5.67-6.08,0-3.96,2.59-6.28,5.86-6.28s5.69,2.47,5.69,6.08Zm-9.38.12c0,2.59,1.49,4.54,3.59,4.54s3.59-1.93,3.59-4.59c0-2-1-4.54-3.54-4.54s-3.64,2.34-3.64,4.59Z"/>
      <path d="m11.55,94.01c0,4.37-3.03,6.28-5.88,6.28-3.2,0-5.67-2.34-5.67-6.08,0-3.96,2.59-6.28,5.86-6.28s5.69,2.47,5.69,6.08Zm-9.38.12c0,2.59,1.49,4.54,3.59,4.54s3.59-1.93,3.59-4.59c0-2-1-4.54-3.54-4.54s-3.64,2.34-3.64,4.59Z"/>
      <path d="m24.96,94.01c0,4.37-3.03,6.28-5.88,6.28-3.2,0-5.67-2.34-5.67-6.08,0-3.96,2.59-6.28,5.86-6.28s5.69,2.47,5.69,6.08Zm-9.38.12c0,2.59,1.49,4.54,3.59,4.54s3.59-1.93,3.59-4.59c0-2-1-4.54-3.54-4.54s-3.64,2.34-3.64,4.59Z"/>
      <path d="m38.37,94.01c0,4.37-3.03,6.28-5.88,6.28-3.2,0-5.67-2.34-5.67-6.08,0-3.96,2.59-6.28,5.86-6.28s5.69,2.47,5.69,6.08Zm-9.38.12c0,2.59,1.49,4.54,3.59,4.54s3.59-1.93,3.59-4.59c0-2-1-4.54-3.54-4.54s-3.64,2.34-3.64,4.59Z"/>
      <path d="m51.78,94.01c0,4.37-3.03,6.28-5.88,6.28-3.2,0-5.67-2.34-5.67-6.08,0-3.96,2.59-6.28,5.86-6.28s5.69,2.47,5.69,6.08Zm-9.38.12c0,2.59,1.49,4.54,3.59,4.54s3.59-1.93,3.59-4.59c0-2-1-4.54-3.54-4.54s-3.64,2.34-3.64,4.59Z"/>
      <path d="m11.55,123.32c0,4.37-3.03,6.28-5.88,6.28-3.2,0-5.67-2.34-5.67-6.08,0-3.96,2.59-6.27,5.86-6.27s5.69,2.47,5.69,6.08Zm-9.38.12c0,2.59,1.49,4.54,3.59,4.54s3.59-1.93,3.59-4.59c0-2-1-4.54-3.54-4.54s-3.64,2.34-3.64,4.59Z"/>
      <path d="m24.96,123.32c0,4.37-3.03,6.28-5.88,6.28-3.2,0-5.67-2.34-5.67-6.08,0-3.96,2.59-6.27,5.86-6.27s5.69,2.47,5.69,6.08Zm-9.38.12c0,2.59,1.49,4.54,3.59,4.54s3.59-1.93,3.59-4.59c0-2-1-4.54-3.54-4.54s-3.64,2.34-3.64,4.59Z"/>
      <path d="m38.37,123.32c0,4.37-3.03,6.28-5.88,6.28-3.2,0-5.67-2.34-5.67-6.08,0-3.96,2.59-6.27,5.86-6.27s5.69,2.47,5.69,6.08Zm-9.38.12c0,2.59,1.49,4.54,3.59,4.54s3.59-1.93,3.59-4.59c0-2-1-4.54-3.54-4.54s-3.64,2.34-3.64,4.59Z"/>
      <path d="m51.78,123.32c0,4.37-3.03,6.28-5.88,6.28-3.2,0-5.67-2.34-5.67-6.08,0-3.96,2.59-6.27,5.86-6.27s5.69,2.47,5.69,6.08Zm-9.38.12c0,2.59,1.49,4.54,3.59,4.54s3.59-1.93,3.59-4.59c0-2-1-4.54-3.54-4.54s-3.64,2.34-3.64,4.59Z"/>
      <path d="m65.19,123.32c0,4.37-3.03,6.28-5.88,6.28-3.2,0-5.67-2.34-5.67-6.08,0-3.96,2.59-6.27,5.86-6.27s5.69,2.47,5.69,6.08Zm-9.38.12c0,2.59,1.49,4.54,3.59,4.54s3.59-1.93,3.59-4.59c0-2-1-4.54-3.54-4.54s-3.64,2.34-3.64,4.59Z"/>
      <path d="m11.55,152.63c0,4.37-3.03,6.28-5.88,6.28-3.2,0-5.67-2.34-5.67-6.08,0-3.96,2.59-6.27,5.86-6.27s5.69,2.47,5.69,6.08Zm-9.38.12c0,2.59,1.49,4.54,3.59,4.54s3.59-1.93,3.59-4.59c0-2-1-4.54-3.54-4.54s-3.64,2.34-3.64,4.59Z"/>
      <path d="m24.96,152.63c0,4.37-3.03,6.28-5.88,6.28-3.2,0-5.67-2.34-5.67-6.08,0-3.96,2.59-6.27,5.86-6.27s5.69,2.47,5.69,6.08Zm-9.38.12c0,2.59,1.49,4.54,3.59,4.54s3.59-1.93,3.59-4.59c0-2-1-4.54-3.54-4.54s-3.64,2.34-3.64,4.59Z"/>
      <path d="m38.37,152.63c0,4.37-3.03,6.28-5.88,6.28-3.2,0-5.67-2.34-5.67-6.08,0-3.96,2.59-6.27,5.86-6.27s5.69,2.47,5.69,6.08Zm-9.38.12c0,2.59,1.49,4.54,3.59,4.54s3.59-1.93,3.59-4.59c0-2-1-4.54-3.54-4.54s-3.64,2.34-3.64,4.59Z"/>
      <path d="m51.78,152.63c0,4.37-3.03,6.28-5.88,6.28-3.2,0-5.67-2.34-5.67-6.08,0-3.96,2.59-6.27,5.86-6.27s5.69,2.47,5.69,6.08Zm-9.38.12c0,2.59,1.49,4.54,3.59,4.54s3.59-1.93,3.59-4.59c0-2-1-4.54-3.54-4.54s-3.64,2.34-3.64,4.59Z"/>
      <path d="m65.19,152.63c0,4.37-3.03,6.28-5.88,6.28-3.2,0-5.67-2.34-5.67-6.08,0-3.96,2.59-6.27,5.86-6.27s5.69,2.47,5.69,6.08Zm-9.38.12c0,2.59,1.49,4.54,3.59,4.54s3.59-1.93,3.59-4.59c0-2-1-4.54-3.54-4.54s-3.64,2.34-3.64,4.59Z"/>
      <path d="m78.59,152.63c0,4.37-3.03,6.28-5.88,6.28-3.2,0-5.67-2.34-5.67-6.08,0-3.96,2.59-6.27,5.86-6.27s5.69,2.47,5.69,6.08Zm-9.38.12c0,2.59,1.49,4.54,3.59,4.54s3.59-1.93,3.59-4.59c0-2-1-4.54-3.54-4.54s-3.64,2.34-3.64,4.59Z"/>
      <path d="m11.55,181.94c0,4.37-3.03,6.27-5.88,6.27-3.2,0-5.67-2.34-5.67-6.08,0-3.96,2.59-6.28,5.86-6.28s5.69,2.47,5.69,6.08Zm-9.38.12c0,2.59,1.49,4.54,3.59,4.54s3.59-1.93,3.59-4.59c0-2-1-4.54-3.54-4.54s-3.64,2.34-3.64,4.59Z"/>
      <path d="m24.96,181.94c0,4.37-3.03,6.27-5.88,6.27-3.2,0-5.67-2.34-5.67-6.08,0-3.96,2.59-6.28,5.86-6.28s5.69,2.47,5.69,6.08Zm-9.38.12c0,2.59,1.49,4.54,3.59,4.54s3.59-1.93,3.59-4.59c0-2-1-4.54-3.54-4.54s-3.64,2.34-3.64,4.59Z"/>
      <path d="m38.37,181.94c0,4.37-3.03,6.27-5.88,6.27-3.2,0-5.67-2.34-5.67-6.08,0-3.96,2.59-6.28,5.86-6.28s5.69,2.47,5.69,6.08Zm-9.38.12c0,2.59,1.49,4.54,3.59,4.54s3.59-1.93,3.59-4.59c0-2-1-4.54-3.54-4.54s-3.64,2.34-3.64,4.59Z"/>
      <path d="m51.78,181.94c0,4.37-3.03,6.27-5.88,6.27-3.2,0-5.67-2.34-5.67-6.08,0-3.96,2.59-6.28,5.86-6.28s5.69,2.47,5.69,6.08Zm-9.38.12c0,2.59,1.49,4.54,3.59,4.54s3.59-1.93,3.59-4.59c0-2-1-4.54-3.54-4.54s-3.64,2.34-3.64,4.59Z"/>
      <path d="m65.19,181.94c0,4.37-3.03,6.27-5.88,6.27-3.2,0-5.67-2.34-5.67-6.08,0-3.96,2.59-6.28,5.86-6.28s5.69,2.47,5.69,6.08Zm-9.38.12c0,2.59,1.49,4.54,3.59,4.54s3.59-1.93,3.59-4.59c0-2-1-4.54-3.54-4.54s-3.64,2.34-3.64,4.59Z"/>
      <path d="m78.59,181.94c0,4.37-3.03,6.27-5.88,6.27-3.2,0-5.67-2.34-5.67-6.08,0-3.96,2.59-6.28,5.86-6.28s5.69,2.47,5.69,6.08Zm-9.38.12c0,2.59,1.49,4.54,3.59,4.54s3.59-1.93,3.59-4.59c0-2-1-4.54-3.54-4.54s-3.64,2.34-3.64,4.59Z"/>
      <path d="m92,181.94c0,4.37-3.03,6.27-5.88,6.27-3.2,0-5.67-2.34-5.67-6.08,0-3.96,2.59-6.28,5.86-6.28s5.69,2.47,5.69,6.08Zm-9.38.12c0,2.59,1.49,4.54,3.59,4.54s3.59-1.93,3.59-4.59c0-2-1-4.54-3.54-4.54s-3.64,2.34-3.64,4.59Z"/>
    </g>
  </g>
</svg>