<?xml version="1.0" encoding="UTF-8"?>
<svg id="b" data-name="Слой 2" xmlns="http://www.w3.org/2000/svg" width="96.78" height="197.99" viewBox="0 0 96.78 197.99">
  <g id="c" data-name="Слой 1">
    <g id="d" data-name="2.2">
      <path d="m44.83,6.39c0,4.6-3.18,6.6-6.19,6.6-3.36,0-5.96-2.47-5.96-6.39,0-4.16,2.72-6.6,6.16-6.6s5.98,2.59,5.98,6.39Zm-9.86.13c0,2.72,1.57,4.78,3.78,4.78s3.78-2.03,3.78-4.83c0-2.11-1.05-4.78-3.72-4.78s-3.83,2.47-3.83,4.83Z"/>
      <path d="m39.38,37.23c0,4.6-3.18,6.6-6.19,6.6-3.36,0-5.96-2.47-5.96-6.39,0-4.16,2.72-6.6,6.16-6.6s5.98,2.59,5.98,6.39Zm-9.86.13c0,2.72,1.57,4.78,3.78,4.78s3.78-2.03,3.78-4.83c0-2.11-1.05-4.78-3.72-4.78s-3.83,2.47-3.83,4.83Z"/>
      <path d="m53.49,37.23c0,4.6-3.18,6.6-6.19,6.6-3.36,0-5.96-2.47-5.96-6.39,0-4.16,2.72-6.6,6.16-6.6s5.98,2.59,5.98,6.39Zm-9.86.13c0,2.72,1.57,4.78,3.78,4.78s3.78-2.03,3.78-4.83c0-2.11-1.05-4.78-3.72-4.78s-3.83,2.47-3.83,4.83Z"/>
      <path d="m33.93,68.06c0,4.6-3.18,6.6-6.19,6.6-3.36,0-5.96-2.47-5.96-6.39,0-4.16,2.72-6.6,6.16-6.6s5.98,2.59,5.98,6.39Zm-9.86.13c0,2.72,1.57,4.78,3.78,4.78s3.78-2.03,3.78-4.83c0-2.11-1.05-4.78-3.72-4.78s-3.83,2.47-3.83,4.83Z"/>
      <path d="m48.04,68.06c0,4.6-3.18,6.6-6.19,6.6-3.36,0-5.96-2.47-5.96-6.39,0-4.16,2.72-6.6,6.16-6.6s5.98,2.59,5.98,6.39Zm-9.86.13c0,2.72,1.57,4.78,3.78,4.78s3.78-2.03,3.78-4.83c0-2.11-1.05-4.78-3.72-4.78s-3.83,2.47-3.83,4.83Z"/>
      <path d="m62.15,68.06c0,4.6-3.18,6.6-6.19,6.6-3.36,0-5.96-2.47-5.96-6.39,0-4.16,2.72-6.6,6.16-6.6s5.98,2.59,5.98,6.39Zm-9.86.13c0,2.72,1.57,4.78,3.78,4.78s3.78-2.03,3.78-4.83c0-2.11-1.05-4.78-3.72-4.78s-3.83,2.47-3.83,4.83Z"/>
      <path d="m28.49,98.89c0,4.6-3.18,6.6-6.19,6.6-3.36,0-5.96-2.47-5.96-6.39,0-4.16,2.72-6.6,6.16-6.6s5.98,2.59,5.98,6.39Zm-9.86.13c0,2.72,1.57,4.78,3.78,4.78s3.78-2.03,3.78-4.83c0-2.11-1.05-4.78-3.72-4.78s-3.83,2.47-3.83,4.83Z"/>
      <path d="m42.59,98.89c0,4.6-3.18,6.6-6.19,6.6-3.36,0-5.96-2.47-5.96-6.39,0-4.16,2.72-6.6,6.16-6.6s5.98,2.59,5.98,6.39Zm-9.86.13c0,2.72,1.57,4.78,3.78,4.78s3.78-2.03,3.78-4.83c0-2.11-1.05-4.78-3.72-4.78s-3.83,2.47-3.83,4.83Z"/>
      <path d="m56.7,98.89c0,4.6-3.18,6.6-6.19,6.6-3.36,0-5.96-2.47-5.96-6.39,0-4.16,2.72-6.6,6.16-6.6s5.98,2.59,5.98,6.39Zm-9.86.13c0,2.72,1.57,4.78,3.78,4.78s3.78-2.03,3.78-4.83c0-2.11-1.05-4.78-3.72-4.78s-3.83,2.47-3.83,4.83Z"/>
      <path d="m70.8,98.89c0,4.6-3.18,6.6-6.19,6.6-3.36,0-5.96-2.47-5.96-6.39,0-4.16,2.72-6.6,6.16-6.6s5.98,2.59,5.98,6.39Zm-9.86.13c0,2.72,1.57,4.78,3.78,4.78s3.78-2.03,3.78-4.83c0-2.11-1.05-4.78-3.72-4.78s-3.83,2.47-3.83,4.83Z"/>
      <path d="m23.04,129.72c0,4.6-3.18,6.6-6.19,6.6-3.36,0-5.96-2.47-5.96-6.39,0-4.16,2.72-6.6,6.16-6.6s5.98,2.59,5.98,6.39Zm-9.86.13c0,2.72,1.57,4.78,3.78,4.78s3.78-2.03,3.78-4.83c0-2.11-1.05-4.78-3.72-4.78s-3.83,2.47-3.83,4.83Z"/>
      <path d="m37.15,129.72c0,4.6-3.18,6.6-6.19,6.6-3.36,0-5.96-2.47-5.96-6.39,0-4.16,2.72-6.6,6.16-6.6s5.98,2.59,5.98,6.39Zm-9.86.13c0,2.72,1.57,4.78,3.78,4.78s3.78-2.03,3.78-4.83c0-2.11-1.05-4.78-3.72-4.78s-3.83,2.47-3.83,4.83Z"/>
      <path d="m51.25,129.72c0,4.6-3.18,6.6-6.19,6.6-3.36,0-5.96-2.47-5.96-6.39,0-4.16,2.72-6.6,6.16-6.6s5.98,2.59,5.98,6.39Zm-9.86.13c0,2.72,1.57,4.78,3.78,4.78s3.78-2.03,3.78-4.83c0-2.11-1.05-4.78-3.72-4.78s-3.83,2.47-3.83,4.83Z"/>
      <path d="m65.36,129.72c0,4.6-3.18,6.6-6.19,6.6-3.36,0-5.96-2.47-5.96-6.39,0-4.16,2.72-6.6,6.16-6.6s5.98,2.59,5.98,6.39Zm-9.86.13c0,2.72,1.57,4.78,3.78,4.78s3.78-2.03,3.78-4.83c0-2.11-1.05-4.78-3.72-4.78s-3.83,2.47-3.83,4.83Z"/>
      <path d="m79.46,129.72c0,4.6-3.18,6.6-6.19,6.6-3.36,0-5.96-2.47-5.96-6.39,0-4.16,2.72-6.6,6.16-6.6s5.98,2.59,5.98,6.39Zm-9.86.13c0,2.72,1.57,4.78,3.78,4.78s3.78-2.03,3.78-4.83c0-2.11-1.05-4.78-3.72-4.78s-3.83,2.47-3.83,4.83Z"/>
      <path d="m17.59,160.56c0,4.6-3.18,6.6-6.19,6.6-3.36,0-5.96-2.47-5.96-6.39,0-4.16,2.72-6.6,6.16-6.6s5.98,2.59,5.98,6.39Zm-9.86.13c0,2.72,1.57,4.78,3.78,4.78s3.78-2.03,3.78-4.83c0-2.11-1.05-4.78-3.72-4.78s-3.83,2.47-3.83,4.83Z"/>
      <path d="m31.7,160.56c0,4.6-3.18,6.6-6.19,6.6-3.36,0-5.96-2.47-5.96-6.39,0-4.16,2.72-6.6,6.16-6.6s5.98,2.59,5.98,6.39Zm-9.86.13c0,2.72,1.57,4.78,3.78,4.78s3.78-2.03,3.78-4.83c0-2.11-1.05-4.78-3.72-4.78s-3.83,2.47-3.83,4.83Z"/>
      <path d="m45.8,160.56c0,4.6-3.18,6.6-6.19,6.6-3.36,0-5.96-2.47-5.96-6.39,0-4.16,2.72-6.6,6.16-6.6s5.98,2.59,5.98,6.39Zm-9.86.13c0,2.72,1.57,4.78,3.78,4.78s3.78-2.03,3.78-4.83c0-2.11-1.05-4.78-3.72-4.78s-3.83,2.47-3.83,4.83Z"/>
      <path d="m59.91,160.56c0,4.6-3.18,6.6-6.19,6.6-3.36,0-5.96-2.47-5.96-6.39,0-4.16,2.72-6.6,6.16-6.6s5.98,2.59,5.98,6.39Zm-9.86.13c0,2.72,1.57,4.78,3.78,4.78s3.78-2.03,3.78-4.83c0-2.11-1.05-4.78-3.72-4.78s-3.83,2.47-3.83,4.83Z"/>
      <path d="m74.02,160.56c0,4.6-3.18,6.6-6.19,6.6-3.36,0-5.96-2.47-5.96-6.39,0-4.16,2.72-6.6,6.16-6.6s5.98,2.59,5.98,6.39Zm-9.86.13c0,2.72,1.57,4.78,3.78,4.78s3.78-2.03,3.78-4.83c0-2.11-1.05-4.78-3.72-4.78s-3.83,2.47-3.83,4.83Z"/>
      <path d="m88.12,160.56c0,4.6-3.18,6.6-6.19,6.6-3.36,0-5.96-2.47-5.96-6.39,0-4.16,2.72-6.6,6.16-6.6s5.98,2.59,5.98,6.39Zm-9.86.13c0,2.72,1.57,4.78,3.78,4.78s3.78-2.03,3.78-4.83c0-2.11-1.05-4.78-3.72-4.78s-3.83,2.47-3.83,4.83Z"/>
      <path d="m12.15,191.39c0,4.6-3.18,6.6-6.19,6.6-3.36,0-5.96-2.47-5.96-6.39,0-4.16,2.72-6.6,6.16-6.6s5.98,2.59,5.98,6.39Zm-9.86.13c0,2.72,1.57,4.78,3.78,4.78s3.78-2.03,3.78-4.83c0-2.11-1.05-4.78-3.72-4.78s-3.83,2.47-3.83,4.83Z"/>
      <path d="m26.25,191.39c0,4.6-3.18,6.6-6.19,6.6-3.36,0-5.96-2.47-5.96-6.39,0-4.16,2.72-6.6,6.16-6.6s5.98,2.59,5.98,6.39Zm-9.86.13c0,2.72,1.57,4.78,3.78,4.78s3.78-2.03,3.78-4.83c0-2.11-1.05-4.78-3.72-4.78s-3.83,2.47-3.83,4.83Z"/>
      <path d="m40.36,191.39c0,4.6-3.18,6.6-6.19,6.6-3.36,0-5.96-2.47-5.96-6.39,0-4.16,2.72-6.6,6.16-6.6s5.98,2.59,5.98,6.39Zm-9.86.13c0,2.72,1.57,4.78,3.78,4.78s3.78-2.03,3.78-4.83c0-2.11-1.05-4.78-3.72-4.78s-3.83,2.47-3.83,4.83Z"/>
      <path d="m54.46,191.39c0,4.6-3.18,6.6-6.19,6.6-3.36,0-5.96-2.47-5.96-6.39,0-4.16,2.72-6.6,6.16-6.6s5.98,2.59,5.98,6.39Zm-9.86.13c0,2.72,1.57,4.78,3.78,4.78s3.78-2.03,3.78-4.83c0-2.11-1.05-4.78-3.72-4.78s-3.83,2.47-3.83,4.83Z"/>
      <path d="m68.57,191.39c0,4.6-3.18,6.6-6.19,6.6-3.36,0-5.96-2.47-5.96-6.39,0-4.16,2.72-6.6,6.16-6.6s5.98,2.59,5.98,6.39Zm-9.86.13c0,2.72,1.57,4.78,3.78,4.78s3.78-2.03,3.78-4.83c0-2.11-1.05-4.78-3.72-4.78s-3.83,2.47-3.83,4.83Z"/>
      <path d="m82.68,191.39c0,4.6-3.18,6.6-6.19,6.6-3.36,0-5.96-2.47-5.96-6.39,0-4.16,2.72-6.6,6.16-6.6s5.98,2.59,5.98,6.39Zm-9.86.13c0,2.72,1.57,4.78,3.78,4.78s3.78-2.03,3.78-4.83c0-2.11-1.05-4.78-3.72-4.78s-3.83,2.47-3.83,4.83Z"/>
      <path d="m96.78,191.39c0,4.6-3.18,6.6-6.19,6.6-3.36,0-5.96-2.47-5.96-6.39,0-4.16,2.72-6.6,6.16-6.6s5.98,2.59,5.98,6.39Zm-9.86.13c0,2.72,1.57,4.78,3.78,4.78s3.78-2.03,3.78-4.83c0-2.11-1.05-4.78-3.72-4.78s-3.83,2.47-3.83,4.83Z"/>
    </g>
  </g>
</svg>