<svg xmlns="http://www.w3.org/2000/svg" width="30" height="26.71" viewBox="0 0 30 26.71">
  <defs>
    <style>
      .a {
        fill: #1d3050;
      }
    </style>
  </defs>
  <path class="a" d="M3.35,15H1.85A1.68,1.68,0,0,1,.66,12Q7.23,6.27,13.8.53c.86-.75,1.64-.7,2.59.14L27.93,10.81c.48.42.95.86,1.44,1.27a1.47,1.47,0,0,1,.51,1.79A1.68,1.68,0,0,1,28.3,15c-.5,0-1,0-1.64,0v1.6c0,2.56,0,5.12,0,7.68,0,1.68-.78,2.41-2.48,2.41H20.59a2,2,0,0,1-2.21-2.17c0-1.39,0-2.79,0-4.18s-.59-2-2.05-2H13.49a1.62,1.62,0,0,0-1.84,1.78c0,1.39,0,2.79,0,4.18a2.1,2.1,0,0,1-2.41,2.39H5.63a2.06,2.06,0,0,1-2.28-2.27c0-2.82,0-5.63,0-8.44Z"/>
</svg>
