<svg xmlns="http://www.w3.org/2000/svg" width="30" height="26.63" viewBox="0 0 30 26.63">
  <defs>
    <style>
      .a {
        fill: #1d3050;
      }
    </style>
  </defs>
  <g>
    <path class="a" d="M12.9,7.32,8.74,11.44c-.31.3-.59.62-.92.89a2.15,2.15,0,0,1-2.92-.09,2.2,2.2,0,0,1-.06-2.93c.52-.6,1.1-1.13,1.66-1.68L13.1,1c1.36-1.36,2.43-1.37,3.77,0q3.94,3.93,7.88,7.89c1.14,1.13,1.25,2.5.3,3.4s-2.18.75-3.3-.35L17.17,7.47c0,.49-.06.89-.06,1.29v7.41c0,.32,0,.64,0,1a2,2,0,0,1-2.13,2A2,2,0,0,1,12.91,17c0-3.76,0-3,0-6.77Z"/>
    <path class="a" d="M15,26.62H6.59A6.31,6.31,0,0,1,0,20.27C0,18.85,0,17.41,0,16A2,2,0,0,1,2.14,13.8a2,2,0,0,1,2.07,2.12c0,1.36,0,2.72,0,4.07,0,1.66.81,2.39,2.49,2.39H23.25c1.72,0,2.49-.75,2.52-2.47,0-1.29,0-2.58,0-3.86A2.09,2.09,0,1,1,30,16a49.81,49.81,0,0,1-.07,5,6.23,6.23,0,0,1-6.14,5.61C20.82,26.64,17.89,26.62,15,26.62Z"/>
  </g>
</svg>
