<?xml version="1.0" encoding="UTF-8"?>
<svg id="b" data-name="Слой 2" xmlns="http://www.w3.org/2000/svg" width="124.49" height="111.28" viewBox="0 0 124.49 111.28">
  <defs>
    <style>
      .e {
        fill: #323330;
      }
    </style>
  </defs>
  <g id="c" data-name="Слой 1">
    <g id="d" data-name="logo lesson">
      <g>
        <path class="e" d="m33.87,8.98c0-2.87,0-5.53,0-8.19,0-.98.78-.75,1.34-.76,3.89-.01,7.77,0,11.66,0,3.79,0,7.59.04,11.38-.03,1.14-.02,1.55.29,1.52,1.48-.07,4.02.13,8.06-.08,12.07-.18,3.51,1.32,5.96,4.24,7.43,3.79,1.91,7.74,3.5,11.64,5.19,3.48,1.51,6.92,3.07,9.86,5.55,5.26,4.43,6.13,10.11,4.4,16.3-2.11,7.57-7.78,11.1-15.15,12.34-1.65.28-3.35.27-5.03.41-.98.08-1.44-.24-1.41-1.34.07-2.15.06-4.31,0-6.46-.03-.97.36-1.14,1.24-1.16,1.8-.04,3.69.06,5.39-.44,4.33-1.26,6.79-5.93,5.4-9.82-.96-2.69-3.02-4.42-5.5-5.52-3.89-1.72-7.88-3.19-11.82-4.79-3.39-1.38-6.69-2.92-9.27-5.65-2.16-2.29-3.21-5.03-3.32-8.11-.09-2.38-.07-4.78-.01-7.16.03-1.04-.34-1.38-1.37-1.37-4.45.04-8.9.02-13.35.02-.55,0-1.09,0-1.78,0Z"/>
        <path class="e" d="m50.64,24.58c2.15,3.06,5.02,5.24,8.33,6.89.35.17.73.78.71,1.16-.35,6.79-1.4,13.4-5.37,19.17-3.5,5.09-8.47,7.77-14.5,8.6-1.62.22-3.26.26-4.89.39-.91.07-1.08-.42-1.07-1.2.03-2.2.04-4.4,0-6.6-.02-.93.35-1.14,1.23-1.23,1.99-.19,4.04-.3,5.93-.89,4.48-1.39,6.83-4.82,8.06-9.16,1.43-5.02,1.3-10.18,1.28-15.32,0-.51.03-1.03.06-1.54,0-.07.11-.14.23-.28Z"/>
        <path class="e" d="m61.55,10.79c0-2.99-.03-5.97.04-8.94,0-.33.59-.83.99-.93,9.32-2.24,17.78-.31,25.46,5.32.85.62,1.03,1.14.26,2.03-1.51,1.72-2.92,3.53-4.33,5.33-.67.85-1.13,1.01-2.1.19-4.52-3.83-9.71-5.77-15.68-4.77-1.51.25-2.93,1.1-4.64,1.78Z"/>
      </g>
      <g>
        <path class="e" d="m1.89,72.96h5.06v6.25h.79v3.07h-1.01v-2.06H1.01v2.06H0v-3.07h.65c.87-1.18,1.28-3.26,1.24-6.25Zm1.03,1.02c-.09,2.36-.46,4.1-1.09,5.23h3.9v-5.23h-2.81Z"/>
        <path class="e" d="m8.63,76.59c0-1.34.37-2.34,1.12-2.99.62-.54,1.39-.81,2.28-.81,1,0,1.81.33,2.45.98.63.65.95,1.56.95,2.71,0,.93-.14,1.67-.42,2.21-.28.54-.69.95-1.22,1.25s-1.12.44-1.75.44c-1.02,0-1.84-.33-2.46-.98s-.94-1.59-.94-2.82Zm1.26,0c0,.93.2,1.63.61,2.09.41.46.92.69,1.53.69s1.12-.23,1.52-.7.61-1.17.61-2.13c0-.9-.2-1.58-.61-2.04-.41-.46-.92-.69-1.52-.69s-1.13.23-1.53.69-.61,1.16-.61,2.08Z"/>
        <path class="e" d="m16.91,72.96h1.91l1.91,5.81,2.12-5.81h1.77v7.26h-1.23v-5.84l-2.15,5.84h-1.1l-2.03-6.12v6.12h-1.2v-7.26Z"/>
        <path class="e" d="m31.24,79.33c-.46.39-.89.66-1.32.82s-.87.24-1.36.24c-.8,0-1.41-.2-1.84-.58-.43-.39-.64-.89-.64-1.49,0-.36.08-.68.24-.97.16-.29.37-.53.64-.71s.56-.31.89-.4c.24-.06.61-.12,1.09-.18.99-.12,1.73-.26,2.19-.42,0-.17,0-.28,0-.32,0-.5-.12-.85-.35-1.06-.31-.28-.78-.42-1.4-.42-.58,0-1.01.1-1.28.3-.28.2-.48.56-.61,1.08l-1.2-.16c.11-.51.29-.93.54-1.25.25-.32.61-.56,1.09-.73.47-.17,1.02-.26,1.65-.26s1.12.07,1.51.22.67.33.85.55c.18.22.31.5.38.84.04.21.06.59.06,1.13v1.64c0,1.14.03,1.87.08,2.17.05.3.16.59.31.87h-1.29c-.13-.25-.21-.55-.25-.9Zm-.1-2.75c-.45.18-1.12.34-2.01.46-.51.07-.86.16-1.07.25s-.37.22-.49.4c-.11.18-.17.37-.17.58,0,.33.12.6.37.82s.61.33,1.09.33.9-.1,1.26-.31c.37-.21.64-.49.81-.85.13-.28.2-.69.2-1.23v-.45Z"/>
        <path class="e" d="m34.33,72.96h1.23v6.24h2.8v-6.24h1.23v6.24h2.81v-6.24h1.22v7.26h-9.3v-7.26Z"/>
        <path class="e" d="m45.53,72.96h1.23v3.02h3.41v-3.02h1.23v7.26h-1.23v-3.22h-3.41v3.22h-1.23v-7.26Z"/>
        <path class="e" d="m58.22,77.88l1.27.16c-.2.74-.57,1.32-1.11,1.73s-1.23.62-2.08.62c-1.06,0-1.9-.33-2.53-.98-.62-.65-.93-1.57-.93-2.75s.31-2.17.94-2.84,1.44-1.01,2.45-1.01,1.76.33,2.38.99.92,1.59.92,2.79c0,.07,0,.18,0,.33h-5.41c.05.8.27,1.41.68,1.83s.91.64,1.52.64c.45,0,.84-.12,1.16-.36s.57-.62.76-1.13Zm-4.04-1.99h4.05c-.05-.61-.21-1.07-.46-1.37-.39-.47-.9-.71-1.52-.71-.56,0-1.04.19-1.43.57s-.6.88-.64,1.52Z"/>
        <path class="e" d="m66.53,76.94v-.96c.52,0,.87-.03,1.06-.06.19-.04.37-.15.54-.33s.25-.41.25-.68c0-.33-.11-.6-.33-.8-.22-.2-.51-.3-.86-.3-.69,0-1.18.41-1.46,1.22l-1.17-.19c.36-1.36,1.24-2.04,2.64-2.04.77,0,1.38.21,1.82.64.44.42.66.93.66,1.52s-.29,1.06-.86,1.42c.36.2.64.45.82.75.18.3.27.66.27,1.08,0,.65-.24,1.18-.71,1.59s-1.14.61-1.99.61c-1.65,0-2.61-.74-2.88-2.21l1.16-.25c.1.46.32.83.64,1.08.32.25.69.38,1.1.38s.76-.12,1.04-.35c.28-.23.41-.53.41-.9,0-.28-.09-.53-.26-.74s-.36-.34-.55-.39c-.2-.05-.55-.08-1.07-.08-.04,0-.13,0-.28,0Z"/>
        <path class="e" d="m76.08,79.33c-.46.39-.89.66-1.32.82-.42.16-.87.24-1.36.24-.8,0-1.41-.2-1.84-.58-.43-.39-.64-.89-.64-1.49,0-.36.08-.68.24-.97.16-.29.37-.53.64-.71.26-.18.56-.31.88-.4.24-.06.61-.12,1.09-.18.99-.12,1.72-.26,2.19-.42,0-.17,0-.28,0-.32,0-.5-.12-.85-.35-1.06-.31-.28-.78-.42-1.4-.42-.58,0-1.01.1-1.28.3-.28.2-.48.56-.61,1.08l-1.2-.16c.11-.51.29-.93.54-1.25.25-.32.61-.56,1.09-.73.47-.17,1.02-.26,1.65-.26s1.12.07,1.51.22.67.33.85.55c.18.22.31.5.38.84.04.21.06.59.06,1.13v1.64c0,1.14.03,1.87.08,2.17.05.3.16.59.31.87h-1.29c-.13-.25-.21-.55-.25-.9Zm-.1-2.75c-.45.18-1.12.34-2.01.46-.51.07-.86.16-1.07.25s-.37.22-.49.4c-.11.18-.17.37-.17.58,0,.33.12.6.37.82.25.22.61.33,1.09.33s.9-.1,1.26-.31c.37-.21.64-.49.81-.85.13-.28.2-.69.2-1.23v-.45Z"/>
        <path class="e" d="m79.14,72.96h2.84c.7,0,1.22.06,1.56.17.34.12.63.33.88.64.24.31.37.68.37,1.11,0,.35-.07.65-.21.91-.14.26-.36.47-.65.65.34.11.62.33.85.64.22.31.34.68.34,1.11-.05.69-.29,1.2-.74,1.53s-1.1.5-1.95.5h-3.27v-7.26Zm1.23,3.06h1.31c.52,0,.88-.03,1.08-.08s.37-.17.53-.33c.16-.17.23-.37.23-.6,0-.38-.14-.65-.41-.8-.27-.15-.73-.23-1.39-.23h-1.35v2.04Zm0,3.19h1.62c.7,0,1.18-.08,1.44-.24.26-.16.4-.44.41-.84,0-.23-.08-.45-.23-.65-.15-.2-.35-.32-.59-.38-.24-.05-.63-.08-1.16-.08h-1.49v2.18Z"/>
        <path class="e" d="m87.38,72.96h5.06v6.25h.79v3.07h-1.01v-2.06h-5.71v2.06h-1.01v-3.07h.65c.87-1.18,1.28-3.26,1.24-6.25Zm1.03,1.02c-.09,2.36-.46,4.1-1.09,5.23h3.9v-5.23h-2.81Z"/>
        <path class="e" d="m99.32,79.33c-.46.39-.89.66-1.32.82-.42.16-.87.24-1.36.24-.8,0-1.41-.2-1.84-.58-.43-.39-.64-.89-.64-1.49,0-.36.08-.68.24-.97.16-.29.37-.53.64-.71.26-.18.56-.31.88-.4.24-.06.61-.12,1.09-.18.99-.12,1.72-.26,2.19-.42,0-.17,0-.28,0-.32,0-.5-.12-.85-.35-1.06-.31-.28-.78-.42-1.4-.42-.58,0-1.01.1-1.28.3-.28.2-.48.56-.61,1.08l-1.2-.16c.11-.51.29-.93.54-1.25.25-.32.61-.56,1.09-.73.47-.17,1.02-.26,1.65-.26s1.12.07,1.51.22.67.33.85.55c.18.22.31.5.38.84.04.21.06.59.06,1.13v1.64c0,1.14.03,1.87.08,2.17.05.3.16.59.31.87h-1.29c-.13-.25-.21-.55-.25-.9Zm-.1-2.75c-.45.18-1.12.34-2.01.46-.51.07-.86.16-1.07.25s-.37.22-.49.4c-.11.18-.17.37-.17.58,0,.33.12.6.37.82.25.22.61.33,1.09.33s.9-.1,1.26-.31c.37-.21.64-.49.81-.85.13-.28.2-.69.2-1.23v-.45Z"/>
        <path class="e" d="m102.38,72.96h1.23v3.02h3.41v-3.02h1.23v7.26h-1.23v-3.22h-3.41v3.22h-1.23v-7.26Z"/>
        <path class="e" d="m110.11,72.96h1.23v3.02h3.41v-3.02h1.23v7.26h-1.23v-3.22h-3.41v3.22h-1.23v-7.26Z"/>
        <path class="e" d="m123.55,72.96v7.26h-1.22v-2.83h-.71c-.43,0-.76.06-.97.17-.21.11-.52.47-.93,1.08l-1.07,1.59h-1.52l1.33-1.96c.41-.6.81-.93,1.21-1.01-.7-.1-1.22-.35-1.56-.76-.34-.41-.51-.88-.51-1.42,0-.63.22-1.14.67-1.53.44-.39,1.09-.59,1.93-.59h3.36Zm-1.22,1.02h-1.75c-.73,0-1.21.11-1.42.34-.21.23-.32.49-.32.8,0,.43.16.75.47.95.31.2.86.3,1.66.3h1.36v-2.4Z"/>
      </g>
      <g>
        <path class="e" d="m53.59,101.3h-1.2v-1.93h1.58l.53-2.59h-2.11v-1.94h2.5l.69-3.43h1.97l-.69,3.43h1.94l.68-3.43h2.04l-.7,3.43h1.21v1.94h-1.61l-.53,2.59h2.14v1.93h-2.53l-.69,3.43h-1.96l.68-3.43h-1.95l-.69,3.43h-1.99l.69-3.43Zm2.89-4.53l-.52,2.59h1.95l.51-2.59h-1.94Z"/>
        <path class="e" d="m63.04,101.19l2.46-.25c.07.56.28,1,.62,1.32.35.33.74.49,1.2.49.52,0,.95-.21,1.31-.63.36-.42.54-1.05.54-1.89,0-.79-.18-1.38-.53-1.78-.36-.39-.82-.59-1.38-.59-.71,0-1.34.31-1.91.94l-2-.29,1.27-6.71h6.53v2.31h-4.66l-.39,2.19c.55-.28,1.11-.41,1.69-.41,1.1,0,2.02.4,2.79,1.2s1.14,1.83,1.14,3.1c0,1.06-.31,2.01-.92,2.84-.84,1.14-2,1.71-3.49,1.71-1.19,0-2.16-.32-2.91-.96s-1.2-1.5-1.34-2.58Z"/>
      </g>
    </g>
  </g>
</svg>