<?xml version="1.0" encoding="UTF-8"?>
<svg id="b" data-name="Слой 2" xmlns="http://www.w3.org/2000/svg" width="221.83" height="176.41" viewBox="0 0 221.83 176.41">
  <defs>
    <style>
      .n {
        fill: none;
        stroke: #000;
        stroke-miterlimit: 10;
      }
    </style>
  </defs>
  <g id="c" data-name="Слой 1">
    <g>
      <g id="d" data-name="1">
        <g>
          <path d="m1.26,10.3V1.71h3.27c.58,0,1.02.03,1.32.08.43.07.78.2,1.07.4s.52.47.7.83c.18.36.26.75.26,1.17,0,.73-.23,1.35-.7,1.85-.47.51-1.32.76-2.54.76h-2.23v3.49h-1.15Zm1.15-4.51h2.24c.74,0,1.27-.14,1.58-.41.31-.27.47-.66.47-1.15,0-.36-.09-.67-.27-.92s-.43-.42-.73-.51c-.19-.05-.55-.08-1.07-.08h-2.22v3.07Z"/>
          <path d="m9.2,10.3v-6.22h.96v.94c.24-.44.47-.73.68-.87.21-.14.44-.21.68-.21.36,0,.72.11,1.09.34l-.37.98c-.26-.15-.52-.23-.78-.23-.23,0-.44.07-.63.21s-.32.33-.4.58c-.12.38-.18.79-.18,1.23v3.26h-1.07Z"/>
          <path d="m12.85,7.19c0-1.15.32-2.01.97-2.56.54-.46,1.2-.69,1.98-.69.86,0,1.57.28,2.12.84.55.56.82,1.33.82,2.32,0,.8-.12,1.43-.36,1.89s-.6.82-1.06,1.07-.97.38-1.52.38c-.88,0-1.59-.28-2.13-.84s-.81-1.36-.81-2.41Zm1.1,0c0,.8.18,1.39.53,1.79s.79.59,1.33.59.97-.2,1.32-.6.53-1.01.53-1.82c0-.77-.18-1.35-.53-1.75s-.79-.59-1.32-.59-.98.2-1.33.59-.53.99-.53,1.79Z"/>
          <path d="m24.07,10.3v-.79c-.4.62-.98.93-1.76.93-.5,0-.96-.14-1.38-.41s-.75-.66-.98-1.15-.35-1.05-.35-1.69.1-1.18.31-1.69.52-.89.94-1.16c.42-.27.89-.4,1.4-.4.38,0,.72.08,1.01.24s.54.36.72.62V1.71h1.06v8.59h-.99Zm-3.37-3.11c0,.8.17,1.39.51,1.79s.74.59,1.2.59.86-.19,1.19-.57c.33-.38.49-.95.49-1.73,0-.85-.17-1.48-.5-1.88s-.74-.6-1.23-.6-.87.19-1.19.57c-.32.38-.48.99-.48,1.81Z"/>
          <path d="m30.85,10.3v-.91c-.49.7-1.15,1.05-1.99,1.05-.37,0-.72-.07-1.04-.21s-.56-.32-.72-.53-.27-.47-.33-.78c-.04-.21-.06-.54-.06-.98v-3.86h1.07v3.45c0,.55.02.92.07,1.11.07.28.21.5.43.65.22.16.49.24.81.24s.62-.08.9-.24.48-.38.59-.66c.12-.28.17-.68.17-1.22v-3.33h1.07v6.22h-.95Z"/>
          <path d="m37.58,8.02l1.05.13c-.11.71-.41,1.27-.88,1.68s-1.05.61-1.74.61c-.86,0-1.55-.28-2.07-.83s-.78-1.35-.78-2.39c0-.67.11-1.26.34-1.76s.57-.88,1.03-1.13c.46-.25.96-.38,1.5-.38.68,0,1.24.17,1.68.51s.71.83.83,1.46l-1.04.16c-.1-.42-.27-.73-.52-.94s-.55-.32-.91-.32c-.54,0-.97.19-1.31.57s-.5.98-.5,1.81.16,1.44.49,1.82c.32.38.75.57,1.27.57.42,0,.77-.13,1.05-.38s.46-.64.53-1.17Z"/>
          <path d="m41.86,9.35l.15.93c-.3.06-.57.09-.81.09-.39,0-.69-.06-.9-.18-.21-.12-.36-.28-.45-.48s-.13-.61-.13-1.25v-3.58h-.78v-.82h.78v-1.54l1.06-.63v2.17h1.07v.82h-1.07v3.64c0,.3.02.49.06.58s.1.15.18.21c.08.05.21.08.36.08.12,0,.27-.01.47-.04Z"/>
          <path d="m46.08,10.44l.51-2.5h-1v-.87h1.18l.44-2.13h-1.62v-.87h1.79l.52-2.51h.89l-.52,2.51h1.86l.52-2.51h.89l-.51,2.51h1.02v.87h-1.2l-.44,2.13h1.65v.87h-1.82l-.52,2.5h-.89l.51-2.5h-1.86l-.52,2.5h-.89Zm1.58-3.37h1.86l.44-2.13h-1.86l-.44,2.13Z"/>
          <path d="m56.73,10.3h-1.07V3.58c-.26.24-.59.48-1.01.73-.42.24-.79.42-1.12.54v-1.02c.6-.28,1.12-.61,1.56-1.01.45-.39.76-.78.95-1.15h.69v8.62Z"/>
        </g>
        <rect class="n" x="66.83" y=".6" width="154.5" height="13"/>
      </g>
      <g id="e" data-name="1">
        <g>
          <path d="m.94,28.51v-8.59h3.27c.58,0,1.02.03,1.32.08.43.07.78.2,1.07.4s.52.47.7.83c.18.36.26.75.26,1.17,0,.73-.23,1.35-.7,1.85-.47.51-1.32.76-2.54.76h-2.23v3.49H.94Zm1.15-4.51h2.24c.74,0,1.27-.14,1.58-.41.31-.27.47-.66.47-1.15,0-.36-.09-.67-.27-.92s-.43-.42-.73-.51c-.19-.05-.55-.08-1.07-.08h-2.22v3.07Z"/>
          <path d="m8.87,28.51v-6.22h.96v.94c.24-.44.47-.73.68-.87.21-.14.44-.21.68-.21.36,0,.72.11,1.09.34l-.37.98c-.26-.15-.52-.23-.78-.23-.23,0-.44.07-.63.21s-.32.33-.4.58c-.12.38-.18.79-.18,1.23v3.26h-1.07Z"/>
          <path d="m12.53,25.4c0-1.15.32-2.01.97-2.56.54-.46,1.2-.69,1.98-.69.86,0,1.57.28,2.12.84.55.56.82,1.33.82,2.32,0,.8-.12,1.43-.36,1.89s-.6.82-1.06,1.07-.97.38-1.52.38c-.88,0-1.59-.28-2.13-.84s-.81-1.36-.81-2.41Zm1.1,0c0,.8.18,1.39.53,1.79s.79.59,1.33.59.97-.2,1.32-.6.53-1.01.53-1.82c0-.77-.18-1.35-.53-1.75s-.79-.59-1.32-.59-.98.2-1.33.59-.53.99-.53,1.79Z"/>
          <path d="m23.74,28.51v-.79c-.4.62-.98.93-1.76.93-.5,0-.96-.14-1.38-.41s-.75-.66-.98-1.15-.35-1.05-.35-1.69.1-1.18.31-1.69.52-.89.94-1.16c.42-.27.89-.4,1.4-.4.38,0,.72.08,1.01.24s.54.36.72.62v-3.08h1.06v8.59h-.99Zm-3.37-3.11c0,.8.17,1.39.51,1.79s.74.59,1.2.59.86-.19,1.19-.57c.33-.38.49-.95.49-1.73,0-.85-.17-1.48-.5-1.88s-.74-.6-1.23-.6-.87.19-1.19.57c-.32.38-.48.99-.48,1.81Z"/>
          <path d="m30.53,28.51v-.91c-.49.7-1.15,1.05-1.99,1.05-.37,0-.72-.07-1.04-.21s-.56-.32-.72-.53-.27-.47-.33-.78c-.04-.21-.06-.54-.06-.98v-3.86h1.07v3.45c0,.55.02.92.07,1.11.07.28.21.5.43.65.22.16.49.24.81.24s.62-.08.9-.24.48-.38.59-.66c.12-.28.17-.68.17-1.22v-3.33h1.07v6.22h-.95Z"/>
          <path d="m37.25,26.23l1.05.13c-.11.71-.41,1.27-.88,1.68s-1.05.61-1.74.61c-.86,0-1.55-.28-2.07-.83s-.78-1.35-.78-2.39c0-.67.11-1.26.34-1.76s.57-.88,1.03-1.13c.46-.25.96-.38,1.5-.38.68,0,1.24.17,1.68.51s.71.83.83,1.46l-1.04.16c-.1-.42-.27-.73-.52-.94s-.55-.32-.91-.32c-.54,0-.97.19-1.31.57s-.5.98-.5,1.81.16,1.44.49,1.82c.32.38.75.57,1.27.57.42,0,.77-.13,1.05-.38s.46-.64.53-1.17Z"/>
          <path d="m41.54,27.57l.15.93c-.3.06-.57.09-.81.09-.39,0-.69-.06-.9-.18-.21-.12-.36-.28-.45-.48s-.13-.61-.13-1.25v-3.58h-.78v-.82h.78v-1.54l1.06-.63v2.17h1.07v.82h-1.07v3.64c0,.3.02.49.06.58s.1.15.18.21c.08.05.21.08.36.08.12,0,.27-.01.47-.04Z"/>
          <path d="m45.76,28.66l.51-2.5h-1v-.87h1.18l.44-2.13h-1.62v-.87h1.79l.52-2.51h.89l-.52,2.51h1.86l.52-2.51h.89l-.51,2.51h1.02v.87h-1.2l-.44,2.13h1.65v.87h-1.82l-.52,2.5h-.89l.51-2.5h-1.86l-.52,2.5h-.89Zm1.58-3.37h1.86l.44-2.13h-1.86l-.44,2.13Z"/>
          <path d="m57.99,27.5v1.01h-5.74c0-.25.03-.5.12-.73.15-.39.38-.77.7-1.14.32-.38.79-.81,1.39-1.3.94-.77,1.58-1.37,1.91-1.82.33-.45.5-.87.5-1.27,0-.42-.15-.77-.45-1.06-.3-.29-.7-.43-1.18-.43-.51,0-.92.15-1.23.46-.31.3-.46.73-.47,1.27l-1.1-.11c.07-.81.36-1.42.85-1.85s1.15-.64,1.97-.64,1.49.23,1.98.69.73,1.02.73,1.7c0,.34-.07.68-.21,1.01s-.38.68-.71,1.05c-.33.37-.88.87-1.64,1.51-.64.53-1.05.89-1.23,1.08-.18.19-.33.38-.45.57h4.26Z"/>
        </g>
        <rect class="n" x="67.33" y="18.81" width="153.69" height="13"/>
      </g>
      <g id="f" data-name="1">
        <g>
          <path d="m.94,46.51v-8.59h3.27c.58,0,1.02.03,1.32.08.43.07.78.2,1.07.4s.52.47.7.83c.18.36.26.75.26,1.17,0,.73-.23,1.35-.7,1.85-.47.51-1.32.76-2.54.76h-2.23v3.49H.94Zm1.15-4.51h2.24c.74,0,1.27-.14,1.58-.41.31-.27.47-.66.47-1.15,0-.36-.09-.67-.27-.92s-.43-.42-.73-.51c-.19-.05-.55-.08-1.07-.08h-2.22v3.07Z"/>
          <path d="m8.87,46.51v-6.22h.96v.94c.24-.44.47-.73.68-.87.21-.14.44-.21.68-.21.36,0,.72.11,1.09.34l-.37.98c-.26-.15-.52-.23-.78-.23-.23,0-.44.07-.63.21s-.32.33-.4.58c-.12.38-.18.79-.18,1.23v3.26h-1.07Z"/>
          <path d="m12.53,43.4c0-1.15.32-2.01.97-2.56.54-.46,1.2-.69,1.98-.69.86,0,1.57.28,2.12.84.55.56.82,1.33.82,2.32,0,.8-.12,1.43-.36,1.89s-.6.82-1.06,1.07-.97.38-1.52.38c-.88,0-1.59-.28-2.13-.84s-.81-1.36-.81-2.41Zm1.1,0c0,.8.18,1.39.53,1.79s.79.59,1.33.59.97-.2,1.32-.6.53-1.01.53-1.82c0-.77-.18-1.35-.53-1.75s-.79-.59-1.32-.59-.98.2-1.33.59-.53.99-.53,1.79Z"/>
          <path d="m23.74,46.51v-.79c-.4.62-.98.93-1.76.93-.5,0-.96-.14-1.38-.41s-.75-.66-.98-1.15-.35-1.05-.35-1.69.1-1.18.31-1.69.52-.89.94-1.16c.42-.27.89-.4,1.4-.4.38,0,.72.08,1.01.24s.54.36.72.62v-3.08h1.06v8.59h-.99Zm-3.37-3.11c0,.8.17,1.39.51,1.79s.74.59,1.2.59.86-.19,1.19-.57c.33-.38.49-.95.49-1.73,0-.85-.17-1.48-.5-1.88s-.74-.6-1.23-.6-.87.19-1.19.57c-.32.38-.48.99-.48,1.81Z"/>
          <path d="m30.53,46.51v-.91c-.49.7-1.15,1.05-1.99,1.05-.37,0-.72-.07-1.04-.21s-.56-.32-.72-.53-.27-.47-.33-.78c-.04-.21-.06-.54-.06-.98v-3.86h1.07v3.45c0,.55.02.92.07,1.11.07.28.21.5.43.65.22.16.49.24.81.24s.62-.08.9-.24.48-.38.59-.66c.12-.28.17-.68.17-1.22v-3.33h1.07v6.22h-.95Z"/>
          <path d="m37.25,44.23l1.05.13c-.11.71-.41,1.27-.88,1.68s-1.05.61-1.74.61c-.86,0-1.55-.28-2.07-.83s-.78-1.35-.78-2.39c0-.67.11-1.26.34-1.76s.57-.88,1.03-1.13c.46-.25.96-.38,1.5-.38.68,0,1.24.17,1.68.51s.71.83.83,1.46l-1.04.16c-.1-.42-.27-.73-.52-.94s-.55-.32-.91-.32c-.54,0-.97.19-1.31.57s-.5.98-.5,1.81.16,1.44.49,1.82c.32.38.75.57,1.27.57.42,0,.77-.13,1.05-.38s.46-.64.53-1.17Z"/>
          <path d="m41.54,45.57l.15.93c-.3.06-.57.09-.81.09-.39,0-.69-.06-.9-.18-.21-.12-.36-.28-.45-.48s-.13-.61-.13-1.25v-3.58h-.78v-.82h.78v-1.54l1.06-.63v2.17h1.07v.82h-1.07v3.64c0,.3.02.49.06.58s.1.15.18.21c.08.05.21.08.36.08.12,0,.27-.01.47-.04Z"/>
          <path d="m45.76,46.66l.51-2.5h-1v-.87h1.18l.44-2.13h-1.62v-.87h1.79l.52-2.51h.89l-.52,2.51h1.86l.52-2.51h.89l-.51,2.51h1.02v.87h-1.2l-.44,2.13h1.65v.87h-1.82l-.52,2.5h-.89l.51-2.5h-1.86l-.52,2.5h-.89Zm1.58-3.37h1.86l.44-2.13h-1.86l-.44,2.13Z"/>
          <path d="m52.4,44.24l1.07-.14c.12.6.33,1.03.62,1.29s.65.4,1.07.4c.5,0,.92-.17,1.27-.52s.52-.77.52-1.28-.16-.88-.48-1.2c-.32-.31-.73-.47-1.22-.47-.2,0-.45.04-.75.12l.12-.93c.07,0,.13.01.17.01.45,0,.86-.12,1.23-.35.36-.23.54-.6.54-1.08,0-.39-.13-.71-.4-.96-.26-.25-.61-.38-1.02-.38s-.76.13-1.04.39-.45.64-.53,1.16l-1.07-.19c.13-.71.43-1.25.89-1.64.46-.39,1.04-.58,1.72-.58.47,0,.91.1,1.31.3s.7.48.91.82.32.72.32,1.11-.1.71-.3,1.01c-.2.3-.5.55-.89.73.51.12.91.36,1.2.73s.43.83.43,1.39c0,.75-.28,1.39-.83,1.91-.55.52-1.25.78-2.1.78-.76,0-1.39-.22-1.9-.67-.5-.45-.79-1.03-.86-1.75Z"/>
        </g>
        <rect class="n" x="67.33" y="36.81" width="153.69" height="13"/>
      </g>
      <g id="g" data-name="1">
        <g>
          <path d="m.94,64.51v-8.59h3.27c.58,0,1.02.03,1.32.08.43.07.78.2,1.07.4s.52.47.7.83c.18.36.26.75.26,1.17,0,.73-.23,1.35-.7,1.85-.47.51-1.32.76-2.54.76h-2.23v3.49H.94Zm1.15-4.51h2.24c.74,0,1.27-.14,1.58-.41.31-.27.47-.66.47-1.15,0-.36-.09-.67-.27-.92s-.43-.42-.73-.51c-.19-.05-.55-.08-1.07-.08h-2.22v3.07Z"/>
          <path d="m8.87,64.51v-6.22h.96v.94c.24-.44.47-.73.68-.87.21-.14.44-.21.68-.21.36,0,.72.11,1.09.34l-.37.98c-.26-.15-.52-.23-.78-.23-.23,0-.44.07-.63.21s-.32.33-.4.58c-.12.38-.18.79-.18,1.23v3.26h-1.07Z"/>
          <path d="m12.53,61.4c0-1.15.32-2.01.97-2.56.54-.46,1.2-.69,1.98-.69.86,0,1.57.28,2.12.84.55.56.82,1.33.82,2.32,0,.8-.12,1.43-.36,1.89s-.6.82-1.06,1.07-.97.38-1.52.38c-.88,0-1.59-.28-2.13-.84s-.81-1.36-.81-2.41Zm1.1,0c0,.8.18,1.39.53,1.79s.79.59,1.33.59.97-.2,1.32-.6.53-1.01.53-1.82c0-.77-.18-1.35-.53-1.75s-.79-.59-1.32-.59-.98.2-1.33.59-.53.99-.53,1.79Z"/>
          <path d="m23.74,64.51v-.79c-.4.62-.98.93-1.76.93-.5,0-.96-.14-1.38-.41s-.75-.66-.98-1.15-.35-1.05-.35-1.69.1-1.18.31-1.69.52-.89.94-1.16c.42-.27.89-.4,1.4-.4.38,0,.72.08,1.01.24s.54.36.72.62v-3.08h1.06v8.59h-.99Zm-3.37-3.11c0,.8.17,1.39.51,1.79s.74.59,1.2.59.86-.19,1.19-.57c.33-.38.49-.95.49-1.73,0-.85-.17-1.48-.5-1.88s-.74-.6-1.23-.6-.87.19-1.19.57c-.32.38-.48.99-.48,1.81Z"/>
          <path d="m30.53,64.51v-.91c-.49.7-1.15,1.05-1.99,1.05-.37,0-.72-.07-1.04-.21s-.56-.32-.72-.53-.27-.47-.33-.78c-.04-.21-.06-.54-.06-.98v-3.86h1.07v3.45c0,.55.02.92.07,1.11.07.28.21.5.43.65.22.16.49.24.81.24s.62-.08.9-.24.48-.38.59-.66c.12-.28.17-.68.17-1.22v-3.33h1.07v6.22h-.95Z"/>
          <path d="m37.25,62.23l1.05.13c-.11.71-.41,1.27-.88,1.68s-1.05.61-1.74.61c-.86,0-1.55-.28-2.07-.83s-.78-1.35-.78-2.39c0-.67.11-1.26.34-1.76s.57-.88,1.03-1.13c.46-.25.96-.38,1.5-.38.68,0,1.24.17,1.68.51s.71.83.83,1.46l-1.04.16c-.1-.42-.27-.73-.52-.94s-.55-.32-.91-.32c-.54,0-.97.19-1.31.57s-.5.98-.5,1.81.16,1.44.49,1.82c.32.38.75.57,1.27.57.42,0,.77-.13,1.05-.38s.46-.64.53-1.17Z"/>
          <path d="m41.54,63.57l.15.93c-.3.06-.57.09-.81.09-.39,0-.69-.06-.9-.18-.21-.12-.36-.28-.45-.48s-.13-.61-.13-1.25v-3.58h-.78v-.82h.78v-1.54l1.06-.63v2.17h1.07v.82h-1.07v3.64c0,.3.02.49.06.58s.1.15.18.21c.08.05.21.08.36.08.12,0,.27-.01.47-.04Z"/>
          <path d="m45.76,64.66l.51-2.5h-1v-.87h1.18l.44-2.13h-1.62v-.87h1.79l.52-2.51h.89l-.52,2.51h1.86l.52-2.51h.89l-.51,2.51h1.02v.87h-1.2l-.44,2.13h1.65v.87h-1.82l-.52,2.5h-.89l.51-2.5h-1.86l-.52,2.5h-.89Zm1.58-3.37h1.86l.44-2.13h-1.86l-.44,2.13Z"/>
          <path d="m55.81,64.51v-2.06h-3.76v-.97l3.96-5.57h.87v5.57h1.17v.97h-1.17v2.06h-1.07Zm0-3.02v-3.87l-2.72,3.87h2.72Z"/>
        </g>
        <rect class="n" x="67.33" y="54.81" width="153.69" height="13"/>
      </g>
      <g id="h" data-name="1">
        <g>
          <path d="m.94,82.51v-8.59h3.27c.58,0,1.02.03,1.32.08.43.07.78.2,1.07.4s.52.47.7.83c.18.36.26.75.26,1.17,0,.73-.23,1.35-.7,1.85-.47.51-1.32.76-2.54.76h-2.23v3.49H.94Zm1.15-4.51h2.24c.74,0,1.27-.14,1.58-.41.31-.27.47-.66.47-1.15,0-.36-.09-.67-.27-.92s-.43-.42-.73-.51c-.19-.05-.55-.08-1.07-.08h-2.22v3.07Z"/>
          <path d="m8.87,82.51v-6.22h.96v.94c.24-.44.47-.73.68-.87.21-.14.44-.21.68-.21.36,0,.72.11,1.09.34l-.37.98c-.26-.15-.52-.23-.78-.23-.23,0-.44.07-.63.21s-.32.33-.4.58c-.12.38-.18.79-.18,1.23v3.26h-1.07Z"/>
          <path d="m12.53,79.4c0-1.15.32-2.01.97-2.56.54-.46,1.2-.69,1.98-.69.86,0,1.57.28,2.12.84.55.56.82,1.33.82,2.32,0,.8-.12,1.43-.36,1.89s-.6.82-1.06,1.07-.97.38-1.52.38c-.88,0-1.59-.28-2.13-.84s-.81-1.36-.81-2.41Zm1.1,0c0,.8.18,1.39.53,1.79s.79.59,1.33.59.97-.2,1.32-.6.53-1.01.53-1.82c0-.77-.18-1.35-.53-1.75s-.79-.59-1.32-.59-.98.2-1.33.59-.53.99-.53,1.79Z"/>
          <path d="m23.74,82.51v-.79c-.4.62-.98.93-1.76.93-.5,0-.96-.14-1.38-.41s-.75-.66-.98-1.15-.35-1.05-.35-1.69.1-1.18.31-1.69.52-.89.94-1.16c.42-.27.89-.4,1.4-.4.38,0,.72.08,1.01.24s.54.36.72.62v-3.08h1.06v8.59h-.99Zm-3.37-3.11c0,.8.17,1.39.51,1.79s.74.59,1.2.59.86-.19,1.19-.57c.33-.38.49-.95.49-1.73,0-.85-.17-1.48-.5-1.88s-.74-.6-1.23-.6-.87.19-1.19.57c-.32.38-.48.99-.48,1.81Z"/>
          <path d="m30.53,82.51v-.91c-.49.7-1.15,1.05-1.99,1.05-.37,0-.72-.07-1.04-.21s-.56-.32-.72-.53-.27-.47-.33-.78c-.04-.21-.06-.54-.06-.98v-3.86h1.07v3.45c0,.55.02.92.07,1.11.07.28.21.5.43.65.22.16.49.24.81.24s.62-.08.9-.24.48-.38.59-.66c.12-.28.17-.68.17-1.22v-3.33h1.07v6.22h-.95Z"/>
          <path d="m37.25,80.23l1.05.13c-.11.71-.41,1.27-.88,1.68s-1.05.61-1.74.61c-.86,0-1.55-.28-2.07-.83s-.78-1.35-.78-2.39c0-.67.11-1.26.34-1.76s.57-.88,1.03-1.13c.46-.25.96-.38,1.5-.38.68,0,1.24.17,1.68.51s.71.83.83,1.46l-1.04.16c-.1-.42-.27-.73-.52-.94s-.55-.32-.91-.32c-.54,0-.97.19-1.31.57s-.5.98-.5,1.81.16,1.44.49,1.82c.32.38.75.57,1.27.57.42,0,.77-.13,1.05-.38s.46-.64.53-1.17Z"/>
          <path d="m41.54,81.57l.15.93c-.3.06-.57.09-.81.09-.39,0-.69-.06-.9-.18-.21-.12-.36-.28-.45-.48s-.13-.61-.13-1.25v-3.58h-.78v-.82h.78v-1.54l1.06-.63v2.17h1.07v.82h-1.07v3.64c0,.3.02.49.06.58s.1.15.18.21c.08.05.21.08.36.08.12,0,.27-.01.47-.04Z"/>
          <path d="m45.76,82.66l.51-2.5h-1v-.87h1.18l.44-2.13h-1.62v-.87h1.79l.52-2.51h.89l-.52,2.51h1.86l.52-2.51h.89l-.51,2.51h1.02v.87h-1.2l-.44,2.13h1.65v.87h-1.82l-.52,2.5h-.89l.51-2.5h-1.86l-.52,2.5h-.89Zm1.58-3.37h1.86l.44-2.13h-1.86l-.44,2.13Z"/>
          <path d="m52.39,80.26l1.12-.09c.08.54.27.94.58,1.22.3.27.67.41,1.09.41.51,0,.95-.19,1.3-.57.36-.38.53-.89.53-1.52s-.17-1.08-.51-1.42-.79-.52-1.34-.52c-.34,0-.65.08-.93.23-.28.15-.49.35-.65.6l-1-.13.84-4.41h4.31v1.01h-3.46l-.47,2.31c.52-.36,1.07-.54,1.64-.54.76,0,1.4.26,1.92.78s.78,1.19.78,2-.23,1.45-.69,2.02c-.56.7-1.32,1.04-2.28,1.04-.79,0-1.43-.22-1.93-.66-.5-.44-.78-1.02-.86-1.74Z"/>
        </g>
        <rect class="n" x="67.33" y="72.81" width="153.69" height="13"/>
      </g>
      <g id="i" data-name="1">
        <g>
          <path d="m1.26,100.3v-8.59h3.27c.58,0,1.02.03,1.32.08.43.07.78.2,1.07.4s.52.47.7.83c.18.36.26.75.26,1.17,0,.73-.23,1.35-.7,1.85-.47.51-1.32.76-2.54.76h-2.23v3.49h-1.15Zm1.15-4.51h2.24c.74,0,1.27-.14,1.58-.41.31-.27.47-.66.47-1.15,0-.36-.09-.67-.27-.92s-.43-.42-.73-.51c-.19-.05-.55-.08-1.07-.08h-2.22v3.07Z"/>
          <path d="m9.2,100.3v-6.22h.96v.94c.24-.44.47-.73.68-.87.21-.14.44-.21.68-.21.36,0,.72.11,1.09.34l-.37.98c-.26-.15-.52-.23-.78-.23-.23,0-.44.07-.63.21s-.32.33-.4.58c-.12.38-.18.79-.18,1.23v3.26h-1.07Z"/>
          <path d="m12.85,97.19c0-1.15.32-2.01.97-2.56.54-.46,1.2-.69,1.98-.69.86,0,1.57.28,2.12.84.55.56.82,1.34.82,2.32,0,.8-.12,1.43-.36,1.89s-.6.82-1.06,1.07-.97.38-1.52.38c-.88,0-1.59-.28-2.13-.84s-.81-1.36-.81-2.41Zm1.1,0c0,.8.18,1.39.53,1.79s.79.6,1.33.6.97-.2,1.32-.6.53-1.01.53-1.82c0-.77-.18-1.35-.53-1.75s-.79-.59-1.32-.59-.98.2-1.33.59-.53.99-.53,1.79Z"/>
          <path d="m24.07,100.3v-.79c-.4.62-.98.93-1.76.93-.5,0-.96-.14-1.38-.41s-.75-.66-.98-1.15-.35-1.05-.35-1.69.1-1.19.31-1.69.52-.89.94-1.16c.42-.27.89-.4,1.4-.4.38,0,.72.08,1.01.24s.54.37.72.62v-3.08h1.06v8.59h-.99Zm-3.37-3.11c0,.8.17,1.39.51,1.79s.74.59,1.2.59.86-.19,1.19-.57c.33-.38.49-.95.49-1.72,0-.85-.17-1.48-.5-1.88s-.74-.6-1.23-.6-.87.19-1.19.57c-.32.38-.48.99-.48,1.81Z"/>
          <path d="m30.85,100.3v-.91c-.49.7-1.15,1.05-1.99,1.05-.37,0-.72-.07-1.04-.21s-.56-.32-.72-.53-.27-.47-.33-.78c-.04-.21-.06-.54-.06-.98v-3.86h1.07v3.45c0,.55.02.92.07,1.11.07.28.21.49.43.65.22.16.49.24.81.24s.62-.08.9-.24.48-.38.59-.66c.12-.28.17-.68.17-1.21v-3.33h1.07v6.22h-.95Z"/>
          <path d="m37.58,98.02l1.05.13c-.11.71-.41,1.27-.88,1.68s-1.05.61-1.74.61c-.86,0-1.55-.28-2.07-.84s-.78-1.35-.78-2.39c0-.67.11-1.26.34-1.76s.57-.88,1.03-1.13c.46-.25.96-.38,1.5-.38.68,0,1.24.17,1.68.51s.71.83.83,1.46l-1.04.16c-.1-.42-.27-.73-.52-.94s-.55-.32-.91-.32c-.54,0-.97.19-1.31.57s-.5.98-.5,1.81.16,1.44.49,1.82c.32.38.75.57,1.27.57.42,0,.77-.13,1.05-.38s.46-.64.53-1.17Z"/>
          <path d="m41.86,99.35l.15.93c-.3.06-.57.09-.81.09-.39,0-.69-.06-.9-.18-.21-.12-.36-.28-.45-.48s-.13-.61-.13-1.24v-3.58h-.78v-.82h.78v-1.54l1.06-.63v2.17h1.07v.82h-1.07v3.64c0,.3.02.49.06.58s.1.15.18.21c.08.05.21.08.36.08.12,0,.27-.01.47-.04Z"/>
          <path d="m46.08,100.44l.51-2.5h-1v-.87h1.18l.44-2.13h-1.62v-.87h1.79l.52-2.51h.89l-.52,2.51h1.86l.52-2.51h.89l-.51,2.51h1.02v.87h-1.2l-.44,2.13h1.65v.87h-1.82l-.52,2.5h-.89l.51-2.5h-1.86l-.52,2.5h-.89Zm1.58-3.37h1.86l.44-2.13h-1.86l-.44,2.13Z"/>
          <path d="m58.25,93.81l-1.06.08c-.09-.41-.23-.71-.4-.9-.29-.3-.64-.45-1.07-.45-.34,0-.64.09-.89.28-.34.24-.6.6-.79,1.06s-.29,1.13-.3,1.99c.26-.39.57-.67.94-.86s.76-.28,1.17-.28c.71,0,1.31.26,1.81.78.5.52.75,1.19.75,2.01,0,.54-.12,1.04-.35,1.5s-.56.82-.97,1.06-.88.37-1.4.37c-.89,0-1.61-.32-2.17-.97-.56-.65-.84-1.71-.84-3.2,0-1.66.31-2.87.93-3.62.54-.66,1.27-.98,2.18-.98.68,0,1.24.19,1.68.57s.7.9.78,1.57Zm-4.35,3.7c0,.36.08.71.23,1.04.16.33.37.58.65.76s.57.26.88.26c.45,0,.84-.18,1.16-.54.32-.36.49-.85.49-1.46s-.16-1.06-.48-1.4-.72-.51-1.21-.51-.89.17-1.23.51-.5.79-.5,1.35Z"/>
        </g>
        <rect class="n" x="67.64" y="90.6" width="153.69" height="13"/>
      </g>
      <g id="j" data-name="1">
        <g>
          <path d="m.94,118.51v-8.59h3.27c.58,0,1.02.03,1.32.08.43.07.78.2,1.07.4s.52.47.7.83c.18.36.26.75.26,1.17,0,.73-.23,1.35-.7,1.85-.47.51-1.32.76-2.54.76h-2.23v3.49H.94Zm1.15-4.51h2.24c.74,0,1.27-.14,1.58-.41.31-.27.47-.66.47-1.15,0-.36-.09-.67-.27-.92s-.43-.42-.73-.51c-.19-.05-.55-.08-1.07-.08h-2.22v3.07Z"/>
          <path d="m8.87,118.51v-6.22h.96v.94c.24-.44.47-.73.68-.87.21-.14.44-.21.68-.21.36,0,.72.11,1.09.34l-.37.98c-.26-.15-.52-.23-.78-.23-.23,0-.44.07-.63.21s-.32.33-.4.58c-.12.38-.18.79-.18,1.23v3.26h-1.07Z"/>
          <path d="m12.53,115.4c0-1.15.32-2.01.97-2.56.54-.46,1.2-.69,1.98-.69.86,0,1.57.28,2.12.84.55.56.82,1.34.82,2.32,0,.8-.12,1.43-.36,1.89s-.6.82-1.06,1.07-.97.38-1.52.38c-.88,0-1.59-.28-2.13-.84s-.81-1.36-.81-2.41Zm1.1,0c0,.8.18,1.39.53,1.79s.79.6,1.33.6.97-.2,1.32-.6.53-1.01.53-1.82c0-.77-.18-1.35-.53-1.75s-.79-.59-1.32-.59-.98.2-1.33.59-.53.99-.53,1.79Z"/>
          <path d="m23.74,118.51v-.79c-.4.62-.98.93-1.76.93-.5,0-.96-.14-1.38-.41s-.75-.66-.98-1.15-.35-1.05-.35-1.69.1-1.19.31-1.69.52-.89.94-1.16c.42-.27.89-.4,1.4-.4.38,0,.72.08,1.01.24s.54.37.72.62v-3.08h1.06v8.59h-.99Zm-3.37-3.11c0,.8.17,1.39.51,1.79s.74.59,1.2.59.86-.19,1.19-.57c.33-.38.49-.95.49-1.72,0-.85-.17-1.48-.5-1.88s-.74-.6-1.23-.6-.87.19-1.19.57c-.32.38-.48.99-.48,1.81Z"/>
          <path d="m30.53,118.51v-.91c-.49.7-1.15,1.05-1.99,1.05-.37,0-.72-.07-1.04-.21s-.56-.32-.72-.53-.27-.47-.33-.78c-.04-.21-.06-.54-.06-.98v-3.86h1.07v3.45c0,.55.02.92.07,1.11.07.28.21.49.43.65.22.16.49.24.81.24s.62-.08.9-.24.48-.38.59-.66c.12-.28.17-.68.17-1.21v-3.33h1.07v6.22h-.95Z"/>
          <path d="m37.25,116.23l1.05.13c-.11.71-.41,1.27-.88,1.68s-1.05.61-1.74.61c-.86,0-1.55-.28-2.07-.84s-.78-1.35-.78-2.39c0-.67.11-1.26.34-1.76s.57-.88,1.03-1.13c.46-.25.96-.38,1.5-.38.68,0,1.24.17,1.68.51s.71.83.83,1.46l-1.04.16c-.1-.42-.27-.73-.52-.94s-.55-.32-.91-.32c-.54,0-.97.19-1.31.57s-.5.98-.5,1.81.16,1.44.49,1.82c.32.38.75.57,1.27.57.42,0,.77-.13,1.05-.38s.46-.64.53-1.17Z"/>
          <path d="m41.54,117.57l.15.93c-.3.06-.57.09-.81.09-.39,0-.69-.06-.9-.18-.21-.12-.36-.28-.45-.48s-.13-.61-.13-1.24v-3.58h-.78v-.82h.78v-1.54l1.06-.63v2.17h1.07v.82h-1.07v3.64c0,.3.02.49.06.58s.1.15.18.21c.08.05.21.08.36.08.12,0,.27-.01.47-.04Z"/>
          <path d="m45.76,118.66l.51-2.5h-1v-.87h1.18l.44-2.13h-1.62v-.87h1.79l.52-2.51h.89l-.52,2.51h1.86l.52-2.51h.89l-.51,2.51h1.02v.87h-1.2l-.44,2.13h1.65v.87h-1.82l-.52,2.5h-.89l.51-2.5h-1.86l-.52,2.5h-.89Zm1.58-3.37h1.86l.44-2.13h-1.86l-.44,2.13Z"/>
          <path d="m52.46,111.05v-1.01h5.62v.82c-.55.58-1.1,1.36-1.64,2.32-.54.96-.96,1.96-1.26,2.98-.21.72-.35,1.51-.41,2.36h-1.1c.01-.68.15-1.49.4-2.45.26-.96.62-1.88,1.1-2.77s.99-1.64,1.53-2.25h-4.25Z"/>
        </g>
        <rect class="n" x="67.33" y="108.81" width="153.69" height="13"/>
      </g>
      <g id="k" data-name="1">
        <g>
          <path d="m.94,136.51v-8.59h3.27c.58,0,1.02.03,1.32.08.43.07.78.2,1.07.4s.52.47.7.83c.18.36.26.75.26,1.17,0,.73-.23,1.35-.7,1.85-.47.51-1.32.76-2.54.76h-2.23v3.49H.94Zm1.15-4.51h2.24c.74,0,1.27-.14,1.58-.41.31-.27.47-.66.47-1.15,0-.36-.09-.67-.27-.92s-.43-.42-.73-.51c-.19-.05-.55-.08-1.07-.08h-2.22v3.07Z"/>
          <path d="m8.87,136.51v-6.22h.96v.94c.24-.44.47-.73.68-.87.21-.14.44-.21.68-.21.36,0,.72.11,1.09.34l-.37.98c-.26-.15-.52-.23-.78-.23-.23,0-.44.07-.63.21s-.32.33-.4.58c-.12.38-.18.79-.18,1.23v3.26h-1.07Z"/>
          <path d="m12.53,133.4c0-1.15.32-2.01.97-2.56.54-.46,1.2-.69,1.98-.69.86,0,1.57.28,2.12.84.55.56.82,1.34.82,2.32,0,.8-.12,1.43-.36,1.89s-.6.82-1.06,1.07-.97.38-1.52.38c-.88,0-1.59-.28-2.13-.84s-.81-1.36-.81-2.41Zm1.1,0c0,.8.18,1.39.53,1.79s.79.6,1.33.6.97-.2,1.32-.6.53-1.01.53-1.82c0-.77-.18-1.35-.53-1.75s-.79-.59-1.32-.59-.98.2-1.33.59-.53.99-.53,1.79Z"/>
          <path d="m23.74,136.51v-.79c-.4.62-.98.93-1.76.93-.5,0-.96-.14-1.38-.41s-.75-.66-.98-1.15-.35-1.05-.35-1.69.1-1.19.31-1.69.52-.89.94-1.16c.42-.27.89-.4,1.4-.4.38,0,.72.08,1.01.24s.54.37.72.62v-3.08h1.06v8.59h-.99Zm-3.37-3.11c0,.8.17,1.39.51,1.79s.74.59,1.2.59.86-.19,1.19-.57c.33-.38.49-.95.49-1.72,0-.85-.17-1.48-.5-1.88s-.74-.6-1.23-.6-.87.19-1.19.57c-.32.38-.48.99-.48,1.81Z"/>
          <path d="m30.53,136.51v-.91c-.49.7-1.15,1.05-1.99,1.05-.37,0-.72-.07-1.04-.21s-.56-.32-.72-.53-.27-.47-.33-.78c-.04-.21-.06-.54-.06-.98v-3.86h1.07v3.45c0,.55.02.92.07,1.11.07.28.21.49.43.65.22.16.49.24.81.24s.62-.08.9-.24.48-.38.59-.66c.12-.28.17-.68.17-1.21v-3.33h1.07v6.22h-.95Z"/>
          <path d="m37.25,134.23l1.05.13c-.11.71-.41,1.27-.88,1.68s-1.05.61-1.74.61c-.86,0-1.55-.28-2.07-.84s-.78-1.35-.78-2.39c0-.67.11-1.26.34-1.76s.57-.88,1.03-1.13c.46-.25.96-.38,1.5-.38.68,0,1.24.17,1.68.51s.71.83.83,1.46l-1.04.16c-.1-.42-.27-.73-.52-.94s-.55-.32-.91-.32c-.54,0-.97.19-1.31.57s-.5.98-.5,1.81.16,1.44.49,1.82c.32.38.75.57,1.27.57.42,0,.77-.13,1.05-.38s.46-.64.53-1.17Z"/>
          <path d="m41.54,135.57l.15.93c-.3.06-.57.09-.81.09-.39,0-.69-.06-.9-.18-.21-.12-.36-.28-.45-.48s-.13-.61-.13-1.24v-3.58h-.78v-.82h.78v-1.54l1.06-.63v2.17h1.07v.82h-1.07v3.64c0,.3.02.49.06.58s.1.15.18.21c.08.05.21.08.36.08.12,0,.27-.01.47-.04Z"/>
          <path d="m45.76,136.66l.51-2.5h-1v-.87h1.18l.44-2.13h-1.62v-.87h1.79l.52-2.51h.89l-.52,2.51h1.86l.52-2.51h.89l-.51,2.51h1.02v.87h-1.2l-.44,2.13h1.65v.87h-1.82l-.52,2.5h-.89l.51-2.5h-1.86l-.52,2.5h-.89Zm1.58-3.37h1.86l.44-2.13h-1.86l-.44,2.13Z"/>
          <path d="m54.03,131.85c-.44-.16-.77-.39-.98-.69-.21-.3-.32-.65-.32-1.07,0-.62.23-1.15.68-1.58.45-.43,1.06-.64,1.81-.64s1.37.22,1.83.65c.46.44.69.97.69,1.59,0,.4-.11.74-.32,1.04s-.53.52-.96.68c.53.17.94.45,1.22.83.28.38.42.84.42,1.37,0,.73-.26,1.35-.79,1.85-.52.5-1.22.75-2.07.75s-1.55-.25-2.07-.75c-.52-.5-.79-1.13-.79-1.88,0-.56.14-1.03.43-1.4s.69-.63,1.22-.77Zm-.56,2.18c0,.3.07.59.22.87s.36.5.64.65.59.23.92.23c.51,0,.93-.16,1.26-.49s.5-.74.5-1.24-.17-.93-.51-1.26-.77-.5-1.28-.5-.92.16-1.25.49-.49.74-.49,1.23Zm.34-3.97c0,.41.13.74.4,1,.26.26.61.39,1.03.39s.75-.13,1.01-.38c.26-.26.39-.57.39-.94s-.14-.71-.41-.98c-.27-.26-.61-.39-1.01-.39s-.74.13-1.01.39c-.27.26-.4.57-.4.93Z"/>
        </g>
        <rect class="n" x="67.33" y="126.81" width="153.69" height="13"/>
      </g>
      <g id="l" data-name="1">
        <g>
          <path d="m.94,154.51v-8.59h3.27c.58,0,1.02.03,1.32.08.43.07.78.2,1.07.4s.52.47.7.83c.18.36.26.75.26,1.17,0,.73-.23,1.35-.7,1.85-.47.51-1.32.76-2.54.76h-2.23v3.49H.94Zm1.15-4.51h2.24c.74,0,1.27-.14,1.58-.41.31-.27.47-.66.47-1.15,0-.36-.09-.67-.27-.92s-.43-.42-.73-.51c-.19-.05-.55-.08-1.07-.08h-2.22v3.07Z"/>
          <path d="m8.87,154.51v-6.22h.96v.94c.24-.44.47-.73.68-.87.21-.14.44-.21.68-.21.36,0,.72.11,1.09.34l-.37.98c-.26-.15-.52-.23-.78-.23-.23,0-.44.07-.63.21s-.32.33-.4.58c-.12.38-.18.79-.18,1.23v3.26h-1.07Z"/>
          <path d="m12.53,151.4c0-1.15.32-2.01.97-2.56.54-.46,1.2-.69,1.98-.69.86,0,1.57.28,2.12.84.55.56.82,1.34.82,2.32,0,.8-.12,1.43-.36,1.89s-.6.82-1.06,1.07-.97.38-1.52.38c-.88,0-1.59-.28-2.13-.84s-.81-1.36-.81-2.41Zm1.1,0c0,.8.18,1.39.53,1.79s.79.6,1.33.6.97-.2,1.32-.6.53-1.01.53-1.82c0-.77-.18-1.35-.53-1.75s-.79-.59-1.32-.59-.98.2-1.33.59-.53.99-.53,1.79Z"/>
          <path d="m23.74,154.51v-.79c-.4.62-.98.93-1.76.93-.5,0-.96-.14-1.38-.41s-.75-.66-.98-1.15-.35-1.05-.35-1.69.1-1.19.31-1.69.52-.89.94-1.16c.42-.27.89-.4,1.4-.4.38,0,.72.08,1.01.24s.54.37.72.62v-3.08h1.06v8.59h-.99Zm-3.37-3.11c0,.8.17,1.39.51,1.79s.74.59,1.2.59.86-.19,1.19-.57c.33-.38.49-.95.49-1.72,0-.85-.17-1.48-.5-1.88s-.74-.6-1.23-.6-.87.19-1.19.57c-.32.38-.48.99-.48,1.81Z"/>
          <path d="m30.53,154.51v-.91c-.49.7-1.15,1.05-1.99,1.05-.37,0-.72-.07-1.04-.21s-.56-.32-.72-.53-.27-.47-.33-.78c-.04-.21-.06-.54-.06-.98v-3.86h1.07v3.45c0,.55.02.92.07,1.11.07.28.21.49.43.65.22.16.49.24.81.24s.62-.08.9-.24.48-.38.59-.66c.12-.28.17-.68.17-1.21v-3.33h1.07v6.22h-.95Z"/>
          <path d="m37.25,152.23l1.05.13c-.11.71-.41,1.27-.88,1.68s-1.05.61-1.74.61c-.86,0-1.55-.28-2.07-.84s-.78-1.35-.78-2.39c0-.67.11-1.26.34-1.76s.57-.88,1.03-1.13c.46-.25.96-.38,1.5-.38.68,0,1.24.17,1.68.51s.71.83.83,1.46l-1.04.16c-.1-.42-.27-.73-.52-.94s-.55-.32-.91-.32c-.54,0-.97.19-1.31.57s-.5.98-.5,1.81.16,1.44.49,1.82c.32.38.75.57,1.27.57.42,0,.77-.13,1.05-.38s.46-.64.53-1.17Z"/>
          <path d="m41.54,153.57l.15.93c-.3.06-.57.09-.81.09-.39,0-.69-.06-.9-.18-.21-.12-.36-.28-.45-.48s-.13-.61-.13-1.24v-3.58h-.78v-.82h.78v-1.54l1.06-.63v2.17h1.07v.82h-1.07v3.64c0,.3.02.49.06.58s.1.15.18.21c.08.05.21.08.36.08.12,0,.27-.01.47-.04Z"/>
          <path d="m45.76,154.66l.51-2.5h-1v-.87h1.18l.44-2.13h-1.62v-.87h1.79l.52-2.51h.89l-.52,2.51h1.86l.52-2.51h.89l-.51,2.51h1.02v.87h-1.2l-.44,2.13h1.65v.87h-1.82l-.52,2.5h-.89l.51-2.5h-1.86l-.52,2.5h-.89Zm1.58-3.37h1.86l.44-2.13h-1.86l-.44,2.13Z"/>
          <path d="m52.55,152.52l1.02-.09c.09.48.25.82.5,1.04s.56.32.94.32c.33,0,.61-.07.86-.22s.45-.35.61-.6c.16-.25.29-.58.4-1,.11-.42.16-.85.16-1.29,0-.05,0-.12,0-.21-.21.34-.5.61-.87.82-.37.21-.77.31-1.2.31-.72,0-1.33-.26-1.82-.77s-.75-1.2-.75-2.04.26-1.57.78-2.1c.52-.53,1.17-.8,1.95-.8.56,0,1.08.15,1.55.45.47.3.82.73,1.07,1.29s.36,1.36.36,2.42-.12,1.97-.36,2.62-.6,1.15-1.07,1.49-1.03.51-1.67.51c-.68,0-1.23-.19-1.66-.56s-.69-.9-.78-1.57Zm4.36-3.79c0-.61-.16-1.09-.49-1.44s-.72-.53-1.17-.53-.89.19-1.24.57-.53.88-.53,1.49c0,.55.17.99.5,1.33.33.34.74.51,1.23.51s.9-.17,1.22-.51c.32-.34.48-.81.48-1.42Z"/>
        </g>
        <rect class="n" x="67.33" y="144.81" width="153.69" height="13"/>
      </g>
      <g id="m" data-name="1">
        <g>
          <path d="m.94,172.51v-8.59h3.27c.58,0,1.02.03,1.32.08.43.07.78.2,1.07.4s.52.47.7.83c.18.36.26.75.26,1.17,0,.73-.23,1.35-.7,1.85-.47.51-1.32.76-2.54.76h-2.23v3.49H.94Zm1.15-4.51h2.24c.74,0,1.27-.14,1.58-.41.31-.27.47-.66.47-1.15,0-.36-.09-.67-.27-.92s-.43-.42-.73-.51c-.19-.05-.55-.08-1.07-.08h-2.22v3.07Z"/>
          <path d="m8.87,172.51v-6.22h.96v.94c.24-.44.47-.73.68-.87.21-.14.44-.21.68-.21.36,0,.72.11,1.09.34l-.37.98c-.26-.15-.52-.23-.78-.23-.23,0-.44.07-.63.21s-.32.33-.4.58c-.12.38-.18.79-.18,1.23v3.26h-1.07Z"/>
          <path d="m12.53,169.4c0-1.15.32-2.01.97-2.56.54-.46,1.2-.69,1.98-.69.86,0,1.57.28,2.12.84.55.56.82,1.34.82,2.32,0,.8-.12,1.43-.36,1.89s-.6.82-1.06,1.07-.97.38-1.52.38c-.88,0-1.59-.28-2.13-.84s-.81-1.36-.81-2.41Zm1.1,0c0,.8.18,1.39.53,1.79s.79.6,1.33.6.97-.2,1.32-.6.53-1.01.53-1.82c0-.77-.18-1.35-.53-1.75s-.79-.59-1.32-.59-.98.2-1.33.59-.53.99-.53,1.79Z"/>
          <path d="m23.74,172.51v-.79c-.4.62-.98.93-1.76.93-.5,0-.96-.14-1.38-.41s-.75-.66-.98-1.15-.35-1.05-.35-1.69.1-1.19.31-1.69.52-.89.94-1.16c.42-.27.89-.4,1.4-.4.38,0,.72.08,1.01.24s.54.37.72.62v-3.08h1.06v8.59h-.99Zm-3.37-3.11c0,.8.17,1.39.51,1.79s.74.59,1.2.59.86-.19,1.19-.57c.33-.38.49-.95.49-1.72,0-.85-.17-1.48-.5-1.88s-.74-.6-1.23-.6-.87.19-1.19.57c-.32.38-.48.99-.48,1.81Z"/>
          <path d="m30.53,172.51v-.91c-.49.7-1.15,1.05-1.99,1.05-.37,0-.72-.07-1.04-.21s-.56-.32-.72-.53-.27-.47-.33-.78c-.04-.21-.06-.54-.06-.98v-3.86h1.07v3.45c0,.55.02.92.07,1.11.07.28.21.49.43.65.22.16.49.24.81.24s.62-.08.9-.24.48-.38.59-.66c.12-.28.17-.68.17-1.21v-3.33h1.07v6.22h-.95Z"/>
          <path d="m37.25,170.23l1.05.13c-.11.71-.41,1.27-.88,1.68s-1.05.61-1.74.61c-.86,0-1.55-.28-2.07-.84s-.78-1.35-.78-2.39c0-.67.11-1.26.34-1.76s.57-.88,1.03-1.13c.46-.25.96-.38,1.5-.38.68,0,1.24.17,1.68.51s.71.83.83,1.46l-1.04.16c-.1-.42-.27-.73-.52-.94s-.55-.32-.91-.32c-.54,0-.97.19-1.31.57s-.5.98-.5,1.81.16,1.44.49,1.82c.32.38.75.57,1.27.57.42,0,.77-.13,1.05-.38s.46-.64.53-1.17Z"/>
          <path d="m41.54,171.57l.15.93c-.3.06-.57.09-.81.09-.39,0-.69-.06-.9-.18-.21-.12-.36-.28-.45-.48s-.13-.61-.13-1.24v-3.58h-.78v-.82h.78v-1.54l1.06-.63v2.17h1.07v.82h-1.07v3.64c0,.3.02.49.06.58s.1.15.18.21c.08.05.21.08.36.08.12,0,.27-.01.47-.04Z"/>
          <path d="m45.76,172.66l.51-2.5h-1v-.87h1.18l.44-2.13h-1.62v-.87h1.79l.52-2.51h.89l-.52,2.51h1.86l.52-2.51h.89l-.51,2.51h1.02v.87h-1.2l-.44,2.13h1.65v.87h-1.82l-.52,2.5h-.89l.51-2.5h-1.86l-.52,2.5h-.89Zm1.58-3.37h1.86l.44-2.13h-1.86l-.44,2.13Z"/>
          <path d="m56.41,172.51h-1.07v-6.72c-.26.24-.59.48-1.01.73-.42.24-.79.42-1.12.54v-1.02c.6-.28,1.12-.61,1.56-1.01.45-.39.76-.78.95-1.15h.69v8.62Z"/>
          <path d="m59.13,168.27c0-1.02.11-1.83.32-2.45s.52-1.1.94-1.43c.42-.34.94-.5,1.57-.5.47,0,.87.09,1.23.28.35.19.64.45.87.8.23.35.41.78.54,1.28s.2,1.18.2,2.03c0,1.01-.1,1.82-.31,2.44-.21.62-.52,1.1-.94,1.44s-.94.51-1.58.51c-.84,0-1.49-.3-1.97-.89-.57-.71-.86-1.88-.86-3.49Zm1.1,0c0,1.41.17,2.35.5,2.81.33.47.74.7,1.23.7s.9-.23,1.23-.7.5-1.41.5-2.81-.17-2.35-.5-2.82-.75-.7-1.25-.7-.88.21-1.17.62c-.37.52-.55,1.49-.55,2.9Z"/>
        </g>
        <rect class="n" x="67.33" y="162.81" width="153.69" height="13"/>
      </g>
    </g>
  </g>
</svg>