<svg xmlns="http://www.w3.org/2000/svg" width="137.48" height="194.89" viewBox="0 0 137.48 194.89">
  <defs>
    <style>
      .a {
        fill: #e44d26;
      }

      .b {
        fill: #f16529;
      }

      .c {
        fill: #ebebeb;
      }
    </style>
  </defs>
  <title>html</title>
  <g>
    <polygon class="a" points="0 40.16 137.49 40.16 124.99 178.9 68.99 194.9 13 179.9 0 40.16"/>
    <polygon class="b" points="68.99 51.91 124.99 51.91 113.99 170.9 68.99 183.9 68.99 51.91"/>
    <polygon class="c" points="26 68.91 111.99 68.91 109.99 85.91 44.99 85.91 45.99 102.91 107.99 102.91 103.99 155.9 68.99 165.79 33 155.9 31.5 129.4 48.49 129.4 49.49 142.4 68.74 147.37 87.49 142.4 89.49 120.4 30.5 120.4 26 68.91"/>
    <polygon points="15 0 15 27 23.75 27 23.75 17.91 31.62 17.91 31.62 27 40 27 40 0 31.62 0 31.62 8.42 23.75 8.42 23.75 0 15 0"/>
    <polygon points="43.99 0 67.99 0 67.99 8.92 59.99 8.92 59.99 27 51.99 27 51.99 8.92 43.99 8.92 43.99 0"/>
    <polygon points="71.99 0 71.99 27 79.99 27 79.99 12.91 86.24 22.91 91.99 13.91 91.99 27 100.99 27 100.99 0 91.99 0 86.24 9.42 81.49 0 71.99 0"/>
    <polygon points="104.99 0 113.99 0 113.99 17.91 125.99 17.91 125.99 27 104.99 27 104.99 0"/>
  </g>
</svg>
