<svg xmlns="http://www.w3.org/2000/svg" width="137.48" height="194.73" viewBox="0 0 137.48 194.73">
  <defs>
    <style>
      .a {
        fill: #0070ba;
      }

      .b {
        fill: #29a8e0;
      }

      .c {
        fill: #fff;
      }
    </style>
  </defs>
  <title>css</title>
  <g>
    <polygon class="a" points="0 40 137.49 40 124.99 178.73 68.99 194.73 13 179.73 0 40"/>
    <polygon class="b" points="68.99 49.99 124.99 49.99 113.99 168.98 68.99 181.98 68.99 49.99"/>
    <polygon class="c" points="24 66.99 111.99 66.99 103.99 153.98 68.99 163.98 33 153.98 30 128.49 48.49 128.49 49.49 140.48 68.99 145.35 87.49 139.48 89.49 118.49 29.5 118.49 27.5 100.99 90.99 100.99 92.49 84.49 25.5 84.49 24 66.99"/>
    <polygon points="28.5 0 52.99 0 52.99 10 40 10 40 17 52.99 17 52.99 27 28.5 27 28.5 0"/>
    <polygon points="56.12 0 80.99 0 80.99 9.5 70.99 9.5 80.99 17.16 80.99 27 56.12 27 56.12 17.16 67.49 17.16 56.12 9.5 56.12 0"/>
    <polygon points="84.12 0 108.99 0 108.99 9.5 98.99 9.5 108.99 17.16 108.99 27 84.12 27 84.12 17.16 95.49 17.16 84.12 9.5 84.12 0"/>
  </g>
</svg>
