<svg xmlns="http://www.w3.org/2000/svg" width="137.48" height="194.73" viewBox="0 0 137.48 194.73">
  <defs>
    <style>
      .a {
        fill: #63a814;
      }

      .b {
        fill: #8acf17;
      }

      .c {
        fill: #fff;
      }
    </style>
  </defs>
  <title>js</title>
  <g>
    <polygon class="a" points="0 40 137.49 40 124.99 178.73 68.99 194.73 13 179.73 0 40"/>
    <polygon class="b" points="68.99 49.99 124.99 49.99 113.99 168.98 68.99 181.98 68.99 49.99"/>
    <polygon class="c" points="24 66.99 111.99 66.99 103.99 153.98 68.99 163.98 33 153.98 30 128.49 48.49 128.49 49.49 140.48 68.99 145.35 87.49 139.48 92.49 84.49 25.5 84.49 24 66.99"/>
    <polygon points="66.99 0 55.49 0 55.49 17 42.49 17 42.49 27 66.99 27 66.99 0"/>
    <polygon points="70.12 0 94.99 0 94.99 9.5 84.99 9.5 94.99 17.16 94.99 27 70.12 27 70.12 17.16 81.49 17.16 70.12 9.5 70.12 0"/>
  </g>
</svg>
