<svg xmlns="http://www.w3.org/2000/svg" width="139.82" height="191.65" viewBox="0 0 139.82 191.65">
  <defs>
    <style>
      .a, .e {
        fill: #8cc64c;
      }

      .b {
        fill: #aed373;
      }

      .c {
        fill: none;
        stroke: gray;
      }

      .c, .e {
        stroke-miterlimit: 10;
        stroke-width: 0.5px;
      }

      .d {
        fill: #46483e;
      }

      .e {
        stroke: #46483e;
      }

      .f {
        fill: #fff;
      }
    </style>
  </defs>
  <title>node</title>
  <g>
    <g>
      <polygon class="a" points="8.05 44.96 131.25 44.96 120.05 169.28 69.87 183.62 19.7 170.18 8.05 44.96"/>
      <polygon class="b" points="69.87 53.6 120.05 53.6 110.19 160.22 69.87 171.87 69.87 53.6"/>
    </g>
    <path class="c" d="M11.38,172.39.27,43.1c0-.15,0-.3,0-.45V5.45A5.2,5.2,0,0,1,5.45.25H134.37a5.2,5.2,0,0,1,5.2,5.2V44.71a4,4,0,0,1,0,.49L127.43,172.44a5.21,5.21,0,0,1-3.73,4.5L78,190.23a29.41,29.41,0,0,1-16.27,0L15.13,176.94A5.19,5.19,0,0,1,11.38,172.39Z"/>
    <polygon class="d" points="16.89 10.65 16.89 34.56 24.16 34.56 24.16 24.16 33.52 34.56 40.8 34.56 40.8 10.65 32.48 10.65 32.48 22.08 24.16 10.65 16.89 10.65"/>
    <polygon class="e" points="57.43 9.61 46 16.11 46 29.1 57.43 35.6 68.87 29.1 68.87 16.11 57.43 9.61"/>
    <path class="d" d="M87.58,10.65H74.07V34.56H87.58s9.36,0,9.36-11.44C96.94,10.65,87.58,10.65,87.58,10.65ZM85.65,27.28h-4.3V17.22h4.3s3,0,3,5.25C88.62,27.28,85.65,27.28,85.65,27.28Z"/>
    <polyline class="d" points="101.1 10.65 101.1 34.56 120.85 34.56 120.85 28.32 108.38 28.32 108.38 25.2 119.81 25.2 119.81 20 108.38 20 108.38 17.93 120.85 17.93 120.85 10.65 101.1 10.65"/>
    <path class="f" d="M69.46,154.59a9.92,9.92,0,0,1-5.12-1.42l-9-5.28,6.24-3.12,6,3a3.7,3.7,0,0,0,3.76,0L98.17,132.4a4.83,4.83,0,0,0,2.41-4.18V98.31a3.74,3.74,0,0,0-1.87-3.24L71.35,79.32a3.6,3.6,0,0,0-3.73.07L42,95.55a7,7,0,0,0-3.28,6v28.57A3.65,3.65,0,0,0,40.19,133a38.86,38.86,0,0,0,9.91,5.71c1,.32,1.33.11,1.44,0,.69-.4,1.37-1.75,1.7-3.37a2.25,2.25,0,0,0,0-.38V98h6.24v37a8,8,0,0,1-.16,1.62c-.41,2-1.56,5.72-4.68,7.53a7.74,7.74,0,0,1-6.54.48c-4.19-1.4-8.66-4.38-11.68-6.63a9.92,9.92,0,0,1-4-7.91V101.5a13.18,13.18,0,0,1,6.19-11.22L64.29,74.12a9.81,9.81,0,0,1,10.17-.21l27.36,15.75a10,10,0,0,1,5,8.65v29.91a11.06,11.06,0,0,1-5.54,9.58L74.42,153.26A9.87,9.87,0,0,1,69.46,154.59Z"/>
    <path class="f" d="M61.69,125.65l7.14-1.53q1.29,6.07,9.86,6.07a10,10,0,0,0,6-1.56,4.63,4.63,0,0,0,2.1-3.85,5.44,5.44,0,0,0-1-3.09c-.64-1-2-1.69-4.1-2.23l-7.79-2a19.27,19.27,0,0,1-5.92-2.38A9.31,9.31,0,0,1,65,111.31a11.88,11.88,0,0,1-1.15-5.17,10.72,10.72,0,0,1,4.06-8.77,16,16,0,0,1,10.4-3.3,19,19,0,0,1,9.39,2.3A10.36,10.36,0,0,1,93,102.88l-7,1.73Q84.36,100,78.45,100a8.24,8.24,0,0,0-5.24,1.44,4.43,4.43,0,0,0-1.81,3.64c0,2.33,1.89,4,5.67,4.9L84,111.69q6.3,1.59,8.45,4.68a11.73,11.73,0,0,1,2.15,6.83,11.23,11.23,0,0,1-4.53,9.45q-4.52,3.45-11.72,3.45a21.4,21.4,0,0,1-10.62-2.54A12.42,12.42,0,0,1,61.69,125.65Z"/>
  </g>
</svg>
