<svg xmlns="http://www.w3.org/2000/svg" width="586" height="517.6" viewBox="0 0 586 517.6">
  <defs>
    <style>
      .a {
        fill: #b9c1c7;
      }

      .b {
        fill: #141414;
      }

      .c {
        fill: #b2b700;
      }

      .d {
        fill: #748100;
      }

      .e {
        fill: #ff0961;
      }

      .f {
        fill: #c01;
      }

      .g {
        fill: #c0de00;
      }

      .h {
        fill: #3e3e3e;
      }

      .i {
        fill: #171717;
        opacity: 0.64;
      }

      .j {
        fill: #ff1065;
      }

      .k {
        fill: #ff1168;
      }

      .l {
        fill: #fff;
      }

      .m {
        fill: none;
        stroke: #3e3e3e;
        stroke-miterlimit: 10;
        stroke-width: 2px;
      }
    </style>
  </defs>
  <title>banner</title>
  <g>
    <g>
      <g>
        <g>
          <polygon class="a" points="304.18 427.16 314.7 424.53 314.7 433.74 304.18 436.37 304.18 427.16"/>
          <polygon class="a" points="566.59 361.4 577.11 358.77 577.11 367.97 566.59 370.6 566.59 361.4"/>
          <polygon class="a" points="304.18 427.05 314.7 424.42 314.7 433.63 304.18 436.26 304.18 427.05"/>
          <polygon class="a" points="323.25 422.45 333.77 419.82 333.77 429.03 323.25 431.66 323.25 422.45"/>
          <polygon class="a" points="342.32 417.85 352.85 415.22 352.85 424.42 342.32 427.05 342.32 417.85"/>
          <polygon class="a" points="360.74 413.24 371.26 410.61 371.26 419.82 360.74 422.45 360.74 413.24"/>
          <polygon class="a" points="379.81 407.98 390.33 405.35 390.33 414.56 379.81 417.19 379.81 407.98"/>
          <polygon class="a" points="398.88 403.38 409.4 400.75 409.4 409.95 398.88 412.58 398.88 403.38"/>
          <polygon class="a" points="417.3 398.77 427.82 396.14 427.82 405.35 417.3 407.98 417.3 398.77"/>
          <polygon class="a" points="435.71 394.17 446.23 391.54 446.23 400.75 435.71 403.38 435.71 394.17"/>
          <polygon class="a" points="454.78 389.57 465.31 386.94 465.31 396.14 454.78 398.77 454.78 389.57"/>
          <polygon class="a" points="473.86 384.96 484.38 382.33 484.38 391.54 473.86 394.17 473.86 384.96"/>
          <polygon class="a" points="492.27 380.36 502.79 377.73 502.79 386.94 492.27 389.57 492.27 380.36"/>
          <polygon class="a" points="529.76 370.5 540.28 367.86 540.28 377.07 529.76 379.7 529.76 370.5"/>
          <polygon class="a" points="548.17 365.89 558.69 363.26 558.69 372.47 548.17 375.1 548.17 365.89"/>
          <polygon class="a" points="510.69 375.76 521.21 373.13 521.21 382.33 510.69 384.96 510.69 375.76"/>
          <polygon class="a" points="566.59 361.29 577.11 358.66 577.11 367.86 566.59 370.5 566.59 361.29"/>
        </g>
        <g>
          <polygon class="a" points="304.18 409.14 314.7 406.51 314.7 415.71 304.18 418.35 304.18 409.14"/>
          <polygon class="a" points="566.59 343.37 577.11 340.74 577.11 349.95 566.59 352.58 566.59 343.37"/>
          <polygon class="a" points="304.18 409.03 314.7 406.4 314.7 415.61 304.18 418.24 304.18 409.03"/>
          <polygon class="a" points="323.25 404.43 333.77 401.8 333.77 411 323.25 413.63 323.25 404.43"/>
          <polygon class="a" points="342.32 399.82 352.85 397.19 352.85 406.4 342.32 409.03 342.32 399.82"/>
          <polygon class="a" points="360.74 395.22 371.26 392.59 371.26 401.8 360.74 404.43 360.74 395.22"/>
          <polygon class="a" points="379.81 389.96 390.33 387.33 390.33 396.53 379.81 399.17 379.81 389.96"/>
          <polygon class="a" points="398.88 385.35 409.4 382.72 409.4 391.93 398.88 394.56 398.88 385.35"/>
          <polygon class="a" points="417.3 380.75 427.82 378.12 427.82 387.33 417.3 389.96 417.3 380.75"/>
          <polygon class="a" points="435.71 376.15 446.23 373.52 446.23 382.72 435.71 385.35 435.71 376.15"/>
          <polygon class="a" points="454.78 371.54 465.31 368.91 465.31 378.12 454.78 380.75 454.78 371.54"/>
          <polygon class="a" points="473.86 366.94 484.38 364.31 484.38 373.52 473.86 376.15 473.86 366.94"/>
          <polygon class="a" points="492.27 362.34 502.79 359.71 502.79 368.91 492.27 371.54 492.27 362.34"/>
          <polygon class="a" points="529.76 352.47 540.28 349.84 540.28 359.05 529.76 361.68 529.76 352.47"/>
          <polygon class="a" points="548.17 347.87 558.69 345.24 558.69 354.44 548.17 357.07 548.17 347.87"/>
          <polygon class="a" points="510.69 357.73 521.21 355.1 521.21 364.31 510.69 366.94 510.69 357.73"/>
          <polygon class="a" points="566.59 343.26 577.11 340.63 577.11 349.84 566.59 352.47 566.59 343.26"/>
        </g>
        <g>
          <polygon class="a" points="304.18 389.41 314.7 386.78 314.7 395.99 304.18 398.62 304.18 389.41"/>
          <polygon class="a" points="566.59 323.64 577.11 321.01 577.11 330.22 566.59 332.85 566.59 323.64"/>
          <polygon class="a" points="304.18 389.3 314.7 386.67 314.7 395.88 304.18 398.51 304.18 389.3"/>
          <polygon class="a" points="323.25 384.7 333.77 382.07 333.77 391.27 323.25 393.9 323.25 384.7"/>
          <polygon class="a" points="342.32 380.09 352.85 377.46 352.85 386.67 342.32 389.3 342.32 380.09"/>
          <polygon class="a" points="360.74 375.49 371.26 372.86 371.26 382.07 360.74 384.7 360.74 375.49"/>
          <polygon class="a" points="379.81 370.23 390.33 367.6 390.33 376.81 379.81 379.44 379.81 370.23"/>
          <polygon class="a" points="398.88 365.63 409.4 362.99 409.4 372.2 398.88 374.83 398.88 365.63"/>
          <polygon class="a" points="417.3 361.02 427.82 358.39 427.82 367.6 417.3 370.23 417.3 361.02"/>
          <polygon class="a" points="435.71 356.42 446.23 353.79 446.23 362.99 435.71 365.63 435.71 356.42"/>
          <polygon class="a" points="454.78 351.81 465.31 349.18 465.31 358.39 454.78 361.02 454.78 351.81"/>
          <polygon class="a" points="473.86 347.21 484.38 344.58 484.38 353.79 473.86 356.42 473.86 347.21"/>
          <polygon class="a" points="492.27 342.61 502.79 339.98 502.79 349.18 492.27 351.81 492.27 342.61"/>
          <polygon class="a" points="529.76 332.74 540.28 330.11 540.28 339.32 529.76 341.95 529.76 332.74"/>
          <polygon class="a" points="548.17 328.14 558.69 325.51 558.69 334.71 548.17 337.35 548.17 328.14"/>
          <polygon class="a" points="510.69 338 521.21 335.37 521.21 344.58 510.69 347.21 510.69 338"/>
          <polygon class="a" points="566.59 323.53 577.11 320.9 577.11 330.11 566.59 332.74 566.59 323.53"/>
        </g>
      </g>
      <g>
        <g>
          <g>
            <polygon class="a" points="304.84 258.77 315.36 256.14 315.36 265.34 304.84 267.97 304.84 258.77"/>
            <polygon class="a" points="567.24 193 577.77 190.37 577.77 199.58 567.24 202.21 567.24 193"/>
            <polygon class="a" points="304.84 258.66 315.36 256.03 315.36 265.23 304.84 267.87 304.84 258.66"/>
            <polygon class="a" points="323.91 254.05 334.43 251.42 334.43 260.63 323.91 263.26 323.91 254.05"/>
            <polygon class="a" points="342.98 249.45 353.5 246.82 353.5 256.03 342.98 258.66 342.98 249.45"/>
            <polygon class="a" points="361.4 244.85 371.92 242.22 371.92 251.42 361.4 254.05 361.4 244.85"/>
            <polygon class="a" points="380.47 239.59 390.99 236.96 390.99 246.16 380.47 248.79 380.47 239.59"/>
            <polygon class="a" points="399.54 234.98 410.06 232.35 410.06 241.56 399.54 244.19 399.54 234.98"/>
            <polygon class="a" points="417.95 230.38 428.48 227.75 428.48 236.96 417.95 239.59 417.95 230.38"/>
            <polygon class="a" points="436.37 225.78 446.89 223.14 446.89 232.35 436.37 234.98 436.37 225.78"/>
            <polygon class="a" points="455.44 221.17 465.96 218.54 465.96 227.75 455.44 230.38 455.44 221.17"/>
            <polygon class="a" points="474.51 216.57 485.04 213.94 485.04 223.14 474.51 225.78 474.51 216.57"/>
            <polygon class="a" points="492.93 211.96 503.45 209.33 503.45 218.54 492.93 221.17 492.93 211.96"/>
            <polygon class="a" points="530.41 202.1 540.94 199.47 540.94 208.68 530.41 211.31 530.41 202.1"/>
            <polygon class="a" points="548.83 197.5 559.35 194.87 559.35 204.07 548.83 206.7 548.83 197.5"/>
            <polygon class="a" points="511.34 207.36 521.87 204.73 521.87 213.94 511.34 216.57 511.34 207.36"/>
            <polygon class="a" points="567.24 192.89 577.77 190.26 577.77 199.47 567.24 202.1 567.24 192.89"/>
          </g>
          <g>
            <polygon class="a" points="304.84 240.74 315.36 238.11 315.36 247.32 304.84 249.95 304.84 240.74"/>
            <polygon class="a" points="567.24 174.98 577.77 172.35 577.77 181.55 567.24 184.18 567.24 174.98"/>
            <polygon class="a" points="304.84 240.63 315.36 238 315.36 247.21 304.84 249.84 304.84 240.63"/>
            <polygon class="a" points="323.91 236.03 334.43 233.4 334.43 242.61 323.91 245.24 323.91 236.03"/>
            <polygon class="a" points="342.98 231.43 353.5 228.8 353.5 238 342.98 240.63 342.98 231.43"/>
            <polygon class="a" points="361.4 226.82 371.92 224.19 371.92 233.4 361.4 236.03 361.4 226.82"/>
            <polygon class="a" points="380.47 221.56 390.99 218.93 390.99 228.14 380.47 230.77 380.47 221.56"/>
            <polygon class="a" points="399.54 216.96 410.06 214.33 410.06 223.53 399.54 226.17 399.54 216.96"/>
            <polygon class="a" points="417.95 212.35 428.48 209.72 428.48 218.93 417.95 221.56 417.95 212.35"/>
            <polygon class="a" points="436.37 207.75 446.89 205.12 446.89 214.33 436.37 216.96 436.37 207.75"/>
            <polygon class="a" points="455.44 203.15 465.96 200.52 465.96 209.72 455.44 212.35 455.44 203.15"/>
            <polygon class="a" points="474.51 198.54 485.04 195.91 485.04 205.12 474.51 207.75 474.51 198.54"/>
            <polygon class="a" points="492.93 193.94 503.45 191.31 503.45 200.52 492.93 203.15 492.93 193.94"/>
            <polygon class="a" points="530.41 184.07 540.94 181.44 540.94 190.65 530.41 193.28 530.41 184.07"/>
            <polygon class="a" points="548.83 179.47 559.35 176.84 559.35 186.05 548.83 188.68 548.83 179.47"/>
            <polygon class="a" points="511.34 189.34 521.87 186.71 521.87 195.91 511.34 198.54 511.34 189.34"/>
            <polygon class="a" points="567.24 174.87 577.77 172.24 577.77 181.44 567.24 184.07 567.24 174.87"/>
          </g>
          <g>
            <polygon class="a" points="304.84 221.01 315.36 218.38 315.36 227.59 304.84 230.22 304.84 221.01"/>
            <polygon class="a" points="567.24 155.25 577.77 152.62 577.77 161.82 567.24 164.45 567.24 155.25"/>
            <polygon class="a" points="304.84 220.9 315.36 218.27 315.36 227.48 304.84 230.11 304.84 220.9"/>
            <polygon class="a" points="323.91 216.3 334.43 213.67 334.43 222.88 323.91 225.51 323.91 216.3"/>
            <polygon class="a" points="342.98 211.7 353.5 209.07 353.5 218.27 342.98 220.9 342.98 211.7"/>
            <polygon class="a" points="361.4 207.09 371.92 204.46 371.92 213.67 361.4 216.3 361.4 207.09"/>
            <polygon class="a" points="380.47 201.83 390.99 199.2 390.99 208.41 380.47 211.04 380.47 201.83"/>
            <polygon class="a" points="399.54 197.23 410.06 194.6 410.06 203.81 399.54 206.44 399.54 197.23"/>
            <polygon class="a" points="417.95 192.63 428.48 189.99 428.48 199.2 417.95 201.83 417.95 192.63"/>
            <polygon class="a" points="436.37 188.02 446.89 185.39 446.89 194.6 436.37 197.23 436.37 188.02"/>
            <polygon class="a" points="455.44 183.42 465.96 180.79 465.96 189.99 455.44 192.63 455.44 183.42"/>
            <polygon class="a" points="474.51 178.81 485.04 176.18 485.04 185.39 474.51 188.02 474.51 178.81"/>
            <polygon class="a" points="492.93 174.21 503.45 171.58 503.45 180.79 492.93 183.42 492.93 174.21"/>
            <polygon class="a" points="530.41 164.35 540.94 161.72 540.94 170.92 530.41 173.55 530.41 164.35"/>
            <polygon class="a" points="548.83 159.74 559.35 157.11 559.35 166.32 548.83 168.95 548.83 159.74"/>
            <polygon class="a" points="511.34 169.61 521.87 166.98 521.87 176.18 511.34 178.81 511.34 169.61"/>
            <polygon class="a" points="567.24 155.14 577.77 152.51 577.77 161.72 567.24 164.35 567.24 155.14"/>
          </g>
        </g>
        <g>
          <polygon class="a" points="304.18 314.47 314.7 311.84 314.7 321.05 304.18 323.68 304.18 314.47"/>
          <polygon class="a" points="566.59 248.71 577.11 246.07 577.11 255.28 566.59 257.91 566.59 248.71"/>
          <polygon class="a" points="304.18 314.36 314.7 311.73 314.7 320.94 304.18 323.57 304.18 314.36"/>
          <polygon class="a" points="323.25 309.76 333.77 307.13 333.77 316.34 323.25 318.97 323.25 309.76"/>
          <polygon class="a" points="342.32 305.16 352.85 302.52 352.85 311.73 342.32 314.36 342.32 305.16"/>
          <polygon class="a" points="360.74 300.55 371.26 297.92 371.26 307.13 360.74 309.76 360.74 300.55"/>
          <polygon class="a" points="379.81 295.29 390.33 292.66 390.33 301.87 379.81 304.5 379.81 295.29"/>
          <polygon class="a" points="398.88 290.69 409.4 288.06 409.4 297.26 398.88 299.89 398.88 290.69"/>
          <polygon class="a" points="417.3 286.08 427.82 283.45 427.82 292.66 417.3 295.29 417.3 286.08"/>
          <polygon class="a" points="435.71 281.48 446.23 278.85 446.23 288.06 435.71 290.69 435.71 281.48"/>
          <polygon class="a" points="454.78 276.88 465.31 274.25 465.31 283.45 454.78 286.08 454.78 276.88"/>
          <polygon class="a" points="473.86 272.27 484.38 269.64 484.38 278.85 473.86 281.48 473.86 272.27"/>
          <polygon class="a" points="492.27 267.67 502.79 265.04 502.79 274.25 492.27 276.88 492.27 267.67"/>
          <polygon class="a" points="529.76 257.8 540.28 255.17 540.28 264.38 529.76 267.01 529.76 257.8"/>
          <polygon class="a" points="548.17 253.2 558.69 250.57 558.69 259.78 548.17 262.41 548.17 253.2"/>
          <polygon class="a" points="510.69 263.07 521.21 260.44 521.21 269.64 510.69 272.27 510.69 263.07"/>
          <polygon class="a" points="566.59 248.6 577.11 245.97 577.11 255.17 566.59 257.8 566.59 248.6"/>
        </g>
        <g>
          <g>
            <polygon class="a" points="304.18 314.47 314.7 311.84 314.7 321.05 304.18 323.68 304.18 314.47"/>
            <polygon class="a" points="566.59 248.71 577.11 246.07 577.11 255.28 566.59 257.91 566.59 248.71"/>
            <polygon class="a" points="304.18 314.36 314.7 311.73 314.7 320.94 304.18 323.57 304.18 314.36"/>
            <polygon class="a" points="323.25 309.76 333.77 307.13 333.77 316.34 323.25 318.97 323.25 309.76"/>
            <polygon class="a" points="342.32 305.16 352.85 302.52 352.85 311.73 342.32 314.36 342.32 305.16"/>
            <polygon class="a" points="360.74 300.55 371.26 297.92 371.26 307.13 360.74 309.76 360.74 300.55"/>
            <polygon class="a" points="379.81 295.29 390.33 292.66 390.33 301.87 379.81 304.5 379.81 295.29"/>
            <polygon class="a" points="398.88 290.69 409.4 288.06 409.4 297.26 398.88 299.89 398.88 290.69"/>
            <polygon class="a" points="417.3 286.08 427.82 283.45 427.82 292.66 417.3 295.29 417.3 286.08"/>
            <polygon class="a" points="435.71 281.48 446.23 278.85 446.23 288.06 435.71 290.69 435.71 281.48"/>
            <polygon class="a" points="454.78 276.88 465.31 274.25 465.31 283.45 454.78 286.08 454.78 276.88"/>
            <polygon class="a" points="473.86 272.27 484.38 269.64 484.38 278.85 473.86 281.48 473.86 272.27"/>
            <polygon class="a" points="492.27 267.67 502.79 265.04 502.79 274.25 492.27 276.88 492.27 267.67"/>
            <polygon class="a" points="529.76 257.8 540.28 255.17 540.28 264.38 529.76 267.01 529.76 257.8"/>
            <polygon class="a" points="548.17 253.2 558.69 250.57 558.69 259.78 548.17 262.41 548.17 253.2"/>
            <polygon class="a" points="510.69 263.07 521.21 260.44 521.21 269.64 510.69 272.27 510.69 263.07"/>
            <polygon class="a" points="566.59 248.6 577.11 245.97 577.11 255.17 566.59 257.8 566.59 248.6"/>
          </g>
          <g>
            <polygon class="a" points="304.18 296.45 314.7 293.82 314.7 303.02 304.18 305.65 304.18 296.45"/>
            <polygon class="a" points="566.59 230.68 577.11 228.05 577.11 237.26 566.59 239.89 566.59 230.68"/>
            <polygon class="a" points="304.18 296.34 314.7 293.71 314.7 302.92 304.18 305.55 304.18 296.34"/>
            <polygon class="a" points="323.25 291.74 333.77 289.11 333.77 298.31 323.25 300.94 323.25 291.74"/>
            <polygon class="a" points="342.32 287.13 352.85 284.5 352.85 293.71 342.32 296.34 342.32 287.13"/>
            <polygon class="a" points="360.74 282.53 371.26 279.9 371.26 289.11 360.74 291.74 360.74 282.53"/>
            <polygon class="a" points="379.81 277.27 390.33 274.64 390.33 283.84 379.81 286.48 379.81 277.27"/>
            <polygon class="a" points="398.88 272.66 409.4 270.03 409.4 279.24 398.88 281.87 398.88 272.66"/>
            <polygon class="a" points="417.3 268.06 427.82 265.43 427.82 274.64 417.3 277.27 417.3 268.06"/>
            <polygon class="a" points="435.71 263.46 446.23 260.83 446.23 270.03 435.71 272.66 435.71 263.46"/>
            <polygon class="a" points="454.78 258.85 465.31 256.22 465.31 265.43 454.78 268.06 454.78 258.85"/>
            <polygon class="a" points="473.86 254.25 484.38 251.62 484.38 260.83 473.86 263.46 473.86 254.25"/>
            <polygon class="a" points="492.27 249.65 502.79 247.01 502.79 256.22 492.27 258.85 492.27 249.65"/>
            <polygon class="a" points="529.76 239.78 540.28 237.15 540.28 246.36 529.76 248.99 529.76 239.78"/>
            <polygon class="a" points="548.17 235.18 558.69 232.55 558.69 241.75 548.17 244.38 548.17 235.18"/>
            <polygon class="a" points="510.69 245.04 521.21 242.41 521.21 251.62 510.69 254.25 510.69 245.04"/>
            <polygon class="a" points="566.59 230.57 577.11 227.94 577.11 237.15 566.59 239.78 566.59 230.57"/>
          </g>
          <g>
            <polygon class="a" points="304.18 276.72 314.7 274.09 314.7 283.3 304.18 285.93 304.18 276.72"/>
            <polygon class="a" points="566.59 210.95 577.11 208.32 577.11 217.53 566.59 220.16 566.59 210.95"/>
            <polygon class="a" points="304.18 276.61 314.7 273.98 314.7 283.19 304.18 285.82 304.18 276.61"/>
            <polygon class="a" points="323.25 272.01 333.77 269.38 333.77 278.58 323.25 281.21 323.25 272.01"/>
            <polygon class="a" points="342.32 267.4 352.85 264.77 352.85 273.98 342.32 276.61 342.32 267.4"/>
            <polygon class="a" points="360.74 262.8 371.26 260.17 371.26 269.38 360.74 272.01 360.74 262.8"/>
            <polygon class="a" points="379.81 257.54 390.33 254.91 390.33 264.11 379.81 266.75 379.81 257.54"/>
            <polygon class="a" points="398.88 252.93 409.4 250.3 409.4 259.51 398.88 262.14 398.88 252.93"/>
            <polygon class="a" points="417.3 248.33 427.82 245.7 427.82 254.91 417.3 257.54 417.3 248.33"/>
            <polygon class="a" points="435.71 243.73 446.23 241.1 446.23 250.3 435.71 252.93 435.71 243.73"/>
            <polygon class="a" points="454.78 239.12 465.31 236.49 465.31 245.7 454.78 248.33 454.78 239.12"/>
            <polygon class="a" points="473.86 234.52 484.38 231.89 484.38 241.1 473.86 243.73 473.86 234.52"/>
            <polygon class="a" points="492.27 229.92 502.79 227.28 502.79 236.49 492.27 239.12 492.27 229.92"/>
            <polygon class="a" points="529.76 220.05 540.28 217.42 540.28 226.63 529.76 229.26 529.76 220.05"/>
            <polygon class="a" points="548.17 215.45 558.69 212.82 558.69 222.02 548.17 224.66 548.17 215.45"/>
            <polygon class="a" points="510.69 225.31 521.21 222.68 521.21 231.89 510.69 234.52 510.69 225.31"/>
            <polygon class="a" points="566.59 210.84 577.11 208.21 577.11 217.42 566.59 220.05 566.59 210.84"/>
          </g>
        </g>
        <g>
          <g>
            <polygon class="a" points="303.52 202.26 314.05 199.63 314.05 208.83 303.52 211.47 303.52 202.26"/>
            <polygon class="a" points="565.93 136.49 576.45 133.86 576.45 143.07 565.93 145.7 565.93 136.49"/>
            <polygon class="a" points="303.52 202.15 314.05 199.52 314.05 208.72 303.52 211.36 303.52 202.15"/>
            <polygon class="a" points="322.6 197.54 333.12 194.91 333.12 204.12 322.6 206.75 322.6 197.54"/>
            <polygon class="a" points="341.67 192.94 352.19 190.31 352.19 199.52 341.67 202.15 341.67 192.94"/>
            <polygon class="a" points="360.08 188.34 370.6 185.71 370.6 194.91 360.08 197.54 360.08 188.34"/>
            <polygon class="a" points="379.15 183.08 389.68 180.45 389.68 189.65 379.15 192.28 379.15 183.08"/>
            <polygon class="a" points="398.23 178.47 408.75 175.84 408.75 185.05 398.23 187.68 398.23 178.47"/>
            <polygon class="a" points="416.64 173.87 427.16 171.24 427.16 180.45 416.64 183.08 416.64 173.87"/>
            <polygon class="a" points="435.05 169.27 445.58 166.63 445.58 175.84 435.05 178.47 435.05 169.27"/>
            <polygon class="a" points="454.13 164.66 464.65 162.03 464.65 171.24 454.13 173.87 454.13 164.66"/>
            <polygon class="a" points="473.2 160.06 483.72 157.43 483.72 166.63 473.2 169.27 473.2 160.06"/>
            <polygon class="a" points="491.61 155.46 502.13 152.82 502.13 162.03 491.61 164.66 491.61 155.46"/>
            <polygon class="a" points="529.1 145.59 539.62 142.96 539.62 152.17 529.1 154.8 529.1 145.59"/>
            <polygon class="a" points="547.51 140.99 558.04 138.36 558.04 147.56 547.51 150.19 547.51 140.99"/>
            <polygon class="a" points="510.03 150.85 520.55 148.22 520.55 157.43 510.03 160.06 510.03 150.85"/>
            <polygon class="a" points="565.93 136.38 576.45 133.75 576.45 142.96 565.93 145.59 565.93 136.38"/>
          </g>
          <g>
            <polygon class="a" points="303.52 184.23 314.05 181.6 314.05 190.81 303.52 193.44 303.52 184.23"/>
            <polygon class="a" points="565.93 118.47 576.45 115.84 576.45 125.05 565.93 127.67 565.93 118.47"/>
            <polygon class="a" points="303.52 184.13 314.05 181.5 314.05 190.7 303.52 193.33 303.52 184.13"/>
            <polygon class="a" points="322.6 179.52 333.12 176.89 333.12 186.1 322.6 188.73 322.6 179.52"/>
            <polygon class="a" points="341.67 174.92 352.19 172.29 352.19 181.5 341.67 184.13 341.67 174.92"/>
            <polygon class="a" points="360.08 170.31 370.6 167.68 370.6 176.89 360.08 179.52 360.08 170.31"/>
            <polygon class="a" points="379.15 165.05 389.68 162.42 389.68 171.63 379.15 174.26 379.15 165.05"/>
            <polygon class="a" points="398.23 160.45 408.75 157.82 408.75 167.03 398.23 169.66 398.23 160.45"/>
            <polygon class="a" points="416.64 155.85 427.16 153.22 427.16 162.42 416.64 165.05 416.64 155.85"/>
            <polygon class="a" points="435.05 151.24 445.58 148.61 445.58 157.82 435.05 160.45 435.05 151.24"/>
            <polygon class="a" points="454.13 146.64 464.65 144.01 464.65 153.22 454.13 155.85 454.13 146.64"/>
            <polygon class="a" points="473.2 142.03 483.72 139.41 483.72 148.61 473.2 151.24 473.2 142.03"/>
            <polygon class="a" points="491.61 137.43 502.13 134.8 502.13 144.01 491.61 146.64 491.61 137.43"/>
            <polygon class="a" points="529.1 127.57 539.62 124.94 539.62 134.14 529.1 136.77 529.1 127.57"/>
            <polygon class="a" points="547.51 122.96 558.04 120.33 558.04 129.54 547.51 132.17 547.51 122.96"/>
            <polygon class="a" points="510.03 132.83 520.55 130.2 520.55 139.41 510.03 142.03 510.03 132.83"/>
            <polygon class="a" points="565.93 118.36 576.45 115.73 576.45 124.94 565.93 127.57 565.93 118.36"/>
          </g>
          <g>
            <polygon class="a" points="303.52 164.5 314.05 161.87 314.05 171.08 303.52 173.71 303.52 164.5"/>
            <polygon class="a" points="565.93 98.74 576.45 96.11 576.45 105.31 565.93 107.95 565.93 98.74"/>
            <polygon class="a" points="303.52 164.4 314.05 161.76 314.05 170.97 303.52 173.6 303.52 164.4"/>
            <polygon class="a" points="322.6 159.79 333.12 157.16 333.12 166.37 322.6 169 322.6 159.79"/>
            <polygon class="a" points="341.67 155.19 352.19 152.56 352.19 161.76 341.67 164.4 341.67 155.19"/>
            <polygon class="a" points="360.08 150.59 370.6 147.95 370.6 157.16 360.08 159.79 360.08 150.59"/>
            <polygon class="a" points="379.15 145.32 389.68 142.69 389.68 151.9 379.15 154.53 379.15 145.32"/>
            <polygon class="a" points="398.23 140.72 408.75 138.09 408.75 147.3 398.23 149.93 398.23 140.72"/>
            <polygon class="a" points="416.64 136.12 427.16 133.49 427.16 142.69 416.64 145.32 416.64 136.12"/>
            <polygon class="a" points="435.05 131.51 445.58 128.88 445.58 138.09 435.05 140.72 435.05 131.51"/>
            <polygon class="a" points="454.13 126.91 464.65 124.28 464.65 133.49 454.13 136.12 454.13 126.91"/>
            <polygon class="a" points="473.2 122.31 483.72 119.67 483.72 128.88 473.2 131.51 473.2 122.31"/>
            <polygon class="a" points="491.61 117.7 502.13 115.07 502.13 124.28 491.61 126.91 491.61 117.7"/>
            <polygon class="a" points="529.1 107.84 539.62 105.21 539.62 114.41 529.1 117.04 529.1 107.84"/>
            <polygon class="a" points="547.51 103.23 558.04 100.6 558.04 109.81 547.51 112.44 547.51 103.23"/>
            <polygon class="a" points="510.03 113.1 520.55 110.47 520.55 119.67 510.03 122.31 510.03 113.1"/>
            <polygon class="a" points="565.93 98.63 576.45 96 576.45 105.21 565.93 107.84 565.93 98.63"/>
          </g>
        </g>
      </g>
      <g>
        <g>
          <polygon class="a" points="304.84 371.46 315.36 368.83 315.36 378.03 304.84 380.66 304.84 371.46"/>
          <polygon class="a" points="567.24 305.69 577.77 303.06 577.77 312.27 567.24 314.9 567.24 305.69"/>
          <polygon class="a" points="304.84 371.35 315.36 368.72 315.36 377.93 304.84 380.56 304.84 371.35"/>
          <polygon class="a" points="323.91 366.74 334.43 364.11 334.43 373.32 323.91 375.95 323.91 366.74"/>
          <polygon class="a" points="342.98 362.14 353.5 359.51 353.5 368.72 342.98 371.35 342.98 362.14"/>
          <polygon class="a" points="361.4 357.54 371.92 354.91 371.92 364.11 361.4 366.74 361.4 357.54"/>
          <polygon class="a" points="380.47 352.28 390.99 349.64 390.99 358.85 380.47 361.48 380.47 352.28"/>
          <polygon class="a" points="399.54 347.67 410.06 345.04 410.06 354.25 399.54 356.88 399.54 347.67"/>
          <polygon class="a" points="417.95 343.07 428.48 340.44 428.48 349.64 417.95 352.28 417.95 343.07"/>
          <polygon class="a" points="436.37 338.46 446.89 335.83 446.89 345.04 436.37 347.67 436.37 338.46"/>
          <polygon class="a" points="455.44 333.86 465.96 331.23 465.96 340.44 455.44 343.07 455.44 333.86"/>
          <polygon class="a" points="474.51 329.26 485.04 326.63 485.04 335.83 474.51 338.46 474.51 329.26"/>
          <polygon class="a" points="492.93 324.65 503.45 322.02 503.45 331.23 492.93 333.86 492.93 324.65"/>
          <polygon class="a" points="530.41 314.79 540.94 312.16 540.94 321.37 530.41 324 530.41 314.79"/>
          <polygon class="a" points="548.83 310.19 559.35 307.56 559.35 316.76 548.83 319.39 548.83 310.19"/>
          <polygon class="a" points="511.34 320.05 521.87 317.42 521.87 326.63 511.34 329.26 511.34 320.05"/>
          <polygon class="a" points="567.24 305.58 577.77 302.95 577.77 312.16 567.24 314.79 567.24 305.58"/>
        </g>
        <g>
          <polygon class="a" points="304.84 353.43 315.36 350.8 315.36 360.01 304.84 362.64 304.84 353.43"/>
          <polygon class="a" points="567.24 287.67 577.77 285.04 577.77 294.24 567.24 296.88 567.24 287.67"/>
          <polygon class="a" points="304.84 353.32 315.36 350.69 315.36 359.9 304.84 362.53 304.84 353.32"/>
          <polygon class="a" points="323.91 348.72 334.43 346.09 334.43 355.3 323.91 357.93 323.91 348.72"/>
          <polygon class="a" points="342.98 344.12 353.5 341.49 353.5 350.69 342.98 353.32 342.98 344.12"/>
          <polygon class="a" points="361.4 339.51 371.92 336.88 371.92 346.09 361.4 348.72 361.4 339.51"/>
          <polygon class="a" points="380.47 334.25 390.99 331.62 390.99 340.83 380.47 343.46 380.47 334.25"/>
          <polygon class="a" points="399.54 329.65 410.06 327.02 410.06 336.23 399.54 338.86 399.54 329.65"/>
          <polygon class="a" points="417.95 325.05 428.48 322.42 428.48 331.62 417.95 334.25 417.95 325.05"/>
          <polygon class="a" points="436.37 320.44 446.89 317.81 446.89 327.02 436.37 329.65 436.37 320.44"/>
          <polygon class="a" points="455.44 315.84 465.96 313.21 465.96 322.42 455.44 325.05 455.44 315.84"/>
          <polygon class="a" points="474.51 311.23 485.04 308.6 485.04 317.81 474.51 320.44 474.51 311.23"/>
          <polygon class="a" points="492.93 306.63 503.45 304 503.45 313.21 492.93 315.84 492.93 306.63"/>
          <polygon class="a" points="530.41 296.77 540.94 294.13 540.94 303.34 530.41 305.97 530.41 296.77"/>
          <polygon class="a" points="548.83 292.16 559.35 289.53 559.35 298.74 548.83 301.37 548.83 292.16"/>
          <polygon class="a" points="511.34 302.03 521.87 299.4 521.87 308.6 511.34 311.23 511.34 302.03"/>
          <polygon class="a" points="567.24 287.56 577.77 284.93 577.77 294.13 567.24 296.77 567.24 287.56"/>
        </g>
        <g>
          <polygon class="a" points="304.84 333.7 315.36 331.07 315.36 340.28 304.84 342.91 304.84 333.7"/>
          <polygon class="a" points="567.24 267.94 577.77 265.31 577.77 274.51 567.24 277.14 567.24 267.94"/>
          <polygon class="a" points="304.84 333.6 315.36 330.96 315.36 340.17 304.84 342.8 304.84 333.6"/>
          <polygon class="a" points="323.91 328.99 334.43 326.36 334.43 335.57 323.91 338.2 323.91 328.99"/>
          <polygon class="a" points="342.98 324.39 353.5 321.76 353.5 330.96 342.98 333.6 342.98 324.39"/>
          <polygon class="a" points="361.4 319.78 371.92 317.15 371.92 326.36 361.4 328.99 361.4 319.78"/>
          <polygon class="a" points="380.47 314.52 390.99 311.89 390.99 321.1 380.47 323.73 380.47 314.52"/>
          <polygon class="a" points="399.54 309.92 410.06 307.29 410.06 316.5 399.54 319.13 399.54 309.92"/>
          <polygon class="a" points="417.95 305.32 428.48 302.69 428.48 311.89 417.95 314.52 417.95 305.32"/>
          <polygon class="a" points="436.37 300.71 446.89 298.08 446.89 307.29 436.37 309.92 436.37 300.71"/>
          <polygon class="a" points="455.44 296.11 465.96 293.48 465.96 302.69 455.44 305.32 455.44 296.11"/>
          <polygon class="a" points="474.51 291.5 485.04 288.87 485.04 298.08 474.51 300.71 474.51 291.5"/>
          <polygon class="a" points="492.93 286.9 503.45 284.27 503.45 293.48 492.93 296.11 492.93 286.9"/>
          <polygon class="a" points="530.41 277.04 540.94 274.41 540.94 283.61 530.41 286.24 530.41 277.04"/>
          <polygon class="a" points="548.83 272.43 559.35 269.8 559.35 279.01 548.83 281.64 548.83 272.43"/>
          <polygon class="a" points="511.34 282.3 521.87 279.67 521.87 288.87 511.34 291.5 511.34 282.3"/>
          <polygon class="a" points="567.24 267.83 577.77 265.2 577.77 274.41 567.24 277.04 567.24 267.83"/>
        </g>
      </g>
      <g>
        <polygon class="b" points="122.67 408.75 256.83 371.26 325.23 505.42 122.67 408.75"/>
        <polygon class="c" points="268.01 392.31 194.35 411.38 325.23 505.42 268.01 392.31"/>
        <polygon class="d" points="194.35 411.38 268.01 392.31 272.61 401.51 194.35 411.38"/>
        <polygon class="e" points="124.64 181.86 124.64 229.87 64.79 197.64 124.64 181.86"/>
        <polygon class="f" points="64.79 197.64 124.64 182.19 124.64 195.01 64.79 197.64"/>
        <polygon class="g" points="30.9 269.13 30.9 276.56 198.3 233.07 198.3 225.92 30.9 269.13"/>
        <polygon class="h" points="490.95 51.64 490.95 318.65 122.67 408.75 122.67 145.03 332.52 91.81 339.9 89.94 490.95 51.64"/>
        <polygon class="i" points="490.95 237.47 490.95 249.26 194.35 322.43 194.35 321.1 490.95 237.47"/>
        <polygon class="j" points="83.86 366.66 83.86 376.52 340.35 312.07 340.35 302.87 83.86 366.66"/>
        <polygon class="g" points="561.98 227.89 561.98 317.99 194.35 411.38 194.35 321.28 561.98 227.89"/>
        <polygon class="i" points="383.76 122.67 122.67 184.37 122.67 181.4 367.64 120.36 332.52 91.81 339.9 89.94 383.76 122.67"/>
        <polygon class="k" points="312.07 74.66 369.95 119.38 64.79 197.64 64.79 137.79 312.07 74.66"/>
        <polygon class="j" points="272.61 176.59 272.61 186.46 529.1 122.01 529.1 112.8 272.61 176.59"/>
        <polygon class="j" points="272.61 176.59 272.61 186.46 529.1 122.01 529.1 112.8 272.61 176.59"/>
        <polygon class="j" points="265.03 47.9 265.03 53.61 360.74 30.79 360.74 25.33 265.03 47.9"/>
        <polygon class="g" points="5.91 330.69 5.91 336.4 101.62 313.58 101.62 308.13 5.91 330.69"/>
        <polygon class="j" points="459.69 86.18 459.69 91.1 570.53 63.57 570.53 58.87 459.69 86.18"/>
        <polygon class="g" points="380.12 56.71 380.12 64.14 547.51 20.65 547.51 13.49 380.12 56.71"/>
      </g>
      <g>
        <polygon class="a" points="304.18 427.16 314.7 424.53 314.7 433.74 304.18 436.37 304.18 427.16"/>
        <polygon class="a" points="566.59 361.4 577.11 358.77 577.11 367.97 566.59 370.6 566.59 361.4"/>
        <polygon class="a" points="304.18 427.05 314.7 424.42 314.7 433.63 304.18 436.26 304.18 427.05"/>
        <polygon class="a" points="323.25 422.45 333.77 419.82 333.77 429.03 323.25 431.66 323.25 422.45"/>
        <polygon class="a" points="342.32 417.85 352.85 415.22 352.85 424.42 342.32 427.05 342.32 417.85"/>
        <polygon class="a" points="360.74 413.24 371.26 410.61 371.26 419.82 360.74 422.45 360.74 413.24"/>
        <polygon class="a" points="379.81 407.98 390.33 405.35 390.33 414.56 379.81 417.19 379.81 407.98"/>
        <polygon class="a" points="398.88 403.38 409.4 400.75 409.4 409.95 398.88 412.58 398.88 403.38"/>
        <polygon class="a" points="417.3 398.77 427.82 396.14 427.82 405.35 417.3 407.98 417.3 398.77"/>
        <polygon class="a" points="435.71 394.17 446.23 391.54 446.23 400.75 435.71 403.38 435.71 394.17"/>
        <polygon class="a" points="454.78 389.57 465.31 386.94 465.31 396.14 454.78 398.77 454.78 389.57"/>
        <polygon class="a" points="473.86 384.96 484.38 382.33 484.38 391.54 473.86 394.17 473.86 384.96"/>
        <polygon class="a" points="492.27 380.36 502.79 377.73 502.79 386.94 492.27 389.57 492.27 380.36"/>
        <polygon class="a" points="529.76 370.5 540.28 367.86 540.28 377.07 529.76 379.7 529.76 370.5"/>
        <polygon class="a" points="548.17 365.89 558.69 363.26 558.69 372.47 548.17 375.1 548.17 365.89"/>
        <polygon class="a" points="510.69 375.76 521.21 373.13 521.21 382.33 510.69 384.96 510.69 375.76"/>
        <polygon class="a" points="566.59 361.29 577.11 358.66 577.11 367.86 566.59 370.5 566.59 361.29"/>
      </g>
    </g>
    <g>
      <g>
        <path class="l" d="M74.11,140.8l3.8-1L77.56,148a3.17,3.17,0,0,0,1.61-.87,11.58,11.58,0,0,0,1.41-3.05,29,29,0,0,1,1.53-3.62,5,5,0,0,1,1.43-1.66,8.3,8.3,0,0,1,2.7-1.1l1-.26-.37,2.95-.62.16a2.4,2.4,0,0,0-1,.5,3.42,3.42,0,0,0-.67,1.31,22.31,22.31,0,0,1-1.78,4.29A4.72,4.72,0,0,1,81,148.35c1.34.07,2.38,1,3.1,2.63l.12.27,2.67,5.29-3.94,1-2.54-5.24c0-.06-.24-.42-.65-1.07a2.06,2.06,0,0,0-2.34-.53l-.38,8.36-3.79,1Z"/>
        <path class="l" d="M88.38,137.15,92.69,136l4,8.69,4.87-10.95,4.17-1.07L96.93,151a11.4,11.4,0,0,1-2,3.18,5,5,0,0,1-2.29,1.22,9.16,9.16,0,0,1-2.49.36l0-3a9,9,0,0,0,1.51-.21,5.07,5.07,0,0,0,1.49-.69A6,6,0,0,0,94.76,149Z"/>
        <path class="l" d="M110.68,150.45l-3.84,1,.77-19.21,7.58-1.94a9,9,0,0,1,3.28-.36A3.52,3.52,0,0,1,120.6,131a4.39,4.39,0,0,1,1.13,2.39,7.27,7.27,0,0,1-.09,2.82,7.07,7.07,0,0,1-1,2.43,6.58,6.58,0,0,1-1.51,1.63,10.35,10.35,0,0,1-2.36,1.24,30.57,30.57,0,0,1-3.36,1l-2.46.63Zm.41-10.51,1.18-.3a15.46,15.46,0,0,0,4-1.41,3.83,3.83,0,0,0,1.39-1.61,3.24,3.24,0,0,0,.28-2,1.72,1.72,0,0,0-.49-1,1.5,1.5,0,0,0-.94-.4,9.09,9.09,0,0,0-2.44.42l-2.75.71Z"/>
        <path class="l" d="M136.61,137l4-.42A11,11,0,0,1,138,142.1a9.89,9.89,0,0,1-5,3,6.86,6.86,0,0,1-5.7-.64q-2.27-1.53-2.93-5.35a13.22,13.22,0,0,1,.31-6,10.88,10.88,0,0,1,2.9-4.87,10.67,10.67,0,0,1,4.75-2.64,7.11,7.11,0,0,1,5.17.33,6,6,0,0,1,2.95,3.75l-3.62,1.29a3,3,0,0,0-4-2.12,5.7,5.7,0,0,0-2.8,1.71,7.23,7.23,0,0,0-1.7,3.51,11,11,0,0,0-.14,4.22,4.53,4.53,0,0,0,1.66,3.1,3.29,3.29,0,0,0,2.88.51,4.94,4.94,0,0,0,2.57-1.64A6.42,6.42,0,0,0,136.61,137Z"/>
        <path class="l" d="M144,122.91l3.56-.91-.5,11.92L155.17,120l3.58-.92-.82,19.23-3.61.93.57-12.07-8.22,14-3.57.91Z"/>
        <path class="l" d="M169.93,116.25l14.78-3.79-.83,19.24-3.83,1,.71-16-7.16,1.84-.71,16-3.82,1Z"/>
        <path class="l" d="M187.72,123.25a13.66,13.66,0,0,1-.09-3.53,13.48,13.48,0,0,1,1.26-4.67,11,11,0,0,1,7.3-5.85,7.36,7.36,0,0,1,5.95.67,6.9,6.9,0,0,1,3.09,5,12.88,12.88,0,0,1-.42,5.94,11.8,11.8,0,0,1-3.05,5.11,11.28,11.28,0,0,1-5.13,2.84,7.79,7.79,0,0,1-4.58,0,5.93,5.93,0,0,1-3-2.22A8.34,8.34,0,0,1,187.72,123.25Zm3.78-1a4.16,4.16,0,0,0,1.71,2.84,3.89,3.89,0,0,0,3.3.48,5.83,5.83,0,0,0,2.81-1.77,8.3,8.3,0,0,0,1.84-3.63,9.85,9.85,0,0,0,.25-4.2,4.31,4.31,0,0,0-1.76-3.07,3.81,3.81,0,0,0-3.22-.45,6,6,0,0,0-4.13,3.73A10.35,10.35,0,0,0,191.5,122.21Z"/>
      </g>
      <g>
        <path class="l" d="M168.45,155.08l-7.22,1.84-.42,8.59-3.85,1,.94-19.21,3.84-1-.36,7.41,7.23-1.85.37-7.42,3.84-1-.94,19.22-3.85,1Z"/>
        <path class="l" d="M183.88,159.61l-3.85,1,.79-16-5.48,1.4.15-3.21L190.22,139l-.16,3.21-5.4,1.38Z"/>
        <path class="l" d="M202.44,154.86l-3.64.94-3.16-15.05-.49,16-3.47.88.94-19.21,5.48-1.4,2.65,12.62,4.3-14.39,5.54-1.42-1,19.21-3.5.9,1.22-16Z"/>
        <path class="l" d="M213.55,152l.94-19.22,3.84-1-.78,16,9.51-2.43-.15,3.21Z"/>
        <path class="l" d="M229.62,144.33l3.69-.94-.15,3a7,7,0,0,1-1.11,3.91,5.11,5.11,0,0,1-2.82,1.83l.09-1.74a3.19,3.19,0,0,0,1.31-1.08,3.59,3.59,0,0,0,.48-1.78l-1.68.43Z"/>
        <path class="l" d="M256.37,134.24l4-.41a11.24,11.24,0,0,1-2.64,5.56,10.09,10.09,0,0,1-5,3,6.79,6.79,0,0,1-5.69-.65q-2.27-1.51-2.88-5.34a13.26,13.26,0,0,1,.36-6,10.88,10.88,0,0,1,2.95-4.86,10.73,10.73,0,0,1,4.77-2.64,7.11,7.11,0,0,1,5.17.33,5.81,5.81,0,0,1,2.91,3.75l-3.63,1.29a3.4,3.4,0,0,0-1.55-2,3.46,3.46,0,0,0-2.45-.12,5.86,5.86,0,0,0-2.82,1.7,7.34,7.34,0,0,0-1.73,3.52,11,11,0,0,0-.18,4.22,4.51,4.51,0,0,0,1.63,3.1,3.32,3.32,0,0,0,2.88.51,5.07,5.07,0,0,0,2.58-1.64A6.43,6.43,0,0,0,256.37,134.24Z"/>
        <path class="l" d="M262.38,133.4l3.63-1.13a3.63,3.63,0,0,0,1,2.15c.67.5,1.76.56,3.27.17a5,5,0,0,0,2.62-1.35,2.21,2.21,0,0,0,.58-1.81,1.54,1.54,0,0,0-.91-1.19,12.48,12.48,0,0,0-2.87-.65,23.93,23.93,0,0,1-3.43-.72,4.07,4.07,0,0,1-1.83-1.2,4.14,4.14,0,0,1-1-2.15,5.37,5.37,0,0,1,1.09-4.25,8.12,8.12,0,0,1,4.7-2.78,7.56,7.56,0,0,1,5.33.2,5,5,0,0,1,2.64,3.5l-3.66,1.1a2.61,2.61,0,0,0-1.29-1.75,3.61,3.61,0,0,0-2.57-.07,4.06,4.06,0,0,0-2.18,1.12,1.89,1.89,0,0,0-.46,1.56,1.45,1.45,0,0,0,.84,1.13,12.07,12.07,0,0,0,3,.72,14.8,14.8,0,0,1,4.46,1.15,3.87,3.87,0,0,1,1.83,2.86,5.85,5.85,0,0,1-1.28,4.62,9.09,9.09,0,0,1-5.18,3.1,10.27,10.27,0,0,1-4.3.28,4.5,4.5,0,0,1-2.85-1.56A6.1,6.1,0,0,1,262.38,133.4Z"/>
        <path class="l" d="M279.79,128.94l3.63-1.12a3.66,3.66,0,0,0,1,2.15c.66.5,1.75.56,3.26.17a4.93,4.93,0,0,0,2.62-1.35,2.19,2.19,0,0,0,.59-1.81,1.54,1.54,0,0,0-.91-1.19,12.62,12.62,0,0,0-2.88-.65,23.42,23.42,0,0,1-3.42-.72,4.05,4.05,0,0,1-1.84-1.2,4.22,4.22,0,0,1-.95-2.15,5.41,5.41,0,0,1,1.09-4.25,8.15,8.15,0,0,1,4.7-2.78,7.54,7.54,0,0,1,5.34.2,5,5,0,0,1,2.63,3.49L291,118.84a2.63,2.63,0,0,0-1.3-1.75,3.62,3.62,0,0,0-2.56-.08,4.21,4.21,0,0,0-2.19,1.13,1.91,1.91,0,0,0-.45,1.56,1.44,1.44,0,0,0,.83,1.13,12.07,12.07,0,0,0,3,.72,14.41,14.41,0,0,1,4.46,1.15,3.91,3.91,0,0,1,1.84,2.86,5.86,5.86,0,0,1-1.29,4.62,9.06,9.06,0,0,1-5.17,3.1,10.28,10.28,0,0,1-4.3.28A4.45,4.45,0,0,1,281,132,6.2,6.2,0,0,1,279.79,128.94Z"/>
        <path class="l" d="M297.81,126.9l3.69-.94-.15,3a7,7,0,0,1-1.11,3.91,5.11,5.11,0,0,1-2.82,1.83l.09-1.74a3.19,3.19,0,0,0,1.31-1.08,3.59,3.59,0,0,0,.48-1.78l-1.68.43Z"/>
        <path class="l" d="M319.93,105.86l3.78-1-.56,11.64q-.24,4.62-1.51,6.57a7.13,7.13,0,0,1-4.45,2.75,5.72,5.72,0,0,1-4.22-.17,3.85,3.85,0,0,1-1.88-2.94,7,7,0,0,1-.09-1l3.49-1.29a6.86,6.86,0,0,0,.08.93,1.55,1.55,0,0,0,.72,1.2,2.22,2.22,0,0,0,1.64.06,2.66,2.66,0,0,0,1.94-1.38,14.31,14.31,0,0,0,.5-3.92Z"/>
        <path class="l" d="M326.24,117.07l3.62-1.12a3.65,3.65,0,0,0,1,2.14q1,.76,3.27.18a4.94,4.94,0,0,0,2.62-1.36,2.18,2.18,0,0,0,.58-1.8,1.54,1.54,0,0,0-.91-1.19,12.62,12.62,0,0,0-2.88-.65,24.88,24.88,0,0,1-3.42-.73,4,4,0,0,1-1.83-1.19,4.17,4.17,0,0,1-.95-2.15A5.4,5.4,0,0,1,328.4,105a8.15,8.15,0,0,1,4.7-2.78,7.53,7.53,0,0,1,5.34.2,5,5,0,0,1,2.63,3.49L337.42,107a2.67,2.67,0,0,0-1.3-1.76,3.69,3.69,0,0,0-2.56-.07,4.06,4.06,0,0,0-2.18,1.13,1.87,1.87,0,0,0-.46,1.55,1.46,1.46,0,0,0,.83,1.14,12.33,12.33,0,0,0,3,.72,14.21,14.21,0,0,1,4.47,1.15,3.83,3.83,0,0,1,1.83,2.86,5.85,5.85,0,0,1-1.29,4.61,9,9,0,0,1-5.17,3.11,10.27,10.27,0,0,1-4.3.28,4.47,4.47,0,0,1-2.85-1.56A6.1,6.1,0,0,1,326.24,117.07Z"/>
      </g>
      <g>
        <path class="l" d="M141.53,249.76l4.07-1,0,3.33a5.53,5.53,0,0,1,5.26,1.06,8.64,8.64,0,0,1,2.69,5.43,15.92,15.92,0,0,1-.28,6.13,13,13,0,0,1-2.78,5.51,11.16,11.16,0,0,1-5.17,3.42l0,3.58-4.06,1,.05-3.58c-2.47.24-4.34-.33-5.59-1.7a9.78,9.78,0,0,1-2.37-5.22,14,14,0,0,1,1.49-8.7,12.31,12.31,0,0,1,6.72-6Zm-.08,8.06a7.64,7.64,0,0,0-3.13,3.35,8.44,8.44,0,0,0-.77,5.33,4.05,4.05,0,0,0,1.38,2.77,2.88,2.88,0,0,0,2.36.56Zm3.92,10.87a5.58,5.58,0,0,0,3.11-3.35,9.24,9.24,0,0,0,.79-5.22q-.59-3.78-3.75-3.38Z"/>
        <path class="l" d="M161.23,272.85,156.87,274l.23-28.17,8.6-2.2a8,8,0,0,1,3.73-.23,4.33,4.33,0,0,1,2.47,1.75,8.15,8.15,0,0,1,1.37,3.61,13.68,13.68,0,0,1,0,4.14,11.26,11.26,0,0,1-1,3.49,8.05,8.05,0,0,1-1.67,2.26,9.84,9.84,0,0,1-2.65,1.62,27.92,27.92,0,0,1-3.81,1.17l-2.78.71Zm.11-15.41,1.34-.34a13.66,13.66,0,0,0,4.52-1.73,4.76,4.76,0,0,0,1.54-2.23,6,6,0,0,0,.25-2.85,3.27,3.27,0,0,0-.59-1.52,1.85,1.85,0,0,0-1.1-.67,8.33,8.33,0,0,0-2.77.41l-3.12.8Z"/>
        <path class="l" d="M176.4,269l.23-28.18,4.34-1.1-.22,28.17Z"/>
        <path class="l" d="M186.43,238.3,201,234.59l-.28,28.19-4.33,1.11.24-23.48-5.87,1.49-.17,14.93a30.52,30.52,0,0,1-.42,4.89,7.89,7.89,0,0,1-1.34,3.5A5,5,0,0,1,186,267a12.53,12.53,0,0,1-3,.33l.06-4.83c.79,0,1.25-.09,1.39-.12,1.2-.31,1.78-1.83,1.77-4.58a3.84,3.84,0,0,1,0-.48Z"/>
        <path class="l" d="M218,252.16l-8.38,2.13L208,260.92l-4.47,1.14L211.3,232l4.83-1.23,7.63,26.17L219.63,258Zm-1.23-4.37-2.92-10.57-3.41,12.18Z"/>
        <path class="l" d="M239.11,240.42l-8.17,2.08-.1,12.59-4.36,1.12.23-28.18,4.34-1.11L231,237.8l8.18-2.09.09-10.88,4.34-1.11-.21,28.18L239,253Z"/>
        <path class="l" d="M261.54,237.13l4.51-.27a16.8,16.8,0,0,1-2.76,7.95,9.75,9.75,0,0,1-5.64,3.94,6.65,6.65,0,0,1-6.53-1.44c-1.77-1.62-2.94-4.33-3.53-8.11a24.55,24.55,0,0,1,.15-8.82,15.21,15.21,0,0,1,3.15-6.89,10.21,10.21,0,0,1,5.34-3.47,6.72,6.72,0,0,1,5.92.93,9.87,9.87,0,0,1,3.49,5.78l-4.09,1.58a5.71,5.71,0,0,0-1.87-3.08,3.24,3.24,0,0,0-2.79-.39,5.68,5.68,0,0,0-3.15,2.26,10.88,10.88,0,0,0-1.82,5,20.73,20.73,0,0,0,0,6.19,8.19,8.19,0,0,0,2,4.7,3.32,3.32,0,0,0,3.31,1,5,5,0,0,0,2.88-2.19A10,10,0,0,0,261.54,237.13Z"/>
        <path class="l" d="M269.07,245.34l.21-28.17,15.67-4,0,4.71-11.32,2.88-.06,6.4,10.95-2.79,0,4.71-10.95,2.79-.19,7.68,12.3-3.13,0,4.71Z"/>
        <path class="l" d="M293.11,239.21l-4.36,1.11.23-28.18,8.59-2.19a8,8,0,0,1,3.74-.24,4.32,4.32,0,0,1,2.46,1.75,8,8,0,0,1,1.37,3.61,13.13,13.13,0,0,1,0,4.15,11.26,11.26,0,0,1-1,3.49,8,8,0,0,1-1.66,2.25,9.92,9.92,0,0,1-2.66,1.63,27.38,27.38,0,0,1-3.81,1.16l-2.78.71Zm.11-15.41,1.34-.35a13.62,13.62,0,0,0,4.51-1.72,4.71,4.71,0,0,0,1.54-2.24,5.82,5.82,0,0,0,.25-2.84,3.17,3.17,0,0,0-.59-1.52,1.78,1.78,0,0,0-1.09-.67,8.11,8.11,0,0,0-2.78.41l-3.11.79Z"/>
        <path class="l" d="M317.07,205l16.76-4.27-.31,28.2-4.34,1.1.27-23.49-8.12,2.08-.26,23.48-4.33,1.11Z"/>
        <path class="l" d="M337.63,216.82a25,25,0,0,1-.22-5.2,22.81,22.81,0,0,1,1.28-6.75,14.33,14.33,0,0,1,3.16-5.12,10.46,10.46,0,0,1,5-2.85,7.16,7.16,0,0,1,6.83,1.5q2.89,2.5,3.69,7.65a23.61,23.61,0,0,1-.28,8.69,16.82,16.82,0,0,1-3.31,7.25A10.85,10.85,0,0,1,348,225.7a7,7,0,0,1-5.23-.45,8.28,8.28,0,0,1-3.5-3.53A15.47,15.47,0,0,1,337.63,216.82Zm4.28-1.21a7.33,7.33,0,0,0,2,4.33,3.8,3.8,0,0,0,3.79,1,5.73,5.73,0,0,0,3.15-2.35,12.45,12.45,0,0,0,2-5.18,18.85,18.85,0,0,0,.15-6.15,7.73,7.73,0,0,0-2.12-4.67,3.82,3.82,0,0,0-3.7-.94q-3.19.81-4.6,5.12A18.94,18.94,0,0,0,341.91,215.61Z"/>
        <path class="l" d="M378.83,189.22l4.33-1.11L383,200.06a2.37,2.37,0,0,0,1.57-1.41,44.07,44.07,0,0,0,1.67-5.48,29.84,29.84,0,0,1,1.21-3.85,6.3,6.3,0,0,1,1.63-2.18,7,7,0,0,1,2.94-1.45,9.1,9.1,0,0,1,1.63-.26l-.09,4.24a6.89,6.89,0,0,0-1.06.18,2.41,2.41,0,0,0-1.71,1.16,19.47,19.47,0,0,0-1.12,3.91q-1.06,4.8-3.11,6.11c1.36.25,2.53,1.63,3.53,4.14l3.37,8.43L389,214.73l-2.81-7.26a7.79,7.79,0,0,0-1.67-3,1.73,1.73,0,0,0-1.57-.37l-.12,12.23-4.3,1.1.1-12.23a2.45,2.45,0,0,0-1.25.88,6.17,6.17,0,0,0-.91,1.74l-.61,1.69-.17.45-3.06,9-5.22,1.33,3.91-11.2q1.36-3.84,3.67-5.06a3.33,3.33,0,0,1-1.66-1.53,18.51,18.51,0,0,1-1.56-4.07,6.87,6.87,0,0,0-1-2.45c-.29-.27-.8-.31-1.52-.13-.23.06-.6.18-1.1.36l0-4.31a11.49,11.49,0,0,1,1.34-.43,3.56,3.56,0,0,1,2.49.06,4.1,4.1,0,0,1,1.63,1.63,21.48,21.48,0,0,1,1.6,3.66,22.89,22.89,0,0,0,1.73,4,1.26,1.26,0,0,0,1.44.44l.3-.09Z"/>
        <path class="l" d="M396.86,184.62l4-1-.16,17.48,8.85-19.7,4.06-1-.28,28.19-4.1,1,.24-17.69-8.91,19.9-4,1Z"/>
        <path class="l" d="M426.91,205.07l-4.35,1.11.19-23.47-6.2,1.58,0-4.7,16.66-4.25,0,4.7-6.12,1.56Z"/>
        <path class="l" d="M445,200.47l-4.35,1.11.19-23.47-6.2,1.58,0-4.71,16.66-4.25,0,4.71L445.13,177Z"/>
        <path class="l" d="M454.15,170l4.3-1.09-.12,11.69,3.4-.87a17.65,17.65,0,0,1,2.36-9.44,10.36,10.36,0,0,1,6.43-4.94,7.18,7.18,0,0,1,6.7,1.41c1.93,1.59,3.19,4.25,3.76,8a24.25,24.25,0,0,1-1,12.17,10.43,10.43,0,0,1-7.54,7.05q-4.49,1.14-7.23-1.69a12.46,12.46,0,0,1-3.39-7c0-.16-.06-.41-.1-.74l-3.45.88-.12,11.67-4.27,1.09Zm12,13.63a7.79,7.79,0,0,0,2.1,4.57,3.78,3.78,0,0,0,3.76,1q2.89-.74,4.2-4.45a17.89,17.89,0,0,0,.51-8.76q-.56-3.62-2.21-5a3.82,3.82,0,0,0-3.55-.91c-1.87.48-3.27,2.06-4.18,4.75A18.33,18.33,0,0,0,466.14,183.63Z"/>
      </g>
      <g>
        <path class="l" d="M213.17,347.48l2.52-.64-.27,3.56,3.49-.89.27-3.56,2.52-.64-.72,9.62-2.52.64.31-4-3.51.89-.3,4-2.51.64Z"/>
        <path class="l" d="M226.16,346.85l-2.51.42a4.32,4.32,0,0,1,1.22-2.28,5.85,5.85,0,0,1,2.71-1.4,4.09,4.09,0,0,1,2.78,0,1.94,1.94,0,0,1,1.11,1.51,6.19,6.19,0,0,1,.05.89c0,.32-.07,1.18-.19,2.57a13.31,13.31,0,0,0-.05,2.38,4.76,4.76,0,0,0,.39,1.24l-2.47.63a4.91,4.91,0,0,1-.33-1,4.74,4.74,0,0,1-1.15,1.25,4.06,4.06,0,0,1-1.42.69,2.51,2.51,0,0,1-2-.25,2.29,2.29,0,0,1-1-1.72,3,3,0,0,1,.54-2.29,5.69,5.69,0,0,1,2.86-1.71,13.23,13.23,0,0,0,2.38-1,3.35,3.35,0,0,0,0-.86.75.75,0,0,0-.42-.58,1.47,1.47,0,0,0-1,0,2.14,2.14,0,0,0-1,.55A1.56,1.56,0,0,0,226.16,346.85Zm2.74,1.67a6.25,6.25,0,0,1-.6.27,6.86,6.86,0,0,0-2.4,1.28,1.11,1.11,0,0,0-.3.94.86.86,0,0,0,.42.65,1.13,1.13,0,0,0,.88.08,2.53,2.53,0,0,0,1-.55,2.2,2.2,0,0,0,.66-.89,5.1,5.1,0,0,0,.27-1.44Z"/>
        <path class="l" d="M240.38,345.25a2.54,2.54,0,0,1,1.44.42,1.61,1.61,0,0,1,.61,1.13,2.77,2.77,0,0,1-.79,2.23,6.17,6.17,0,0,1-3.23,1.68,4.35,4.35,0,0,1-3.4-.22,3.43,3.43,0,0,1-1.54-2.64,6.37,6.37,0,0,1,.9-4.3,6.24,6.24,0,0,1,4-2.69,3.71,3.71,0,0,1,2.79.05,2,2,0,0,1,1,1.49,2.23,2.23,0,0,1-.32,1.56A4.09,4.09,0,0,1,240.38,345.25Zm-4.6.45,1.94-.5a4.29,4.29,0,0,0,1.86-.81,1.23,1.23,0,0,0,.35-1.1.72.72,0,0,0-.46-.63,2,2,0,0,0-1.11,0,3.54,3.54,0,0,0-1.86,1.06A3.06,3.06,0,0,0,235.78,345.7Zm.07,1.49a2.41,2.41,0,0,0,.73,1.54,2.18,2.18,0,0,0,1.89.11,2.77,2.77,0,0,0,1.22-.57,1,1,0,0,0,.3-.88.88.88,0,0,0-.61-.76,1.92,1.92,0,0,0-1.14-.05Z"/>
        <path class="l" d="M244,339.64l2.55-.65-.16,1.92a8,8,0,0,0,0,1.27.86.86,0,0,0,.53.75,2.09,2.09,0,0,0,1.26,0,4.68,4.68,0,0,0,1.42-.66l.3-4.1,2.5-.63-.72,9.62-2.52.64.3-3.84a9.56,9.56,0,0,1-2.41,1,2.83,2.83,0,0,1-2.14-.16,2,2,0,0,1-1-1.59,6.19,6.19,0,0,1,0-1.44v-.18Z"/>
        <path class="l" d="M256.87,339l-2.51.43a4.32,4.32,0,0,1,1.22-2.28,5.76,5.76,0,0,1,2.71-1.4,4,4,0,0,1,2.78,0,1.91,1.91,0,0,1,1.11,1.5,6.43,6.43,0,0,1,.05.9c0,.32-.07,1.18-.19,2.57a13.31,13.31,0,0,0-.05,2.38,4.88,4.88,0,0,0,.39,1.24l-2.47.63a5.23,5.23,0,0,1-.33-1,4.59,4.59,0,0,1-1.15,1.25,4.09,4.09,0,0,1-1.42.7,2.51,2.51,0,0,1-2-.26,2.26,2.26,0,0,1-1-1.71,3.06,3.06,0,0,1,.54-2.3,5.76,5.76,0,0,1,2.86-1.7,14,14,0,0,0,2.38-1,3.43,3.43,0,0,0,0-.87.73.73,0,0,0-.42-.57,1.42,1.42,0,0,0-1,0,2.06,2.06,0,0,0-1,.54A1.59,1.59,0,0,0,256.87,339Zm2.74,1.67a6.25,6.25,0,0,1-.6.27,6.67,6.67,0,0,0-2.4,1.29,1.1,1.1,0,0,0-.3.94.85.85,0,0,0,.42.64,1.13,1.13,0,0,0,.88.08,2.51,2.51,0,0,0,1.05-.54,2.27,2.27,0,0,0,.66-.89,5.26,5.26,0,0,0,.27-1.44Z"/>
        <path class="l" d="M265,334.32l2.54-.65-.4,5.69a9.82,9.82,0,0,0-.05,1.27.81.81,0,0,0,.4.6,1,1,0,0,0,.81.08,1.89,1.89,0,0,0,.65-.29,3.77,3.77,0,0,0,.62-.55,4.92,4.92,0,0,0,.54-.73,4.64,4.64,0,0,0,.39-1,8.49,8.49,0,0,0,.18-1.38l.33-4.58,2.54-.65-.68,9.61-2.38.61.1-1.31a5.76,5.76,0,0,1-3.19,2.32,2.45,2.45,0,0,1-1.92-.18,2.07,2.07,0,0,1-.9-1.56,10.92,10.92,0,0,1,0-2Zm1.33-4.13,1.23-.31a1.64,1.64,0,0,0,.68.83,1.24,1.24,0,0,0,.9.05,2.36,2.36,0,0,0,1.57-1.68l1.17-.3a4.3,4.3,0,0,1-.92,2.14A3.3,3.3,0,0,1,269.2,332a2.28,2.28,0,0,1-1.8-.19A2.65,2.65,0,0,1,266.29,330.19Z"/>
        <path class="l" d="M281.26,336.05l2.53-.24a6,6,0,0,1-1.47,2.89,5.42,5.42,0,0,1-2.65,1.54,3.68,3.68,0,0,1-3-.32,3.43,3.43,0,0,1-1.46-2.58,6.81,6.81,0,0,1,.25-3,5.63,5.63,0,0,1,1.63-2.57,6.07,6.07,0,0,1,2.71-1.48,3.77,3.77,0,0,1,2.77.17,2.77,2.77,0,0,1,1.43,1.93l-2.39.86a1.53,1.53,0,0,0-.64-1,1.39,1.39,0,0,0-1.08-.1,2.51,2.51,0,0,0-1.3.88,4,4,0,0,0-.75,1.84,6.71,6.71,0,0,0-.06,2.08,1.61,1.61,0,0,0,.58,1.14,1.26,1.26,0,0,0,1.08.18,2.3,2.3,0,0,0,1.12-.73A3.35,3.35,0,0,0,281.26,336.05Z"/>
        <path class="l" d="M294.31,326.85l-.85,9.66-2.53.64.33-3.78-.7.18a2,2,0,0,0-.9.49,6.63,6.63,0,0,0-1,1.5l-1.27,2.5-3.07.78,1.75-3.21a5,5,0,0,1,1.19-1.49,1.93,1.93,0,0,1-2-1.75,3.69,3.69,0,0,1,.54-2.35q.71-1.18,3.36-1.86Zm-2.72,2.3-1.8.45a9.71,9.71,0,0,0-1.22.44,1.59,1.59,0,0,0-.55.61,1.3,1.3,0,0,0-.21.86.91.91,0,0,0,.52.73,3.47,3.47,0,0,0,1.89-.15l1.16-.3Z"/>
        <path class="l" d="M296.37,333.31l2.56-.65-.15,2.07a5,5,0,0,1-.83,2.7,3.67,3.67,0,0,1-2,1.27l.08-1.21a2.26,2.26,0,0,0,.92-.74,2.67,2.67,0,0,0,.37-1.23l-1.17.3Z"/>
        <path class="l" d="M306.82,323.68l2.41-.62-.08,1a7.13,7.13,0,0,1,1.32-1.25,4.48,4.48,0,0,1,1.41-.63,2.85,2.85,0,0,1,2.51.38,3.87,3.87,0,0,1,1.32,2.71,6.58,6.58,0,0,1-1,4.56,4.85,4.85,0,0,1-2.94,2.25,2.89,2.89,0,0,1-3-.75l-.35,5-2.55.64Zm2.26,4.83a2.16,2.16,0,0,0,.77,1.52,1.52,1.52,0,0,0,1.35.26,2.26,2.26,0,0,0,1.15-.75,3.78,3.78,0,0,0,.76-1.71,5.84,5.84,0,0,0,.12-2,2,2,0,0,0-.73-1.44,1.56,1.56,0,0,0-1.36-.21,2.33,2.33,0,0,0-1.25.83,3.81,3.81,0,0,0-.72,1.72A5.6,5.6,0,0,0,309.08,328.51Z"/>
        <path class="l" d="M317.13,326.57a5.94,5.94,0,0,1,4.57-6.9,4.3,4.3,0,0,1,3.41.29,3.51,3.51,0,0,1,1.58,2.69,6.12,6.12,0,0,1-.92,4.2,5.86,5.86,0,0,1-3.69,2.61,5.14,5.14,0,0,1-2.42.08,3,3,0,0,1-1.74-1.07A3.84,3.84,0,0,1,317.13,326.57Zm7-3.6a1.76,1.76,0,0,0-.73-1.27,1.74,1.74,0,0,0-1.43-.18,2.67,2.67,0,0,0-1.39.87,3.6,3.6,0,0,0-.79,1.68,5.33,5.33,0,0,0-.12,1.82,2,2,0,0,0,.77,1.42,1.72,1.72,0,0,0,1.46.22,2.58,2.58,0,0,0,1.64-1.31A5.1,5.1,0,0,0,324.13,323Z"/>
        <path class="l" d="M330.4,320.22l-2.14.18a4.51,4.51,0,0,1,3.59-3.3,3.71,3.71,0,0,1,2.61,0,1.92,1.92,0,0,1,1.08,1.54,2.26,2.26,0,0,1-.41,1.64,3.47,3.47,0,0,1-1.3,1.12,1.9,1.9,0,0,1,1.31.42,1.78,1.78,0,0,1,.65,1.18,2.85,2.85,0,0,1-.74,2.2,5.69,5.69,0,0,1-3.13,1.7q-3.35.84-4.36-1.53l2.35-.84a1.58,1.58,0,0,0,2,.8,1.78,1.78,0,0,0,1-.66,1.36,1.36,0,0,0,.3-1.05.87.87,0,0,0-.55-.78,2.75,2.75,0,0,0-1.44.09v-1.56a8.33,8.33,0,0,0,1.25-.39,1.4,1.4,0,0,0,.62-.59,1.37,1.37,0,0,0,.18-.88.93.93,0,0,0-.48-.7,1.28,1.28,0,0,0-.95-.09A2.17,2.17,0,0,0,330.4,320.22Z"/>
        <path class="l" d="M344.42,318.8a2.54,2.54,0,0,1,1.44.43,1.66,1.66,0,0,1,.62,1.13,2.79,2.79,0,0,1-.8,2.23,6.2,6.2,0,0,1-3.23,1.68,4.4,4.4,0,0,1-3.4-.22,3.4,3.4,0,0,1-1.53-2.64,6.3,6.3,0,0,1,.89-4.3,6.23,6.23,0,0,1,4-2.69,3.77,3.77,0,0,1,2.79,0,2.06,2.06,0,0,1,1,1.5,2.26,2.26,0,0,1-.33,1.56A4,4,0,0,1,344.42,318.8Zm-4.6.45,1.94-.49a4.29,4.29,0,0,0,1.86-.81,1.22,1.22,0,0,0,.35-1.11.69.69,0,0,0-.45-.62,2,2,0,0,0-1.12,0,3.53,3.53,0,0,0-1.86,1.05A3.2,3.2,0,0,0,339.82,319.25Zm.07,1.49a2.36,2.36,0,0,0,.73,1.54,2.21,2.21,0,0,0,1.89.12,2.72,2.72,0,0,0,1.22-.58,1,1,0,0,0,.31-.88.92.92,0,0,0-.62-.76,1.84,1.84,0,0,0-1.14,0Z"/>
        <path class="l" d="M349.24,312.89l2.54-.64-.4,5.69a9,9,0,0,0,0,1.26.78.78,0,0,0,.4.6,1,1,0,0,0,.81.09,1.84,1.84,0,0,0,.64-.29,3.1,3.1,0,0,0,.62-.55,3.93,3.93,0,0,0,.93-1.72,8.57,8.57,0,0,0,.19-1.39l.33-4.57,2.54-.65-.69,9.61-2.37.6.09-1.3a5.7,5.7,0,0,1-3.19,2.31,2.35,2.35,0,0,1-1.91-.18,2,2,0,0,1-.91-1.55,12.44,12.44,0,0,1,0-2Z"/>
        <path class="l" d="M366.46,313.2a2.53,2.53,0,0,1,1.43.43,1.66,1.66,0,0,1,.62,1.13,2.79,2.79,0,0,1-.8,2.23,6.2,6.2,0,0,1-3.23,1.68,4.4,4.4,0,0,1-3.4-.22,3.43,3.43,0,0,1-1.53-2.64,6.3,6.3,0,0,1,.89-4.3,6.23,6.23,0,0,1,4-2.69,3.71,3.71,0,0,1,2.79.05,2,2,0,0,1,1,1.49,2.26,2.26,0,0,1-.33,1.56A3.94,3.94,0,0,1,366.46,313.2Zm-4.61.45,1.94-.49a4.23,4.23,0,0,0,1.86-.81,1.25,1.25,0,0,0,.36-1.11.72.72,0,0,0-.46-.62,2,2,0,0,0-1.12,0,3.53,3.53,0,0,0-1.86,1A3.2,3.2,0,0,0,361.85,313.65Zm.07,1.49a2.36,2.36,0,0,0,.74,1.54,2.18,2.18,0,0,0,1.88.12,2.72,2.72,0,0,0,1.22-.58,1,1,0,0,0,.31-.88.88.88,0,0,0-.62-.75,1.77,1.77,0,0,0-1.14,0Z"/>
        <path class="l" d="M373,309.52l-2.51.42a4.31,4.31,0,0,1,1.21-2.28,6,6,0,0,1,2.71-1.4,4.08,4.08,0,0,1,2.78,0,1.89,1.89,0,0,1,1.11,1.51,5,5,0,0,1,.05.89c0,.32-.07,1.18-.18,2.57a12.66,12.66,0,0,0-.06,2.38,4.45,4.45,0,0,0,.4,1.24l-2.47.63a4,4,0,0,1-.33-1,4.77,4.77,0,0,1-1.16,1.25,4,4,0,0,1-1.41.69,2.53,2.53,0,0,1-2-.25,2.32,2.32,0,0,1-1-1.72,3,3,0,0,1,.55-2.29,5.65,5.65,0,0,1,2.85-1.71,13.23,13.23,0,0,0,2.38-1,3,3,0,0,0,0-.86.69.69,0,0,0-.42-.58,1.47,1.47,0,0,0-1,0,2.19,2.19,0,0,0-1,.55A1.61,1.61,0,0,0,373,309.52Zm2.74,1.67a4.61,4.61,0,0,1-.6.26,7.08,7.08,0,0,0-2.41,1.29,1.14,1.14,0,0,0-.29.94.86.86,0,0,0,.42.65,1.13,1.13,0,0,0,.88.08,2.66,2.66,0,0,0,1.05-.55,2.3,2.3,0,0,0,.66-.89,5.17,5.17,0,0,0,.26-1.44Z"/>
        <path class="l" d="M381.12,304.79l2.54-.65-.4,5.7a9,9,0,0,0,0,1.26.81.81,0,0,0,.4.6,1,1,0,0,0,.81.09,2.3,2.3,0,0,0,.64-.29,3.45,3.45,0,0,0,.62-.55,3.89,3.89,0,0,0,.93-1.73,8.24,8.24,0,0,0,.19-1.38l.33-4.58,2.54-.64-.69,9.61-2.37.6.09-1.3a5.7,5.7,0,0,1-3.19,2.31,2.35,2.35,0,0,1-1.91-.18,2,2,0,0,1-.91-1.55,12.44,12.44,0,0,1,0-2Zm1.33-4.12,1.23-.32a1.64,1.64,0,0,0,.68.83,1.25,1.25,0,0,0,.9.06,2.39,2.39,0,0,0,1.58-1.69l1.16-.3a4.14,4.14,0,0,1-.92,2.14,3.2,3.2,0,0,1-1.72,1.11,2.29,2.29,0,0,1-1.8-.18A2.73,2.73,0,0,1,382.45,300.67Z"/>
        <path class="l" d="M397.43,306.53l2.52-.24a6,6,0,0,1-1.46,2.88,5.38,5.38,0,0,1-2.66,1.54,3.68,3.68,0,0,1-3-.31,3.44,3.44,0,0,1-1.45-2.59,6.83,6.83,0,0,1,.24-3,5.77,5.77,0,0,1,1.63-2.57A6.26,6.26,0,0,1,396,300.8a3.8,3.8,0,0,1,2.78.16,2.81,2.81,0,0,1,1.42,1.93l-2.38.87a1.55,1.55,0,0,0-.64-1,1.4,1.4,0,0,0-1.08-.09,2.36,2.36,0,0,0-1.3.88,3.83,3.83,0,0,0-.76,1.84,7.32,7.32,0,0,0-.06,2.07,1.61,1.61,0,0,0,.58,1.14,1.24,1.24,0,0,0,1.08.18,2.23,2.23,0,0,0,1.12-.73A3.27,3.27,0,0,0,397.43,306.53Z"/>
        <path class="l" d="M410.48,297.33l-.86,9.65-2.52.65.32-3.78-.7.17a2,2,0,0,0-.89.49,6.24,6.24,0,0,0-1,1.5l-1.27,2.5-3.06.78,1.74-3.2a5.1,5.1,0,0,1,1.19-1.5,1.83,1.83,0,0,1-1.21-.34,1.86,1.86,0,0,1-.8-1.4,3.55,3.55,0,0,1,.54-2.35c.47-.8,1.59-1.42,3.35-1.87Zm-2.72,2.29-1.8.46a6.9,6.9,0,0,0-1.22.44,1.56,1.56,0,0,0-.56.6,1.35,1.35,0,0,0-.2.86.91.91,0,0,0,.52.73,3.24,3.24,0,0,0,1.88-.15l1.16-.29Z"/>
        <path class="l" d="M417.94,295.43l2.39-.61-.08,1.17a5,5,0,0,1,2.75-2.07,2.61,2.61,0,0,1,1.7,0,1.61,1.61,0,0,1,.9,1,4.64,4.64,0,0,1,1.24-1.5,4.73,4.73,0,0,1,1.83-.95,2.39,2.39,0,0,1,1.84.14,1.79,1.79,0,0,1,.84,1.38,8.82,8.82,0,0,1,0,1.7l-.42,5.87-2.54.65.42-5.88c0-.73.07-1.14.06-1.24a.68.68,0,0,0-.32-.53.93.93,0,0,0-.73,0,2.46,2.46,0,0,0-1.56,1.4,7.05,7.05,0,0,0-.58,2.69l-.31,4.37-2.54.64.41-5.81a7.33,7.33,0,0,0,0-1.28.66.66,0,0,0-.33-.53,1,1,0,0,0-.73-.06,2.16,2.16,0,0,0-.83.46,3,3,0,0,0-.68.86,4.42,4.42,0,0,0-.42,1.23c0,.22-.09.71-.15,1.48l-.31,4.42-2.54.64Z"/>
        <path class="l" d="M436.13,293.48l-2.51.43a4.25,4.25,0,0,1,1.22-2.28,5.67,5.67,0,0,1,2.71-1.4,4.1,4.1,0,0,1,2.78,0,1.94,1.94,0,0,1,1.11,1.51,6.34,6.34,0,0,1,.05.9c0,.32-.07,1.18-.19,2.57a13.2,13.2,0,0,0-.05,2.37,4.47,4.47,0,0,0,.39,1.25l-2.47.62a4.91,4.91,0,0,1-.33-1,4.59,4.59,0,0,1-1.15,1.25,4,4,0,0,1-1.42.69,2.47,2.47,0,0,1-2-.25,2.26,2.26,0,0,1-1-1.71,3.06,3.06,0,0,1,.54-2.3,5.84,5.84,0,0,1,2.86-1.71,13.43,13.43,0,0,0,2.38-1,3.43,3.43,0,0,0,0-.87.76.76,0,0,0-.42-.58,1.48,1.48,0,0,0-1,0,2.06,2.06,0,0,0-1,.54A1.59,1.59,0,0,0,436.13,293.48Zm2.74,1.67a6.25,6.25,0,0,1-.6.27,6.67,6.67,0,0,0-2.4,1.29,1.08,1.08,0,0,0-.3.93.85.85,0,0,0,.42.65,1.13,1.13,0,0,0,.88.08,2.59,2.59,0,0,0,1.05-.55,2.18,2.18,0,0,0,.66-.88,5.26,5.26,0,0,0,.27-1.44Z"/>
        <path class="l" d="M449.28,287.47l8.53-2.17-.72,9.62-2.52.64.55-7.59-3.5.89-.55,7.59-2.51.64Z"/>
        <path class="l" d="M462.33,286.82l-2.5.43A4.24,4.24,0,0,1,461,285a5.72,5.72,0,0,1,2.71-1.4,4.09,4.09,0,0,1,2.78,0,1.9,1.9,0,0,1,1.11,1.51,5.14,5.14,0,0,1,.05.9c0,.32-.07,1.17-.19,2.57a13.2,13.2,0,0,0-.05,2.37,4.51,4.51,0,0,0,.4,1.25l-2.47.62a3.9,3.9,0,0,1-.33-1,4.79,4.79,0,0,1-1.16,1.25,3.85,3.85,0,0,1-1.41.69,2.49,2.49,0,0,1-2-.25,2.26,2.26,0,0,1-1-1.71,3.06,3.06,0,0,1,.54-2.3,5.84,5.84,0,0,1,2.86-1.71,13.43,13.43,0,0,0,2.38-1,3,3,0,0,0,0-.87.72.72,0,0,0-.42-.58,1.48,1.48,0,0,0-1,0,2.1,2.1,0,0,0-1,.54A1.65,1.65,0,0,0,462.33,286.82Zm2.74,1.67a5.92,5.92,0,0,1-.59.27,6.65,6.65,0,0,0-2.41,1.29,1.09,1.09,0,0,0-.3.93.85.85,0,0,0,.42.65,1.15,1.15,0,0,0,.89.08,2.56,2.56,0,0,0,1-.55,2.21,2.21,0,0,0,.67-.88,5.74,5.74,0,0,0,.26-1.44Z"/>
        <path class="l" d="M470.46,282.09l3.09-.79,1.85,6.05,2.89-7.26,3-.76-.73,9.62-2.13.54.48-6.29-2.72,6.86-2.13.54-1.74-5.84-.49,6.41-2.12.54Z"/>
        <path class="l" d="M484,275.05l2.56-.65-.15,2.07a5,5,0,0,1-.82,2.71,3.59,3.59,0,0,1-2,1.26l.09-1.2a2.17,2.17,0,0,0,.91-.75,2.59,2.59,0,0,0,.37-1.22l-1.17.29Z"/>
        <path class="l" d="M497.07,275.32l-.86,9.66-2.52.64.32-3.78-.7.18a1.9,1.9,0,0,0-.89.49,5.84,5.84,0,0,0-1,1.5l-1.27,2.5-3.06.78,1.74-3.21a4.93,4.93,0,0,1,1.19-1.49,1.91,1.91,0,0,1-1.21-.35,1.86,1.86,0,0,1-.8-1.4,3.55,3.55,0,0,1,.54-2.35c.47-.8,1.58-1.42,3.35-1.86Zm-2.73,2.29-1.79.46a7.46,7.46,0,0,0-1.22.44,1.53,1.53,0,0,0-.56.61,1.33,1.33,0,0,0-.2.86.88.88,0,0,0,.52.72,3.3,3.3,0,0,0,1.88-.14l1.16-.3Z"/>
        <path class="l" d="M499.49,274.71l2.39-.61-.08,1.16a5,5,0,0,1,2.75-2.06,2.62,2.62,0,0,1,1.7,0,1.63,1.63,0,0,1,.9,1,4.55,4.55,0,0,1,1.24-1.51,4.7,4.7,0,0,1,1.83-.94,2.4,2.4,0,0,1,1.84.13,1.81,1.81,0,0,1,.84,1.39,8.72,8.72,0,0,1,0,1.69l-.42,5.88-2.54.64.42-5.87c.05-.74.07-1.15.06-1.24a.72.72,0,0,0-.32-.54,1,1,0,0,0-.74,0,2.49,2.49,0,0,0-1.55,1.4,7.07,7.07,0,0,0-.58,2.7l-.31,4.36-2.54.65.41-5.81a7.45,7.45,0,0,0,0-1.29.67.67,0,0,0-.33-.53.94.94,0,0,0-.73,0,2.13,2.13,0,0,0-.83.45,3.19,3.19,0,0,0-.68.86,4.66,4.66,0,0,0-.42,1.23c0,.22-.09.72-.15,1.48l-.31,4.42-2.54.65Z"/>
        <path class="l" d="M517.68,272.76l-2.51.42a4.32,4.32,0,0,1,1.22-2.28,5.77,5.77,0,0,1,2.7-1.4,4.05,4.05,0,0,1,2.79,0A1.91,1.91,0,0,1,523,271a6.43,6.43,0,0,1,0,.9c0,.32-.07,1.18-.19,2.57a13.31,13.31,0,0,0-.05,2.38,4.11,4.11,0,0,0,.39,1.24l-2.47.63a5.23,5.23,0,0,1-.33-1,4.59,4.59,0,0,1-1.15,1.25,4.18,4.18,0,0,1-1.42.7,2.5,2.5,0,0,1-2-.26,2.26,2.26,0,0,1-1-1.71,3.06,3.06,0,0,1,.54-2.3,5.76,5.76,0,0,1,2.86-1.7,13.82,13.82,0,0,0,2.37-1,3,3,0,0,0,.05-.86.73.73,0,0,0-.42-.58,1.47,1.47,0,0,0-1,0,2.14,2.14,0,0,0-1,.54A1.58,1.58,0,0,0,517.68,272.76Zm2.74,1.66a6.25,6.25,0,0,1-.6.27,6.83,6.83,0,0,0-2.4,1.29,1.11,1.11,0,0,0-.3.94.85.85,0,0,0,.42.64,1.13,1.13,0,0,0,.88.08,2.63,2.63,0,0,0,1.05-.54,2.37,2.37,0,0,0,.66-.89,5,5,0,0,0,.26-1.44Z"/>
        <path class="l" d="M525.77,268l2.54-.65-.4,5.69a8.2,8.2,0,0,0,0,1.27.81.81,0,0,0,.4.6,1,1,0,0,0,.81.09,2.24,2.24,0,0,0,.65-.3,3.77,3.77,0,0,0,.62-.55,4.25,4.25,0,0,0,.53-.73,4.16,4.16,0,0,0,.4-1,9.8,9.8,0,0,0,.18-1.38l.33-4.58,2.54-.65-.69,9.61-2.37.61.09-1.3a5.67,5.67,0,0,1-3.19,2.31,2.43,2.43,0,0,1-1.91-.18,2.08,2.08,0,0,1-.91-1.56,12.32,12.32,0,0,1,0-1.95Zm1.32-4.13,1.24-.31a1.6,1.6,0,0,0,.68.83,1.24,1.24,0,0,0,.9.06,2.4,2.4,0,0,0,1.57-1.69l1.17-.3a4.26,4.26,0,0,1-.92,2.14,3.29,3.29,0,0,1-1.73,1.11,2.26,2.26,0,0,1-1.79-.19A2.7,2.7,0,0,1,527.09,263.9Z"/>
        <path class="l" d="M540.9,267.69l4.93-1.25-.18,2.51-4.93,1.25Z"/>
      </g>
      <g>
        <path class="l" d="M251.07,359.34l2.5-.64-.3,4.1a1.82,1.82,0,0,0,1-.62,5.71,5.71,0,0,0,.74-1.67,6.1,6.1,0,0,1,.9-2,2.8,2.8,0,0,1,1.52-.81l1.09-.28-.11,1.43-.34.09a1,1,0,0,0-.58.35,5.7,5.7,0,0,0-.46,1.2,4.85,4.85,0,0,1-.7,1.51,3.44,3.44,0,0,1-1.11.91,1.74,1.74,0,0,1,1.61,1.21l1.32,2.83-2.38.61-1.14-2.5a2.1,2.1,0,0,0-.61-.89,1.14,1.14,0,0,0-.85,0l-.31,4.14-2.49.63.31-4.14a1.38,1.38,0,0,0-.62.31,3.37,3.37,0,0,0-.53.88l-1.69,3.59-2.77.71,1.85-3.7a7.41,7.41,0,0,1,.87-1.43,2.12,2.12,0,0,1,.95-.6,2.88,2.88,0,0,1-.78-.65,3.76,3.76,0,0,1-.4-1,2.93,2.93,0,0,0-.4-1c-.11-.11-.32-.13-.62-.05l-.47.12.1-1.43.86-.22a2.25,2.25,0,0,1,1.26,0q.61.21,1.11,1.77a2.28,2.28,0,0,0,.61,1.16,1.13,1.13,0,0,0,.77.1Z"/>
        <path class="l" d="M260.25,357l2.54-.64-.4,5.69a9.1,9.1,0,0,0,0,1.27.81.81,0,0,0,.4.6,1,1,0,0,0,.81.08,1.89,1.89,0,0,0,.65-.29,3.77,3.77,0,0,0,.62-.55,4.68,4.68,0,0,0,.53-.73,4.16,4.16,0,0,0,.4-1,9.8,9.8,0,0,0,.18-1.38l.32-4.58,2.54-.65-.67,9.61-2.38.61.09-1.31a5.7,5.7,0,0,1-3.18,2.32,2.46,2.46,0,0,1-1.92-.18,2.07,2.07,0,0,1-.9-1.56,10.92,10.92,0,0,1,0-2Z"/>
        <path class="l" d="M277.46,357.31a2.64,2.64,0,0,1,1.44.43,1.66,1.66,0,0,1,.62,1.13,2.78,2.78,0,0,1-.8,2.23,6.09,6.09,0,0,1-3.23,1.68,4.37,4.37,0,0,1-3.39-.22,3.41,3.41,0,0,1-1.54-2.64,6.1,6.1,0,0,1,4.88-7,3.71,3.71,0,0,1,2.79.05,2,2,0,0,1,1,1.49,2.23,2.23,0,0,1-.33,1.56A3.94,3.94,0,0,1,277.46,357.31Zm-4.6.45,1.93-.49a4.28,4.28,0,0,0,1.87-.81,1.26,1.26,0,0,0,.35-1.1.73.73,0,0,0-.46-.63,2,2,0,0,0-1.12,0,3.54,3.54,0,0,0-1.86,1.06A3.1,3.1,0,0,0,272.86,357.76Zm.07,1.5a2.36,2.36,0,0,0,.74,1.54,2.15,2.15,0,0,0,1.88.11,2.72,2.72,0,0,0,1.22-.57,1,1,0,0,0,.31-.88.91.91,0,0,0-.62-.76,1.84,1.84,0,0,0-1.14-.05Z"/>
        <path class="l" d="M282.27,351.41l2.54-.65-.39,5.69a7.67,7.67,0,0,0,0,1.27.83.83,0,0,0,.39.6,1,1,0,0,0,.81.08,1.89,1.89,0,0,0,.65-.29,3.4,3.4,0,0,0,.62-.55,3.83,3.83,0,0,0,.54-.73,4.64,4.64,0,0,0,.39-1,9.8,9.8,0,0,0,.18-1.38l.32-4.58,2.54-.65-.67,9.61-2.37.61.09-1.31a5.72,5.72,0,0,1-3.19,2.32,2.43,2.43,0,0,1-1.91-.18,2.08,2.08,0,0,1-.91-1.56,13.35,13.35,0,0,1,0-2Z"/>
        <path class="l" d="M292.92,355.68l2.56-.65-.15,2.07a4.94,4.94,0,0,1-.82,2.7,3.57,3.57,0,0,1-2,1.26l.08-1.2a2.26,2.26,0,0,0,.92-.74,2.56,2.56,0,0,0,.36-1.23l-1.17.3Z"/>
        <path class="l" d="M305.42,348.2l-2.5.42a4.21,4.21,0,0,1,1.21-2.28,5.68,5.68,0,0,1,2.7-1.4,4.13,4.13,0,0,1,2.79,0,1.94,1.94,0,0,1,1.11,1.51,6.43,6.43,0,0,1,0,.9c0,.32-.07,1.18-.18,2.57a12.4,12.4,0,0,0-.05,2.38,4.19,4.19,0,0,0,.39,1.24l-2.47.63a5.23,5.23,0,0,1-.33-1,4.59,4.59,0,0,1-1.15,1.25,3.9,3.9,0,0,1-1.42.69,2.47,2.47,0,0,1-2-.25,2.26,2.26,0,0,1-1-1.71,3,3,0,0,1,.54-2.3,5.67,5.67,0,0,1,2.85-1.7,14,14,0,0,0,2.38-1,3.43,3.43,0,0,0,0-.87.73.73,0,0,0-.42-.57,1.42,1.42,0,0,0-1,0,2.06,2.06,0,0,0-1,.54A1.58,1.58,0,0,0,305.42,348.2Zm2.74,1.66a5,5,0,0,1-.59.27,6.58,6.58,0,0,0-2.4,1.29,1.1,1.1,0,0,0-.3.94.85.85,0,0,0,.42.64,1.13,1.13,0,0,0,.88.08,2.77,2.77,0,0,0,1.05-.54,2.37,2.37,0,0,0,.66-.89,5.32,5.32,0,0,0,.26-1.44Z"/>
        <path class="l" d="M318.57,342.18l8.52-2.17-.71,9.62-2.51.64.54-7.59-3.51.9-.54,7.58-2.5.64Z"/>
        <path class="l" d="M329.55,339.38l2.41-.61-.07,1a6.56,6.56,0,0,1,1.32-1.25,4.33,4.33,0,0,1,1.4-.63,2.86,2.86,0,0,1,2.52.38,3.84,3.84,0,0,1,1.31,2.71,6.52,6.52,0,0,1-1,4.56,4.8,4.8,0,0,1-2.93,2.25,2.92,2.92,0,0,1-3-.75l-.35,5-2.54.65Zm2.27,4.84a2.16,2.16,0,0,0,.77,1.52,1.53,1.53,0,0,0,1.35.26,2.22,2.22,0,0,0,1.15-.75,3.67,3.67,0,0,0,.76-1.71,5.58,5.58,0,0,0,.11-2,2,2,0,0,0-.72-1.44,1.6,1.6,0,0,0-1.36-.22,2.37,2.37,0,0,0-1.25.84,3.71,3.71,0,0,0-.72,1.71A5.66,5.66,0,0,0,331.82,344.22Z"/>
        <path class="l" d="M342.69,338.72l-2.51.42a4.32,4.32,0,0,1,1.22-2.28,5.86,5.86,0,0,1,2.7-1.4,4.08,4.08,0,0,1,2.78,0A1.92,1.92,0,0,1,348,337a6.27,6.27,0,0,1,0,.89c0,.32-.06,1.18-.18,2.57a13.31,13.31,0,0,0-.05,2.38,4.45,4.45,0,0,0,.4,1.24l-2.47.63a4,4,0,0,1-.33-1,4.71,4.71,0,0,1-1.15,1.24,4.18,4.18,0,0,1-1.42.7,2.5,2.5,0,0,1-2-.25,2.3,2.3,0,0,1-1-1.72,3,3,0,0,1,.55-2.3,5.67,5.67,0,0,1,2.85-1.7,13.82,13.82,0,0,0,2.37-1,3,3,0,0,0,0-.86.73.73,0,0,0-.42-.58,1.48,1.48,0,0,0-1,0,2.1,2.1,0,0,0-1,.55A1.53,1.53,0,0,0,342.69,338.72Zm2.74,1.67a5.06,5.06,0,0,1-.59.26,7,7,0,0,0-2.41,1.29,1.15,1.15,0,0,0-.3.94.87.87,0,0,0,.43.64,1.13,1.13,0,0,0,.88.09,2.66,2.66,0,0,0,1.05-.55,2.3,2.3,0,0,0,.66-.89,5.24,5.24,0,0,0,.26-1.44Z"/>
        <path class="l" d="M350.74,334l2.51-.64-.44,5.91a4.86,4.86,0,0,0,0,1,.79.79,0,0,0,.38.65,1.13,1.13,0,0,0,.85,0,2.72,2.72,0,0,0,1.58-1.25,4.9,4.9,0,0,0,.77-2.37l.34-4.87,2.5-.64-.47,6.53a4.2,4.2,0,0,0,0,.79.4.4,0,0,0,.25.35,2.16,2.16,0,0,0,1-.12l.52-.15-.36,4.74-2.05.52.3-3c-1.13.27-1.82,0-2.07-.71a8.86,8.86,0,0,1-1.56,1.48,4.66,4.66,0,0,1-1.59.77,2.31,2.31,0,0,1-2-.2,2.14,2.14,0,0,1-.85-1.49,7.19,7.19,0,0,1,0-1.33Z"/>
        <path class="l" d="M362.53,331l2.49-.63-.26,3.74,1.91-.48a5.63,5.63,0,0,1,4.37-5,4.41,4.41,0,0,1,3.12.2,3.11,3.11,0,0,1,1.57,2.54,6.65,6.65,0,0,1-.93,4.39,5.75,5.75,0,0,1-3.69,2.72,3.65,3.65,0,0,1-3-.32,3.47,3.47,0,0,1-1.5-2.51l-2,.52-.3,3.83-2.48.63Zm6.66,4.11a1.82,1.82,0,0,0,.6,1.2,1.36,1.36,0,0,0,1.24.22,2.49,2.49,0,0,0,1.77-1.83,6.29,6.29,0,0,0,.28-2.85,1.67,1.67,0,0,0-.58-1.19,1.48,1.48,0,0,0-1.27-.13,2.53,2.53,0,0,0-1.7,1.65A5.46,5.46,0,0,0,369.19,335.11Z"/>
        <path class="l" d="M378.16,327l2.54-.65-.4,5.69a9.1,9.1,0,0,0,0,1.27.81.81,0,0,0,.4.6,1,1,0,0,0,.81.08,1.89,1.89,0,0,0,.65-.29,3.77,3.77,0,0,0,.62-.55,4.25,4.25,0,0,0,.53-.73,4.16,4.16,0,0,0,.4-1,9.8,9.8,0,0,0,.18-1.38l.32-4.58,2.54-.65-.67,9.61-2.38.61.09-1.31a5.66,5.66,0,0,1-3.18,2.32,2.46,2.46,0,0,1-1.92-.18,2.07,2.07,0,0,1-.9-1.56,10.92,10.92,0,0,1,0-2Zm1.32-4.13,1.23-.31a1.64,1.64,0,0,0,.68.83,1.3,1.3,0,0,0,.9.06,2.38,2.38,0,0,0,1.57-1.69l1.17-.3a4.3,4.3,0,0,1-.92,2.14,3.26,3.26,0,0,1-1.72,1.11,2.29,2.29,0,0,1-1.8-.19A2.73,2.73,0,0,1,379.48,322.9Z"/>
        <path class="l" d="M393.11,323.22l2.53-.64,1.28,4.38c.33,1.13.53,1.92.62,2.38a21.6,21.6,0,0,1,.94-3.3l1.68-4.61,2.69-.68-4.39,11.48a17.44,17.44,0,0,1-.88,2,3.4,3.4,0,0,1-2.24,1.67,7,7,0,0,1-1.85.19l0-1.9a3.39,3.39,0,0,0,.91-.09c.78-.2,1.34-.94,1.68-2.21Z"/>
        <path class="l" d="M415.53,322.21a2.53,2.53,0,0,1,1.43.43,1.62,1.62,0,0,1,.62,1.13,2.78,2.78,0,0,1-.79,2.23,6.28,6.28,0,0,1-3.23,1.68,4.39,4.39,0,0,1-3.4-.23,3.41,3.41,0,0,1-1.54-2.63,6.11,6.11,0,0,1,4.89-7,3.76,3.76,0,0,1,2.79.05,2,2,0,0,1,1,1.5,2.22,2.22,0,0,1-.33,1.55A4,4,0,0,1,415.53,322.21Zm-4.61.45,1.94-.49a4.23,4.23,0,0,0,1.86-.81,1.22,1.22,0,0,0,.35-1.11.68.68,0,0,0-.46-.62,1.85,1.85,0,0,0-1.11,0,3.46,3.46,0,0,0-1.86,1.05A3.2,3.2,0,0,0,410.92,322.66Zm.08,1.49a2.36,2.36,0,0,0,.73,1.54,2.21,2.21,0,0,0,1.89.12,2.89,2.89,0,0,0,1.22-.58,1,1,0,0,0,.3-.88.91.91,0,0,0-.61-.76,1.92,1.92,0,0,0-1.14,0Z"/>
        <path class="l" d="M420.61,312.64l2.54-.64-.16,2.35-2.54.64Zm-.25,3.66,2.54-.65-.68,9.61-2.54.65Z"/>
        <path class="l" d="M426.15,314.82l8-2-.7,9.63L431,323l.56-7.59-3.21.81-.36,5.07a4,4,0,0,1-.76,2.26,3.66,3.66,0,0,1-2,1.13,8.92,8.92,0,0,1-1.65.21l.11-2.16a4.3,4.3,0,0,0,.94-.12,1.15,1.15,0,0,0,.86-.65,6.43,6.43,0,0,0,.31-1.82Z"/>
        <path class="l" d="M436.62,312.16l2.52-.64-.3,4,2.91-.74a3.81,3.81,0,0,1,2.4,0,1.75,1.75,0,0,1,1,1.5,3.13,3.13,0,0,1-.66,2.46,4.75,4.75,0,0,1-2.71,1.58l-5.9,1.5Zm1.92,7.35,1.81-.46a4.59,4.59,0,0,0,1.9-.8,1.15,1.15,0,0,0,.39-1.07.76.76,0,0,0-.61-.7,5.29,5.29,0,0,0-1.95.25l-1.36.35Z"/>
        <path class="l" d="M447.38,309.42l2.52-.63-.27,3.56,3.5-.89.26-3.56,2.52-.64-.71,9.62-2.52.64.3-4-3.5.89-.3,4-2.51.64Z"/>
        <path class="l" d="M458.37,306.63l2.54-.64-.4,5.69a9,9,0,0,0,0,1.26.78.78,0,0,0,.4.6,1,1,0,0,0,.81.09,2.2,2.2,0,0,0,.65-.29,3.77,3.77,0,0,0,.62-.55,4.33,4.33,0,0,0,.53-.74,3.52,3.52,0,0,0,.39-1,7.49,7.49,0,0,0,.18-1.38l.33-4.58,2.54-.64-.67,9.61-2.38.6.09-1.3a5.68,5.68,0,0,1-3.18,2.31,2.37,2.37,0,0,1-1.92-.18A2,2,0,0,1,458,314a10.92,10.92,0,0,1,0-2Z"/>
        <path class="l" d="M469.44,303.82l2.54-.65-.39,5.69a7.67,7.67,0,0,0,0,1.27.8.8,0,0,0,.39.6,1.06,1.06,0,0,0,.81.09,2.12,2.12,0,0,0,.65-.3A3.4,3.4,0,0,0,474,310a4.92,4.92,0,0,0,.54-.73,4.64,4.64,0,0,0,.39-1,9.8,9.8,0,0,0,.18-1.38l.32-4.58,2.54-.65-.67,9.61-2.37.61.09-1.3a5.7,5.7,0,0,1-3.19,2.31,2.43,2.43,0,0,1-1.91-.18,2.05,2.05,0,0,1-.91-1.56,12,12,0,0,1,0-2Zm1.32-4.13,1.23-.31a1.65,1.65,0,0,0,.69.83,1.29,1.29,0,0,0,.9.06,2.42,2.42,0,0,0,1.57-1.69l1.16-.3a4.29,4.29,0,0,1-.91,2.14,3.3,3.3,0,0,1-1.72,1.11,2.28,2.28,0,0,1-1.8-.19A2.7,2.7,0,0,1,470.76,299.69Z"/>
        <path class="l" d="M485.27,299.79l2.55-.65-.15,1.93a6.78,6.78,0,0,0,0,1.26.87.87,0,0,0,.52.75,2.12,2.12,0,0,0,1.27,0,4.25,4.25,0,0,0,1.42-.66l.3-4.1,2.49-.63-.71,9.62-2.51.64.29-3.83a9.18,9.18,0,0,1-2.41,1,2.83,2.83,0,0,1-2.14-.15,2.08,2.08,0,0,1-1-1.6,7.41,7.41,0,0,1,0-1.43l0-.18Z"/>
        <path class="l" d="M498.12,299.2l-2.5.42a4.31,4.31,0,0,1,1.21-2.28,5.86,5.86,0,0,1,2.7-1.4,4.11,4.11,0,0,1,2.79,0,1.93,1.93,0,0,1,1.11,1.51,6.19,6.19,0,0,1,.05.89c0,.32-.07,1.18-.18,2.57a12.4,12.4,0,0,0-.05,2.38,4.15,4.15,0,0,0,.4,1.24l-2.47.63a4.74,4.74,0,0,1-.34-1,4.55,4.55,0,0,1-1.15,1.24,4,4,0,0,1-1.41.7,2.53,2.53,0,0,1-2-.25,2.29,2.29,0,0,1-1-1.72,3,3,0,0,1,.54-2.3,5.67,5.67,0,0,1,2.85-1.7,14,14,0,0,0,2.38-1,3,3,0,0,0,0-.86.73.73,0,0,0-.42-.58,1.47,1.47,0,0,0-1,0,2.14,2.14,0,0,0-1,.55A1.53,1.53,0,0,0,498.12,299.2Zm2.74,1.67a3.88,3.88,0,0,1-.59.26,7,7,0,0,0-2.4,1.29,1.11,1.11,0,0,0-.3.94.83.83,0,0,0,.42.64,1.13,1.13,0,0,0,.88.09,2.53,2.53,0,0,0,1.05-.55,2.3,2.3,0,0,0,.66-.89,5,5,0,0,0,.26-1.44Z"/>
        <path class="l" d="M511.44,299l2.52-.24a6,6,0,0,1-1.46,2.89,5.42,5.42,0,0,1-2.65,1.54,3.68,3.68,0,0,1-3-.32,3.43,3.43,0,0,1-1.46-2.59,6.77,6.77,0,0,1,.24-3,5.7,5.7,0,0,1,1.62-2.57,6.18,6.18,0,0,1,2.71-1.48,3.79,3.79,0,0,1,2.78.17,2.8,2.8,0,0,1,1.43,1.93l-2.38.86a1.58,1.58,0,0,0-.65-1,1.39,1.39,0,0,0-1.08-.1,2.51,2.51,0,0,0-1.3.88,4,4,0,0,0-.75,1.84A7,7,0,0,0,508,300a1.62,1.62,0,0,0,.59,1.14,1.23,1.23,0,0,0,1.08.17,2.18,2.18,0,0,0,1.11-.72A3.36,3.36,0,0,0,511.44,299Z"/>
      </g>
      <rect class="m" x="1" y="1" width="584" height="515.6" rx="12"/>
    </g>
  </g>
</svg>
