<svg xmlns="http://www.w3.org/2000/svg" width="123.06" height="111.13" viewBox="0 0 123.06 111.13">
  <defs>
    <style>
      .a {
        fill: #323330;
      }
    </style>
  </defs>
  <title>logo_lesson_</title>
  <g>
    <g>
      <path class="a" d="M33.74,9.53c0-3,0-5.87,0-8.69,0-1,.78-.8,1.33-.8,3.87,0,7.74,0,11.62,0S54.24.07,58,0c1.14,0,1.54.31,1.52,1.58-.07,4.27.13,8.55-.08,12.81-.18,3.72,1.31,6.32,4.22,7.88,3.78,2,7.72,3.71,11.6,5.51a38.48,38.48,0,0,1,9.82,5.89c5.24,4.7,6.1,10.73,4.38,17.3-2.11,8-7.75,11.78-15.09,13.1-1.65.29-3.34.29-5,.43-1,.09-1.44-.25-1.4-1.41.07-2.29.06-4.57,0-6.86,0-1,.36-1.2,1.24-1.22a19.51,19.51,0,0,0,5.36-.47A8.42,8.42,0,0,0,80,44.12a9.93,9.93,0,0,0-5.48-5.86c-3.87-1.83-7.85-3.39-11.77-5.09-3.38-1.46-6.67-3.09-9.23-6a13.25,13.25,0,0,1-3.31-8.61c-.09-2.53-.07-5.07,0-7.6,0-1.11-.34-1.47-1.37-1.46-4.43,0-8.86,0-13.29,0Z"/>
      <path class="a" d="M50.44,26.09a21.86,21.86,0,0,0,8.3,7.3,1.66,1.66,0,0,1,.71,1.23C59.1,41.83,58.06,48.85,54.1,55a19.77,19.77,0,0,1-14.44,9.12c-1.62.24-3.25.28-4.88.42-.9.08-1.08-.44-1.06-1.28,0-2.33,0-4.67,0-7,0-1,.35-1.21,1.23-1.3A28.56,28.56,0,0,0,40.85,54c4.46-1.47,6.8-5.12,8-9.72,1.43-5.33,1.3-10.8,1.28-16.26,0-.54,0-1.08.06-1.63C50.22,26.31,50.32,26.24,50.44,26.09Z"/>
      <path class="a" d="M61.31,11.45c0-3.17,0-6.33,0-9.48,0-.35.59-.89,1-1C71.61-1.39,80,.65,87.69,6.62c.84.66,1,1.22.26,2.15-1.5,1.83-2.91,3.75-4.32,5.66-.66.9-1.12,1.07-2.08.2C77,10.57,71.87,8.51,65.92,9.57A24.89,24.89,0,0,0,61.31,11.45Z"/>
    </g>
    <g>
      <path class="a" d="M1.89,77.42h5v6.64h.79v3.25h-1V85.13H1v2.18H0V84.06H.65Q1.94,82.19,1.89,77.42Zm1,1.09a13.49,13.49,0,0,1-1.09,5.55H5.71V78.51Z"/>
      <path class="a" d="M8.6,81.28a4.08,4.08,0,0,1,1.12-3.17A3.24,3.24,0,0,1,12,77.25a3.17,3.17,0,0,1,2.44,1,4.13,4.13,0,0,1,.94,2.88A5.55,5.55,0,0,1,15,83.51a3.06,3.06,0,0,1-1.22,1.32A3.36,3.36,0,0,1,12,85.3a3.14,3.14,0,0,1-2.45-1A4.31,4.31,0,0,1,8.6,81.28Zm1.26,0a3.39,3.39,0,0,0,.61,2.21,1.93,1.93,0,0,0,3,0,3.55,3.55,0,0,0,.6-2.26,3.35,3.35,0,0,0-.6-2.16,1.94,1.94,0,0,0-3,0A3.4,3.4,0,0,0,9.86,81.28Z"/>
      <path class="a" d="M16.85,77.42h1.9l1.9,6.17,2.11-6.17h1.77v7.71H23.3v-6.2l-2.14,6.2H20.07l-2-6.5v6.5H16.85Z"/>
      <path class="a" d="M31.12,84.18a4.64,4.64,0,0,1-1.31.87,3.58,3.58,0,0,1-1.36.25,2.51,2.51,0,0,1-1.83-.62A2.12,2.12,0,0,1,26,83.1a2.27,2.27,0,0,1,.24-1,2.24,2.24,0,0,1,.64-.75,2.65,2.65,0,0,1,.88-.42,7.26,7.26,0,0,1,1.09-.2A11,11,0,0,0,31,80.24c0-.18,0-.29,0-.34a1.49,1.49,0,0,0-.35-1.13,2,2,0,0,0-1.39-.44,2.11,2.11,0,0,0-1.28.32,2,2,0,0,0-.61,1.15l-1.2-.18a3.33,3.33,0,0,1,.54-1.32,2.33,2.33,0,0,1,1.08-.78,4.64,4.64,0,0,1,1.65-.27,4.22,4.22,0,0,1,1.5.23,1.94,1.94,0,0,1,.85.59,2.07,2.07,0,0,1,.38.89,7.91,7.91,0,0,1,.06,1.2V81.9a19.89,19.89,0,0,0,.08,2.3,3.09,3.09,0,0,0,.31.93H31.36A2.71,2.71,0,0,1,31.12,84.18ZM31,81.26a8.3,8.3,0,0,1-2,.5,4,4,0,0,0-1.07.26,1,1,0,0,0-.48.42,1.2,1.2,0,0,0-.17.62,1.13,1.13,0,0,0,.37.87,1.55,1.55,0,0,0,1.09.35A2.42,2.42,0,0,0,30,84a2.07,2.07,0,0,0,.81-.9A3.42,3.42,0,0,0,31,81.74Z"/>
      <path class="a" d="M34.19,77.42h1.23v6.63h2.79V77.42h1.23v6.63h2.8V77.42h1.21v7.71H34.19Z"/>
      <path class="a" d="M45.35,77.42h1.22v3.21H50V77.42H51.2v7.71H50V81.71h-3.4v3.42H45.35Z"/>
      <path class="a" d="M58,82.65l1.27.16a3.34,3.34,0,0,1-1.11,1.84,3.22,3.22,0,0,1-2.07.65,3.19,3.19,0,0,1-2.52-1,4.23,4.23,0,0,1-.93-2.92,4.49,4.49,0,0,1,.94-3A3.11,3.11,0,0,1,56,77.25a3,3,0,0,1,2.37,1,4.37,4.37,0,0,1,.92,3c0,.08,0,.2,0,.35H53.9a3,3,0,0,0,.67,1.94,2,2,0,0,0,1.51.68,1.84,1.84,0,0,0,1.16-.38A2.51,2.51,0,0,0,58,82.65Zm-4-2.11h4a2.63,2.63,0,0,0-.46-1.46A1.84,1.84,0,0,0,56,78.32a1.91,1.91,0,0,0-1.42.61A2.47,2.47,0,0,0,54,80.54Z"/>
      <path class="a" d="M66.27,81.65v-1a6.08,6.08,0,0,0,1.06-.06,1,1,0,0,0,.53-.35,1,1,0,0,0,.26-.72,1.11,1.11,0,0,0-.33-.85,1.2,1.2,0,0,0-.86-.32c-.69,0-1.17.44-1.45,1.3l-1.16-.2a2.51,2.51,0,0,1,2.62-2.17,2.42,2.42,0,0,1,1.82.68,2.2,2.2,0,0,1,.66,1.61,1.74,1.74,0,0,1-.86,1.5,2.23,2.23,0,0,1,.82.79A2.29,2.29,0,0,1,69.65,83a2.18,2.18,0,0,1-.71,1.69,2.83,2.83,0,0,1-2,.64A2.58,2.58,0,0,1,64.09,83l1.15-.26a2,2,0,0,0,.64,1.14,1.62,1.62,0,0,0,1.1.41,1.46,1.46,0,0,0,1-.37,1.25,1.25,0,0,0,.41-1,1.19,1.19,0,0,0-.26-.78,1.12,1.12,0,0,0-.55-.42,4.86,4.86,0,0,0-1.06-.08Z"/>
      <path class="a" d="M75.78,84.18a4.51,4.51,0,0,1-1.31.87,3.56,3.56,0,0,1-1.35.25,2.51,2.51,0,0,1-1.83-.62,2.09,2.09,0,0,1-.64-1.58,2.27,2.27,0,0,1,.24-1,2.11,2.11,0,0,1,.63-.75,2.71,2.71,0,0,1,.89-.42,7.33,7.33,0,0,1,1.08-.2,11.28,11.28,0,0,0,2.19-.45c0-.18,0-.29,0-.34a1.53,1.53,0,0,0-.35-1.13,2,2,0,0,0-1.4-.44,2.08,2.08,0,0,0-1.27.32,2,2,0,0,0-.61,1.15l-1.2-.18a3.33,3.33,0,0,1,.54-1.32,2.33,2.33,0,0,1,1.08-.78,4.58,4.58,0,0,1,1.64-.27,4.24,4.24,0,0,1,1.51.23,2,2,0,0,1,.85.59,2.07,2.07,0,0,1,.38.89,7.91,7.91,0,0,1,.06,1.2V81.9A19.89,19.89,0,0,0,77,84.2a2.84,2.84,0,0,0,.31.93H76A2.94,2.94,0,0,1,75.78,84.18Zm-.1-2.92a8.3,8.3,0,0,1-2,.5,4,4,0,0,0-1.07.26,1,1,0,0,0-.48.42,1.11,1.11,0,0,0-.17.62,1.13,1.13,0,0,0,.37.87,1.52,1.52,0,0,0,1.08.35A2.37,2.37,0,0,0,74.67,84a2,2,0,0,0,.81-.9,3.39,3.39,0,0,0,.2-1.31Z"/>
      <path class="a" d="M78.83,77.42h2.82a4.89,4.89,0,0,1,1.55.19,1.83,1.83,0,0,1,.87.68,1.89,1.89,0,0,1,.37,1.18,2,2,0,0,1-.22,1,1.82,1.82,0,0,1-.64.69,1.69,1.69,0,0,1,.85.68A2.06,2.06,0,0,1,84.76,83,2.13,2.13,0,0,1,84,84.6a3.09,3.09,0,0,1-1.94.53H78.83Zm1.22,3.25h1.31a4.34,4.34,0,0,0,1.08-.09,1.1,1.1,0,0,0,.52-.35,1,1,0,0,0,.23-.64.92.92,0,0,0-.4-.85,3.08,3.08,0,0,0-1.39-.23H80.05Zm0,3.39h1.62a2.82,2.82,0,0,0,1.43-.26,1,1,0,0,0,.4-.89,1.16,1.16,0,0,0-.22-.69,1,1,0,0,0-.59-.4,6.12,6.12,0,0,0-1.15-.08H80.05Z"/>
      <path class="a" d="M87,77.42h5v6.64h.78v3.25h-1V85.13H86.16v2.18h-1V84.06h.65Q87.09,82.19,87,77.42Zm1,1.09A13.49,13.49,0,0,1,87,84.06h3.89V78.51Z"/>
      <path class="a" d="M98.93,84.18a4.64,4.64,0,0,1-1.31.87,3.58,3.58,0,0,1-1.36.25,2.51,2.51,0,0,1-1.83-.62,2.12,2.12,0,0,1-.64-1.58,2.27,2.27,0,0,1,.24-1,2.13,2.13,0,0,1,.64-.75,2.65,2.65,0,0,1,.88-.42,7.26,7.26,0,0,1,1.09-.2,11,11,0,0,0,2.18-.45c0-.18,0-.29,0-.34a1.49,1.49,0,0,0-.35-1.13,2,2,0,0,0-1.39-.44,2.11,2.11,0,0,0-1.28.32,2,2,0,0,0-.61,1.15L94,79.62a3.33,3.33,0,0,1,.54-1.32,2.33,2.33,0,0,1,1.08-.78,4.64,4.64,0,0,1,1.65-.27,4.22,4.22,0,0,1,1.5.23,1.94,1.94,0,0,1,.85.59A2.07,2.07,0,0,1,100,79a7.91,7.91,0,0,1,.06,1.2V81.9a19.89,19.89,0,0,0,.08,2.3,3.09,3.09,0,0,0,.31.93H99.17A2.71,2.71,0,0,1,98.93,84.18Zm-.11-2.92a8.3,8.3,0,0,1-2,.5,4,4,0,0,0-1.07.26,1,1,0,0,0-.48.42,1.2,1.2,0,0,0-.17.62,1.13,1.13,0,0,0,.37.87,1.55,1.55,0,0,0,1.09.35A2.42,2.42,0,0,0,97.82,84a2.07,2.07,0,0,0,.81-.9,3.42,3.42,0,0,0,.19-1.31Z"/>
      <path class="a" d="M102,77.42h1.23v3.21h3.39V77.42h1.23v7.71h-1.23V81.71H103.2v3.42H102Z"/>
      <path class="a" d="M109.67,77.42h1.23v3.21h3.39V77.42h1.23v7.71h-1.23V81.71H110.9v3.42h-1.23Z"/>
      <path class="a" d="M123.06,77.42v7.71h-1.22v-3h-.71a2,2,0,0,0-1,.17,3.84,3.84,0,0,0-.93,1.15l-1.06,1.68h-1.52L118,83.05a2.12,2.12,0,0,1,1.2-1.07,2.29,2.29,0,0,1-1.55-.8,2.4,2.4,0,0,1-.51-1.51,2.13,2.13,0,0,1,.66-1.62,2.72,2.72,0,0,1,1.93-.63Zm-1.22,1.09H120.1a1.94,1.94,0,0,0-1.42.36,1.24,1.24,0,0,0-.31.85,1.14,1.14,0,0,0,.46,1,3.11,3.11,0,0,0,1.65.32h1.36Z"/>
    </g>
    <g>
      <path class="a" d="M53.37,107.5H52.18v-2.06h1.58l.52-2.75h-2.1v-2.06h2.5L55.37,97h2l-.69,3.64h1.93L59.25,97h2l-.7,3.64h1.21v2.06H60.18l-.52,2.75h2.13v2.06H59.27l-.7,3.63h-2l.68-3.63H55.35l-.69,3.63h-2Zm2.88-4.81-.51,2.75h1.94l.51-2.75Z"/>
      <path class="a" d="M62.76,99.85V97.41h8.41v1.91a14.16,14.16,0,0,0-2.12,3.13,19,19,0,0,0-1.64,4.34,17.19,17.19,0,0,0-.56,4.11H64.48a18.56,18.56,0,0,1,1.1-5.78,19.71,19.71,0,0,1,2.77-5.27Z"/>
    </g>
  </g>
</svg>
