<svg xmlns="http://www.w3.org/2000/svg" width="200.31" height="174.72" viewBox="0 0 200.31 174.72">
  <defs>
    <style>
      .a, .g {
        fill: #4a3a4f;
      }

      .b {
        fill: #9fc3c4;
      }

      .c {
        fill: #acd3d4;
      }

      .d, .o, .r {
        fill: #fff;
      }

      .e {
        fill: #f8ebec;
      }

      .f {
        fill: #e8dbdc;
      }

      .g, .m, .r {
        opacity: 0.5;
      }

      .h {
        fill: #00798f;
      }

      .i {
        fill: #009eba;
      }

      .j {
        fill: #0091ab;
      }

      .k {
        fill: #00adcc;
      }

      .l {
        fill: #5a4761;
      }

      .m, .p {
        fill: #bdbfbe;
      }

      .n {
        fill: #989998;
      }

      .o {
        opacity: 0.1;
      }

      .q {
        fill: #d1d4d3;
      }

      .s {
        fill: #603141;
      }

      .t {
        fill: #f59784;
      }

      .u {
        fill: #ffa897;
      }

      .v {
        fill: #e9e6ed;
      }

      .w {
        fill: #7785d4;
      }

      .x {
        fill: #fbf7ff;
      }

      .y, .z {
        fill: #f7636c;
      }

      .y {
        opacity: 0.2;
      }

      .aa {
        fill: #dbbdab;
      }
    </style>
  </defs>
  <g>
    <g>
      <path class="a" d="M27.17,74.24A1.57,1.57,0,0,1,25,74L1.52,46.78a1.57,1.57,0,0,1,.12-2.21L41,10.7a1.57,1.57,0,0,1,2.21.21L66.67,38.16a1.57,1.57,0,0,1-.12,2.21Z"/>
      <path class="b" d="M27.82,68.9A1.32,1.32,0,0,1,26,68.76L6.89,46.56A1.29,1.29,0,0,1,7,44.73L40.37,16.05a1.3,1.3,0,0,1,1.84.14L61.3,38.38a1.3,1.3,0,0,1-.14,1.84Z"/>
      <path class="c" d="M29.69,25.24,17.53,35.7,60.2,41l1-.82a1.3,1.3,0,0,0,.14-1.84L52.44,28.09Z"/>
      <polygon class="c" points="38.13 60.03 16.1 57.27 21.3 63.32 32.65 64.74 38.13 60.03"/>
      <path class="d" d="M14.84,40.91a.83.83,0,0,1-.26-.6.84.84,0,0,1,.84-.83l10.5.1a.82.82,0,0,1,.65.31.87.87,0,0,1,.16.7l-.85,3.84,13.53-2.81a.84.84,0,0,1,.67.15l3.14,2.37L54.14,42a.82.82,0,0,1,1,.65.83.83,0,0,1-.65,1L43.17,45.84a.83.83,0,0,1-.66-.16l-3.13-2.36L25,46.32a.83.83,0,0,1-1-1l.9-4.09-9.47-.09A.84.84,0,0,1,14.84,40.91Z"/>
    </g>
    <g>
      <polygon class="e" points="140.37 0 131.49 17.14 125.57 36.39 151.78 50.56 156.99 26.69 163.9 15.8 140.37 0"/>
      <polygon class="f" points="163.9 15.8 140.37 0 131.49 17.14 156.99 26.69 163.9 15.8"/>
      <polygon class="g" points="141.93 6.36 159.36 17.32 158.56 18.56 141.35 7.2 141.93 6.36"/>
      <polygon class="g" points="139.85 9.98 157.27 20.94 156.47 22.18 139.27 10.82 139.85 9.98"/>
      <polygon class="g" points="137.77 13.35 155.19 24.31 154.4 25.55 137.19 14.19 137.77 13.35"/>
      <polygon class="g" points="136.38 17.34 153.77 27.65 153.27 29.3 136.19 18.4 136.38 17.34"/>
      <polygon class="g" points="134.68 21.43 151.82 31.98 151.37 33.27 134.43 23.09 134.68 21.43"/>
      <polygon class="g" points="133.15 26.63 150.29 37.18 149.84 38.48 132.9 28.29 133.15 26.63"/>
      <polygon class="g" points="130.8 32.41 149.02 43.55 148.58 44.85 130.54 34.07 130.8 32.41"/>
    </g>
    <g>
      <polygon class="e" points="48.17 83.04 29.87 89.15 9.93 92.01 0 63.92 24.39 62.48 36.22 57.34 48.17 83.04"/>
      <polygon class="f" points="36.22 57.34 48.17 83.04 29.87 89.15 24.39 62.48 36.22 57.34"/>
      <polygon class="g" points="42.13 80.51 34.01 61.59 32.66 62.19 41.21 80.95 42.13 80.51"/>
      <polygon class="g" points="38.23 82.01 30.11 63.09 28.76 63.69 37.31 82.45 38.23 82.01"/>
      <polygon class="g" points="34.59 83.54 26.46 64.62 25.12 65.22 33.66 83.98 34.59 83.54"/>
      <polygon class="g" points="30.42 84.29 22.94 65.51 21.23 65.75 29.35 84.31 30.42 84.29"/>
      <polygon class="g" points="26.12 85.33 18.36 66.77 17.01 67.01 24.45 85.33 26.12 85.33"/>
      <polygon class="g" points="20.75 86.03 12.98 67.47 11.63 67.71 19.07 86.03 20.75 86.03"/>
      <polygon class="g" points="14.67 87.47 6.49 67.73 5.14 67.97 12.99 87.46 14.67 87.47"/>
    </g>
    <g>
      <path class="h" d="M193.88,92.55l-4.63-2.07a1.32,1.32,0,0,1-.66-1.74h0a1.32,1.32,0,0,1,1.74-.66L195,90.15a.84.84,0,0,0,1.11-.42l1.55-3.45a.84.84,0,0,0-.43-1.11l-4.62-2.07a1.31,1.31,0,0,1-.66-1.74h0a1.31,1.31,0,0,1,1.73-.66l4.62,2.07A3.47,3.47,0,0,1,200,87.36l-1.54,3.44A3.47,3.47,0,0,1,193.88,92.55Z"/>
      <rect class="i" x="177.52" y="75.89" width="18.57" height="14.59" transform="translate(34.55 219.69) rotate(-65.88)"/>
      <rect class="j" x="182.83" y="84.08" width="18.57" height="2.97" transform="translate(35.52 225.94) rotate(-65.88)"/>
      <rect class="k" x="173.88" y="79.4" width="18.57" height="4.32" transform="translate(33.88 215.4) rotate(-65.88)"/>
    </g>
    <g>
      <path class="a" d="M194.27,51.81a2.46,2.46,0,0,1-1,3.33L174.71,65.4a2.44,2.44,0,0,1-3.32-1L152.21,29.69a2.45,2.45,0,0,1,1-3.33L171.76,16.1a2.44,2.44,0,0,1,3.33,1Z"/>
      <path class="l" d="M184.18,55.51a2.45,2.45,0,1,0-1,3.33A2.44,2.44,0,0,0,184.18,55.51Z"/>
      <path class="b" d="M189,46.64a1,1,0,0,1-.41,1.4l-17.35,9.58a1,1,0,0,1-1.4-.41L155.67,31.56a1,1,0,0,1,.41-1.4l17.35-9.57a1,1,0,0,1,1.4.4Z"/>
      <path class="c" d="M167.63,53.23,177,24.87,174.83,21a1,1,0,0,0-1.4-.4l-9.37,5.16-4.33,13.16Z"/>
    </g>
    <g>
      <path class="m" d="M90.35,17.34a10.25,10.25,0,1,0,.44,18.34,10.14,10.14,0,0,0,5.43-8.29c.74-1.38,1.87-2.92,3.27-2.95L95.16,16C94.66,16.71,93.51,17.59,90.35,17.34Z"/>
      <polygon class="n" points="97.16 19.97 93.43 22.67 88.27 30.54 88.4 26.93 85.65 26.88 86.83 24.48 83.61 22.77 88.11 23.8 86.97 25.77 89.47 26.36 89.34 27.93 92.93 21.98 97.16 19.97"/>
      <path class="m" d="M76.94,31.42a10.25,10.25,0,0,0,13.85,4.26,10.14,10.14,0,0,0,5.43-8.29c.74-1.38,1.87-2.92,3.27-2.95L95.16,16c-.5.73-1.65,1.61-4.81,1.36A10.25,10.25,0,0,0,76.94,31.42Zm12.9-13,.2.09.22,0a8.25,8.25,0,0,0,4.52-.66l3,5.84a7.82,7.82,0,0,0-2.61,3.09L95,27v.26a9,9,0,0,1-17,3.55l-.07-.14a9,9,0,0,1,11.9-12.27Z"/>
      <path class="n" d="M105.59,16.49a1.91,1.91,0,0,1-.7,2.57l-1.73,1c-.12.06-.39-.21-.61-.61l-1.71-3.08c-.23-.4-.31-.77-.2-.83l1.65-1a1.91,1.91,0,0,1,2.63.71Z"/>
      <path class="o" d="M90.35,17.34a10.25,10.25,0,1,0,.44,18.34,10.14,10.14,0,0,0,5.43-8.29c.74-1.38,1.87-2.92,3.27-2.95L95.16,16C94.66,16.71,93.51,17.59,90.35,17.34Z"/>
      <rect class="p" x="96.78" y="13.83" width="6.49" height="9.9" transform="translate(2.42 47.6) rotate(-27.09)"/>
      <path class="q" d="M99.48,13a4.55,4.55,0,0,1,1,1.44l3.41,6.45a4.63,4.63,0,0,1,.65,1.59l-.56.3a4.63,4.63,0,0,1-.94-1.44l-3.42-6.45a4.27,4.27,0,0,1-.64-1.59Z"/>
      <path class="q" d="M98.22,13.68a4.47,4.47,0,0,1,1,1.43l3.41,6.45a4.63,4.63,0,0,1,.65,1.59l-.56.3a4.63,4.63,0,0,1-.94-1.44l-3.42-6.45A4.63,4.63,0,0,1,97.66,14Z"/>
      <path class="r" d="M87.52,19.19c2.43,1.75,2.56,5.71.31,8.84s-6.06,4.27-8.48,2.52-2.57-5.7-.31-8.84S85.1,17.45,87.52,19.19Z"/>
      <path class="r" d="M85.16,20c1.64,1.18,1.73,3.86.2,6s-4.1,2.89-5.74,1.71-1.73-3.86-.2-6S83.51,18.79,85.16,20Z"/>
      <path class="r" d="M82.22,21a2.08,2.08,0,0,1,.1,2.88,2.07,2.07,0,0,1-2.76.81,2.06,2.06,0,0,1-.1-2.87A2.07,2.07,0,0,1,82.22,21Z"/>
    </g>
    <g>
      <g>
        <g>
          <g>
            <path class="s" d="M77.69,75.8s-7.5-23.64,6.67-21.36S106,52.62,113,51.37c10.86-1.94,16.91,3.34,12,25.24Z"/>
            <path class="t" d="M126.05,80.69l-48.58.13a2.78,2.78,0,0,1-2.78-2.76h0a2.78,2.78,0,0,1,2.76-2.78L126,75.15a2.78,2.78,0,0,1,2.78,2.76h0A2.78,2.78,0,0,1,126.05,80.69Z"/>
            <path class="u" d="M111.86,156.63,92,156.75a9.63,9.63,0,0,1-9.63-9.17l-4-74.52A14.47,14.47,0,0,1,92.66,57.64l17.34-.1a14.45,14.45,0,0,1,14.45,15.23l-3.07,74.57A9.63,9.63,0,0,1,111.86,156.63Z"/>
            <path class="s" d="M91,77.92a.63.63,0,0,1-.66-.22c-.42-.54-1-1.17-1.61-1.08s-1.21,1.22-1.38,1.74A.62.62,0,0,1,86.14,78c.07-.24.79-2.31,2.35-2.58.93-.17,1.88.35,2.8,1.53a.62.62,0,0,1-.1.88A.65.65,0,0,1,91,77.92Z"/>
            <path class="s" d="M112.51,77.92a.63.63,0,0,0,.66-.22c.43-.54,1-1.17,1.61-1.08s1.21,1.22,1.38,1.74a.62.62,0,0,0,.79.4.63.63,0,0,0,.4-.78c-.08-.24-.8-2.31-2.35-2.58-.94-.17-1.88.35-2.81,1.53a.63.63,0,0,0,.11.88A.61.61,0,0,0,112.51,77.92Z"/>
            <path class="a" d="M82,140.39l.39,7.19A9.63,9.63,0,0,0,92,156.75l19.84-.12a9.63,9.63,0,0,0,9.52-9.29l.3-7.22Z"/>
            <g>
              <polygon class="v" points="82.32 146.41 121.43 146.14 123.37 99 102.33 105.11 79.8 99.3 82.32 146.41"/>
              <g>
                <path class="u" d="M40.7,117.29h0a1.47,1.47,0,0,0-.1,1.62l2,3.49-.42,5,1.6,3.54,3.53-2.7-1.53-7.72L43,117.23A1.48,1.48,0,0,0,40.7,117.29Z"/>
                <path class="u" d="M42.39,124.3s-2.42.46-3.33-.08-1.28-3.8.79-4,1.24-3.06-.41-2.84-5.28,3.46-4.31,7.32c0,0-4.53-.51-5.79.67s-.54,2.26.34,2.12,4.83.09,4.83.09l0,.47s-3.95-.28-4.77.17-1.21,2.43,1.12,2.19a57,57,0,0,1,8,.41l4.72,1.85L46.31,128Z"/>
                <path class="v" d="M59.18,139.08c-8.94,0-16.08-5.11-18.44-7L47,124.32c4.11,3.33,10.62,6.14,16.56,4C71,125.72,76.65,116,80,100.31l9.75,2c-4.13,19.57-11.8,31.48-22.82,35.38A22.88,22.88,0,0,1,59.18,139.08Z"/>
                <path class="u" d="M162.8,117.29h0a1.45,1.45,0,0,1,.1,1.62l-2,3.49.42,5-1.6,3.54-3.53-2.7,1.53-7.72,2.72-3.29A1.48,1.48,0,0,1,162.8,117.29Z"/>
                <path class="u" d="M161.11,124.3s2.43.46,3.33-.08,1.28-3.8-.79-4-1.24-3.06.41-2.84,5.28,3.46,4.31,7.32c0,0,4.54-.51,5.79.67s.54,2.26-.33,2.12-4.84.09-4.84.09l0,.47s4-.28,4.77.17,1.21,2.43-1.12,2.19a57,57,0,0,0-8,.41L160,132.64,157.19,128Z"/>
                <path class="v" d="M144.32,139.08c8.94,0,16.08-5.11,18.44-7l-6.27-7.74c-4.11,3.33-10.62,6.14-16.56,4-7.41-2.63-13.08-12.33-16.4-28l-9.75,2c4.13,19.57,11.8,31.48,22.82,35.38A22.88,22.88,0,0,0,144.32,139.08Z"/>
              </g>
              <polygon class="w" points="102.33 105.11 97.52 107.61 101.07 110.28 103.67 110.27 106.58 107.94 102.33 105.11"/>
              <polygon class="x" points="79.8 99.3 93.56 110.05 102.33 105.11 109.81 110.05 123.37 99 102.33 105.11 79.8 99.3"/>
              <polygon class="w" points="101.07 110.28 98.07 133.98 102.42 138.26 106.81 134.32 103.67 110.27 101.07 110.28"/>
            </g>
          </g>
          <path class="s" d="M90.25,64.28c-14.07-2.67-12.39-19.13,3.17-20.64,2.62-.26-2.86,3.43-1.7,3.88a18.78,18.78,0,0,1,16.47-3.43c1.63.43-5,3.28-3.19,2.91,7.75-1.61,11.6.87,11.18,1.77s-6.16,1.78-.7,8.16C118.6,60.56,108.55,67.76,90.25,64.28Z"/>
          <g>
            <g>
              <path class="s" d="M92,71.93a5.62,5.62,0,0,0-6.45-.08.62.62,0,1,0,.72,1,4.45,4.45,0,0,1,5,.07.62.62,0,0,0,.41.12.58.58,0,0,0,.46-.25A.61.61,0,0,0,92,71.93Z"/>
              <path class="y" d="M90.17,86.6a3,3,0,1,0-2.9,3.18A3,3,0,0,0,90.17,86.6Z"/>
            </g>
            <g>
              <path class="s" d="M111.47,71.93a5.62,5.62,0,0,1,6.45-.08.62.62,0,1,1-.72,1,4.44,4.44,0,0,0-5,.07.62.62,0,0,1-.41.12.6.6,0,0,1-.46-.25A.61.61,0,0,1,111.47,71.93Z"/>
              <path class="y" d="M113.33,86.6a3,3,0,1,1,2.9,3.18A3,3,0,0,1,113.33,86.6Z"/>
            </g>
          </g>
          <path class="z" d="M101.89,94.24c-4.86,0-8.82-3-8.82-6.69a.41.41,0,0,1,.41-.42.42.42,0,0,1,.42.42c0,3.23,3.58,5.86,8,5.86s8-2.63,8-5.86a.42.42,0,0,1,.84,0C110.72,91.24,106.76,94.24,101.89,94.24Z"/>
        </g>
        <g>
          <g>
            <path class="a" d="M91.56,156.17l34.76-9.41a2.91,2.91,0,0,1,2,5.46l-34.62,9.34Z"/>
            <polygon class="s" points="86.42 155.06 92.49 155.89 94.57 161.12 90.25 163.6 86.42 155.06"/>
          </g>
          <g>
            <path class="a" d="M111.94,156.17l-34.76-9.41a2.91,2.91,0,0,0-2,5.46l34.62,9.34Z"/>
            <polygon class="s" points="117.09 155.06 111.01 155.89 108.93 161.12 113.25 163.6 117.09 155.06"/>
          </g>
        </g>
      </g>
      <path class="aa" d="M122.93,171.92c0,1.55-9.48,2.8-21.18,2.8s-21.18-1.25-21.18-2.8,9.49-2.79,21.18-2.79S122.93,170.38,122.93,171.92Z"/>
    </g>
    <polygon class="z" points="62.43 14.86 64.5 13.34 64.43 10.76 66.51 12.27 68.94 11.4 68.15 13.85 69.73 15.88 67.15 15.89 65.71 18.02 64.9 15.58 62.43 14.86"/>
    <polygon class="f" points="159.84 68.1 161.67 69.76 164.07 69.2 163.05 71.44 164.33 73.55 161.88 73.28 160.26 75.15 159.77 72.73 157.5 71.78 159.64 70.56 159.84 68.1"/>
  </g>
</svg>
