<svg xmlns="http://www.w3.org/2000/svg" width="29.57" height="17.3" viewBox="0 0 29.57 17.3">
  <defs>
    <style>
      .a {
        fill: #040203;
      }

      .b {
        fill: #e12728;
      }

      .c {
        fill: #c1e5f2;
      }

      .d {
        fill: #e02728;
      }

      .e {
        fill: #c1e4f1;
      }

      .f {
        fill: #90ceed;
      }

      .g {
        fill: #ec7a7b;
      }

      .h {
        fill: #fbfcfc;
      }

      .i {
        fill: #a91d1e;
      }

      .j {
        fill: #ed797a;
      }
    </style>
  </defs>
  <g>
    <path class="a" d="M7.65,13.63A3.37,3.37,0,0,1,6.42,15c-1,.69-2,1.4-3,2.1-.47.33-.74.23-.91-.32a4.36,4.36,0,0,1-.17-1.9,3.92,3.92,0,0,0-1.19-3.42A4.3,4.3,0,0,1,.05,9.77c-.14-.41,0-.67.45-.7l4.09-.24a3,3,0,0,1,1.52.33,1.64,1.64,0,0,1-.05-.23A3.12,3.12,0,0,1,7.84,5.24c.14,0,.28-.11.42-.15C11.4,4,14.55,2.93,17.68,1.8a3.18,3.18,0,0,1,4.17,1.78l.07.08a3.76,3.76,0,0,1,1.47-1.54c.93-.63,1.86-1.29,2.79-1.94.46-.31.72-.22.89.31a4.38,4.38,0,0,1,.18,1.9,3.91,3.91,0,0,0,1.2,3.45,4.18,4.18,0,0,1,1.06,1.68c.15.42,0,.68-.45.71l-4,.24a3,3,0,0,1-1.47-.28,8.92,8.92,0,0,1,0,1.55,3,3,0,0,1-2.1,2.42c-1.1.4-2.21.78-3.32,1.16l-6.4,2.22A3.09,3.09,0,0,1,8,14.23C7.86,14.05,7.77,13.86,7.65,13.63Zm4.73-1.3a.25.25,0,0,0,0-.07L7.49,8,6.93,7.5a2.14,2.14,0,0,0,0,1.23C7.47,10.3,8,11.89,8.58,13.45a2.1,2.1,0,0,0,2.51,1.33c1-.28,1.94-.7,2.91-1L13.12,13ZM17.18,5a.31.31,0,0,0,.07.09l4,3.57L22.62,9.8a2,2,0,0,0,0-1.29C22.09,7,21.57,5.44,21,3.91a2.13,2.13,0,0,0-2.53-1.39c-1,.27-1.94.69-2.92,1l.83.71Zm-1.74-.3L14.66,4a.31.31,0,0,0-.22-.06L11.31,5l.29.28,2.3,2,5.18,4.57a.36.36,0,0,0,.28.1q1-.33,2-.69a1.78,1.78,0,0,0,.83-.63L22,10.49Q20,8.65,17.89,6.81c-.56-.5-1.14-1-1.7-1.47Zm-1.27,8c.23.22.47.42.69.65a.31.31,0,0,0,.39.07l2.77-1,.22-.1-.12-.11L14.28,8.79c-1.25-1.1-2.49-2.21-3.74-3.3a.41.41,0,0,0-.33-.12q-1,.32-2,.69a1.66,1.66,0,0,0-.8.61l.08.11,4.06,3.59L13.45,12Zm8.48-6.92A2.22,2.22,0,0,0,25,7.57c1,0,2.05-.11,3.07-.18l.46,0c-.11-.16-.18-.29-.27-.41a4.42,4.42,0,0,0-.39-.47,4.82,4.82,0,0,1-1.46-4.19,10.34,10.34,0,0,0,0-1.12l-.2.11c-.88.61-1.76,1.22-2.63,1.84a2.33,2.33,0,0,0-.45.38,2.11,2.11,0,0,0-.56,1.36l.41-.19,1.63-.56a.45.45,0,1,1,.31.84l-.29.1ZM3.2,16.15l.9-.62c.67-.47,1.35-.93,2-1.41A2.11,2.11,0,0,0,7,12.5l-.29.09-1.69.58c-.32.11-.56,0-.65-.25a.45.45,0,0,1,.35-.59c.63-.23,1.26-.44,1.9-.66l.27-.11A2.25,2.25,0,0,0,4.57,9.73l-1.12.06L1,9.94a10.72,10.72,0,0,0,.74.91A4.86,4.86,0,0,1,3.21,15,10.81,10.81,0,0,0,3.2,16.15Z"/>
    <path class="b" d="M13.45,12l-1.91-1.66L7.48,6.78,7.4,6.67a1.66,1.66,0,0,1,.8-.61q1-.37,2-.69a.41.41,0,0,1,.33.12c1.25,1.09,2.49,2.2,3.74,3.3l3.84,3.41.12.11-.22.1-2.77,1a.31.31,0,0,1-.39-.07c-.22-.23-.46-.43-.69-.65a1.65,1.65,0,0,0,.32-.07.42.42,0,0,0,.24-.53c-.07-.21-.2-.39-.43-.33A6.66,6.66,0,0,0,13.45,12Z"/>
    <path class="c" d="M16.19,5.34c.56.49,1.14,1,1.7,1.47Q20,8.64,22,10.49l.13.13a1.78,1.78,0,0,1-.83.63q-1,.36-2,.69a.36.36,0,0,1-.28-.1L13.9,7.27l-2.3-2L11.31,5l3.13-1.07a.31.31,0,0,1,.22.06l.78.71c-.26,0-.51,0-.59.3a.58.58,0,0,0,.07.48c.16.23.4.16.63.08S16,5.4,16.19,5.34Z"/>
    <path class="d" d="M22.65,5.73l1.94-.68.29-.1a.45.45,0,1,0-.31-.84l-1.63.56-.41.19a2.11,2.11,0,0,1,.56-1.36,2.33,2.33,0,0,1,.45-.38c.87-.62,1.75-1.23,2.63-1.84l.2-.11a10.34,10.34,0,0,1,0,1.12,4.82,4.82,0,0,0,1.46,4.19,4.42,4.42,0,0,1,.39.47c.09.12.16.25.27.41l-.46,0c-1,.07-2,.14-3.07.18A2.22,2.22,0,0,1,22.65,5.73Z"/>
    <path class="d" d="M3.2,16.15a10.81,10.81,0,0,1,0-1.15,4.86,4.86,0,0,0-1.43-4.15A10.72,10.72,0,0,1,1,9.94l2.41-.15,1.12-.06a2.25,2.25,0,0,1,2.36,1.83l-.27.11c-.64.22-1.27.43-1.9.66a.45.45,0,0,0-.35.59c.09.26.33.36.65.25l1.69-.58L7,12.5a2.11,2.11,0,0,1-.93,1.62c-.66.48-1.34.94-2,1.41Z"/>
    <path class="b" d="M16.4,4.28l-.83-.71c1-.36,1.93-.78,2.92-1A2.13,2.13,0,0,1,21,3.91c.55,1.53,1.07,3.06,1.6,4.6a2,2,0,0,1,0,1.29L21.28,8.62l-4-3.57A.31.31,0,0,1,17.18,5c.51-.18,1-.37,1.53-.54a.45.45,0,0,1,.59.28c.15.3.38.4.63.28a.46.46,0,0,0,.18-.67,1.36,1.36,0,0,0-1.63-.76C17.78,3.76,17.1,4,16.4,4.28ZM20.56,6a.45.45,0,0,0-.42.79.44.44,0,0,0,.62-.19A.45.45,0,0,0,20.56,6Z"/>
    <path class="e" d="M13.12,13l.88.74c-1,.35-1.92.77-2.91,1a2.1,2.1,0,0,1-2.51-1.33C8,11.89,7.47,10.3,6.93,8.73a2.14,2.14,0,0,1,0-1.23L7.49,8l4.85,4.28a.25.25,0,0,1,0,.07c-.53.19-1.06.4-1.6.57a.4.4,0,0,1-.5-.29c-.14-.38-.27-.77-.41-1.16s-.31-.42-.59-.32-.37.3-.26.63.25.74.39,1.11a1.38,1.38,0,0,0,1.8.85l1.63-.57A2.54,2.54,0,0,0,13.12,13Z"/>
    <path class="f" d="M13.12,13a2.54,2.54,0,0,1-.28.16l-1.63.57a1.38,1.38,0,0,1-1.8-.85c-.14-.37-.26-.74-.39-1.11s0-.54.26-.63.48,0,.59.32.27.78.41,1.16a.4.4,0,0,0,.5.29c.54-.17,1.07-.38,1.6-.57Z"/>
    <path class="g" d="M16.4,4.28c.7-.25,1.38-.52,2.08-.73a1.36,1.36,0,0,1,1.63.76.46.46,0,0,1-.18.67c-.25.12-.48,0-.63-.28a.45.45,0,0,0-.59-.28c-.51.17-1,.36-1.53.54Z"/>
    <path class="h" d="M16.19,5.34c-.22.06-.43.11-.64.18s-.47.15-.63-.08A.58.58,0,0,1,14.85,5c.08-.26.33-.32.59-.3Z"/>
    <path class="i" d="M13.45,12a6.66,6.66,0,0,1,.85-.31c.23-.06.36.12.43.33a.42.42,0,0,1-.24.53,1.65,1.65,0,0,1-.32.07Z"/>
    <path class="j" d="M20.56,6a.45.45,0,0,1,.2.6.45.45,0,1,1-.8-.41A.45.45,0,0,1,20.56,6Z"/>
  </g>
</svg>
