<svg xmlns="http://www.w3.org/2000/svg" width="123.55" height="104.73" viewBox="0 0 123.55 104.73">
  <defs>
    <style>
      .a {
        fill: #323330;
      }
    </style>
  </defs>
  <g>
    <g>
      <path class="a" d="M33.87,9c0-2.87,0-5.53,0-8.19,0-1,.78-.75,1.34-.76H46.87c3.79,0,7.59,0,11.38,0,1.14,0,1.55.29,1.52,1.48-.07,4,.13,8.06-.07,12.08A7.25,7.25,0,0,0,63.94,21c3.79,1.9,7.74,3.49,11.64,5.19a39,39,0,0,1,9.86,5.55c5.26,4.43,6.12,10.11,4.39,16.3-2.11,7.57-7.77,11.1-15.14,12.35-1.66.27-3.36.27-5,.41-1,.08-1.44-.24-1.4-1.34.07-2.15.06-4.31,0-6.46,0-1,.36-1.13,1.24-1.15a21.39,21.39,0,0,0,5.39-.44c4.33-1.26,6.79-5.93,5.4-9.82a9.59,9.59,0,0,0-5.49-5.53C70.9,34.33,66.91,32.86,63,31.26c-3.4-1.38-6.69-2.91-9.27-5.65a12,12,0,0,1-3.32-8.11c-.09-2.39-.07-4.78,0-7.16C50.39,9.29,50,9,49,9,44.55,9,40.1,9,35.65,9Z"/>
      <path class="a" d="M50.64,24.58A21.53,21.53,0,0,0,59,31.47a1.51,1.51,0,0,1,.71,1.16c-.36,6.79-1.4,13.4-5.38,19.17-3.5,5.09-8.46,7.77-14.5,8.6-1.61.22-3.26.26-4.89.39-.91.07-1.08-.42-1.07-1.2,0-2.2,0-4.4,0-6.6,0-.93.36-1.14,1.24-1.23A30,30,0,0,0,41,50.88c4.48-1.39,6.83-4.83,8.06-9.16,1.43-5,1.3-10.18,1.28-15.32,0-.51,0-1,.06-1.54C50.42,24.79,50.52,24.72,50.64,24.58Z"/>
      <path class="a" d="M61.55,10.79c0-3,0-6,0-8.94,0-.32.6-.83,1-.93C71.9-1.31,80.36.61,88,6.24c.85.62,1,1.14.26,2C86.79,10,85.38,11.8,84,13.6c-.67.85-1.13,1-2.1.19C77.35,10,72.16,8,66.19,9A25.32,25.32,0,0,0,61.55,10.79Z"/>
    </g>
    <g>
      <path class="a" d="M1.89,73H7v6.25h.79v3.07h-1V80.22H1v2.06H0V79.21H.65Q2,77.44,1.89,73Zm1,1a12.07,12.07,0,0,1-1.09,5.23h3.9V74Z"/>
      <path class="a" d="M8.63,76.59a3.75,3.75,0,0,1,1.12-3A3.39,3.39,0,0,1,12,72.8a3.28,3.28,0,0,1,2.45,1,3.74,3.74,0,0,1,.95,2.71,4.78,4.78,0,0,1-.42,2.2,3,3,0,0,1-1.23,1.25,3.51,3.51,0,0,1-1.75.45,3.28,3.28,0,0,1-2.47-1A3.93,3.93,0,0,1,8.63,76.59Zm1.27,0a3.07,3.07,0,0,0,.61,2.09,2,2,0,0,0,3.05,0,3.17,3.17,0,0,0,.61-2.13,3,3,0,0,0-.61-2A2,2,0,0,0,12,73.82a1.94,1.94,0,0,0-1.53.69A3,3,0,0,0,9.9,76.59Z"/>
      <path class="a" d="M16.91,73h1.92l1.9,5.81L22.85,73h1.77v7.26H23.39V74.38l-2.14,5.84h-1.1l-2-6.12v6.12H16.91Z"/>
      <path class="a" d="M31.24,79.33a4.72,4.72,0,0,1-1.32.82,3.76,3.76,0,0,1-1.35.24,2.64,2.64,0,0,1-1.84-.59,1.92,1.92,0,0,1-.64-1.49,2,2,0,0,1,.24-1,1.94,1.94,0,0,1,.63-.7,3,3,0,0,1,.89-.41A10.14,10.14,0,0,1,28.94,76a10.82,10.82,0,0,0,2.2-.43v-.32a1.38,1.38,0,0,0-.34-1.06,2.14,2.14,0,0,0-1.41-.41,2.22,2.22,0,0,0-1.28.3,1.86,1.86,0,0,0-.61,1.08L26.3,75a3,3,0,0,1,.54-1.24,2.42,2.42,0,0,1,1.08-.74,4.93,4.93,0,0,1,1.65-.25,4.23,4.23,0,0,1,1.51.22,1.71,1.71,0,0,1,1.24,1.38,7.16,7.16,0,0,1,.06,1.14v1.64a17.82,17.82,0,0,0,.08,2.17,2.84,2.84,0,0,0,.31.87H31.49A2.58,2.58,0,0,1,31.24,79.33Zm-.1-2.75a8.87,8.87,0,0,1-2,.46,5.1,5.1,0,0,0-1.08.25,1.05,1.05,0,0,0-.48.4,1.06,1.06,0,0,0-.17.58,1,1,0,0,0,.37.82,1.6,1.6,0,0,0,1.09.33,2.52,2.52,0,0,0,1.27-.31,1.9,1.9,0,0,0,.81-.85,3,3,0,0,0,.2-1.23Z"/>
      <path class="a" d="M34.33,73h1.23V79.2h2.8V73h1.23V79.2H42.4V73h1.23v7.26h-9.3Z"/>
      <path class="a" d="M45.53,73h1.23v3h3.41V73H51.4v7.26H50.17V77H46.76v3.22H45.53Z"/>
      <path class="a" d="M58.22,77.88l1.27.16a3.12,3.12,0,0,1-1.11,1.73,3.77,3.77,0,0,1-4.61-.36,3.87,3.87,0,0,1-.93-2.76,4,4,0,0,1,.95-2.84,3.18,3.18,0,0,1,2.44-1,3.1,3.1,0,0,1,2.38,1,3.91,3.91,0,0,1,.92,2.79v.33H54.11a2.81,2.81,0,0,0,.68,1.83,2,2,0,0,0,1.52.63A1.85,1.85,0,0,0,57.46,79,2.41,2.41,0,0,0,58.22,77.88Zm-4-2h4.06a2.47,2.47,0,0,0-.47-1.38,1.89,1.89,0,0,0-1.52-.71,2,2,0,0,0-1.43.57A2.26,2.26,0,0,0,54.18,75.9Z"/>
      <path class="a" d="M66.53,76.94V76a9.44,9.44,0,0,0,1.07-.06,1,1,0,0,0,.53-.33,1,1,0,0,0,.26-.69,1,1,0,0,0-.33-.79,1.25,1.25,0,0,0-.86-.3A1.52,1.52,0,0,0,65.74,75l-1.17-.19a2.5,2.5,0,0,1,2.64-2,2.53,2.53,0,0,1,1.82.63A2,2,0,0,1,69.69,75a1.61,1.61,0,0,1-.86,1.42,2,2,0,0,1,.82.74,2.11,2.11,0,0,1,.27,1.08,2,2,0,0,1-.71,1.59,3,3,0,0,1-2,.61,2.55,2.55,0,0,1-2.87-2.21l1.15-.25A1.84,1.84,0,0,0,66.14,79a1.7,1.7,0,0,0,1.1.39,1.53,1.53,0,0,0,1-.36,1.1,1.1,0,0,0,.41-.9A1.23,1.23,0,0,0,67.88,77a5,5,0,0,0-1.07-.08Z"/>
      <path class="a" d="M76.08,79.33a4.68,4.68,0,0,1-1.31.82,3.78,3.78,0,0,1-1.36.24,2.64,2.64,0,0,1-1.84-.59,1.92,1.92,0,0,1-.64-1.49,2,2,0,0,1,.24-1,2,2,0,0,1,.64-.7,3,3,0,0,1,.88-.41,10.42,10.42,0,0,1,1.1-.18A10.84,10.84,0,0,0,76,75.61c0-.16,0-.27,0-.32a1.38,1.38,0,0,0-.35-1.06,2.09,2.09,0,0,0-1.4-.41,2.18,2.18,0,0,0-1.28.3,1.81,1.81,0,0,0-.61,1.08L71.14,75a3,3,0,0,1,.54-1.24,2.45,2.45,0,0,1,1.09-.74,4.85,4.85,0,0,1,1.65-.25,4.27,4.27,0,0,1,1.51.22,2,2,0,0,1,.85.55,1.93,1.93,0,0,1,.38.83,5.86,5.86,0,0,1,.07,1.14v1.64a15.86,15.86,0,0,0,.08,2.17,2.6,2.6,0,0,0,.31.87H76.33A2.58,2.58,0,0,1,76.08,79.33ZM76,76.58A8.61,8.61,0,0,1,74,77a5.14,5.14,0,0,0-1.07.25,1.08,1.08,0,0,0-.49.4,1.06,1.06,0,0,0-.17.58,1,1,0,0,0,.38.82,1.58,1.58,0,0,0,1.09.33A2.5,2.5,0,0,0,75,79.11a1.9,1.9,0,0,0,.81-.85A2.86,2.86,0,0,0,76,77Z"/>
      <path class="a" d="M79.14,73H82a5,5,0,0,1,1.55.18,1.88,1.88,0,0,1,.88.64,1.76,1.76,0,0,1,.36,1.11,1.88,1.88,0,0,1-.21.91,1.81,1.81,0,0,1-.65.64,1.73,1.73,0,0,1,.85.64,1.81,1.81,0,0,1,.34,1.11,2,2,0,0,1-.74,1.53,3.15,3.15,0,0,1-2,.5H79.14ZM80.37,76h1.31a5,5,0,0,0,1.08-.08,1.24,1.24,0,0,0,.53-.33.88.88,0,0,0,.23-.6.82.82,0,0,0-.41-.8A3.05,3.05,0,0,0,81.72,74H80.37Zm0,3.19H82A3,3,0,0,0,83.43,79a1,1,0,0,0,.41-.84,1.07,1.07,0,0,0-.23-.65,1,1,0,0,0-.59-.37A6.25,6.25,0,0,0,81.86,77H80.37Z"/>
      <path class="a" d="M87.38,73h5.06v6.25h.79v3.07h-1V80.22H86.5v2.06h-1V79.21h.65Q87.45,77.44,87.38,73Zm1,1a12.07,12.07,0,0,1-1.09,5.23h3.9V74Z"/>
      <path class="a" d="M99.32,79.33a4.86,4.86,0,0,1-1.32.82,3.76,3.76,0,0,1-1.35.24,2.64,2.64,0,0,1-1.84-.59,1.93,1.93,0,0,1-.65-1.49,2,2,0,0,1,.25-1,1.94,1.94,0,0,1,.63-.7,3,3,0,0,1,.89-.41A9.72,9.72,0,0,1,97,76a10.82,10.82,0,0,0,2.2-.43v-.32a1.34,1.34,0,0,0-.35-1.06,2.09,2.09,0,0,0-1.4-.41,2.2,2.2,0,0,0-1.28.3,1.86,1.86,0,0,0-.61,1.08L94.38,75a3,3,0,0,1,.54-1.24A2.42,2.42,0,0,1,96,73.05a4.93,4.93,0,0,1,1.65-.25,4.27,4.27,0,0,1,1.51.22,2,2,0,0,1,.86.55,1.93,1.93,0,0,1,.38.83,7.16,7.16,0,0,1,.06,1.14v1.64a17.82,17.82,0,0,0,.08,2.17,2.6,2.6,0,0,0,.31.87H99.56A2.58,2.58,0,0,1,99.32,79.33Zm-.1-2.75a8.87,8.87,0,0,1-2,.46,5.1,5.1,0,0,0-1.08.25,1,1,0,0,0-.48.4,1,1,0,0,0-.17.58,1,1,0,0,0,.37.82,1.6,1.6,0,0,0,1.09.33,2.48,2.48,0,0,0,1.26-.31,1.92,1.92,0,0,0,.82-.85,3,3,0,0,0,.2-1.23Z"/>
      <path class="a" d="M102.38,73h1.23v3H107V73h1.23v7.26H107V77h-3.41v3.22h-1.23Z"/>
      <path class="a" d="M110.11,73h1.23v3h3.41V73H116v7.26h-1.23V77h-3.41v3.22h-1.23Z"/>
      <path class="a" d="M123.55,73v7.26h-1.23V77.39h-.71a2.14,2.14,0,0,0-1,.17,3.36,3.36,0,0,0-.93,1.08l-1.07,1.58h-1.53l1.33-2a2.06,2.06,0,0,1,1.21-1,2.37,2.37,0,0,1-1.57-.76,2.22,2.22,0,0,1-.5-1.42,2,2,0,0,1,.66-1.53,2.86,2.86,0,0,1,1.93-.59Zm-1.23,1h-1.75a2.09,2.09,0,0,0-1.42.34,1.15,1.15,0,0,0-.31.8,1.05,1.05,0,0,0,.47,1,3.25,3.25,0,0,0,1.65.3h1.36Z"/>
    </g>
    <g>
      <path class="a" d="M53.59,101.3h-1.2V99.37H54l.53-2.6H52.39V94.83H54.9l.69-3.43h2l-.7,3.43h2l.67-3.43h2l-.7,3.43H62v1.94H60.42l-.52,2.6H62v1.93H59.5l-.69,3.43h-2l.67-3.43h-2l-.69,3.43h-2Zm2.89-4.53L56,99.37h1.95l.51-2.6Z"/>
      <path class="a" d="M62.92,101.09l2.39-.29a2.28,2.28,0,0,0,.62,1.4,1.74,1.74,0,0,0,2.5-.1,2.29,2.29,0,0,0,.52-1.56,2.1,2.1,0,0,0-.5-1.48,1.62,1.62,0,0,0-1.22-.55,4.5,4.5,0,0,0-1.14.19l.27-2a2.19,2.19,0,0,0,1.53-.44A1.54,1.54,0,0,0,68.42,95,1.39,1.39,0,0,0,68,94a1.36,1.36,0,0,0-1-.39,1.47,1.47,0,0,0-1.08.44,2,2,0,0,0-.55,1.28l-2.28-.38a5.14,5.14,0,0,1,.72-1.87A3.19,3.19,0,0,1,65.16,92a4.43,4.43,0,0,1,1.92-.4A3.83,3.83,0,0,1,70,92.73a2.93,2.93,0,0,1-.94,4.85,3,3,0,0,1,2.43,3.06,3.84,3.84,0,0,1-1.24,2.89,4.61,4.61,0,0,1-6,.19A3.94,3.94,0,0,1,62.92,101.09Z"/>
    </g>
  </g>
</svg>
