<svg xmlns="http://www.w3.org/2000/svg" width="60.84" height="62.46" viewBox="0 0 60.84 62.46">
  <defs>
    <style>
      .a {
        isolation: isolate;
      }

      .b {
        fill: #f1f2f2;
        mix-blend-mode: multiply;
      }

      .c {
        fill: #b38c65;
      }

      .d {
        fill: #533e29;
      }
    </style>
  </defs>
  <g class="a">
    <g>
      <ellipse class="b" cx="30.42" cy="54.29" rx="30.42" ry="8.16"/>
      <path class="c" d="M26.92,10.14C21.71,13.79,10.11,26.39,11,38.77,11.88,50,15.55,59,35,57.77S56.74,47.26,55.9,36C55,23.62,40.82,12.89,35.9,9.59L41,0,20.53,1.26Z"/>
      <path class="d" d="M37.46,9.68a.66.66,0,0,0-.37-.53.65.65,0,0,0,.29-.57A.71.71,0,0,0,36.6,8l-10.7.66a.69.69,0,0,0-.68.7.66.66,0,0,0,.37.53.62.62,0,0,0-.28.57.69.69,0,0,0,.77.61l10.7-.66A.69.69,0,0,0,37.46,9.68Z"/>
      <path class="d" d="M45.11,36.68l-17.81,3,0,.14v.08a3.3,3.3,0,0,0,2.38,2.65,7.58,7.58,0,0,0,3.8.23A15.89,15.89,0,0,0,41.79,39l3.65,4.3a16.12,16.12,0,0,1-3.88,2.39,32.28,32.28,0,0,1-7.19,1.89A14.9,14.9,0,0,1,26.3,47a7.3,7.3,0,0,1-4.63-5.94,1.37,1.37,0,0,0,0-.16l0-.31-1.55.26-.69-4.18,2.89-.48q1.42-2.81,7.09-5.4L18.67,32.58,18,28.4l18-3a3.52,3.52,0,0,0,0-.43A2.41,2.41,0,0,0,33.81,23a7.83,7.83,0,0,0-3.14,0,15.12,15.12,0,0,0-7.16,3.21l-3.85-3.38a20.94,20.94,0,0,1,10.17-4.54,13.5,13.5,0,0,1,7.31.5,6.58,6.58,0,0,1,4.25,5.33v0a.18.18,0,0,0,0,.06.13.13,0,0,0,0,.06l0,.23L43,24.23l.7,4.17L40.46,29a11.7,11.7,0,0,1-3.74,3.22q-.6.34-4.69,2.4l12.38-2.06Z"/>
    </g>
  </g>
</svg>
