<svg xmlns="http://www.w3.org/2000/svg" width="30" height="30.21" viewBox="0 0 30 30.21">
  <defs>
    <style>
      .a {
        fill: #030202;
      }

      .b {
        fill: #fd9701;
      }

      .c {
        fill: #e71e62;
      }

      .d {
        fill: #fce839;
      }

      .e {
        fill: #9b27ae;
      }

      .f {
        fill: #fcdd00;
      }

      .g {
        fill: #e61e62;
      }

      .h {
        fill: #ab1456;
      }

      .i {
        fill: #f17a00;
      }

      .j {
        fill: #fcdc00;
      }

      .k {
        fill: #fabe08;
      }

      .l {
        fill: #9b26ae;
      }

      .m {
        fill: #691b98;
      }

      .n {
        fill: #6439b2;
      }

      .o {
        fill: #fa5521;
      }

      .p {
        fill: #6438b2;
      }
    </style>
  </defs>
  <g>
    <path class="a" d="M0,11.21v-.59L.42,10a1.6,1.6,0,0,0,.4-1.11A7.24,7.24,0,0,0,.54,7.46,1,1,0,0,1,1.39,6a9.85,9.85,0,0,1,4.48.38c.63.22,1.21.53,1.83.81a4.07,4.07,0,0,1,2.69-2c2.09-.51,4.17-1,6.25-1.55a4.18,4.18,0,0,1,2-.17c.55.14,1.08.35,1.64.53a7.7,7.7,0,0,1,2.95-3C24,.68,24.71.36,25.43,0h.3a2.24,2.24,0,0,1,.36.14,1.18,1.18,0,0,1,.58,1,2.34,2.34,0,0,0,1.46,2.08,1,1,0,0,1,.65,1.36A3.09,3.09,0,0,0,29.62,8a1,1,0,0,1,.07,1.51,2,2,0,0,0-.5,1.81,8.08,8.08,0,0,0,.26.93,1,1,0,0,1-.81,1.38,10.34,10.34,0,0,1-3.72-.12,8.75,8.75,0,0,1-2.59-1.11.34.34,0,0,0-.07.11,4,4,0,0,1-2.56,1.88l-2.29.57-.62.17a1.56,1.56,0,0,0,.38.13l2.63.66a3.93,3.93,0,0,1,2.52,2,9.12,9.12,0,0,1,6.32-1.23A1,1,0,0,1,29.45,18c0,.1-.07.2-.11.31a2.38,2.38,0,0,0,.33,2.44,1,1,0,0,1-.07,1.56,4,4,0,0,0-.73,1,2.88,2.88,0,0,0-.09,2.32,1,1,0,0,1-.54,1.32A2.31,2.31,0,0,0,26.68,29a1.25,1.25,0,0,1-.84,1.18h-.53A2.37,2.37,0,0,0,25,30a9.05,9.05,0,0,1-4.68-3.94A4.12,4.12,0,0,1,17,26.6l-5.31-1.33c-.65-.16-1.3-.3-1.93-.52A3.77,3.77,0,0,1,7.68,23l-1.07.58a9.39,9.39,0,0,1-5.31.64,1,1,0,0,1-.75-.59,1.07,1.07,0,0,1,0-.86,2.56,2.56,0,0,0,.18-1.84A8.26,8.26,0,0,0,0,19.65v-.59c.19-.24.38-.49.58-.72A3,3,0,0,0,1.32,17a1.65,1.65,0,0,0,0-.88A1.37,1.37,0,0,1,1.24,15a3,3,0,0,0-.56-3C.46,11.73.23,11.47,0,11.21Zm19.23,5.6-.58-.17c.15.7.25,1.33.42,1.93a7,7,0,0,0,1.46,2.81l.74.85a3.32,3.32,0,0,0,.12-.43,7.69,7.69,0,0,0,.39-2.33A3,3,0,0,0,19.23,16.81Zm0-3.39h0a3,3,0,0,0,2.45-3.7c-.22-1-.48-2-.73-2.94a2.74,2.74,0,0,0-.74-1.32L20,7.18a16.55,16.55,0,0,1-2.61,6.72l1.77-.46Zm5.47,15.36.9.42A3.49,3.49,0,0,1,27.85,26,4.14,4.14,0,0,1,29,21.46a3.07,3.07,0,0,1-.82-1.83,4.78,4.78,0,0,1,.38-2.06h-1c-.45,0-.9,0-1.34,0a6.9,6.9,0,0,0-3.14,1,.47.47,0,0,0-.26.58c.11.55.08.55.65.71a1.5,1.5,0,0,1,1.12,1.8c-.15.68-.32,1.36-.51,2a1.45,1.45,0,0,1-1.78,1.05c-.47-.12-.77-.1-1,.38a.47.47,0,0,0,0,.52A7.36,7.36,0,0,0,24.72,28.78Zm2.77-16.11,1-.05A3.47,3.47,0,0,1,29,8.75,4.12,4.12,0,0,1,27.83,4.2,3.46,3.46,0,0,1,25.62,1l-.9.43a7.52,7.52,0,0,0-3.43,3,.55.55,0,0,0,0,.77c.34.39.31.41.79.29a1.53,1.53,0,0,1,2,1.19c.14.59.29,1.18.43,1.77a1.5,1.5,0,0,1-1.13,1.92c-.53.13-.49.14-.61.67a.51.51,0,0,0,.3.63A7.56,7.56,0,0,0,27.49,12.67Zm-23.12,6c.48-.23.94-.42,1.36-.66a7.39,7.39,0,0,0,3-2.76.52.52,0,0,0,0-.71c-.35-.41-.32-.43-.84-.31A1.5,1.5,0,0,1,6,13.06c-.17-.64-.33-1.27-.48-1.91a1.46,1.46,0,0,1,1.08-1.8c.46-.1.71-.25.7-.76,0-.25,0-.39-.24-.53A7.06,7.06,0,0,0,3.3,7C2.71,7,2.12,7,1.48,7A3.51,3.51,0,0,1,1,10.91,4.06,4.06,0,0,1,2.3,13a4.45,4.45,0,0,1-.14,2.45A3.47,3.47,0,0,1,4.37,18.64ZM12,15.17a2.53,2.53,0,0,0,.38-.05c.9-.21,1.78-.47,2.69-.63a1.94,1.94,0,0,0,1.28-.87,15.88,15.88,0,0,0,2.87-8.7c0-.17-.07-.21-.2-.26a4.3,4.3,0,0,0-2.79.2A15.87,15.87,0,0,1,12,15.17ZM10.81,16c0,.16,0,.26,0,.37a19.2,19.2,0,0,0,.68,3.52A13.19,13.19,0,0,0,14,24.67a.91.91,0,0,0,.41.25q1.44.38,2.88.72a6.06,6.06,0,0,0,.68.11,15.8,15.8,0,0,1-4.21-9.92A4.87,4.87,0,0,1,10.81,16Zm8.4,9.51a3.08,3.08,0,0,0,1.76-2,.32.32,0,0,0-.12-.38A12.27,12.27,0,0,1,19.71,22a9.26,9.26,0,0,1-2-5.23c0-.28-.11-.4-.39-.46-.58-.12-1.14-.28-1.71-.42l-.84-.19A14.54,14.54,0,0,0,19.21,25.51Zm-4-20.37h-.12l-2.6.65a.27.27,0,0,0-.16.2c-.05.29-.06.58-.11.87a8.8,8.8,0,0,1-3.09,5.72.26.26,0,0,0-.1.32,3.06,3.06,0,0,0,1.47,1.9.38.38,0,0,0,.53-.07,13.33,13.33,0,0,0,3.49-5.86A16.16,16.16,0,0,0,15.2,5.14ZM1.47,23.24c.71,0,1.37,0,2,0a7.05,7.05,0,0,0,3.2-.89c.38-.21.73-.41.5-.94v-.06c0-.24-.07-.33-.31-.38a1.61,1.61,0,0,1-1.48-1.68l-.65.27a1,1,0,0,1-1.4-.89,3.32,3.32,0,0,0-.06-.44,2.72,2.72,0,0,0-.91-1.51A4.33,4.33,0,0,1,1,19.33C2.08,20.51,2,21.81,1.47,23.24Zm11.1,1.22A17.1,17.1,0,0,1,9.77,16,2.74,2.74,0,0,0,9,17.31c-.26,1-.52,2-.75,3A3,3,0,0,0,9.85,23.7a6.1,6.1,0,0,0,1,.34C11.41,24.19,12,24.31,12.57,24.46ZM8.7,11.65a8.52,8.52,0,0,0,2.59-5.57c-.4.1-.75.18-1.08.29a3,3,0,0,0-2,3.24C8.33,10.28,8.53,10.93,8.7,11.65Zm14,9.11L22,23.68l.31.09c.5.13.71,0,.83-.49s.26-1,.39-1.55.05-.76-.57-.91ZM8,13.12,7.3,10.2,7,10.27c-.45.12-.58.33-.47.78s.27,1.06.4,1.59.32.7.92.54ZM22.69,9.46l.42-.1a.51.51,0,0,0,.42-.68c-.15-.63-.3-1.26-.47-1.88a.46.46,0,0,0-.51-.39,4.75,4.75,0,0,0-.59.12ZM7.87,17.78l-.51.37-.48.33a1.25,1.25,0,0,0-.43,1,.67.67,0,0,0,.29.35,2.25,2.25,0,0,0,.57.16Z"/>
    <path class="b" d="M4.37,18.64a3.47,3.47,0,0,0-2.21-3.19A4.45,4.45,0,0,0,2.3,13,4.06,4.06,0,0,0,1,10.91,3.51,3.51,0,0,0,1.48,7C2.12,7,2.71,7,3.3,7A7.06,7.06,0,0,1,7,8.06c.22.14.24.28.24.53,0,.51-.24.66-.7.76a1.46,1.46,0,0,0-1.08,1.8c.15.64.31,1.27.48,1.91A1.5,1.5,0,0,0,7.86,14.2c.52-.12.49-.1.84.31a.52.52,0,0,1,0,.71,7.39,7.39,0,0,1-3,2.76C5.31,18.22,4.85,18.41,4.37,18.64Z"/>
    <path class="b" d="M27.49,12.67a7.56,7.56,0,0,1-4.43-1,.51.51,0,0,1-.3-.63c.12-.53.08-.54.61-.67A1.5,1.5,0,0,0,24.5,8.42c-.14-.59-.29-1.18-.43-1.77a1.53,1.53,0,0,0-2-1.19c-.48.12-.45.1-.79-.29a.55.55,0,0,1,0-.77,7.52,7.52,0,0,1,3.43-2.95,2.59,2.59,0,0,0,1.65,2.21c.47.19.57.37.39.86a3.79,3.79,0,0,0-.11,1.8,3.4,3.4,0,0,0,1.06,1.95.58.58,0,0,1,0,1,1,1,0,0,0-.13.16,2.71,2.71,0,0,0-.33,2.44Z"/>
    <path class="c" d="M24.72,28.78a7.36,7.36,0,0,1-3.51-3.1.47.47,0,0,1,0-.52c.24-.48.54-.5,1-.38A1.45,1.45,0,0,0,24,23.73c.19-.67.36-1.35.51-2a1.5,1.5,0,0,0-1.12-1.8c-.57-.16-.54-.16-.65-.71a.47.47,0,0,1,.26-.58,6.9,6.9,0,0,1,3.14-1c.44,0,.89,0,1.34,0-.06.24-.12.49-.19.73a2.81,2.81,0,0,0,.46,2.77c.3.36.28.53-.05.86a3.59,3.59,0,0,0-1,3.77c.16.55.1.63-.42.86A2.64,2.64,0,0,0,24.72,28.78Z"/>
    <path class="d" d="M12,15.17A15.87,15.87,0,0,0,16.25,4.86,4.3,4.3,0,0,1,19,4.66c.13,0,.21.09.2.26a15.88,15.88,0,0,1-2.87,8.7,1.94,1.94,0,0,1-1.28.87c-.91.16-1.79.42-2.69.63A2.53,2.53,0,0,1,12,15.17Z"/>
    <path class="e" d="M10.81,16a4.87,4.87,0,0,0,3-.17A15.8,15.8,0,0,0,18,25.75a6.06,6.06,0,0,1-.68-.11q-1.44-.34-2.88-.72a.91.91,0,0,1-.41-.25,13.19,13.19,0,0,1-2.53-4.78,19.2,19.2,0,0,1-.68-3.52C10.8,16.26,10.81,16.16,10.81,16Z"/>
    <path class="c" d="M19.21,25.51a14.54,14.54,0,0,1-4.44-9.82l.84.19c.57.14,1.13.3,1.71.42.28.06.36.18.39.46a9.26,9.26,0,0,0,2,5.23,12.27,12.27,0,0,0,1.14,1.14.32.32,0,0,1,.12.38A3.08,3.08,0,0,1,19.21,25.51Z"/>
    <path class="f" d="M15.2,5.14a16.16,16.16,0,0,1-.69,3.73A13.33,13.33,0,0,1,11,14.73a.38.38,0,0,1-.53.07A3.06,3.06,0,0,1,9,12.9a.26.26,0,0,1,.1-.32,8.8,8.8,0,0,0,3.09-5.72c0-.29.06-.58.11-.87a.27.27,0,0,1,.16-.2l2.6-.65Z"/>
    <path class="g" d="M1.47,23.24c.52-1.43.61-2.73-.45-3.91a4.33,4.33,0,0,0,1.37-2.61,2.72,2.72,0,0,1,.91,1.51,3.32,3.32,0,0,1,.06.44,1,1,0,0,0,1.4.89l.65-.27A1.61,1.61,0,0,0,6.89,21c.24.05.35.14.31.38v.06c.23.53-.12.73-.5.94a7.05,7.05,0,0,1-3.2.89C2.84,23.27,2.18,23.24,1.47,23.24Z"/>
    <path class="g" d="M12.57,24.46c-.62-.15-1.16-.27-1.7-.42a6.1,6.1,0,0,1-1-.34,3,3,0,0,1-1.57-3.39c.23-1,.49-2,.75-3A2.74,2.74,0,0,1,9.77,16,17.1,17.1,0,0,0,12.57,24.46Z"/>
    <path class="h" d="M24.72,28.78a2.64,2.64,0,0,1,1.61-2.22c.52-.23.58-.31.42-.86a3.59,3.59,0,0,1,1-3.77c.33-.33.35-.5.05-.86a2.81,2.81,0,0,1-.46-2.77c.07-.24.13-.49.19-.73h1a4.78,4.78,0,0,0-.38,2.06A3.07,3.07,0,0,0,29,21.46,4.14,4.14,0,0,0,27.85,26a3.49,3.49,0,0,0-2.23,3.19Z"/>
    <path class="i" d="M27.49,12.67l-.21-.84a2.71,2.71,0,0,1,.33-2.44,1,1,0,0,1,.13-.16.58.58,0,0,0,0-1,3.4,3.4,0,0,1-1.06-1.95,3.79,3.79,0,0,1,.11-1.8c.18-.49.08-.67-.39-.86a2.59,2.59,0,0,1-1.65-2.21l.9-.43A3.46,3.46,0,0,0,27.83,4.2,4.12,4.12,0,0,0,29,8.75a3.47,3.47,0,0,0-.48,3.87Z"/>
    <path class="d" d="M8.7,11.65c-.17-.72-.37-1.37-.48-2a3,3,0,0,1,2-3.24c.33-.11.68-.19,1.08-.29A8.52,8.52,0,0,1,8.7,11.65Z"/>
    <path class="j" d="M19.18,13.44l-1.77.46A16.55,16.55,0,0,0,20,7.18a1.2,1.2,0,0,1,.15.3c.19.75.4,1.49.54,2.25a3.21,3.21,0,0,1-.44,2.54c-.3.41-.68.77-1,1.15h0Z"/>
    <path class="k" d="M19.26,13.42c.33-.38.71-.74,1-1.15a3.21,3.21,0,0,0,.44-2.54c-.14-.76-.35-1.5-.54-2.25a1.2,1.2,0,0,0-.15-.3l.22-1.72A2.74,2.74,0,0,1,21,6.78c.25,1,.51,2,.73,2.94A3,3,0,0,1,19.26,13.42Z"/>
    <path class="l" d="M20.53,21.38a7,7,0,0,1-1.46-2.81c-.17-.6-.27-1.23-.42-1.93l.58.17c.06.06.1.12.16.17a3.23,3.23,0,0,1,1.37,2.73A16,16,0,0,1,20.53,21.38Z"/>
    <path class="m" d="M20.53,21.38a16,16,0,0,0,.23-1.67A3.23,3.23,0,0,0,19.39,17c-.06-.05-.1-.11-.16-.17a3,3,0,0,1,2.55,2.66,7.69,7.69,0,0,1-.39,2.33,3.32,3.32,0,0,1-.12.43Z"/>
    <path class="n" d="M22.69,20.76l.23.06c.62.15.71.3.57.91s-.25,1-.39,1.55-.33.62-.83.49L22,23.68Z"/>
    <path class="o" d="M8,13.12l-.23.06c-.6.16-.77.06-.92-.54s-.27-1.06-.4-1.59,0-.66.47-.78l.35-.07Z"/>
    <path class="o" d="M22.69,9.46,22,6.53a4.75,4.75,0,0,1,.59-.12.46.46,0,0,1,.51.39c.17.62.32,1.25.47,1.88a.51.51,0,0,1-.42.68Z"/>
    <path class="p" d="M7.87,17.78,7.31,20a2.25,2.25,0,0,1-.57-.16.67.67,0,0,1-.29-.35,1.25,1.25,0,0,1,.43-1l.48-.33Z"/>
  </g>
</svg>
