<svg xmlns="http://www.w3.org/2000/svg" width="61.09" height="62.71" viewBox="0 0 61.09 62.71">
  <defs>
    <style>
      .a {
        isolation: isolate;
      }

      .b {
        fill: #f1f2f2;
        mix-blend-mode: multiply;
      }

      .c {
        fill: #b38c65;
      }

      .d {
        fill: #533e29;
      }

      .e {
        fill: red;
      }
    </style>
  </defs>
  <g class="a">
    <g>
      <ellipse class="b" cx="30.55" cy="54.52" rx="30.55" ry="8.2"/>
      <path class="c" d="M27,10.18c-5.24,3.66-16.89,16.32-16,28.75.84,11.3,4.54,20.28,24.06,19.07S57,47.45,56.13,36.15C55.2,23.72,41,13,36.05,9.63L41.13,0,20.62,1.27Z"/>
      <path class="d" d="M37.61,9.72a.66.66,0,0,0-.36-.53.64.64,0,0,0,.28-.57A.72.72,0,0,0,36.75,8L26,8.66a.69.69,0,0,0-.68.71.65.65,0,0,0,.36.53.64.64,0,0,0-.28.57.72.72,0,0,0,.78.62l10.74-.67A.68.68,0,0,0,37.61,9.72Z"/>
      <path class="d" d="M45.3,36.84l-17.89,3,0,.13V40a3.31,3.31,0,0,0,2.4,2.66,7.49,7.49,0,0,0,3.81.24A15.93,15.93,0,0,0,42,39.14l3.66,4.32a16.22,16.22,0,0,1-3.89,2.4,32.44,32.44,0,0,1-7.21,1.9,14.94,14.94,0,0,1-8.11-.56,7.3,7.3,0,0,1-4.65-6l0-.16-.06-.31L20.14,41l-.7-4.2,2.9-.48q1.44-2.82,7.12-5.42L18.75,32.72l-.7-4.2,18.08-3a3.21,3.21,0,0,0-.05-.42A2.43,2.43,0,0,0,34,23.13a8.06,8.06,0,0,0-3.15,0,15.07,15.07,0,0,0-7.19,3.23l-3.87-3.39A21,21,0,0,1,30,18.37a13.61,13.61,0,0,1,7.34.5,6.58,6.58,0,0,1,4.27,5.35v0a.18.18,0,0,0,0,.06.13.13,0,0,0,0,.06l0,.23,1.59-.27.7,4.2-3.29.55a11.66,11.66,0,0,1-3.75,3.23q-.6.36-4.71,2.41L44.6,32.64Z"/>
      <rect class="e" x="28.77" y="-3.31" width="3.68" height="72.91" transform="translate(23.58 77.71) rotate(-128.3)"/>
      <rect class="e" x="28.77" y="-3.31" width="3.68" height="72.91" transform="translate(-14.37 36.62) rotate(-51.7)"/>
    </g>
  </g>
</svg>
