<svg xmlns="http://www.w3.org/2000/svg" width="198.95" height="174.26" viewBox="0 0 198.95 174.26">
  <defs>
    <style>
      .a, .n {
        fill: #bdccd4;
      }

      .a {
        opacity: 0.5;
      }

      .b {
        fill: #d6d2b8;
      }

      .c {
        fill: #80513d;
      }

      .d {
        fill: #b37d56;
      }

      .e {
        fill: #855440;
      }

      .f {
        fill: #c4895e;
      }

      .g {
        fill: #8c9049;
      }

      .h {
        fill: #7e8242;
      }

      .i {
        fill: #45425c;
      }

      .j {
        fill: #3a384d;
      }

      .k {
        fill: #d6d3bf;
      }

      .l {
        fill: #e0a477;
      }

      .m {
        fill: #cf976e;
      }

      .o {
        fill: #ccc6a3;
      }

      .p {
        fill: #7fa5de;
      }

      .q, .r {
        fill: #7498cc;
      }

      .r {
        opacity: 0.8;
      }

      .s {
        fill: #e9e5d0;
      }

      .t {
        fill: #e6b54c;
      }

      .u {
        fill: #e6ae85;
      }

      .v {
        fill: #dba075;
      }

      .w {
        fill: #fff;
      }

      .x {
        fill: #413f57;
      }
    </style>
  </defs>
  <g>
    <path class="a" d="M3.61,159.05c37.44-9.77,85.47-1.63,101.75,0s43.54-9.36,61.45-4.48,53.31,3.67,15.06,14.66-52.91-2.45-75.29.81-58.2,6.51-87.91,2S3.61,159.05,3.61,159.05Z"/>
    <g>
      <path class="b" d="M51.13,14c-2.2-4.21-2.79-8.59,1.14-10.9C54.93,1.56,58,1.06,63.7,3.3c4,1.59,5.34.2,5.34.2a65.46,65.46,0,0,1,.33,8c-.24,5.37-3.74,7.2-3.74,7.2Z"/>
      <path class="c" d="M46.43,156.11c-2.51,1.72-6.86,1.45-7.12,3.83s.52,2,.52,2,6.46.66,10.29,0a37.32,37.32,0,0,1,6.85-.79,3.87,3.87,0,0,0,2.38-.66l-.66-3.29Z"/>
      <path class="c" d="M77.81,157c-2.77,2.38-3.7,4.75-2.9,5.41s8,.53,9.49.13A4.06,4.06,0,0,0,87,158.09C86.51,156.11,77.81,157,77.81,157Z"/>
      <path class="d" d="M29.46,77.75c-3.07,1.36-6.59,3-7.25,4.62s-1.23,6.46-.53,7.11,4.49-1.4,5.45-2.72A47,47,0,0,1,31.57,82C32,81.66,29.46,77.75,29.46,77.75Z"/>
      <path class="e" d="M32.2,90.89l-.06,1a1.19,1.19,0,1,0,2.37.14l.09-1.53a6.66,6.66,0,1,0-13.29-.9l-4,68.83,2.37.14,4-68.32a4.3,4.3,0,0,1,4.47-4A4.36,4.36,0,0,1,32.2,90.89Z"/>
      <path class="f" d="M30.65,79.2l-1-1.63s-6.16,2.77-6.55,3.3a7.54,7.54,0,0,0-1.85,3.38,28.09,28.09,0,0,0,.18,4.53,3.44,3.44,0,0,0,.22-.88,7.59,7.59,0,0,1,.75-1.58s0-2.28,1.27-3.16,1.93-.49,1.93-.49h.12a6.76,6.76,0,0,1,0,4.08c-.41,1.68-.23,2.55,2.24-.17s1.82-2.33,2.15-4.71a2.77,2.77,0,0,0,0-.86C30.34,80.17,30.65,79.2,30.65,79.2Z"/>
      <path class="g" d="M52.67,31.52c0-.79-.43-1.38-.77-.66-4.27,9-7.76,32.28-12.59,37.71a48.5,48.5,0,0,1-10.68,9.09s2.63,5.54,3,5.67,9.62-2,14.63-5,5.54-3.82,5.54-3.82Z"/>
      <path class="h" d="M46.29,78.32c5-3,5.54-3.82,5.54-3.82l.87-44c0-.6-.93.54-1.13,1.11-1,2.81-1.81,4.85-2.74,8.38-2.83,17-3,28.35-3.59,32.32a12.28,12.28,0,0,1-7.31,9.54A39.77,39.77,0,0,0,46.29,78.32Z"/>
      <path class="h" d="M70.81,20.37A20.31,20.31,0,0,0,58.45,27l-2.66,3.86,17.77-3.69L71.89,21Z"/>
      <path class="i" d="M52.92,76.24c-1.44,8.5-7.36,36.58-7.9,41.53s.18,38.56.18,38.56a42.2,42.2,0,0,0,8.61,3,17.16,17.16,0,0,0,6.11,0s.73-32.67,1.43-36.79c1.26-7.32,12.57-32,12.57-32l-12.21-20Z"/>
      <path class="j" d="M64.67,75.34,53.46,79.6c4.66,14.24,3.59,45.48,2.51,59.72-.75,10-1.42,16.81-1.75,20a17,17,0,0,0,5.7-.06s.73-32.67,1.43-36.79c1.26-7.32,12.57-32,12.57-32Z"/>
      <path class="i" d="M68.35,21.06C82,23.43,86.66,30.16,88.1,32.33s.54,34.74.19,52.54,3.23,45.89,2.15,59.33-2.34,15.29-2.34,15.29S82,157.12,78,158.31l-4,1.18s-1.24-32.3-3-42.58-4-13.18-6.11-24.66S54.71,80.78,54.71,80.78s-4.44.27-5.52-16.74a105.88,105.88,0,0,1,3.37-32.3l10-6.72Z"/>
      <path class="k" d="M68.35,21.06l-5.74,4-3.74,2.27-6.31,4.45a109.25,109.25,0,0,0-3.37,32.65c1.08,17,5.52,16.39,5.52,16.39a9.57,9.57,0,0,1,6.39,3.15c7.21,1.36,15.51,1.19,20-.38A31,31,0,0,0,88.39,80c.39-18.28,1-45.68-.29-47.67C86.66,30.16,82,23.43,68.35,21.06Z"/>
      <path class="g" d="M60.55,25.55c-2,1.29-3.06,5.15-3.06,5.15l-.65-3.57L60.91,25Z"/>
      <path class="g" d="M68.15,20.41c3-.43,2-.6,4.9.23s-1,2.93-1,2.93-.5-2.4-1.46-2.63a6.92,6.92,0,0,0-2.48.09Z"/>
      <path class="l" d="M67.15,16.92s3.4,8.39,1.61,12.14-8.21,5-8.93,3.21.18-3-.35-5.53-.9-6.43-.9-6.43l8-7.86Z"/>
      <path class="m" d="M67.91,19.05c-.41-1.28-.76-2.13-.76-2.13l-.53-4.47-8,7.86s.36,3.93.9,6.43a10.39,10.39,0,0,1,.08,3.35C62.31,29.3,66,27.48,67.91,19.05Z"/>
      <path class="b" d="M50.78,12.44s-.4,8.66.79,11.47,2.72,3.21,3.16,3.21.13-12.35.13-12.35Z"/>
      <path class="l" d="M66.62,15.31c-.73,7.28-2.68,10.18-9.29,10.18-3.79,0-5.45-4.56-6.25-8.93-1.07-5.89,2.1-12,5.9-12S67.33,8.17,66.62,15.31Z"/>
      <path class="g" d="M59.12,26.12C54.63,37,54.78,47,57.73,63.67,59.51,73.74,61.88,77,61.88,77L61,84.56S54.9,83.93,52.74,82s-6.18-2.55-4.9-22.59c1.39-21.85,2.93-28.23,5.26-30A30.35,30.35,0,0,1,59.12,26.12Z"/>
      <path class="h" d="M61.87,77.05a13.7,13.7,0,0,1-1.3-1.93v.08c-1.68,1.8-1.36,5.14-.9,9.2.81.13,1.34.18,1.34.18Z"/>
      <path class="g" d="M87.5,31.4A27.55,27.55,0,0,0,71.05,20.09c3.19,8-.54,29.13-4.31,38.94-3.89,10.1-6.54,17.25-6.54,18.63,0,1,0,4.54.62,5.89.07.07.12,1,.18,1,7.22,1.37,15.51,1.2,20-.37a35.84,35.84,0,0,0,4.81-2.06C86.67,75.87,87.24,47.3,87.5,31.4Z"/>
      <path class="h" d="M81,84.21a35.84,35.84,0,0,0,4.81-2.06c.86-6.28,1.43-34.85,1.69-50.75A29,29,0,0,0,82.72,26L82,26.2c-3.77,2.57-5.74,13.65-5.38,18.59S80.22,64,78.79,72c-1.25,6.94,0,11-6.49,13.47A21.39,21.39,0,0,0,81,84.21Z"/>
      <path class="f" d="M82.39,88.27c-2,3.8-2.59,6.57-2.41,7.65s1.38,5.25,1.69,5.25.6-2,.6-2.83-.42-2.66.18-2.66,1.75,3.92,2,4.46.06,5.37,1.09,4.83,2.89-4.4,2.89-5.13A11.09,11.09,0,0,0,88,96.65a24,24,0,0,1-1.39-4.28c-.06-1.09-.12-2.78-.12-2.78Z"/>
      <path class="g" d="M82.69,26.07C91,29.76,93.48,45.19,96.17,57.84s-8.07,35-8.07,35-5.92-2.22-6.93-4.24c-.46-.93,4-18.9,2.62-23.25S78,54.28,78,42.62,82.69,26.07,82.69,26.07Z"/>
      <path class="e" d="M62.55,77.75a.76.76,0,1,1-1.51,0,.76.76,0,1,1,1.51,0Z"/>
      <path class="e" d="M62.83,82.63a.76.76,0,1,1-.76-.84A.81.81,0,0,1,62.83,82.63Z"/>
      <path class="e" d="M59.36,73.8A.76.76,0,1,1,58.6,73,.8.8,0,0,1,59.36,73.8Z"/>
      <path class="e" d="M57.29,67a.76.76,0,1,1-1.52,0,.76.76,0,1,1,1.52,0Z"/>
      <path class="e" d="M55.77,59.91a.76.76,0,1,1-.76-.84A.81.81,0,0,1,55.77,59.91Z"/>
      <path class="e" d="M55.05,53.23a.76.76,0,1,1-1.51,0,.76.76,0,1,1,1.51,0Z"/>
      <rect class="j" x="16.22" y="156.94" width="4.35" height="3.87" rx="0.9" transform="translate(-141.4 165.61) rotate(-85.81)"/>
      <path class="l" d="M64.09,15.69s4-5.14,4.49-2.63-.14,6.06-1.72,6.06A4.59,4.59,0,0,1,64,17.67Z"/>
      <path class="b" d="M54.82,7.78c-4.22-1-1.49-3.51,2.81-4a30,30,0,0,1,9.58.79c-.26,0-2.72,2.68-6.68,3.21A16,16,0,0,1,54.82,7.78Z"/>
      <path class="b" d="M58,9a8,8,0,0,1-5.57-2.34.13.13,0,0,1,0-.18.13.13,0,0,1,.19,0,7.56,7.56,0,0,0,8.85,1.43c2.56-1.3,4.2-2.36,4.21-2.37a.13.13,0,0,1,.18,0,.13.13,0,0,1,0,.18A48.2,48.2,0,0,1,61.6,8.16,7.93,7.93,0,0,1,58,9Z"/>
      <path class="b" d="M57.85,10a7,7,0,0,1-5.69-3.23.14.14,0,0,1,0-.19.14.14,0,0,1,.19,0c2.13,2.94,5.06,3.84,8.24,2.55a25.39,25.39,0,0,0,5-2.79.12.12,0,0,1,.18,0,.15.15,0,0,1,0,.19,26,26,0,0,1-5,2.83A7.64,7.64,0,0,1,57.85,10Z"/>
      <path class="b" d="M63.26,6.42c2.15.26-.4,7.3,1.1,8.09s-.44,4.48-1.15,5.62-3.56.71-5.62.35a11.37,11.37,0,0,0-4.31.36A1.69,1.69,0,0,1,51.83,20s.13,5.54,1.94,6.68,6.5.7,8,.35S65,24.26,65.28,23s1-3.08.84-4-.75-1.94-.31-3.39S67,12.4,67.13,12.13s-.93-4.39-.93-4.39L63.65,5.28Z"/>
      <path class="b" d="M51.22,18c1.45,1.27,1.67-.22,4.13-.57a9.23,9.23,0,0,1,6,1,4.14,4.14,0,0,0,3.16.17s-1,2.51-1.84,2.33S59.44,19.12,57.24,19a6.4,6.4,0,0,0-4.05,1.1c-1.36.79-1.93,0-1.93,0Z"/>
    </g>
    <g>
      <path class="n" d="M140.78.05c-5,.87-14.37,6.07-14.67,7.29-.88,3.52-4,12.4,2.37,18.55,4.64,4.51,16.08,2.73,19.78-5.19S146.32-.92,140.78.05Z"/>
      <path class="o" d="M129.56,159.41c-5,2.5-5.94,4.09-5.48,4.55s5.34.85,8.84.19S137,162,137,162Z"/>
      <path class="o" d="M148.48,160.66c-2.25.66-.93,6.79.06,6.79a15.79,15.79,0,0,0,6.07-2.24c1.84-1.25,1.78-3.89,1.78-3.89Z"/>
      <path class="p" d="M125.93,82.67c-1.05,34,0,77.53,0,77.53a29.58,29.58,0,0,0,9,2.64c5.53.79,12.65-2.9,12.65-2.9l-5.8-81.22Z"/>
      <path class="q" d="M141,87.16l-6.67-1.23-.19-1.59-8.22-.07c-.17,5.82-.27,11.89-.34,18,2.13,1.24,6.41,5.71,8.92,21.75.12.8.24,1.55.36,2.26,1.21,16.11,2.42,30.46,3,36.65l.45,0h0c.45,0,.9-.12,1.35-.2a31.44,31.44,0,0,0,7.3-2.4l.66-.31-1.06-14.83Z"/>
      <path class="p" d="M161.79,79.51c2.11,48.25,1.85,82.53,1.85,82.53s-4,3.43-10.55,1.06-8.44-1.85-8.44-1.85-2.37-28.74-4.74-46.14S136.74,80,136.74,80Z"/>
      <path class="r" d="M162.67,102.54c-.18-5.84-.33-9.73-.59-16.19l-22.61-.6c5.45,3.25.61,17.14,10.19,17.58C153.06,103.48,161.3,102.64,162.67,102.54Z"/>
      <path class="s" d="M144.45,23.21S154.87,25.3,157.7,31c3.76,7.51,4.09,55.94,4.09,55.94s-25.31,1.58-29.53-.26L128,84.78s1-30.85.79-39.55c-.26-9.76,12.33-21,12.33-21Z"/>
      <path class="k" d="M143.68,56.1c-.86,4.61-2.59,5-2.85,4.62s.46-1.58-1.58-1.71a24.86,24.86,0,0,0-6.73.46c-1.05.39-3.62,10.28-3.62,10.28a10.19,10.19,0,0,0,3,1.58c2.18.86,4-.19,5.54-1.18s5.6-.73,5.8,1.65.66-13.06.66-13.06Z"/>
      <path class="k" d="M148.92,87.44l3.45-61.36a32.29,32.29,0,0,0-7.5-2.78l.57,1c2.9,2.11,2.24,3.3.79,8.18s-3.16,30.32-3.69,44.17c-.21,5.59-.34,8.92-.41,10.91C144.32,87.53,146.66,87.5,148.92,87.44Z"/>
      <path class="t" d="M146.1,24.26c3.12,1.94.66,6.86-.92,11.08s-7,12.92-8.31,17.67-1.58,4.88-2,2,.26-20.17.92-22.94a16.36,16.36,0,0,1,2.24-5v1.45s-1.58,2.64-2,8.71-.66,16-.66,17.14.66-2,1.72-3.83,5.93-11.2,7.25-15,3.82-8.13,2.06-9.32C146,25.82,146.1,24.26,146.1,24.26Z"/>
      <path class="l" d="M142.78,13.09S147.25,26.25,146.9,28s-6.12,6.47-8.29,4.64c-1.47-1.23-.53-1.23-1.47-5.93a15.09,15.09,0,0,0-3.17-7Z"/>
      <path class="m" d="M144.26,17.59c-.81-2.52-1.48-4.5-1.48-4.5L134,19.67a15.09,15.09,0,0,1,3.17,7c.18.88.29,1.6.36,2.19a19.37,19.37,0,0,0,2.35-.9C141.49,27.24,144.26,24.47,144.26,17.59Z"/>
      <path class="n" d="M142.63,16.75c1.93,5.62,3.43,6.68,3.43,6.68l-.35-8.18Z"/>
      <rect class="l" x="128.98" y="7.52" width="13.42" height="18.19" rx="6.25"/>
      <path class="q" d="M132.07,30.43a16.08,16.08,0,0,0-4.62,5.73c-4.79,9.48-6.54,26-6.54,30.58,0,5.74.6,8.31,2.58,8.9S132.07,30.43,132.07,30.43Z"/>
      <path class="p" d="M151.24,25.54c-2.4,1.2-7,12.33-7.19,27.36S145.44,100,145.44,100a37.78,37.78,0,0,0,12.26.79c5.93-.79,7.91-2.18,7.91-2.18s-3.56-52.21-5.14-60.91S153.62,24.35,151.24,25.54Z"/>
      <path class="q" d="M144.32,71.66A49.39,49.39,0,0,0,153,70.9a23.84,23.84,0,0,0,4-1.19s4.22,11.12,7.55,12.78c-1.18-16.11-3-39.28-4-44.82s-3.61-9.58-5.95-11.31c-4.59,6.29-4.92,21.28-4.73,24.76C150,54.88,151,66.55,151,66.55l-6.76.94C144.24,68.87,144.28,70.26,144.32,71.66Z"/>
      <path class="p" d="M137,28.55c-4.55,9.69-7.77,39.18-7.57,51.44s.2,19.58.2,19.58-6.13,0-6.73-.39,1.19-47.47,3-55S130.64,31,132.7,30A34.89,34.89,0,0,1,137,28.55Z"/>
      <path class="q" d="M127.56,61.75c-1.39-1.09-2-4.53-2.72-9.37-.22,2.54-.43,5.48-.63,8.61l2.42,7.14s-.13,2.5-.26,3.25a10.75,10.75,0,0,1-1.41,4A6.33,6.33,0,0,1,123.38,77c0,.93-.13,2.74-.16,3.64A6.1,6.1,0,0,0,125.8,78c.75-1.49,1.49-6.5,1.49-6.5h2.29l.16-1.58c.13-2,.3-4.08.49-6.23C129.81,63.41,128.7,62.65,127.56,61.75Z"/>
      <path class="u" d="M156.19,28.54a.17.17,0,0,1,.29-.13c7.32,9,12.49,31.45,12.69,34s-11.9,6.2-17.84,6.39a61.47,61.47,0,0,1-10.34-.5.16.16,0,0,1-.14-.18l.75-4.68a.16.16,0,0,1,.13-.13c1-.22,9.36-1.94,14-2.68S156.77,32.77,156.19,28.54Z"/>
      <path class="p" d="M154.34,26.2c7.2,4.5,12.46,19,14.83,26.9s-2,22.54-3.17,22.74-3.95-.59-6.52-4.94a111.07,111.07,0,0,1-5.07-10.11s2.59-.82,1.41-1.41.46-1.16.26-1.76-3.06-1.47-4-12.74S152.75,25.21,154.34,26.2Z"/>
      <path class="p" d="M124,50.24a15.19,15.19,0,0,0,1.71,10.24c.88,1.84-.4,8.92-.66,10.5s-.66,7-2.06,5.76-5-8.66-2.16-19.91S125,42.48,125,42.48Z"/>
      <path class="q" d="M123.73,60.35c-2.63,0-2,5.4-1.58,7.95s-.23,7.17,1.34,7.34,3.58-10.24,3.06-12.88A2.7,2.7,0,0,0,123.73,60.35Z"/>
      <path class="v" d="M124.66,60.7c-.45-.21-1.44-.32-1.75.06-1.66,2.09-.93,6.8.73,7.67,1.85,1,7,.75,7,.75s.88-4.35.44-4.61A63.74,63.74,0,0,0,124.66,60.7Z"/>
      <path class="t" d="M136.74,55.54c-.1,1.56-.8,2.78-1.57,2.74s-1.3-1.36-1.19-2.92.8-2.79,1.56-2.74S136.84,54,136.74,55.54Z"/>
      <path class="p" d="M136.32,55.51c-.07,1.09-.56,1.94-1.09,1.91s-.91-1-.84-2,.56-1.94,1.09-1.9S136.39,54.42,136.32,55.51Z"/>
      <path class="w" d="M140.33,59.78c-.31-.79-1.41-.68-2.27-.43h-8.22V62a4.11,4.11,0,0,0,7.95,1.45,13.57,13.57,0,0,0,1.38-.67A2.22,2.22,0,0,0,140.33,59.78Zm-.73,1.59c0,.41-.79.77-1.56,1,0-.13,0-.26,0-.4v-.83c.22-.3.11-1,.82-1S139.65,60.55,139.6,61.37Z"/>
      <path class="v" d="M129.93,64.13c2.2.52,2.24.39,3.82,1.31s4,0,4,0-.31,2.91-1.8,4.22-3.16,1-4.79.18a10.54,10.54,0,0,0-4.13-.7Z"/>
      <path class="u" d="M142.63,63.29c-1.89.13-3.21-.79-4.92-1.36a5.5,5.5,0,0,0-3.91.09c-.93.35-.71.44.83.7s1.41.62.4,1.1-4.75-.13-5-.13.79,2.77,2.28,3.69,4.57.59,6.64.72c1.27.08,2.38.19,2.83.27a.39.39,0,0,0,.46-.35Z"/>
      <path class="x" d="M129.58,19.06c-1.39,0-2.35-1.17-2.35-2.84s.59-2.22,2-2.22,2.88.72,2.88,2.31A2.61,2.61,0,0,1,129.58,19.06Zm-.31-4.66c-1.22,0-1.65.48-1.65,1.82,0,1.18.61,2.44,2,2.44a2.21,2.21,0,0,0,2.17-2.35C131.75,15,130.51,14.4,129.27,14.4Z"/>
      <path class="x" d="M136.08,19.14a2.81,2.81,0,0,1-2.79-2.83c0-1.51,1.79-2.44,3.45-2.44,1.46,0,2.26.93,2.26,2.62A2.76,2.76,0,0,1,136.08,19.14Zm.66-4.87c-1.28,0-3.05.71-3.05,2a2.42,2.42,0,0,0,2.39,2.44,2.4,2.4,0,0,0,2.53-2.26C138.61,15.47,138.29,14.27,136.74,14.27Z"/>
      <path class="x" d="M133.48,15.74a2.32,2.32,0,0,0-1.6-.16l-.16-.36a2.48,2.48,0,0,1,2,.24l-.28.28Z"/>
      <rect class="x" x="138.55" y="14.11" width="4.23" height="0.4" transform="translate(2.54 44.52) rotate(-18.15)"/>
      <path class="n" d="M138.85,7.34c-1.49,6.24,2.9,7.56,2.9,7.56l3.69-1.84L142.1,6.64Z"/>
      <path class="l" d="M141.13,15.17c1.81-2.28,2.3-3,3.26-1.22s-.53,4.48-1.25,4.58a2.47,2.47,0,0,1-1.49-.43Z"/>
      <path class="n" d="M140.61,7.26c-2.81,4-13.8,6.85-13.8,6.85s3.78-8.52,4-8.52S140.61,7.26,140.61,7.26Z"/>
      <path class="n" d="M133.53,13a.18.18,0,0,1-.17-.11.21.21,0,0,1,.08-.27l.32-.15c1.44-.71,4.44-2.17,5-4.81a.2.2,0,0,1,.24-.15.2.2,0,0,1,.15.23c-.64,2.83-3.75,4.35-5.25,5.08l-.31.16Z"/>
      <path class="n" d="M126.28,25.74a.23.23,0,0,1-.15-.07c-2.87-3.42-2.85-11.49,0-18.34a.2.2,0,0,1,.27-.1.19.19,0,0,1,.1.25c-2.77,6.73-2.83,14.61,0,17.93a.2.2,0,0,1,0,.28A.21.21,0,0,1,126.28,25.74Z"/>
    </g>
  </g>
</svg>
