<svg xmlns="http://www.w3.org/2000/svg" width="200" height="191.62" viewBox="0 0 200 191.62">
  <defs>
    <style>
      .a {
        isolation: isolate;
      }

      .b {
        fill: #6d3e91;
      }

      .c {
        fill: #1d1d1b;
      }

      .d {
        fill: #e2e1e1;
      }

      .e {
        fill: #bbbaba;
      }

      .f {
        fill: #fff;
      }

      .g {
        fill: #007fa6;
      }

      .h {
        fill: #23b7c5;
      }

      .i {
        opacity: 0.6;
      }

      .i, .k, .m, .p {
        mix-blend-mode: multiply;
      }

      .j {
        fill: #ea5599;
      }

      .k {
        opacity: 0.7;
      }

      .l {
        fill: #f08fba;
      }

      .m {
        opacity: 0.5;
      }

      .n {
        fill: #f9d8b7;
      }

      .o {
        fill: #ea573b;
      }

      .q {
        fill: #ef7b40;
      }

      .r {
        fill: #64b769;
      }

      .s {
        fill: #6b6b6a;
      }

      .t {
        fill: #484948;
      }

      .u {
        fill: #898988;
      }

      .v {
        fill: #f8cfe2;
      }

      .w {
        fill: #005a91;
      }

      .x {
        fill: #0080b0;
      }

      .y {
        fill: #e5331f;
      }

      .z {
        fill: #fce3d0;
      }

      .aa {
        fill: #005794;
      }

      .ab {
        fill: #0087c1;
      }

      .ac {
        fill: #cc0b19;
      }

      .ad {
        fill: #fff15c;
      }

      .ae {
        fill: #f6c95c;
      }

      .af {
        fill: #81bc3e;
      }

      .ag {
        fill: #ed6c85;
      }
    </style>
  </defs>
  <g class="a">
    <g>
      <g>
        <g>
          <g>
            <g>
              <path class="b" d="M93.74,173l-.1-.06c-1.85-1.16-4.38-1.19-5.65.83-1.73,2.78-4.38,11.37-3.36,15.06,1,3.5,3.62,2.86,5.36.72C92.3,186.74,98.41,176,93.74,173Z"/>
              <path class="c" d="M87.05,191.62h0c-.74,0-2.07-.35-2.72-2.7-1-3.75,1.61-12.45,3.4-15.31A3.71,3.71,0,0,1,91,171.84a5.45,5.45,0,0,1,2.81.85l.12.08a4,4,0,0,1,1.76,2.84c.72,4.43-3.55,11.82-5.45,14.15A4.39,4.39,0,0,1,87.05,191.62ZM91,172.46a3.13,3.13,0,0,0-2.74,1.48c-1.69,2.71-4.31,11.28-3.33,14.82.41,1.46,1.15,2.25,2.13,2.25h0a3.89,3.89,0,0,0,2.7-1.64c1.85-2.27,6-9.42,5.32-13.66a3.34,3.34,0,0,0-1.5-2.43.2.2,0,0,0-.09-.06A4.79,4.79,0,0,0,91,172.46Z"/>
            </g>
            <g>
              <path class="d" d="M84.63,188.84a15.21,15.21,0,0,1,.31-6.42,6.29,6.29,0,0,1,5.32-1,11.87,11.87,0,0,1,3.6,1.5A31.64,31.64,0,0,1,90,189.56C88.25,191.7,85.6,192.34,84.63,188.84Z"/>
              <path class="c" d="M87.05,191.62c-.74,0-2.07-.35-2.72-2.7-.51-1.82-.11-4.57.3-6.56a.32.32,0,0,1,.12-.18,6.62,6.62,0,0,1,5.59-1.1,12.55,12.55,0,0,1,3.7,1.54.31.31,0,0,1,.11.38,32.58,32.58,0,0,1-3.92,6.76A4.39,4.39,0,0,1,87.05,191.62Zm-1.83-9a14.56,14.56,0,0,0-.3,6.15c.41,1.46,1.15,2.25,2.13,2.25a3.89,3.89,0,0,0,2.7-1.64A32.24,32.24,0,0,0,93.48,183a12.24,12.24,0,0,0-3.29-1.32A6,6,0,0,0,85.22,182.61Z"/>
            </g>
            <g>
              <path class="e" d="M91.82,183.15c-1,2.39-2.89,6.56-5.65,8,1.18.56,2.7-.2,3.82-1.57,2.29-2.81,8.37-13.5,3.8-16.51C94.44,176.37,93.08,180.25,91.82,183.15Z"/>
              <path class="c" d="M87,191.62h0a2.3,2.3,0,0,1-1-.21.31.31,0,0,1-.18-.28.28.28,0,0,1,.17-.27c2.7-1.39,4.53-5.58,5.5-7.84,1.16-2.65,2.61-6.57,2-9.91a.33.33,0,0,1,.13-.32.3.3,0,0,1,.34,0,4,4,0,0,1,1.72,2.87c.68,4.44-3.57,11.78-5.45,14.1A4.46,4.46,0,0,1,87,191.62Zm0-.61h0a3.92,3.92,0,0,0,2.73-1.64c1.83-2.25,6-9.37,5.33-13.62a3.78,3.78,0,0,0-.86-1.93c.33,3.3-1,6.93-2.12,9.45C91.17,185.41,89.5,189.25,87,191Z"/>
            </g>
          </g>
          <path class="f" d="M89.78,180.74a.32.32,0,0,0-.12-.41,4.58,4.58,0,0,1-2.14-3.58.32.32,0,0,0-.32-.3.31.31,0,0,0-.3.32,5.15,5.15,0,0,0,2.45,4.09.3.3,0,0,0,.42-.11Z"/>
          <path class="f" d="M90.82,176.82a.28.28,0,0,0,0-.22.29.29,0,0,0-.37-.21A8.31,8.31,0,0,0,85.54,181a.32.32,0,0,0,.15.42.31.31,0,0,0,.41-.15l.11-.23A7.9,7.9,0,0,1,90.63,177,.31.31,0,0,0,90.82,176.82Z"/>
        </g>
        <g>
          <path class="g" d="M45.2,142.24l-2.22.68s2.44,5,11.5,9.93,26.39,6.88,26.39,6.88-5.18-7.67-12.33-11.26S45.2,142.24,45.2,142.24Z"/>
          <path class="c" d="M80.87,160h0c-.19,0-17.51-2-26.52-6.92S42.8,143.26,42.7,143.06a.34.34,0,0,1,0-.26.31.31,0,0,1,.2-.17l2.22-.69a.32.32,0,0,1,.14,0c.16,0,16.32,2.69,23.43,6.26s12.39,11.29,12.44,11.36a.31.31,0,0,1-.25.49ZM43.44,143.1c.71,1.16,3.64,5.33,11.18,9.48,7.88,4.33,22.28,6.34,25.59,6.76-1.35-1.83-5.94-7.65-11.81-10.6-6.79-3.4-22-6-23.18-6.19Z"/>
        </g>
        <path class="c" d="M13.11,170.16a.67.67,0,0,1-.38-.13.63.63,0,0,1-.11-.87C30.24,146.6,62.19,142.05,62.51,142a.6.6,0,0,1,.69.53.61.61,0,0,1-.52.7c-.32,0-31.78,4.52-49.08,26.68A.62.62,0,0,1,13.11,170.16Z"/>
        <path class="c" d="M89.1,174.92a.57.57,0,0,1-.18,0c-1.1-.34-26.84-8.55-28.2-17.88s16.86-16,17.63-16.3a.61.61,0,0,1,.79.38.62.62,0,0,1-.37.79c-.19.06-18.06,6.5-16.83,15S89,173.63,89.29,173.71a.62.62,0,0,1,.4.78A.61.61,0,0,1,89.1,174.92Z"/>
        <g>
          <path class="h" d="M117,130.29l1.58,1a32.49,32.49,0,0,1-6.77,14.38c-5.43,6.2-30.93,14-30.93,14S63.75,146.21,43,142.92l40.55-17.57Z"/>
          <path class="c" d="M80.87,160a.32.32,0,0,1-.19-.07c-.17-.14-17.29-13.51-37.75-16.74a.33.33,0,0,1-.26-.27.31.31,0,0,1,.18-.32l40.56-17.57a.25.25,0,0,1,.17,0L117,130l.12.05,1.58,1a.31.31,0,0,1,.14.31c0,.08-1.42,8.33-6.85,14.53S82,159.7,81,160ZM44.06,142.79c19.22,3.37,35.27,15.37,36.87,16.59,2.13-.66,25.54-8.06,30.63-13.88a32.25,32.25,0,0,0,6.67-14l-1.35-.88-33.31-4.92Z"/>
        </g>
        <g class="i">
          <path class="h" d="M117,130.29l-33.46-4.94L75,129c6.35,5.87,17.24,7.89,25.06,9.13.65.11-15.18,9.34-22.89,13.36-1.61.84-3.2,1.71-4.8,2.58a81.62,81.62,0,0,1,8.46,5.63s25.5-7.82,30.93-14a32.49,32.49,0,0,0,6.77-14.38Z"/>
        </g>
        <path class="c" d="M64.6,119.56c-8.2,0-19.52-.87-20.18-.92a.62.62,0,0,1-.57-.67.59.59,0,0,1,.66-.56c.23,0,23,1.76,27.37.4,3.35-1,3.83-10.43,3.72-14a.62.62,0,0,1,.6-.63.6.6,0,0,1,.64.6c0,1.4.25,13.65-4.6,15.17A33,33,0,0,1,64.6,119.56Z"/>
        <g>
          <path class="j" d="M77.4,83.64a12.48,12.48,0,0,0-3.27,3.63c-2.66,3.79-5.27,13.4-6,16.37,4,2.89,9.21,4.19,14.29,4.39a54,54,0,0,0,2-8.9,47.86,47.86,0,0,0,.11-11.41,5.4,5.4,0,0,0-.44-1.63C82.94,83.56,80,82,77.4,83.64Z"/>
          <path class="c" d="M82.39,108.35h0c-4-.17-9.73-1.07-14.45-4.46a.3.3,0,0,1-.12-.33c.74-2.89,3.37-12.61,6.07-16.47l.17-.23a12,12,0,0,1,3.19-3.48,4.43,4.43,0,0,1,2.42-.74A5.36,5.36,0,0,1,84.34,86a5.79,5.79,0,0,1,.47,1.73,48.74,48.74,0,0,1-.11,11.48,54.51,54.51,0,0,1-2,9A.31.31,0,0,1,82.39,108.35Zm-13.94-4.84c4.47,3.13,9.87,4,13.71,4.21a54.84,54.84,0,0,0,1.93-8.64,48,48,0,0,0,.1-11.33,5.18,5.18,0,0,0-.41-1.54,4.76,4.76,0,0,0-4.13-2.95,3.76,3.76,0,0,0-2.08.64,11.72,11.72,0,0,0-3,3.31l-.16.23C71.8,91.13,69.25,100.42,68.45,103.51Z"/>
        </g>
        <g class="k">
          <path class="l" d="M84.5,87.72a5.4,5.4,0,0,0-.44-1.63A5.53,5.53,0,0,0,82,83.66a48,48,0,0,0-5.46,12.78,63.05,63.05,0,0,0-2.27,10.21A31,31,0,0,0,82.39,108a54,54,0,0,0,2-8.9A47.86,47.86,0,0,0,84.5,87.72Z"/>
        </g>
        <g>
          <path class="l" d="M83.91,129c7.34,3.86,16.66,4.15,25.08,3.49,3.54-.28,4.66.17,9.58-1.14,3.33-7,1.28-21.13-.17-28.91C114,78.73,101.88,66.38,91,71.13c-2.65,1.15-6.91,8.09-8.77,12.11,0,0-9.21,18.77-1.41,38.94A70.7,70.7,0,0,0,83.91,129Z"/>
          <path class="c" d="M102.39,133.06c-7.67,0-13.76-1.24-18.63-3.81a.33.33,0,0,1-.13-.13,73.21,73.21,0,0,1-3.06-6.83c-7.76-20.06,1.33-39,1.42-39.19,1.7-3.65,6.06-11,8.93-12.26a12,12,0,0,1,4.8-1c10.1,0,19.34,13.08,23,32.55,1.8,9.64,3.3,22.51.15,29.1a.29.29,0,0,1-.2.16,24.71,24.71,0,0,1-7.07,1c-.77,0-1.57,0-2.57.12C106.64,133,104.47,133.06,102.39,133.06Zm-18.25-4.31c4.76,2.48,10.73,3.69,18.25,3.69,2.06,0,4.22-.09,6.58-.27,1-.08,1.82-.11,2.59-.13a24,24,0,0,0,6.8-1c3-6.47,1.51-19.1-.26-28.59-3.59-19.16-12.58-32-22.38-32a11.25,11.25,0,0,0-4.55,1c-2.48,1.09-6.67,7.77-8.62,12-.1.19-9.06,18.9-1.4,38.7A68.67,68.67,0,0,0,84.14,128.75Z"/>
        </g>
        <g class="m">
          <path class="l" d="M118.4,102.42C114,78.73,101.88,66.38,91,71.13c-2.17.94-5.43,5.78-7.56,9.71a18.72,18.72,0,0,0,0,3.43c.23,2.3.75,5.07,2.63,6.67,4,3.46,7-.17,9.21-2.67.49-.55,4.73,16.84,5.66,24.85.72,6.23,1.76,13.12,1.25,19.6,2.29,0,4.57-.07,6.78-.25,3.54-.28,4.66.17,9.58-1.14C121.9,124.35,119.85,110.2,118.4,102.42Z"/>
        </g>
        <g>
          <path class="n" d="M96.85,75.23c-4,.64-7-.46-11.2.52.51,2.49.55,6.67,1.45,9a4.87,4.87,0,0,0,.77,1.33c1.57,1.91,4.47,2.41,6.28.1a13.48,13.48,0,0,0,1.94-4.28C96.39,81,96.68,76.54,96.85,75.23Z"/>
          <path class="c" d="M91.16,88.07h0a4.68,4.68,0,0,1-3.53-1.75,5.47,5.47,0,0,1-.82-1.42,24.87,24.87,0,0,1-1-5.73c-.14-1.24-.26-2.42-.45-3.35a.3.3,0,0,1,.23-.36A17.25,17.25,0,0,1,89.64,75c.73,0,1.44,0,2.15.06s1.41.06,2.13.06a18.42,18.42,0,0,0,2.89-.21.3.3,0,0,1,.35.34c-.06.45-.13,1.27-.22,2.19A35.06,35.06,0,0,1,96.38,82l-.09.27a12.71,12.71,0,0,1-1.9,4.11A4.06,4.06,0,0,1,91.16,88.07ZM86,76c.16.91.28,2,.4,3.12a24.81,24.81,0,0,0,1,5.57,4.28,4.28,0,0,0,.72,1.24,4,4,0,0,0,3,1.53A3.38,3.38,0,0,0,93.91,86a11.9,11.9,0,0,0,1.79-3.91l.09-.27a38.44,38.44,0,0,0,.54-4.44c.06-.7.12-1.33.17-1.8a18.7,18.7,0,0,1-2.58.16c-.73,0-1.44,0-2.15-.06s-1.41-.07-2.13-.07A17,17,0,0,0,86,76Z"/>
        </g>
        <g>
          <g>
            <path class="o" d="M105.15,12.16A27.11,27.11,0,0,1,125,3.57c13-.25,33.63,16.86,36.68,65.82a59.84,59.84,0,0,1-13,3.56s-1.34-11.43-3.81-14.82c.78,6.42-1.26,16.26-1.26,16.26l-5.85,2.3a61.7,61.7,0,0,0-1.36-9.64c-.54,6.81-.91,9.46-.91,9.46s-7.63,2.09-10.47.78C127.06,68.58,133.2,25.84,105.15,12.16Z"/>
            <path class="c" d="M127.71,78a7.12,7.12,0,0,1-2.83-.46.3.3,0,0,1-.16-.35c3.22-13.78,6-52.25-19.71-64.78a.31.31,0,0,1-.16-.22.31.31,0,0,1,.05-.26A27.8,27.8,0,0,1,125,3.25h.28c7.58,0,15.88,5.54,22.22,14.82C155.59,30,160.6,47.71,162,69.37a.3.3,0,0,1-.19.3,59.73,59.73,0,0,1-13,3.58.34.34,0,0,1-.24-.06.27.27,0,0,1-.11-.2c0-.11-1.11-9.27-3.08-13.49.38,6.35-1.37,14.87-1.39,15a.27.27,0,0,1-.18.22L137.88,77a.34.34,0,0,1-.28,0,.33.33,0,0,1-.15-.25,74.6,74.6,0,0,0-.91-7.63c-.44,5.28-.74,7.45-.74,7.47a.31.31,0,0,1-.23.26A36,36,0,0,1,127.71,78Zm-2.34-.92a7.35,7.35,0,0,0,2.34.3,35.22,35.22,0,0,0,7.5-1.14c.09-.74.43-3.55.88-9.24a.32.32,0,0,1,.28-.29.29.29,0,0,1,.32.23A57.41,57.41,0,0,1,138,76.25l5.31-2.08c.25-1.31,1.92-10.15,1.21-16a.32.32,0,0,1,.19-.33.31.31,0,0,1,.37.11c2.29,3.14,3.58,12.73,3.83,14.64a58.67,58.67,0,0,0,12.37-3.4c-1.69-26.34-12.66-65.32-36.08-65.32H125a27.25,27.25,0,0,0-19.32,8.19c11.79,5.92,18.86,17.52,21,34.49A96,96,0,0,1,125.37,77.11Z"/>
          </g>
          <g class="p">
            <path class="q" d="M134.1,64.83c.77-8.75,1.48-18-.8-26.63C130,25.78,123.38,12.52,111,7.44a23.53,23.53,0,0,0-5.89,4.72c28,13.68,21.91,56.42,19.87,65.13,1.7.78,5.1.35,7.57-.12A87.54,87.54,0,0,0,134.1,64.83Z"/>
          </g>
          <g>
            <path class="r" d="M105.13,8.47s3.52-7.12,5.1-7,2,7.75,2,7.75,8.4-2.53,10.11-2.15-4.16,9.23-4.16,9.23S114.61,11.19,105.13,8.47Z"/>
            <path class="c" d="M118.19,16.62a.34.34,0,0,1-.26-.14c0-.05-3.63-5.05-12.88-7.71a.31.31,0,0,1-.2-.17.3.3,0,0,1,0-.26c.6-1.2,3.64-7.16,5.34-7.16s2.19,5.46,2.33,7.65c1.54-.46,7.24-2.1,9.37-2.1a2.5,2.5,0,0,1,.53,0,.66.66,0,0,1,.48.42c.62,1.53-3.6,8-4.46,9.28A.26.26,0,0,1,118.19,16.62ZM105.57,8.28c7.91,2.35,11.61,6.29,12.6,7.5,2-3.07,4.5-7.49,4.16-8.35a.91.91,0,0,0-.44-.08c-2.33,0-9.49,2.15-9.56,2.17a.29.29,0,0,1-.27,0,.26.26,0,0,1-.13-.23c-.2-3.54-.91-7.4-1.72-7.46h0C109.26,1.79,107,5.48,105.57,8.28Z"/>
          </g>
          <g>
            <g>
              <path class="n" d="M125.41,55.77c-1.76-4.94-50.49-16.33-54.23-23.51-6.73,12-25.92,14-25.92,14S40.19,79.63,74.61,83.64c24.6,2.79,34.75-10.48,35.5-11.25a25.06,25.06,0,0,0,3.79-6.08C122.6,71,127.19,60.69,125.41,55.77Z"/>
              <path class="c" d="M81.23,84.33a56.26,56.26,0,0,1-6.65-.39c-10.4-1.21-18.27-5.21-23.36-11.89-8.4-11-6.28-25.66-6.26-25.8a.32.32,0,0,1,.27-.27c.19,0,19.11-2.19,25.69-13.88a.25.25,0,0,1,.27-.15.31.31,0,0,1,.27.17c2,3.75,17.21,8.91,30.68,13.46,12.18,4.11,22.7,7.66,23.56,10.08s.22,6.21-1.62,8.83a7.22,7.22,0,0,1-5.94,3.33h0a9.07,9.07,0,0,1-4.1-1.08,24.78,24.78,0,0,1-3.7,5.87,2.44,2.44,0,0,0-.19.21C107.1,76.28,98.2,84.33,81.23,84.33ZM45.54,46.57c-.23,1.9-1.49,15.07,6.17,25.11,5,6.54,12.71,10.46,22.94,11.65a57.22,57.22,0,0,0,6.58.38c16.72,0,25.47-7.9,28.45-11.3l.21-.23a25,25,0,0,0,3.73-6,.35.35,0,0,1,.18-.16.31.31,0,0,1,.25,0,8.65,8.65,0,0,0,4.09,1.16h0a6.63,6.63,0,0,0,5.44-3.06c1.73-2.47,2.38-6,1.54-8.27-.76-2.14-12.16-6-23.18-9.71-13.7-4.62-27.85-9.4-30.74-13.31C64.68,43.7,47.77,46.27,45.54,46.57Z"/>
            </g>
            <g>
              <path class="n" d="M125.41,55.77c-1.76-4.94-50.49-16.33-54.23-23.51-6.73,12-25.92,14-25.92,14S40.19,79.63,74.61,83.64c24.6,2.79,34.75-10.48,35.5-11.25a25.06,25.06,0,0,0,3.79-6.08C122.6,71,127.19,60.69,125.41,55.77Z"/>
              <path class="c" d="M81.23,84.33a56.26,56.26,0,0,1-6.65-.39c-10.4-1.21-18.27-5.21-23.36-11.89-8.4-11-6.28-25.66-6.26-25.8a.32.32,0,0,1,.27-.27c.19,0,19.11-2.19,25.69-13.88a.25.25,0,0,1,.27-.15.31.31,0,0,1,.27.17c2,3.75,17.21,8.91,30.68,13.46,12.18,4.11,22.7,7.66,23.56,10.08s.22,6.21-1.62,8.83a7.22,7.22,0,0,1-5.94,3.33h0a9.07,9.07,0,0,1-4.1-1.08,24.78,24.78,0,0,1-3.7,5.87,2.44,2.44,0,0,0-.19.21C107.1,76.28,98.2,84.33,81.23,84.33ZM45.54,46.57c-.23,1.9-1.49,15.07,6.17,25.11,5,6.54,12.71,10.46,22.94,11.65a57.22,57.22,0,0,0,6.58.38c16.72,0,25.47-7.9,28.45-11.3l.21-.23a25,25,0,0,0,3.73-6,.35.35,0,0,1,.18-.16.31.31,0,0,1,.25,0,8.65,8.65,0,0,0,4.09,1.16h0a6.63,6.63,0,0,0,5.44-3.06c1.73-2.47,2.38-6,1.54-8.27-.76-2.14-12.16-6-23.18-9.71-13.7-4.62-27.85-9.4-30.74-13.31C64.68,43.7,47.77,46.27,45.54,46.57Z"/>
            </g>
            <g class="p">
              <path class="n" d="M125.41,55.77c-1.76-4.94-50.49-16.33-54.23-23.51-6.73,12-25.92,14-25.92,14A32.64,32.64,0,0,0,45,50.44a18.52,18.52,0,0,1,5.79-3.63,35.23,35.23,0,0,1,18.86-2.47c10.59,1.81,24.55,9.37,28.89,19.88,4.51,10.94-4.47,17.14-14.35,18.87-2,.35-4.15.62-6.39.82,22.28,1.36,31.6-10.79,32.31-11.52a25.06,25.06,0,0,0,3.79-6.08C122.6,71,127.19,60.69,125.41,55.77Z"/>
            </g>
            <g>
              <path class="q" d="M127.65,23.68C119.45,8.4,106.18,1.64,86.51.4S46.08,9.85,41.64,32.18c-2.23,10,2.14,14.17,2.14,14.17l1.48-.06s19.19-2.08,25.92-14c1,6.79,15.42,18.68,40.67,28.14,1.7-9.27,11.8-7.32,12.2-1.39.34,5.22-3.15,9.94-10.15,7.3a25.06,25.06,0,0,1-3.79,6.08s2.25,3.17,10-1.6S138.14,44.81,127.65,23.68Z"/>
              <path class="c" d="M112.91,73.73h0a3.67,3.67,0,0,1-3-1.16.3.3,0,0,1,0-.39,25,25,0,0,0,3.73-6A.31.31,0,0,1,114,66c3.3,1.24,6.13.87,7.9-1a8,8,0,0,0,1.83-6,5.32,5.32,0,0,0-5.45-4.72c-2.42,0-5.3,1.62-6.14,6.15a.3.3,0,0,1-.15.21.27.27,0,0,1-.26,0C87.23,51.5,73,40.07,71.05,33.09,64,44.45,45.48,46.58,45.3,46.6l-1.51.06a.39.39,0,0,1-.23-.09c-.18-.17-4.46-4.38-2.23-14.46C45.74,9.93,65.66,0,83.43,0c1,0,2.07,0,3.1.1,20.62,1.3,33.39,8.52,41.39,23.43,10.53,21.22.46,42.52-7.67,47.53C117.37,72.83,114.9,73.73,112.91,73.73Zm-2.38-1.34a3.53,3.53,0,0,0,2.38.72h0c1.88,0,4.24-.87,7-2.58,3.54-2.18,8.15-8.35,10.47-17.23a41.76,41.76,0,0,0-3-29.49C119.49,9.12,106.88,2,86.49.71c-1-.06-2-.1-3.06-.1-17.52,0-37.15,9.78-41.49,31.63-2,9,1.37,13.14,2,13.79L45.25,46c.17,0,19.09-2.19,25.67-13.88a.31.31,0,0,1,.32-.15.32.32,0,0,1,.25.26c1,6.68,15.11,18.34,40.12,27.77,1-4.63,4.07-6.28,6.68-6.28A5.92,5.92,0,0,1,124.35,59a8.6,8.6,0,0,1-2,6.44c-1.89,2-4.86,2.49-8.3,1.27A26.81,26.81,0,0,1,110.53,72.39Z"/>
            </g>
          </g>
        </g>
        <g>
          <path class="c" d="M115.77,64.9a.29.29,0,0,1-.24-.26c0-.16-.27-4,2.48-5.78a3,3,0,0,1,2.59-.62,2.26,2.26,0,0,1,1.33,1.29.29.29,0,0,1-.16.37.3.3,0,0,1-.38-.17,1.69,1.69,0,0,0-1-.95,2.5,2.5,0,0,0-2.09.55c-2.47,1.65-2.23,5.23-2.23,5.27a.29.29,0,0,1-.26.3Z"/>
          <path class="c" d="M118,63.29a2,2,0,0,1-1-.48,2.48,2.48,0,0,1-.51-2.25.28.28,0,0,1,.33-.23.27.27,0,0,1,.23.32,1.94,1.94,0,0,0,.35,1.75,1.78,1.78,0,0,0,1.42.32.28.28,0,1,1,.13.55A2.75,2.75,0,0,1,118,63.29Z"/>
        </g>
        <path class="c" d="M89.24,127.87c-1.92,0-4-.1-6.38-.29a.61.61,0,0,1-.57-.66.63.63,0,0,1,.67-.57,54.8,54.8,0,0,0,12.68-.16c11.91-1.79,17.32-10.81,16.56-27.57a85.36,85.36,0,0,0-1.08-9.07c-.12-.73-.23-1.45-.34-2.18a.62.62,0,0,1,.52-.7.6.6,0,0,1,.7.52c.11.72.23,1.45.34,2.17a86.87,86.87,0,0,1,1.09,9.2c.8,17.51-5,27-17.61,28.85A43,43,0,0,1,89.24,127.87Z"/>
        <g>
          <path class="j" d="M103.39,79.33a14,14,0,0,0-1.63,5.13c-1,5,.7,15.77,1.25,19.07,5.24,1,10.89-.1,16-2.24.38-.16-1-5.82-1.11-6.43a60.8,60.8,0,0,0-3.07-10c-1.09-2.6-2.44-5.75-5.1-7.11A4.76,4.76,0,0,0,103.39,79.33Z"/>
          <path class="c" d="M107.09,104.22h0a21.46,21.46,0,0,1-4.14-.39.32.32,0,0,1-.25-.25c-.53-3.22-2.21-14.12-1.24-19.18l.05-.3a13.56,13.56,0,0,1,1.61-4.93,4.84,4.84,0,0,1,4.18-2.28,5.74,5.74,0,0,1,2.55.62c2.79,1.43,4.21,4.8,5.23,7.26a60.78,60.78,0,0,1,3.09,10l0,.19c1.49,6.34,1.21,6.46.89,6.6A31.57,31.57,0,0,1,107.09,104.22Zm-3.81-1a20.61,20.61,0,0,0,3.81.34h0a30.82,30.82,0,0,0,11.65-2.54c0-.3-.08-1.47-1.13-5.94l0-.18a61.1,61.1,0,0,0-3-9.93c-1-2.37-2.36-5.63-5-7a5,5,0,0,0-2.26-.55,4.2,4.2,0,0,0-3.65,2,13,13,0,0,0-1.53,4.72l-.06.3C101.14,89.37,102.71,99.83,103.28,103.26Z"/>
        </g>
        <g class="k">
          <path class="l" d="M117.87,94.86a60.8,60.8,0,0,0-3.07-10c-1.09-2.6-2.44-5.75-5.1-7.11a5,5,0,0,0-4.48-.09c4.72,2.61,7,17.25,8.1,25.45a35,35,0,0,0,5.66-1.85C119.36,101.13,118,95.47,117.87,94.86Z"/>
        </g>
        <g>
          <g>
            <polygon class="s" points="18.72 129.25 17.39 130.49 17.4 134.2 68.52 144.99 68.5 140.77 18.72 129.25"/>
            <path class="c" d="M68.52,145.3h-.06L17.34,134.5a.31.31,0,0,1-.25-.3l0-3.71a.3.3,0,0,1,.11-.23L18.51,129a.29.29,0,0,1,.28-.07l49.78,11.52a.31.31,0,0,1,.24.3l0,4.22a.3.3,0,0,1-.31.31ZM17.71,134l50.5,10.66,0-3.59L18.81,129.59l-1.11,1Z"/>
          </g>
          <g>
            <polygon class="t" points="100.22 133.63 104.68 133.39 104.7 136.81 68.52 144.99 68.01 141.58 100.22 133.63"/>
            <path class="c" d="M68.52,145.3a.31.31,0,0,1-.18-.05.35.35,0,0,1-.12-.21l-.51-3.41a.3.3,0,0,1,.23-.35l32.21-7.95,4.52-.25a.39.39,0,0,1,.23.09.29.29,0,0,1,.09.22l0,3.42a.32.32,0,0,1-.24.3L68.59,145.3Zm-.16-3.49.42,2.81,35.61-8.06,0-2.85-4.13.23Z"/>
          </g>
          <g>
            <polygon class="s" points="58.13 124.69 17.39 130.49 68.01 141.58 104.68 133.39 58.13 124.69"/>
            <path class="c" d="M68,141.89H68L17.32,130.79a.31.31,0,0,1-.25-.31.32.32,0,0,1,.27-.3l40.75-5.8h.1l46.55,8.7a.31.31,0,0,1,0,.61l-36.67,8.19ZM19.12,130.55,68,141.26l35.13-7.85-45-8.41Z"/>
          </g>
          <g>
            <g>
              <polygon class="u" points="60.35 135.38 67.54 137.03 76.32 135.03 69.13 133.38 60.35 135.38"/>
              <path class="c" d="M67.54,137.34h-.06l-7.2-1.65a.31.31,0,0,1,0-.6l8.78-2a.17.17,0,0,1,.14,0l7.19,1.64a.31.31,0,0,1,0,.61l-8.78,2Zm-5.8-2,5.8,1.33,7.4-1.68-5.81-1.34Z"/>
            </g>
            <g>
              <polygon class="u" points="90.83 134.92 97.72 133.38 89.93 131.92 83.82 133.32 90.83 134.92"/>
              <path class="c" d="M90.83,135.23h-.08l-7-1.6a.32.32,0,0,1-.24-.3.29.29,0,0,1,.24-.3l6.1-1.4H90l7.8,1.46a.29.29,0,0,1,.25.3.3.3,0,0,1-.24.3l-6.9,1.54Zm-5.62-1.91,5.62,1.28,5.35-1.19-6.25-1.17Z"/>
            </g>
            <g>
              <polygon class="u" points="76.63 131.67 69.13 133.38 76.32 135.03 83.82 133.32 76.63 131.67"/>
              <path class="c" d="M76.32,135.33h-.06l-7.2-1.65a.32.32,0,0,1-.24-.3.3.3,0,0,1,.24-.3l7.5-1.71h.14L83.89,133a.29.29,0,0,1,.24.3.32.32,0,0,1-.24.3l-7.5,1.71Zm-5.8-2,5.8,1.33,6.12-1.39L76.63,132Z"/>
            </g>
            <g>
              <polygon class="u" points="76.32 135.03 83.24 136.61 90.83 134.92 83.82 133.32 76.32 135.03"/>
              <path class="c" d="M83.24,136.92h-.06l-6.92-1.58a.31.31,0,0,1,0-.61l7.5-1.7a.29.29,0,0,1,.13,0l7,1.6a.31.31,0,0,1,0,.6l-7.58,1.69ZM77.71,135l5.54,1.27,6.17-1.39-5.6-1.28Z"/>
            </g>
            <g>
              <polygon class="u" points="51.82 133.42 45.16 134.94 53.69 136.89 60.35 135.38 51.82 133.42"/>
              <path class="c" d="M53.69,137.2h-.07l-8.52-2a.31.31,0,0,1-.24-.3.3.3,0,0,1,.24-.3l6.66-1.52h.13l8.53,2a.31.31,0,0,1,0,.6l-6.65,1.52Zm-7.14-2.26,7.14,1.64,5.28-1.2-7.15-1.64Z"/>
            </g>
            <g>
              <polygon class="u" points="53.69 136.89 60.89 138.54 67.54 137.03 60.35 135.38 53.69 136.89"/>
              <path class="c" d="M60.89,138.86h-.07l-7.2-1.65a.31.31,0,0,1-.23-.31.3.3,0,0,1,.23-.29l6.66-1.52a.17.17,0,0,1,.14,0l7.19,1.65a.31.31,0,0,1,0,.6L61,138.85Zm-5.81-2,5.81,1.33,5.27-1.2-5.81-1.33Z"/>
            </g>
            <g>
              <polygon class="u" points="43.04 131.4 36.38 132.93 45.16 134.94 51.82 133.42 43.04 131.4"/>
              <path class="c" d="M45.16,135.25H45.1l-8.79-2a.31.31,0,0,1,0-.61L43,131.1h.14l8.78,2a.32.32,0,0,1,.24.3.3.3,0,0,1-.24.3l-6.66,1.52Zm-7.39-2.32,7.39,1.69,5.28-1.2L43,131.73Z"/>
            </g>
            <g>
              <polygon class="u" points="69.13 133.38 76.63 131.67 68.1 129.71 60.6 131.42 69.13 133.38"/>
              <path class="c" d="M69.13,133.68h-.07l-8.53-2a.31.31,0,0,1-.24-.3.3.3,0,0,1,.24-.3l7.5-1.71h.14l8.53,2a.3.3,0,0,1,.24.3.31.31,0,0,1-.24.3l-7.5,1.71ZM62,131.42l7.14,1.64,6.12-1.39L68.1,130Z"/>
            </g>
            <g>
              <polygon class="u" points="51.82 133.42 60.35 135.38 69.13 133.38 60.6 131.42 51.82 133.42"/>
              <path class="c" d="M60.35,135.68h-.07l-8.52-2a.29.29,0,0,1-.24-.3.31.31,0,0,1,.24-.3l8.77-2a.17.17,0,0,1,.14,0l8.53,2a.3.3,0,0,1,.24.3.32.32,0,0,1-.24.3l-8.78,2Zm-7.14-2.26,7.14,1.64,7.39-1.68-7.14-1.64Z"/>
            </g>
            <g>
              <polygon class="u" points="68.1 129.71 59.32 127.69 51.82 129.41 60.6 131.42 68.1 129.71"/>
              <path class="c" d="M60.6,131.73h-.07l-8.78-2a.31.31,0,0,1,0-.61l7.5-1.7a.17.17,0,0,1,.14,0l8.78,2a.31.31,0,0,1,0,.6l-7.5,1.71Zm-7.39-2.32,7.39,1.69,6.12-1.39-7.4-1.7Z"/>
            </g>
            <g>
              <polygon class="u" points="60.6 131.42 51.82 129.41 43.04 131.4 51.82 133.42 60.6 131.42"/>
              <path class="c" d="M51.82,133.73h-.06l-8.79-2a.31.31,0,0,1-.24-.31.32.32,0,0,1,.24-.3l8.78-2h.14l8.78,2a.31.31,0,0,1,0,.6l-8.78,2Zm-7.4-2.32,7.4,1.7,7.39-1.69-7.39-1.7Z"/>
            </g>
            <g>
              <polygon class="u" points="76.32 135.03 67.54 137.03 74.37 138.59 83.24 136.61 76.32 135.03"/>
              <path class="c" d="M74.37,138.9H74.3l-6.82-1.57a.3.3,0,0,1-.24-.3.29.29,0,0,1,.24-.3l8.78-2h.13l6.93,1.59a.3.3,0,0,1,.23.3.29.29,0,0,1-.24.3l-8.87,2ZM68.93,137l5.44,1.25,7.47-1.67-5.52-1.27Z"/>
            </g>
            <g>
              <polygon class="u" points="36.38 132.93 32.44 133.83 41.43 135.79 45.16 134.94 36.38 132.93"/>
              <path class="c" d="M41.43,136.1h-.07l-9-2a.32.32,0,0,1-.24-.3.3.3,0,0,1,.24-.31l3.93-.9h.14l8.78,2a.31.31,0,0,1,0,.6l-3.73.85Zm-7.57-2.28,7.57,1.66,2.35-.54-7.4-1.69Z"/>
            </g>
            <g>
              <polygon class="u" points="45.16 134.94 41.43 135.79 50.16 137.7 53.69 136.89 45.16 134.94"/>
              <path class="c" d="M50.16,138h-.07l-8.73-1.91a.3.3,0,0,1-.24-.3.31.31,0,0,1,.24-.3l3.74-.85h.13l8.54,2a.3.3,0,0,1,.24.29.33.33,0,0,1-.24.31l-3.55.8Zm-7.31-2.22,7.31,1.59,2.15-.49-7.15-1.63Z"/>
            </g>
            <g>
              <polygon class="u" points="53.69 136.89 50.16 137.7 57.51 139.31 60.89 138.54 53.69 136.89"/>
              <path class="c" d="M57.51,139.62h-.06L50.09,138a.3.3,0,0,1-.24-.3.31.31,0,0,1,.24-.3l3.53-.8h.15L61,138.25a.29.29,0,0,1,.24.29.32.32,0,0,1-.24.31l-3.37.77Zm-5.94-1.92,5.94,1.3,2-.46-5.81-1.33Z"/>
            </g>
            <g>
              <polygon class="u" points="83.82 133.32 89.93 131.92 82.01 130.44 76.63 131.67 83.82 133.32"/>
              <path class="c" d="M83.82,133.63h-.06L76.56,132a.31.31,0,0,1-.24-.3.3.3,0,0,1,.24-.3l5.38-1.23h.12L90,131.62a.32.32,0,0,1,.26.3.31.31,0,0,1-.24.3l-6.11,1.4Zm-5.8-2,5.8,1.33L88.41,132,82,130.76Z"/>
            </g>
            <g>
              <polygon class="u" points="57.51 139.31 64.4 140.82 67.65 140.09 60.89 138.54 57.51 139.31"/>
              <path class="c" d="M64.4,141.13h-.07l-6.88-1.5a.32.32,0,0,1-.25-.3.31.31,0,0,1,.24-.31l3.38-.76a.15.15,0,0,1,.13,0l6.77,1.54a.31.31,0,0,1,0,.61l-3.25.72Zm-5.47-1.82,5.47,1.2,1.85-.42-5.36-1.23Z"/>
            </g>
            <g>
              <polygon class="u" points="60.89 138.54 67.65 140.09 74.37 138.59 67.54 137.03 60.89 138.54"/>
              <path class="c" d="M67.65,140.4h-.07l-6.76-1.55a.32.32,0,0,1-.24-.31.3.3,0,0,1,.24-.29l6.66-1.52a.15.15,0,0,1,.13,0l6.83,1.56a.31.31,0,0,1,.24.31.32.32,0,0,1-.24.3l-6.72,1.5Zm-5.38-1.86,5.38,1.24L73,138.59l-5.43-1.24Z"/>
            </g>
            <g>
              <polygon class="u" points="25.74 130.48 36.38 132.93 43.04 131.4 33.94 129.32 43.04 131.4 51.82 129.41 43.08 127.4 51.82 129.41 59.32 127.69 51.84 125.98 18.39 130.74 32.44 133.83 36.38 132.93 25.74 130.48"/>
              <path class="c" d="M32.44,134.13h-.06l-14.06-3.08a.32.32,0,0,1-.24-.32.32.32,0,0,1,.27-.29l33.45-4.77h.11l7.48,1.72a.3.3,0,0,1,.24.29.31.31,0,0,1-.24.31l-7.5,1.71h0l-8.78,2h0l-6.66,1.52h0l-3.94.9Zm-12.31-3.32,12.31,2.7,2.56-.58-9.33-2.14a.31.31,0,0,1-.24-.31v-.06a.33.33,0,0,1,.38-.24l10.57,2.43,5.27-1.21-7.77-1.78a.3.3,0,0,1-.25-.29s0-.05,0-.08A.32.32,0,0,1,34,129l9,2.07,7.39-1.69L43,127.71a.3.3,0,0,1-.18-.13Zm24.18-3.44,7.51,1.72,6.12-1.4-6.11-1.39Z"/>
            </g>
            <g>
              <polygon class="u" points="76.63 131.67 82.01 130.44 72.6 128.68 68.1 129.71 76.63 131.67"/>
              <path class="c" d="M76.63,132h-.07L68,130a.31.31,0,0,1-.24-.3.3.3,0,0,1,.24-.3l4.51-1h.12l9.4,1.76a.3.3,0,0,1,.25.3.29.29,0,0,1-.24.3L76.7,132Zm-7.14-2.27,7.14,1.64,3.85-.88L72.61,129Z"/>
            </g>
            <g>
              <polygon class="u" points="68.1 129.71 72.6 128.68 62.93 126.88 59.32 127.69 68.1 129.71"/>
              <path class="c" d="M68.1,130H68l-8.78-2a.31.31,0,0,1-.24-.31.3.3,0,0,1,.24-.29l3.61-.83H63l9.68,1.81a.31.31,0,0,1,.25.3.28.28,0,0,1-.24.3l-4.5,1Zm-7.39-2.32,7.39,1.69,3-.68-8.15-1.52Z"/>
            </g>
            <g>
              <polygon class="u" points="62.93 126.88 55.42 125.47 51.84 125.98 59.32 127.69 62.93 126.88"/>
              <path class="c" d="M59.32,128h-.07l-7.48-1.72a.31.31,0,0,1-.24-.31.33.33,0,0,1,.27-.3l3.58-.51h.1l7.5,1.41a.32.32,0,0,1,.26.3.3.3,0,0,1-.25.3l-3.6.83Zm-5.79-2,5.79,1.33,2.09-.48-6-1.12Z"/>
            </g>
          </g>
          <g>
            <polygon class="c" points="68.01 141.58 53.41 103.71 2.72 95.81 1.25 97.06 17.39 130.49 66.55 142.82 68.01 141.58"/>
            <path class="c" d="M66.55,143.13h-.08L17.31,130.79a.29.29,0,0,1-.2-.16L1,97.19a.32.32,0,0,1,.07-.37l1.47-1.24a.3.3,0,0,1,.24-.07l50.7,7.9a.3.3,0,0,1,.24.19l14.6,37.87a.29.29,0,0,1-.09.34l-1.46,1.24A.27.27,0,0,1,66.55,143.13ZM17.6,130.23l48.87,12.25,1.17-1L53.19,104,2.81,96.14l-1.17,1Z"/>
          </g>
          <g>
            <polygon class="s" points="66.55 142.82 51.95 104.95 1.25 97.06 15.92 131.73 66.55 142.82"/>
            <path class="c" d="M66.55,143.13h-.07L15.86,132a.31.31,0,0,1-.22-.18L1,97.18a.32.32,0,0,1,0-.31.33.33,0,0,1,.29-.12l50.7,7.9a.31.31,0,0,1,.24.19l14.6,37.87a.31.31,0,0,1,0,.31A.32.32,0,0,1,66.55,143.13ZM16.14,131.46l49.91,10.93L51.72,105.23l-50-7.78Z"/>
          </g>
        </g>
        <g>
          <g>
            <path class="n" d="M87.87,129.34c0-1.57-1.52-3.49-2.64-4.46a11.26,11.26,0,0,0-8.16-2.61,12.45,12.45,0,0,0-4.65,1.24A10.24,10.24,0,0,0,68.55,127c-.23.4-1,1.64-.69,2.23a1.44,1.44,0,0,0,2.41.33s3.48-4.17,4.85-4.42c0,0-4.07,4-4,5.76.22,4.46,4.81-4.16,7.13-4.19a7.38,7.38,0,0,0-2.06,3.74s-.31,2.44,1.41,1.86,2.1-4,4.42-3.57c1.57.29,2.76,1.87,4.42,2.07C87.43,130.89,87.84,130.3,87.87,129.34Z"/>
            <path class="c" d="M77.13,132.68a1.08,1.08,0,0,1-.83-.37,2.75,2.75,0,0,1-.39-1.93,7.46,7.46,0,0,1,1.19-2.79,22,22,0,0,0-2.28,2.33c-1.41,1.57-2.31,2.54-3,2.54s-.92-1.18-.94-1.57c0-.93.92-2.38,1.94-3.64-.81.81-1.64,1.73-2.26,2.48a1.76,1.76,0,0,1-2.93-.38c-.32-.62.15-1.58.65-2.44l.06-.09a10.4,10.4,0,0,1,4-3.58A13.24,13.24,0,0,1,77,122a11.7,11.7,0,0,1,8.39,2.68c1,.92,2.81,2.93,2.75,4.71-.05,1.52-1,1.75-1.49,1.75h0l-.27,0A5.84,5.84,0,0,1,84,130a5.72,5.72,0,0,0-2-.95c-1.13-.22-1.68.64-2.33,1.64a4.17,4.17,0,0,1-1.94,1.91A1.9,1.9,0,0,1,77.13,132.68Zm1.14-6.31a.33.33,0,0,1,.29.2.31.31,0,0,1-.08.35,7,7,0,0,0-2,3.56,2.29,2.29,0,0,0,.25,1.42c.16.18.41.2.76.08.69-.22,1.14-.92,1.62-1.66.69-1.07,1.42-2.19,3-1.9a6,6,0,0,1,2.18,1,5.4,5.4,0,0,0,2.21,1h.2c.23,0,.84,0,.88-1.15,0-1.44-1.5-3.31-2.55-4.22a11,11,0,0,0-7.93-2.53,12.21,12.21,0,0,0-4.51,1.19,9.93,9.93,0,0,0-3.76,3.36l-.06.1q-.84,1.42-.63,1.83a1.17,1.17,0,0,0,1.92.26c.35-.43,3.58-4.25,5-4.51a.3.3,0,0,1,.33.16.32.32,0,0,1,0,.36c-1.11,1.1-4,4.24-3.89,5.53,0,.6.15,1,.32,1,.5,0,1.66-1.3,2.59-2.33,1.37-1.54,2.79-3.12,3.91-3.14Z"/>
          </g>
          <g>
            <path class="f" d="M78.26,123.82a4.31,4.31,0,0,0-3.14,1.29C73.78,126.37,78.26,123.82,78.26,123.82Z"/>
            <path class="c" d="M75.12,125.42a.3.3,0,0,1-.23-.1.31.31,0,0,1,0-.44,4.69,4.69,0,0,1,3.38-1.37.3.3,0,0,1,.27.34.29.29,0,0,1-.33.28,4,4,0,0,0-2.9,1.2A.29.29,0,0,1,75.12,125.42Z"/>
          </g>
          <g>
            <path class="f" d="M80.71,125.82a3,3,0,0,0-2.44.86C77.07,127.67,80.71,125.82,80.71,125.82Z"/>
            <path class="c" d="M78.27,127a.34.34,0,0,1-.24-.11.3.3,0,0,1,0-.43,3.22,3.22,0,0,1,2.71-.93.31.31,0,0,1,.22.37.32.32,0,0,1-.38.23,2.7,2.7,0,0,0-2.16.81A.36.36,0,0,1,78.27,127Z"/>
          </g>
        </g>
        <g>
          <g>
            <path class="b" d="M12.81,173.61l.13,0c2.41-.83,4.28-3.11,3.37-5.74-1.26-3.6-5.59-12.47-11.44-14.2-4.06-1.2-5,1.38-4.37,4.51C1.39,162.3,6.71,175.7,12.81,173.61Z"/>
            <path class="c" d="M11.52,174.14h0C5.59,174.14.92,161.58.2,158.21c-.39-1.82-.21-3.31.52-4.2S3,152.76,5,153.33c6.07,1.8,10.47,11,11.65,14.4,1,2.86-1,5.25-3.56,6.14l-.15,0A4.28,4.28,0,0,1,11.52,174.14Zm-8.47-20.5a2.23,2.23,0,0,0-1.85.75,4.51,4.51,0,0,0-.4,3.69c.91,4.25,5.59,15.44,10.72,15.45h0a3.51,3.51,0,0,0,1.19-.21l.13,0c2.23-.78,4-2.86,3.18-5.34-1.16-3.32-5.43-12.29-11.24-14A6.3,6.3,0,0,0,3.05,153.64Z"/>
          </g>
          <g>
            <path class="d" d="M3.45,166a15.71,15.71,0,0,0,3.9-2.4,9.29,9.29,0,0,0,3.54-5.42,13.17,13.17,0,0,0-6-4.51c-4.06-1.2-5,1.38-4.37,4.51A36.78,36.78,0,0,0,3.45,166Z"/>
            <path class="c" d="M3.45,166.27a.34.34,0,0,1-.28-.17,38.1,38.1,0,0,1-3-7.89c-.39-1.82-.21-3.31.52-4.2S3,152.76,5,153.33a13.36,13.36,0,0,1,6.17,4.61.31.31,0,0,1,.07.24c-.34,2.39-2.16,4.38-3.63,5.62a16.62,16.62,0,0,1-4,2.44Zm-.4-12.63a2.23,2.23,0,0,0-1.85.75,4.51,4.51,0,0,0-.4,3.69,36.5,36.5,0,0,0,2.8,7.48,16.29,16.29,0,0,0,3.56-2.23,9.41,9.41,0,0,0,3.4-5.1,12.58,12.58,0,0,0-5.78-4.3A6.3,6.3,0,0,0,3.05,153.64Z"/>
          </g>
          <g>
            <path class="e" d="M8.83,161.57c-.7-1.34-4.07-8.46-7-8-1.35.68-1.77,2.6-1.34,4.6.86,4,5.92,16.83,11.81,15.61C14.24,170.52,10.13,164.05,8.83,161.57Z"/>
            <path class="c" d="M11.52,174.14h0C5.59,174.14.92,161.58.2,158.21c-.49-2.3.09-4.24,1.5-5l.09,0,.31,0c2.54,0,5.1,4.47,6.81,7.82l.19.39c.16.31.37.68.6,1.09,1.74,3.15,4.66,8.42,2.87,11.4a.3.3,0,0,1-.2.14A4.09,4.09,0,0,1,11.52,174.14Zm-9.59-20.3c-1.09.59-1.55,2.28-1.13,4.24.91,4.25,5.59,15.44,10.72,15.44h0a3.92,3.92,0,0,0,.59-.05c1.45-2.71-1.41-7.87-3-10.66l-.6-1.1-.2-.39C5.74,156.18,3.58,153.65,1.93,153.84Z"/>
          </g>
        </g>
        <path d="M59,61.86c.44,1.49,0,2.94-1,3.23s-2.15-.68-2.59-2.17,0-2.94,1-3.23S58.6,60.37,59,61.86Z"/>
        <path d="M83.8,60.18c.44,1.49,0,2.94-1,3.24s-2.15-.69-2.59-2.18,0-2.94,1-3.23S83.35,58.68,83.8,60.18Z"/>
        <g>
          <path class="v" d="M78.67,77.39a1.78,1.78,0,0,0-2.11,0c-1.71,1.44-.09,4.6,1.62,5.19C81.88,83.86,80.87,78.64,78.67,77.39Z"/>
          <path class="c" d="M79.22,83.08h0a3.51,3.51,0,0,1-1.15-.22,4.42,4.42,0,0,1-2.49-3.22,2.52,2.52,0,0,1,.78-2.5,2.09,2.09,0,0,1,2.47,0,4.84,4.84,0,0,1,2,4.7A1.57,1.57,0,0,1,79.22,83.08Zm-1.71-5.73a1.16,1.16,0,0,0-.75.26,1.93,1.93,0,0,0-.57,1.92,3.83,3.83,0,0,0,2.09,2.75,3,3,0,0,0,.94.18h0a1,1,0,0,0,1-.8,4.26,4.26,0,0,0-1.75-4A2.05,2.05,0,0,0,77.51,77.35Z"/>
        </g>
      </g>
      <g>
        <g>
          <path class="w" d="M193,69.45s11.61,20.71,1.88,27.73c-11.73,8.46-44-3.77-47.5-13.75S193,69.45,193,69.45Z"/>
          <path class="c" d="M183.88,100.32c-14.43,0-34-8.94-36.75-16.78a3.27,3.27,0,0,1,.41-3c5.2-8,43.83-11.25,45.47-11.38a.28.28,0,0,1,.29.15,58.36,58.36,0,0,1,4.62,11.3c2.25,8.06,1.27,13.88-2.82,16.83C192.44,99.34,188.67,100.32,183.88,100.32Zm9-30.54c-3.06.27-40,3.61-44.81,11.09a2.64,2.64,0,0,0-.34,2.46c2.62,7.5,22.23,16.37,36.17,16.37,4.65,0,8.31-.93,10.86-2.77C203.67,90.49,193.94,71.79,192.86,69.78Z"/>
        </g>
        <g>
          <path class="x" d="M192.28,70.51s11.51,20,1.95,26.74c-11.55,8.13-43.4-3.76-46.87-13.39S192.28,70.51,192.28,70.51Z"/>
          <path class="c" d="M183.45,100.26c-14.26,0-33.64-8.68-36.38-16.3a3.09,3.09,0,0,1,.36-2.86c5-7.75,43.2-10.77,44.83-10.89a.28.28,0,0,1,.29.15,56,56,0,0,1,4.58,10.91c2.25,7.78,1.3,13.4-2.73,16.23C191.81,99.33,188.12,100.26,183.45,100.26Zm8.66-29.42c-3,.24-39.49,3.37-44.16,10.59a2.51,2.51,0,0,0-.3,2.33c2.62,7.27,22,15.88,35.8,15.88,4.54,0,8.1-.89,10.6-2.64C202.81,90.83,193.19,72.79,192.11,70.84Z"/>
        </g>
        <g class="p">
          <path class="x" d="M161.81,95a54.58,54.58,0,0,0,14.28-4.51,53.5,53.5,0,0,0,12.66-7.69,67.73,67.73,0,0,0,6.54-5.9,55.31,55.31,0,0,0-3-6.36s-48.39,3.72-44.92,13.35C148.73,87.67,154.56,91.84,161.81,95Z"/>
        </g>
        <g>
          <g>
            <path class="y" d="M108,155.66l.1.07c1.79,1.25,2.8,3.57,1.43,5.52-1.88,2.68-8.77,8.47-12.56,9-3.61.47-4-2.23-2.76-4.66C95.92,162.33,103.45,152.51,108,155.66Z"/>
            <path class="c" d="M96.18,170.57a2.75,2.75,0,0,1-2.57-1.2,4.12,4.12,0,0,1,.33-4c1.24-2.36,7.19-10.67,12.07-10.67a3.68,3.68,0,0,1,2.16.67l.11.07c1.89,1.33,3,3.8,1.51,6-1.94,2.76-8.93,8.59-12.78,9.09A8.19,8.19,0,0,1,96.18,170.57ZM106,155.35c-4.25,0-10,7.4-11.53,10.35a3.6,3.6,0,0,0-.34,3.35c.45.73,1.38,1,2.79.85,3.64-.47,10.51-6.2,12.35-8.82,1.27-1.83.28-4-1.36-5.1l-.08,0A3.13,3.13,0,0,0,106,155.35Z"/>
          </g>
          <g>
            <path class="z" d="M97,170.21a15.13,15.13,0,0,0,5.78-2.78,6.23,6.23,0,0,0-1.11-5.31,11.69,11.69,0,0,0-2.78-2.74,31.86,31.86,0,0,0-4.65,6.17C92.92,168,93.36,170.68,97,170.21Z"/>
            <path class="c" d="M96.18,170.57h0a2.75,2.75,0,0,1-2.57-1.2,4.12,4.12,0,0,1,.33-4,32,32,0,0,1,4.7-6.24.29.29,0,0,1,.39,0,12.06,12.06,0,0,1,2.86,2.8,6.54,6.54,0,0,1,1.16,5.58.3.3,0,0,1-.12.17c-1.67,1.16-4.05,2.6-5.92,2.84A8.19,8.19,0,0,1,96.18,170.57Zm2.73-10.78a31.76,31.76,0,0,0-4.43,5.91,3.6,3.6,0,0,0-.34,3.35,2.19,2.19,0,0,0,2,.9h0a6.74,6.74,0,0,0,.75,0,14.26,14.26,0,0,0,5.55-2.66,6,6,0,0,0-1.09-4.94A11.76,11.76,0,0,0,98.91,159.79Z"/>
          </g>
          <g>
            <path class="z" d="M99.42,161.37c-1.81,1.9-4.93,5.21-5.16,8.31-1-.88-.88-2.57-.05-4.13,1.7-3.21,9.18-13,13.74-9.92C104.63,156.32,101.6,159.08,99.42,161.37Z"/>
            <path class="c" d="M94.26,170a.32.32,0,0,1-.21-.08c-1-.92-1.07-2.69-.11-4.5,1.24-2.35,7.2-10.67,12.07-10.67a3.74,3.74,0,0,1,2.11.63.32.32,0,0,1,.13.32.3.3,0,0,1-.24.24c-3.34.7-6.38,3.56-8.37,5.66-1.7,1.77-4.85,5.08-5.08,8.11a.29.29,0,0,1-.19.26ZM106,155.36c-4.24,0-10,7.39-11.53,10.34a3.81,3.81,0,0,0-.42,3.18c.63-3,3.52-6,5.13-7.72,1.89-2,4.7-4.65,7.89-5.62A3.16,3.16,0,0,0,106,155.36Z"/>
          </g>
        </g>
        <g>
          <g>
            <path class="y" d="M143.79,172.69l-.12,0c-2.07.67-3.74,2.57-3,4.85,1,3.11,5.85,10.69,9.32,12.29,3.3,1.52,4.53-.92,4-3.62C153.33,182.65,149.07,171,143.79,172.69Z"/>
            <path class="c" d="M151.81,190.64h0a4.77,4.77,0,0,1-2-.5c-3.53-1.63-8.46-9.27-9.49-12.48-.79-2.51,1-4.53,3.22-5.23l.14-.05a4.06,4.06,0,0,1,1.1-.16c5.17,0,8.94,11,9.48,14a4.4,4.4,0,0,1-.62,3.62A2.33,2.33,0,0,1,151.81,190.64Zm-7-17.81a3.29,3.29,0,0,0-.93.15l-.12,0c-1.91.62-3.49,2.34-2.82,4.46,1,3.05,5.83,10.58,9.16,12.11,1.38.64,2.47.58,3.1-.18a3.87,3.87,0,0,0,.49-3.11C153,182.58,149.24,172.83,144.82,172.83Z"/>
          </g>
          <g>
            <path class="z" d="M150,189.86a15.29,15.29,0,0,1-4.69-4.38,6.28,6.28,0,0,1,2.64-4.74A12,12,0,0,1,151.4,179a31.92,31.92,0,0,1,2.6,7.28C154.51,188.94,153.28,191.38,150,189.86Z"/>
            <path class="c" d="M151.81,190.64a4.77,4.77,0,0,1-2-.5c-1.71-.78-3.56-2.87-4.8-4.47a.31.31,0,0,1-.07-.21,6.55,6.55,0,0,1,2.77-5,13,13,0,0,1,3.56-1.83.31.31,0,0,1,.36.16,32,32,0,0,1,2.63,7.36,4.4,4.4,0,0,1-.62,3.62A2.33,2.33,0,0,1,151.81,190.64Zm-6.2-5.26a14.15,14.15,0,0,0,4.5,4.2c1.38.64,2.47.58,3.1-.18a3.87,3.87,0,0,0,.49-3.11,31.54,31.54,0,0,0-2.46-7,12.26,12.26,0,0,0-3.13,1.66A5.87,5.87,0,0,0,145.61,185.38Z"/>
          </g>
          <g>
            <path class="z" d="M150.28,180.69c1.16,2.35,3.15,6.45,2.45,9.47,1.19-.54,1.6-2.19,1.27-3.92-.67-3.58-4.9-15.11-10.15-13.57C146.8,174.32,148.88,177.86,150.28,180.69Z"/>
            <path class="c" d="M152.73,190.47a.37.37,0,0,1-.2-.07.3.3,0,0,1-.1-.31c.69-3-1.34-7.06-2.43-9.26-1.28-2.59-3.33-6.23-6.3-7.89a.3.3,0,0,1-.15-.31.3.3,0,0,1,.21-.26,3.82,3.82,0,0,1,1.06-.15c5.16,0,8.93,11,9.48,14,.38,2-.19,3.69-1.44,4.26A.31.31,0,0,1,152.73,190.47Zm-8-17.63c2.75,1.88,4.64,5.25,5.86,7.72,1,2.09,2.89,5.84,2.6,8.9a3.85,3.85,0,0,0,.54-3.17C153,182.56,149.16,172.68,144.7,172.84Z"/>
          </g>
        </g>
        <g>
          <path class="aa" d="M138.39,158.46,132.51,160s4.14,5.64,13.58,8.8c0,0,7.27,1.51,10.16.74C156.25,169.56,153.14,157.08,138.39,158.46Z"/>
          <path class="c" d="M154.05,170.09h0a49.71,49.71,0,0,1-8-1c-9.45-3.17-13.71-8.87-13.75-8.93a.31.31,0,0,1-.05-.28.32.32,0,0,1,.21-.2l5.89-1.56c.81-.08,1.57-.12,2.29-.12,6.76,0,10.73,3.11,12.88,5.73a16,16,0,0,1,3.06,5.72.31.31,0,0,1-.22.37A9.25,9.25,0,0,1,154.05,170.09Zm-21-9.89a29.85,29.85,0,0,0,13.13,8.33,49.35,49.35,0,0,0,7.87.94h0a9.23,9.23,0,0,0,1.81-.14,16.24,16.24,0,0,0-2.87-5.2c-3.4-4.12-8.33-5.95-14.57-5.36Z"/>
        </g>
        <g>
          <path class="aa" d="M115.33,147.5l-3.1.54s4.11,8.19,17.34,10C129.57,158,125.61,148.05,115.33,147.5Z"/>
          <path class="c" d="M129.57,158.34h0a26.39,26.39,0,0,1-13.79-5.74,15.55,15.55,0,0,1-3.78-4.42.26.26,0,0,1,0-.27.3.3,0,0,1,.22-.17l3.1-.54c10.42.56,14.54,10.62,14.58,10.72a.34.34,0,0,1,0,.31A.3.3,0,0,1,129.57,158.34Zm-16.85-10.08c1,1.57,5.44,7.71,16.34,9.38-1-2-5.11-9.37-13.74-9.83Z"/>
        </g>
        <path class="c" d="M142.26,177.64h-.08c-13.87-1.85-28.75-15.89-30.46-19.26-1.92-3.78,7.17-9.64,8.21-10.29a.63.63,0,0,1,.86.19.62.62,0,0,1-.2.85c-3.57,2.25-8.83,6.59-7.77,8.7,1.59,3.14,16.31,16.82,29.52,18.59a.61.61,0,0,1,.53.69A.61.61,0,0,1,142.26,177.64Z"/>
        <path class="c" d="M135.91,170.28c-8,0-27.55-9.44-28.38-9.85a.62.62,0,1,1,.53-1.11c.21.1,20.17,9.71,27.84,9.71h.19c7.46-.17,15.9-6.58,16-6.65a.61.61,0,0,1,.86.11.62.62,0,0,1-.11.87c-.36.28-8.85,6.73-16.71,6.91Z"/>
        <g>
          <path class="x" d="M181,135.87s3.79,7.82-2.79,16.21-21.92,17.48-21.92,17.48-9.68-9.75-23.74-9.54l12.16-10.39-15.1,8.4s-9.92-9.59-17.34-10c0,0,17.29-10.55,34.87-12Z"/>
          <path class="c" d="M156.25,169.87a.31.31,0,0,1-.22-.09c-.09-.09-9.55-9.45-23.06-9.45h-.46a.3.3,0,0,1-.28-.2.29.29,0,0,1,.09-.34l9.81-8.39-12.41,6.9a.32.32,0,0,1-.36-.05c-.1-.09-9.93-9.51-17.15-9.9a.32.32,0,0,1-.28-.24.33.33,0,0,1,.14-.34c.17-.1,17.55-10.6,35-12.06l33.88-.15h0a.3.3,0,0,1,.27.17,13.94,13.94,0,0,1,1.11,5.08,17.16,17.16,0,0,1-3.92,11.46c-6.54,8.34-21.86,17.47-22,17.56A.29.29,0,0,1,156.25,169.87Zm-22.9-10.16c12.56.16,21.59,8.19,23,9.47,1.82-1.11,15.57-9.56,21.63-17.29,5.86-7.47,3.32-14.52,2.83-15.71l-33.66.15c-15.15,1.26-30.28,9.43-33.9,11.5,6.85,1,15.11,8.58,16.42,9.82l14.9-8.29a.31.31,0,0,1,.41.09.32.32,0,0,1-.06.41Z"/>
        </g>
        <g class="i">
          <path class="ab" d="M146.59,147.25c.13-.23-17,5.36-21,7.36,2.39,1.87,4,3.42,4,3.42l14.72-8.19A9.32,9.32,0,0,0,146.59,147.25Z"/>
        </g>
        <g class="i">
          <path class="ab" d="M181,135.87,147.1,136c-1.27.11-2.54.27-3.8.46a9.4,9.4,0,0,0,3.31,3.76,38,38,0,0,0,5,2.95,45.86,45.86,0,0,0,15.28,4.4c.52,0,1.12.54.88,1.14-2.64,6.44-9.66,10.82-15.31,14.44-.88.56-1.78,1.1-2.69,1.62a34.24,34.24,0,0,1,6.47,4.77s15.34-9.09,21.92-17.48S181,135.87,181,135.87Z"/>
        </g>
        <g>
          <path class="x" d="M174.25,154.58a26.31,26.31,0,0,0,5.49-8.47,21,21,0,0,0,1-8.87,10.27,10.27,0,0,0-.2-1.37l-5.46,0a16,16,0,0,0-1.08,2.81,29.37,29.37,0,0,0-.94,9.24A33,33,0,0,0,174.25,154.58Z"/>
          <path class="c" d="M174.25,154.89h-.07a.33.33,0,0,1-.23-.23A33.27,33.27,0,0,1,172.8,148a29.9,29.9,0,0,1,.94-9.34,17.13,17.13,0,0,1,1.1-2.86.31.31,0,0,1,.28-.18l5.46,0h0a.31.31,0,0,1,.3.24,11.11,11.11,0,0,1,.21,1.4,21.34,21.34,0,0,1-1.06,9,26.81,26.81,0,0,1-5.55,8.58A.29.29,0,0,1,174.25,154.89Zm1.07-18.69a15,15,0,0,0-1,2.59,29.18,29.18,0,0,0-.93,9.13,32.11,32.11,0,0,0,1,6,25.25,25.25,0,0,0,5-7.95,20.73,20.73,0,0,0,1-8.73c0-.33-.08-.68-.15-1.09Z"/>
        </g>
        <g>
          <path class="y" d="M166.15,141.07c5.1-.3,10.94-1.27,15.52-4,1.54-7.3.82-17.33.14-23.47-2.61-24-13.73-37.19-24.9-33.29-2.73,1-7.5,7.56-9.66,11.42,0,0-7.34,17.66-2.79,44.54C150.08,140.22,160,141.45,166.15,141.07Z"/>
          <path class="c" d="M163.92,141.45h0c-5.82,0-14.46-1.28-19.63-4.89a.28.28,0,0,1-.13-.2c-4.51-26.66,2.72-44.53,2.8-44.71,2-3.54,6.89-10.55,9.85-11.59a12.1,12.1,0,0,1,4-.69c10.51,0,19.08,13.76,21.32,34.24.75,6.87,1.33,16.54-.15,23.57a.3.3,0,0,1-.15.2c-3.85,2.26-9.12,3.61-15.65,4C165.45,141.43,164.7,141.45,163.92,141.45Zm-19.17-5.32c5.06,3.47,13.47,4.7,19.17,4.7h0c.76,0,1.51,0,2.21-.07,6.37-.38,11.5-1.67,15.27-3.85,1.43-6.93.85-16.45.1-23.24C179.34,93.84,170.83,80,160.8,80a11.47,11.47,0,0,0-3.79.67c-2.55.89-7.24,7.23-9.5,11.28C147.45,92.07,140.31,109.73,144.75,136.13Z"/>
        </g>
        <g class="p">
          <path class="ac" d="M181.81,113.64c-2.61-24-13.73-37.19-24.9-33.29-2.09.74-5.36,4.75-7.75,8.33a32.08,32.08,0,0,0,.16,4.5c.71,6.7,6.9,10.15,12.8,7.34-.27.12,4,22.47,4.09,25,.06,1.51-.31,15.56-1.07,15.57.34,0,.69,0,1,0,5.1-.3,10.94-1.27,15.52-4C183.21,129.81,182.49,119.78,181.81,113.64Z"/>
        </g>
        <g>
          <path class="n" d="M161.57,83.36c-4.26,1-7.51-.12-12,1.21.56,2.78.64,7.49,1.61,10.12a5.28,5.28,0,0,0,.83,1.45,4.05,4.05,0,0,0,6.72-.24,16,16,0,0,0,2-4.94C161.11,89.89,161.39,84.85,161.57,83.36Z"/>
          <path class="c" d="M155.37,98.13h0a4.64,4.64,0,0,1-3.56-1.79,5.35,5.35,0,0,1-.89-1.54,30,30,0,0,1-1.12-6.39c-.15-1.4-.29-2.73-.5-3.77a.31.31,0,0,1,.21-.36,22,22,0,0,1,6.64-.77,24.85,24.85,0,0,0,5.36-.46.32.32,0,0,1,.27.07.35.35,0,0,1,.1.27c-.06.51-.13,1.42-.22,2.47a42.57,42.57,0,0,1-.57,5.19l-.08.27a15.35,15.35,0,0,1-2,4.76A4.44,4.44,0,0,1,155.37,98.13ZM150,84.79c.18,1,.32,2.25.46,3.55a28.72,28.72,0,0,0,1.08,6.24,5,5,0,0,0,.78,1.37,4,4,0,0,0,3.09,1.56h0a3.87,3.87,0,0,0,3.14-1.79,15.32,15.32,0,0,0,1.91-4.58l.08-.26a47.41,47.41,0,0,0,.55-5.07c.06-.81.12-1.54.17-2.06a26.57,26.57,0,0,1-5.07.37A22.3,22.3,0,0,0,150,84.79Z"/>
        </g>
        <path class="c" d="M141.49,121.43c-4.26,0-8.17-.32-9.45-1.39-3.23-2.7.4-10.25.83-11.11a.62.62,0,0,1,1.1.56c-1,2.07-3.24,7.84-1.14,9.6s14.38,1.14,22.2.37a.64.64,0,0,1,.68.56.62.62,0,0,1-.56.67C154,120.81,147.4,121.43,141.49,121.43Z"/>
        <path class="c" d="M156.69,125.61a5.27,5.27,0,0,1-1.9-.36c-6-2.24-17.5-9.49-18-9.8a.63.63,0,0,1-.19-.85.64.64,0,0,1,.86-.2c.12.08,11.85,7.49,17.75,9.7,5.39,2,9.69-8.14,9.74-8.24a.6.6,0,0,1,.8-.34.62.62,0,0,1,.34.81C165.92,116.75,162.18,125.61,156.69,125.61Z"/>
        <g>
          <path class="ac" d="M144.19,105.8c0-.1,0-.2,0-.31a52.59,52.59,0,0,1,3.62-14.9,14.53,14.53,0,0,0-4.49,2.71c-4,3.12-9.92,12.27-11.7,15.11a26.9,26.9,0,0,0,11.49,8.16C143.28,113,143.7,109.38,144.19,105.8Z"/>
          <path class="c" d="M143.15,116.88l-.12,0a27.23,27.23,0,0,1-11.61-8.26.3.3,0,0,1,0-.35c1.73-2.77,7.69-12,11.77-15.2l.2-.15a14.31,14.31,0,0,1,4.38-2.61.32.32,0,0,1,.32.09.31.31,0,0,1,.06.33,52.28,52.28,0,0,0-3.59,14.82l0,.32c-.43,3.15-.89,6.88-1,10.73a.35.35,0,0,1-.14.25A.34.34,0,0,1,143.15,116.88ZM132,108.39a26.52,26.52,0,0,0,10.82,7.73c.16-3.72.6-7.31,1-10.35l.05-.32a53.42,53.42,0,0,1,3.36-14.33,15.54,15.54,0,0,0-3.54,2.27l-.2.16C139.63,96.57,133.89,105.44,132,108.39Z"/>
        </g>
        <g class="p">
          <path class="ac" d="M138.63,114.37a33.7,33.7,0,0,0,4.52,2.2c.13-3.6.55-7.19,1-10.77,0-.1,0-.2,0-.31a52.59,52.59,0,0,1,3.62-14.9,6.62,6.62,0,0,0-.62.24A48.59,48.59,0,0,0,138.63,114.37Z"/>
        </g>
        <g>
          <g>
            <path class="n" d="M198,44.77a33.47,33.47,0,0,1,.33,7.58,40.83,40.83,0,0,1-3.18,13.18c-3.75,8.51-8.78,16.82-17.08,21.12-16.16,8.4-41.37,8.73-53.19-3.1-15.13-15.15-15.38-36.44-3.2-53C130.91,18,144.9,9.2,160.84,10.72A39.47,39.47,0,0,1,174,14.29C186,20.27,195.94,31.46,198,44.77Z"/>
            <path class="c" d="M151.92,93c-11.59,0-21.25-3.29-27.22-9.26-14.64-14.66-15.94-36.13-3.23-53.43,9.38-12.77,22.43-20.1,35.8-20.1q1.8,0,3.6.18A39.07,39.07,0,0,1,174.16,14c12.94,6.45,22.21,18.22,24.19,30.71a34.35,34.35,0,0,1,.33,7.65,41.44,41.44,0,0,1-3.2,13.28c-3.29,7.45-8.22,16.6-17.23,21.28A58.89,58.89,0,0,1,151.92,93Zm5.35-82.17c-13.17,0-26,7.24-35.3,19.85-12.52,17-11.25,38.19,3.17,52.62,5.85,5.86,15.36,9.08,26.78,9.08a58.38,58.38,0,0,0,26.05-6c8.83-4.59,13.69-13.62,16.94-21a40.47,40.47,0,0,0,3.15-13.07,32.68,32.68,0,0,0-.33-7.52c-1.94-12.29-11.07-23.88-23.84-30.25A38.89,38.89,0,0,0,160.81,11C159.64,10.92,158.44,10.86,157.27,10.86Z"/>
          </g>
          <g class="p">
            <path class="n" d="M198,44.77c-2.1-13.31-12-24.5-24-30.48a39.47,39.47,0,0,0-13.18-3.57C144.9,9.2,130.91,18,121.72,30.53A42.72,42.72,0,0,0,113,56a36.14,36.14,0,0,1,5.66-2.43c3.3-.94,6.78-2.17,10.26-1.86.77.07-1.35,3.73-2.33,4.85C142.27,58.7,151,50.18,151,50.79c.48,4.41,4.43,10.47,8.4,14.13.62-1.43,1.23-2.86,1.85-4.28.3-.7,6.57,14.25,4.17,20.84-2.3,6.31-9,9.89-15.24,11-.34.07-.68.11-1,.16a58.77,58.77,0,0,0,28.94-6c8.3-4.3,13.33-12.61,17.08-21.12a40.83,40.83,0,0,0,3.18-13.18A33.47,33.47,0,0,0,198,44.77Z"/>
          </g>
          <g>
            <path class="ad" d="M116.61,37.37s-4.51,4.28-4.11,14.05c0,0,4.54-6.31,9.41-8.56,0,0-2.3.89-3.9,8.15,0,0,18.08-4.6,22.27-8a22.52,22.52,0,0,1-7.75,7.8s12.67,1.39,20.27-5c0,0,.53,8.77,9,12.24l.17-6.9s24.29,15.76,12.22,37.34c0,0,17.31-5.82,20.26-18.5C197,59,178.58,18.74,154.5,16.07S116.61,37.37,116.61,37.37Z"/>
            <path class="c" d="M174.16,88.78a.31.31,0,0,1-.27-.46c10.86-19.41-8.37-34.26-11.66-36.6L162.08,58a.31.31,0,0,1-.14.25.33.33,0,0,1-.29,0c-7.26-3-8.79-9.9-9.09-11.94-5.36,4.19-12.92,4.82-17,4.82a29.1,29.1,0,0,1-3-.13.29.29,0,0,1-.26-.24.3.3,0,0,1,.15-.33,22.23,22.23,0,0,0,6.84-6.44c-5.64,3.27-20.45,7.07-21.13,7.24a.28.28,0,0,1-.29-.08.3.3,0,0,1-.09-.28,20.21,20.21,0,0,1,2.5-6.77,35,35,0,0,0-7.46,7.42.3.3,0,0,1-.34.12.31.31,0,0,1-.22-.28c-.39-9.48,3.73-13.82,4.18-14.26.61-1,13.14-21.63,34.4-21.63a34,34,0,0,1,3.76.21c12.66,1.4,22.6,13,27.4,19.78,8.49,12,14.35,27.82,12.79,34.51-3,12.7-20.29,18.66-20.46,18.72ZM161.94,50.83a.34.34,0,0,1,.17.05c.24.16,23.85,15.81,12.71,37,3.36-1.3,16.77-7.13,19.3-18,1.36-5.83-3.41-20.9-12.7-34-4.74-6.71-14.54-18.15-27-19.53a35.24,35.24,0,0,0-3.69-.2c-21.34,0-33.76,21.14-33.89,21.36a.15.15,0,0,1,0,.06s-4.14,4.06-4,12.94c1.34-1.72,5-6.08,8.95-7.93l.17.26.13.28c-.25.13-2.18,1.26-3.62,7.45,2.92-.77,18-4.82,21.67-7.85a.32.32,0,0,1,.39,0,.32.32,0,0,1,.07.39,22.85,22.85,0,0,1-7,7.42c.51,0,1.21.05,2,.05,4.13,0,11.83-.66,17.06-5a.31.31,0,0,1,.32,0,.28.28,0,0,1,.18.26c0,.09.61,8.33,8.37,11.8l.16-6.44a.3.3,0,0,1,.17-.27A.33.33,0,0,1,161.94,50.83Z"/>
          </g>
          <g class="p">
            <path class="ae" d="M140,43.22l.32-.24s-.05.1-.16.28a121.8,121.8,0,0,1,12.08,3l.6-.47s0,.26.08.69c3.15,1,6.26,2,9.31,3.18,7.95,3,15.7,6.54,21.75,12.68a54.09,54.09,0,0,1,8.82,12A17.12,17.12,0,0,0,194.42,70C197,59,178.58,18.74,154.5,16.07s-37.89,21.3-37.89,21.3a13.74,13.74,0,0,0-2.85,4.94A77.46,77.46,0,0,1,140,43.22Z"/>
          </g>
          <g>
            <g>
              <path class="n" d="M174,82.17c12.36-.15,17.11-13.64,10.54-15.27-5.16-1.28-9.31,2.83-9.31,2.83s-4.68,5-4,9.61a3,3,0,0,0,1.47,2.3Z"/>
              <g class="p">
                <path class="n" d="M174,82.17c12.36-.15,17.11-13.64,10.54-15.27-5.16-1.28-9.31,2.83-9.31,2.83s-4.68,5-4,9.61a3,3,0,0,0,1.47,2.3Z"/>
              </g>
              <path class="c" d="M174,82.48a.31.31,0,0,1-.31-.3.32.32,0,0,1,.31-.32c8.18-.09,12.68-6.09,13.14-10.12.28-2.36-.72-4-2.68-4.54-4.91-1.22-9,2.71-9,2.75a.31.31,0,0,1-.44,0,.31.31,0,0,1,0-.44c.18-.16,4.34-4.21,9.6-2.9,2.29.57,3.46,2.52,3.15,5.21a11.7,11.7,0,0,1-4,7A14.7,14.7,0,0,1,174,82.48Z"/>
            </g>
            <g>
              <path class="c" d="M175.23,77.15a.3.3,0,0,1-.11-.37c.06-.16,1.65-4,5.23-4.48a3.34,3.34,0,0,1,2.84.65,2.48,2.48,0,0,1,.68,1.91.31.31,0,0,1-.34.28.31.31,0,0,1-.28-.34,1.94,1.94,0,0,0-.5-1.41,2.74,2.74,0,0,0-2.31-.47c-3.23.42-4.73,4-4.75,4.09a.3.3,0,0,1-.4.17Z"/>
              <path class="c" d="M178.19,76.65a2.08,2.08,0,0,1-.77-1,2.69,2.69,0,0,1,.58-2.47.32.32,0,0,1,.52.37,2.12,2.12,0,0,0-.52,1.88,2,2,0,0,0,1.25,1,.31.31,0,0,1-.15.61A3.05,3.05,0,0,1,178.19,76.65Z"/>
            </g>
          </g>
          <g>
            <g>
              <path class="af" d="M163.56,6.64A46,46,0,0,1,169.33,8c1.17.65,18,10.33,19.54,31.49a55.63,55.63,0,0,1-3.17,21.77c-7.06-6.54-15.73-11.12-24.54-14.33C169.28,23,166,11.31,163.56,6.64Z"/>
              <path class="c" d="M185.7,61.56a.32.32,0,0,1-.21-.08c-6.34-5.88-14.56-10.68-24.44-14.27a.32.32,0,0,1-.19-.39c8-23.66,5-35.24,2.43-40a.3.3,0,0,1,0-.33.28.28,0,0,1,.3-.12,45.3,45.3,0,0,1,5.81,1.36c1.92,1,18.25,10.69,19.76,31.76A55.66,55.66,0,0,1,186,61.35a.32.32,0,0,1-.21.2ZM161.55,46.74c9.64,3.53,17.72,8.23,24,14a54.71,54.71,0,0,0,3-21.2C187.05,18.4,169.9,8.67,169.18,8.26a46.07,46.07,0,0,0-5.06-1.21C166.63,12.22,169.24,23.9,161.55,46.74Z"/>
            </g>
            <g>
              <path class="af" d="M114.79,39.56c1.83-20,18.5-31.76,36.58-33.39C146.73,7.27,127,13.4,120.5,39.59,116.91,39.48,114.79,39.56,114.79,39.56Z"/>
              <path class="c" d="M120.5,39.9h0c-1.27,0-2.5-.06-3.65-.06-1.31,0-2,0-2,0a.28.28,0,0,1-.24-.1.3.3,0,0,1-.08-.24,34.76,34.76,0,0,1,12.3-23.78,44.25,44.25,0,0,1,24.57-9.88.28.28,0,0,1,.33.25.3.3,0,0,1-.24.35c-4,.94-24.14,7-30.64,33.19A.31.31,0,0,1,120.5,39.9Zm-3.66-.68c1.08,0,2.23,0,3.42.06C125.73,17.59,140.45,9.63,147.77,7c-15.45,2.63-30.72,13.22-32.64,32.29Z"/>
            </g>
            <g>
              <path class="w" d="M188.87,39.48C187.36,18.32,170.5,8.64,169.33,8a41.56,41.56,0,0,1,18.36,11.34c22.65,24.38,6.46,52.05,6.46,52.05a50.33,50.33,0,0,0-8.45-10.13A55.63,55.63,0,0,0,188.87,39.48Z"/>
              <path class="c" d="M194.15,71.69a.31.31,0,0,1-.26-.14,50.18,50.18,0,0,0-8.4-10.07.32.32,0,0,1-.08-.33,55,55,0,0,0,3.15-21.65C187.05,18.4,169.9,8.67,169.18,8.26a.31.31,0,0,1-.14-.39.32.32,0,0,1,.38-.17,41.92,41.92,0,0,1,18.49,11.42c22.55,24.27,6.67,52.14,6.51,52.42A.39.39,0,0,1,194.15,71.69Zm-8.09-10.53a50.71,50.71,0,0,1,8.07,9.61c1.93-3.67,14-29-6.67-51.23A41.11,41.11,0,0,0,171.71,9.12a40.38,40.38,0,0,1,17.47,30.34A55.87,55.87,0,0,1,186.06,61.16Z"/>
            </g>
            <g>
              <path class="w" d="M151.37,6.17a47.89,47.89,0,0,1,12.19.47c2.48,4.67,5.72,16.37-2.4,40.28-15.89-5.77-32.27-7.07-40.66-7.33C127,13.4,146.73,7.27,151.37,6.17Z"/>
              <path class="c" d="M161.16,47.23l-.11,0c-15.86-5.76-32.22-7.05-40.56-7.31a.33.33,0,0,1-.24-.12.36.36,0,0,1,0-.27c6.59-26.59,27.06-32.68,31.1-33.64a47.23,47.23,0,0,1,12.32.47.27.27,0,0,1,.21.15c2.59,4.89,5.73,16.65-2.38,40.53a.31.31,0,0,1-.16.18A.28.28,0,0,1,161.16,47.23ZM120.9,39.3c8.43.28,24.46,1.61,40.07,7.22,7.83-23.24,4.91-34.75,2.39-39.6a47.36,47.36,0,0,0-12-.44C147.49,7.41,127.49,13.36,120.9,39.3Z"/>
            </g>
          </g>
          <g>
            <path class="ad" d="M148.25,39.52A56,56,0,0,0,124.73,36s2-11.43,13-11.32C149.88,24.76,149.52,37,148.25,39.52Z"/>
            <path class="c" d="M148.25,39.83l-.12,0A54.84,54.84,0,0,0,128,36.19c-1.07,0-2.15,0-3.21.09a.32.32,0,0,1-.25-.11.33.33,0,0,1-.07-.26c0-.11,2.14-11.58,13.15-11.58h.15c4.41,0,7.74,1.71,9.65,4.82,2.34,3.81,2,8.79,1.15,10.51A.31.31,0,0,1,148.25,39.83ZM128,35.57a56.82,56.82,0,0,1,20.13,3.55,12.66,12.66,0,0,0-1.23-9.64c-1.82-3-4.89-4.49-9.13-4.54h-.15c-9.37,0-12,8.75-12.46,10.7C126.06,35.59,127,35.57,128,35.57Z"/>
          </g>
          <g class="p">
            <path class="ae" d="M148.25,39.52A56,56,0,0,0,124.73,36s2-11.43,13-11.32C149.88,24.76,149.52,37,148.25,39.52Z"/>
          </g>
        </g>
        <g>
          <path class="ac" d="M165.7,117.31a24.55,24.55,0,0,0,6.37,1.19,57.87,57.87,0,0,0,2.59-8.63c.88-4.09,2.36-8.71,1.18-12.88-.91-3.2-3.89-6.64-7.46-4.34-4.79,3.12-7.19,9.22-9.22,14.31-.14.34-1.29,2.94-2,4.84A20.93,20.93,0,0,0,165.7,117.31Z"/>
          <path class="c" d="M172.07,118.81h0a24.58,24.58,0,0,1-6.45-1.2,21.12,21.12,0,0,1-8.68-5.59.3.3,0,0,1-.07-.32c.55-1.46,1.34-3.29,1.76-4.28.13-.29.22-.5.25-.58l0-.13c2-5,4.47-11.18,9.3-14.31a4.5,4.5,0,0,1,2.49-.8c2.7,0,4.7,2.74,5.43,5.3,1,3.61.13,7.41-.73,11.09-.15.66-.31,1.31-.44,2a60.4,60.4,0,0,1-2.61,8.67A.29.29,0,0,1,172.07,118.81Zm-14.56-7.08a20.49,20.49,0,0,0,8.28,5.29,24.65,24.65,0,0,0,6.07,1.17,57.82,57.82,0,0,0,2.5-8.38c.14-.64.29-1.3.45-2,.83-3.6,1.71-7.33.73-10.77-.68-2.43-2.56-4.87-4.83-4.87a4,4,0,0,0-2.16.7c-4.66,3-7,8.88-9.05,14l-.06.13c0,.09-.12.3-.25.6C158.78,108.61,158,110.32,157.51,111.73Z"/>
        </g>
        <g class="p">
          <path class="ac" d="M175.84,97c-.91-3.2-3.89-6.64-7.46-4.34l0,0a5,5,0,0,1,3.13,3c1.33,3-.09,7.33-1.11,10.18-1.38,3.88-2.92,7.71-4.4,11.54a24,24,0,0,0,6.1,1.11,57.87,57.87,0,0,0,2.59-8.63C175.54,105.78,177,101.16,175.84,97Z"/>
        </g>
        <g>
          <g>
            <path class="n" d="M158.1,115.72l1.83-.71s7.39.49,9.15,3.13.87,4-.61,3.42-5-3.9-5-3.9Z"/>
            <path class="c" d="M169.11,122a2,2,0,0,1-.76-.16c-1.44-.57-4.61-3.5-5-3.91L158,116a.34.34,0,0,1-.21-.29.3.3,0,0,1,.2-.29l1.83-.7a.19.19,0,0,1,.13,0c.31,0,7.56.53,9.38,3.27.95,1.42,1.26,2.66.86,3.41A1.17,1.17,0,0,1,169.11,122ZM159,115.71l4.58,1.66a.21.21,0,0,1,.1.06s3.5,3.28,4.91,3.84c.5.2.9.14,1.06-.18s.13-1.36-.82-2.78c-1.57-2.36-8.11-2.93-8.85-3Z"/>
          </g>
          <g>
            <g>
              <path class="n" d="M151,119.21c.29-1.28,2-2.5,3.1-3,3.45-1.69,8.56-1.78,11.22,1.43a10.49,10.49,0,0,1,1.83,3.84c.1.38.46,1.55.08,2a1.2,1.2,0,0,1-2-.26s-1.92-4.12-3-4.61c0,0,2.43,4.15,2,5.52-1.14,3.56-3-4.4-4.88-4.93a6.17,6.17,0,0,1,.86,3.47s-.26,2-1.54,1.21-.83-3.69-2.81-3.84c-1.32-.1-2.63.91-4,.72C151,120.56,150.78,120,151,119.21Z"/>
              <path class="c" d="M163.5,125.27c-.69,0-1.27-1-2.13-2.76a21.58,21.58,0,0,0-1.15-2.08,6.47,6.47,0,0,1,.27,2.18c-.09.64-.45,1.7-1.29,1.7a1.33,1.33,0,0,1-.73-.26,3.5,3.5,0,0,1-1.18-2c-.35-1.08-.63-1.73-1.5-1.8a4.75,4.75,0,0,0-1.76.35,4.86,4.86,0,0,1-2.27.37,1.34,1.34,0,0,1-.95-.52,1.64,1.64,0,0,1-.14-1.32c.33-1.47,2.21-2.73,3.26-3.25a12.13,12.13,0,0,1,5.18-1.19,8.11,8.11,0,0,1,6.42,2.7,11.08,11.08,0,0,1,1.89,4l0,.11c.23.85.39,1.7,0,2.14a1.62,1.62,0,0,1-1.18.53,1.51,1.51,0,0,1-1.34-.85c-.24-.51-.55-1.13-.88-1.74a4.6,4.6,0,0,1,.45,2.59C164.33,124.63,164.06,125.27,163.5,125.27Zm-4.19-6.46h.09c.92.27,1.73,1.86,2.52,3.4.49,1,1.23,2.43,1.58,2.43,0,0,.18,0,.39-.69.29-.9-1-3.72-1.95-5.28a.3.3,0,0,1,0-.36.33.33,0,0,1,.36-.08c1.13.53,2.93,4.34,3.13,4.78a.94.94,0,0,0,1.52.17c.1-.11.17-.48-.13-1.56l0-.11a10.25,10.25,0,0,0-1.77-3.72,7.48,7.48,0,0,0-5.94-2.48,11.29,11.29,0,0,0-4.9,1.13c-1,.5-2.68,1.67-2.94,2.83a1.13,1.13,0,0,0,0,.83.78.78,0,0,0,.53.26,4.41,4.41,0,0,0,2-.34,4.93,4.93,0,0,1,2-.38c1.33.1,1.7,1.23,2,2.21a3,3,0,0,0,.93,1.67.69.69,0,0,0,.39.16c.43,0,.64-.9.67-1.14a5.91,5.91,0,0,0-.81-3.24.33.33,0,0,1,0-.37A.33.33,0,0,1,159.31,118.81Z"/>
            </g>
            <g>
              <path class="f" d="M159.94,116.81a3.6,3.6,0,0,1,2.26,1.72C163,119.84,159.94,116.81,159.94,116.81Z"/>
              <path class="c" d="M162.2,118.83a.31.31,0,0,1-.26-.14,3.33,3.33,0,0,0-2.05-1.58.32.32,0,0,1-.26-.35.32.32,0,0,1,.36-.26,4,4,0,0,1,2.48,1.86.32.32,0,0,1-.1.43A.33.33,0,0,1,162.2,118.83Z"/>
            </g>
            <g>
              <path class="f" d="M157.53,117.9a2.47,2.47,0,0,1,1.78,1.22C160.08,120.18,157.53,117.9,157.53,117.9Z"/>
              <path class="c" d="M159.31,119.43a.32.32,0,0,1-.25-.12c-.77-1.07-1.51-1.1-1.54-1.1a.32.32,0,0,1-.3-.32.3.3,0,0,1,.31-.3h0a2.79,2.79,0,0,1,2,1.35.31.31,0,0,1-.07.43A.25.25,0,0,1,159.31,119.43Z"/>
            </g>
          </g>
        </g>
        <g>
          <g>
            <path class="n" d="M135.78,112.9l-1.36-1s-6.25-1.24-8.3.57-1.61,3.13-.24,3,5-2.13,5-2.13Z"/>
            <path class="c" d="M125.66,115.77a1.17,1.17,0,0,1-1.18-.7c-.28-.75.24-1.78,1.44-2.83.8-.7,2.23-1.06,4.26-1.06a23.22,23.22,0,0,1,4.3.43.21.21,0,0,1,.12,0l1.36,1a.3.3,0,0,1-.16.55l-4.81.42c-.49.26-3.75,2-5.07,2.14Zm4.52-4c-1.85,0-3.18.31-3.85.9-1.15,1-1.4,1.79-1.27,2.15s.42.3.6.3h.18c1.29-.15,4.87-2.07,4.91-2.09l.12,0,4.06-.35-.64-.46A24.43,24.43,0,0,0,130.18,111.8Z"/>
          </g>
          <g>
            <g>
              <path class="n" d="M140.93,117.38c0-1.13-1.1-2.51-1.9-3.21-2.5-2.17-6.71-3.37-9.64-1.3a8.93,8.93,0,0,0-2.37,2.78c-.16.29-.73,1.18-.5,1.61a1,1,0,0,0,1.73.24s2.51-3,3.5-3.18c0,0-2.94,2.91-2.87,4.15.15,3.2,3.46-3,5.14-3a5.29,5.29,0,0,0-1.49,2.69s-.23,1.75,1,1.33,1.52-2.87,3.19-2.56c1.13.22,2,1.35,3.18,1.49C140.6,118.5,140.9,118.07,140.93,117.38Z"/>
              <path class="c" d="M133.2,119.86a.87.87,0,0,1-.68-.3,2.14,2.14,0,0,1-.3-1.45,5.63,5.63,0,0,1,.58-1.55c-.41.39-.83.86-1.21,1.28-1,1.16-1.69,1.86-2.26,1.86s-.72-.41-.76-1.22a3,3,0,0,1,.62-1.59c-.26.28-.5.56-.7.8a1.37,1.37,0,0,1-2.25-.28c-.25-.49.08-1.17.47-1.84l0-.07a9.43,9.43,0,0,1,2.46-2.89,6.3,6.3,0,0,1,3.73-1.12,10.07,10.07,0,0,1,6.29,2.45c.76.66,2.05,2.14,2,3.45s-.83,1.34-1.16,1.34h-.21a4.23,4.23,0,0,1-1.82-.81,4,4,0,0,0-1.38-.68c-.75-.15-1.13.44-1.58,1.14a3.09,3.09,0,0,1-1.45,1.41A1.52,1.52,0,0,1,133.2,119.86Zm.82-4.71a.32.32,0,0,1,.29.2.31.31,0,0,1-.09.34,5,5,0,0,0-1.39,2.52,1.49,1.49,0,0,0,.16,1q.13.15.45,0a2.59,2.59,0,0,0,1.13-1.16c.49-.76,1.05-1.62,2.22-1.41a4.65,4.65,0,0,1,1.6.77,3.9,3.9,0,0,0,1.55.72h.14c.15,0,.51,0,.54-.74,0-1-1.06-2.32-1.8-3a9.43,9.43,0,0,0-5.88-2.29,5.71,5.71,0,0,0-3.37,1,8.56,8.56,0,0,0-2.28,2.69l-.05.07c-.5.86-.5,1.14-.45,1.24a.76.76,0,0,0,1.24.17c.42-.51,2.62-3.09,3.66-3.28a.33.33,0,0,1,.33.16.32.32,0,0,1-.05.37c-1.1,1.09-2.83,3.12-2.79,3.91,0,.54.15.63.15.63.32,0,1.18-1,1.8-1.65,1.05-1.17,2-2.27,2.89-2.28Z"/>
            </g>
            <g>
              <path class="f" d="M134,113.4a3.09,3.09,0,0,0-2.26.92C130.78,115.23,134,113.4,134,113.4Z"/>
              <path class="c" d="M131.75,114.63a.3.3,0,0,1-.23-.1.31.31,0,0,1,0-.44,3.37,3.37,0,0,1,2.5-1,.32.32,0,0,1,.28.34.31.31,0,0,1-.34.28,2.76,2.76,0,0,0-2,.83A.29.29,0,0,1,131.75,114.63Z"/>
            </g>
            <g>
              <path class="f" d="M135.77,114.84a2.12,2.12,0,0,0-1.75.62C133.15,116.17,135.77,114.84,135.77,114.84Z"/>
              <path class="c" d="M134,115.77a.3.3,0,0,1-.24-.12.3.3,0,0,1,0-.43,2.43,2.43,0,0,1,2-.68.3.3,0,0,1,.22.37.31.31,0,0,1-.37.23,1.88,1.88,0,0,0-1.49.56A.34.34,0,0,1,134,115.77Z"/>
            </g>
          </g>
        </g>
        <path d="M125.5,67.25c.15,1.55-.56,2.89-1.59,3s-2-1.08-2.13-2.63.56-2.89,1.59-3S125.35,65.7,125.5,67.25Z"/>
        <path d="M154.47,68.15c.15,1.55-.56,2.89-1.59,3s-2-1.08-2.13-2.62.56-2.89,1.58-3S154.32,66.6,154.47,68.15Z"/>
        <g>
          <g>
            <path class="l" d="M132.7,84.82s4.38,5.82,13.46,6,10.45-7.46,10.45-7.46L133,84.82Z"/>
            <path class="c" d="M146.42,91.1h-.26A18.15,18.15,0,0,1,132.45,85a.33.33,0,0,1,.06-.44.35.35,0,0,1,.33,0,.21.21,0,0,1,.12,0L156.59,83a.27.27,0,0,1,.24.1.33.33,0,0,1,.08.26C156.9,83.46,155.43,91.1,146.42,91.1Zm-13.07-6a17.92,17.92,0,0,0,12.82,5.37h.25c7.43,0,9.38-5.3,9.79-6.82Z"/>
          </g>
          <g>
            <path class="ag" d="M142.41,90.37a20.47,20.47,0,0,0,3.75.42c9.09.14,10.45-7.46,10.45-7.46l-5.84.37C149.06,84.43,144,87.45,142.41,90.37Z"/>
            <path class="c" d="M146.42,91.1h-.26a20.79,20.79,0,0,1-3.81-.43.3.3,0,0,1-.21-.17.31.31,0,0,1,0-.28c1.57-2.92,6.65-6,8.5-6.81l.11,0,5.83-.37a.27.27,0,0,1,.24.1.33.33,0,0,1,.08.26C156.9,83.46,155.43,91.1,146.42,91.1Zm-3.52-.95a20.14,20.14,0,0,0,3.27.33h.25c7.34,0,9.36-5.32,9.78-6.82l-5.35.34C149.09,84.77,144.6,87.49,142.9,90.15Z"/>
          </g>
          <g>
            <path class="f" d="M156.42,84a5.94,5.94,0,0,0,.19-.68l-20.78,1.31C141.11,88.26,150.46,87.16,156.42,84Z"/>
            <path class="c" d="M144.48,87.21h0a15.6,15.6,0,0,1-8.83-2.32.3.3,0,0,1-.12-.33.32.32,0,0,1,.28-.23L156.59,83a.27.27,0,0,1,.24.1.33.33,0,0,1,.08.26,6.28,6.28,0,0,1-.19.72.32.32,0,0,1-.15.19A27.19,27.19,0,0,1,144.48,87.21Zm-7.66-2.32a15.86,15.86,0,0,0,7.66,1.71,26.52,26.52,0,0,0,11.68-2.8s0-.1.05-.14Z"/>
          </g>
        </g>
      </g>
    </g>
  </g>
</svg>
