<svg xmlns="http://www.w3.org/2000/svg" width="195.97" height="172.35" viewBox="0 0 195.97 172.35">
  <defs>
    <style>
      .a, .b {
        fill: none;
        stroke: #543522;
        stroke-linecap: round;
        stroke-linejoin: round;
        stroke-width: 2.16px;
      }

      .b {
        stroke-dasharray: 0 5.4;
      }

      .c {
        fill: #eb642b;
      }

      .d {
        fill: #eb734f;
      }

      .e {
        fill: #93c01f;
      }

      .f {
        fill: #00b0c2;
      }

      .g {
        fill: #e64645;
      }

      .h {
        fill: #f5f5f5;
      }

      .i {
        fill: #fff;
      }

      .j {
        fill: #f29100;
      }

      .k {
        fill: #f1f1df;
      }

      .l {
        fill: #383b4e;
      }

      .m {
        fill: #2c2e3d;
      }

      .n {
        fill: #fd0;
      }

      .o {
        fill: #981638;
      }
    </style>
  </defs>
  <g>
    <g>
      <line class="a" x1="50.84" y1="163.05" x2="50.84" y2="163.05"/>
      <path class="b" d="M48.48,161.22A80.83,80.83,0,1,1,152.24,159"/>
      <line class="a" x1="151.1" y1="159.93" x2="151.1" y2="159.93"/>
    </g>
    <path class="c" d="M41.76,109.37A20.88,20.88,0,1,1,20.88,88.49,20.88,20.88,0,0,1,41.76,109.37Z"/>
    <path class="d" d="M52,47.59A20.88,20.88,0,1,1,31.08,26.7,20.88,20.88,0,0,1,52,47.59Z"/>
    <circle class="e" cx="99.86" cy="20.88" r="20.88" transform="translate(56.59 113.27) rotate(-76.72)"/>
    <path class="f" d="M181.13,47.59A20.89,20.89,0,1,1,160.25,26.7,20.88,20.88,0,0,1,181.13,47.59Z"/>
    <path class="g" d="M196,109.37a20.88,20.88,0,1,1-20.88-20.88A20.88,20.88,0,0,1,196,109.37Z"/>
    <g>
      <path class="h" d="M43.24,44.38a1.14,1.14,0,0,0,0-.33,1.37,1.37,0,0,0-2.5-.76l-.9-.3c1.9-3.94,2.34-7.15.84-8.31a2.27,2.27,0,0,0-1.44-.45c-1.72,0-4.23,1.42-6.87,3.77a24.81,24.81,0,0,0-2-2.62,1.39,1.39,0,0,0,.12-.55,1.37,1.37,0,0,0-1.37-1.36,1.39,1.39,0,0,0-.6.14,4.34,4.34,0,0,0-2.51-1.07,2.15,2.15,0,0,0-.8.15c-1.81.76-2.19,4.19-1.25,8.74-4.71.49-7.77,1.92-7.93,3.87-.12,1.44,1.37,2.9,4.2,4.11a26.65,26.65,0,0,0,2.75,1c-.24.51-.45,1-.64,1.49a1.27,1.27,0,0,0-.28,0,1.37,1.37,0,0,0-.53,2.63c-.39,1.91-.15,3.3.73,4a2.3,2.3,0,0,0,1.43.44c1.6,0,3.87-1.22,6.3-3.27,2.12,3.07,4.31,5,6,5a1.94,1.94,0,0,0,.8-.16c1.22-.5,1.79-2.21,1.75-4.65a1.36,1.36,0,0,0-.24-2.68c-.07-.45-.16-.92-.26-1.4,4.71-.49,7.77-1.93,7.94-3.87C46.15,46.63,45.16,45.44,43.24,44.38Zm-4-9.47a1.63,1.63,0,0,1,1,.31c1.13.87.79,3.76-1.08,7.56a36.16,36.16,0,0,0-4.66-1c-.57-1.14-1.17-2.2-1.78-3.17C35.33,36.32,37.72,34.91,39.29,34.91Zm-4.2,14.4c-.5.65-1,1.27-1.54,1.87-.94,0-1.89-.06-2.85-.14s-1.79-.18-2.66-.31c-.39-.78-.76-1.6-1.11-2.44-.28-.67-.53-1.32-.77-2,.57-.84,1.17-1.69,1.82-2.52.49-.64,1-1.26,1.51-1.85.65,0,1.31.06,2,.12.9.07,1.79.18,2.66.3.38.79.76,1.61,1.11,2.45s.76,1.92,1.07,2.84C35.92,48.21,35.52,48.75,35.09,49.31Zm1.48-.84c.28.91.52,1.78.71,2.61-.89.07-1.84.11-2.84.11.4-.47.8-1,1.19-1.46ZM33,51.85a37,37,0,0,1-2.74,2.73,35.93,35.93,0,0,1-1.8-3.11c.73.1,1.47.18,2.22.25S32.19,51.83,33,51.85ZM27.22,50.6c-1.11-.18-2.18-.41-3.18-.67.48-.94,1-1.91,1.66-2.89.19.5.39,1,.6,1.51C26.59,49.26,26.9,49.94,27.22,50.6Zm-1.34-5.07c-.42-1.23-.75-2.4-1-3.49.93-.08,1.93-.12,3-.12h.79c-.4.47-.8,1-1.18,1.46C26.89,44.1,26.37,44.81,25.88,45.53Zm4.19-4.23c.73-.8,1.47-1.56,2.2-2.24.5.8,1,1.67,1.47,2.58-.73-.1-1.47-.18-2.23-.24Zm5.79,3.26c-.3-.7-.6-1.39-.92-2.05a37.81,37.81,0,0,1,4,.89A36.55,36.55,0,0,1,36.78,47C36.5,46.18,36.2,45.38,35.86,44.56ZM25.56,33.32a1.32,1.32,0,0,1,.53-.1,3.57,3.57,0,0,1,2,.84,1.31,1.31,0,0,0-.25.77A1.37,1.37,0,0,0,30,35.93a27.07,27.07,0,0,1,1.89,2.54c-.9.84-1.81,1.78-2.71,2.79l-1.36,0c-1.09,0-2.13,0-3.11.12C23.79,37,24.19,33.89,25.56,33.32Zm-5,15.46c-2.5-1.07-3.89-2.32-3.79-3.43.13-1.57,3.08-2.81,7.4-3.25a37.7,37.7,0,0,0,1.22,4.14,35.12,35.12,0,0,0-2,3.51A23.84,23.84,0,0,1,20.58,48.78Zm3.19,9.42a1.6,1.6,0,0,1-1-.3c-.67-.52-.83-1.7-.47-3.35a1.36,1.36,0,0,0,1.22-1.35,1.35,1.35,0,0,0-.48-1c.2-.53.44-1.06.7-1.61a37.34,37.34,0,0,0,3.85.79A36,36,0,0,0,29.69,55C27.37,57,25.22,58.2,23.77,58.2Zm13.93-5a1.35,1.35,0,0,0-.79,1.23,1.38,1.38,0,0,0,1,1.32c0,2.19-.45,3.65-1.34,4a1.41,1.41,0,0,1-.54.11c-1.45,0-3.48-1.85-5.46-4.75a36.12,36.12,0,0,0,3.26-3.28h.46c1.1,0,2.14-.05,3.12-.13C37.54,52.26,37.63,52.75,37.7,53.22Zm7.67-5.46c-.14,1.58-3.08,2.81-7.4,3.25-.24-1-.55-2.11-.91-3.23a37.72,37.72,0,0,0,2.52-4.18c.34.11.67.22,1,.34,0,0,0,.08,0,.11a1.36,1.36,0,0,0,2.36.93C44.56,45.89,45.44,46.87,45.37,47.76Z"/>
      <path class="h" d="M31.08,45.19a1.37,1.37,0,1,0,1.36,1.37A1.37,1.37,0,0,0,31.08,45.19Z"/>
    </g>
    <g>
      <path class="i" d="M171.88,36.45H148.61a.81.81,0,0,0-.82.82V51.8a.82.82,0,0,0,.82.82h23.27a.82.82,0,0,0,.82-.82V37.27A.81.81,0,0,0,171.88,36.45Zm-11.64.45a.37.37,0,0,1,.37.37.37.37,0,0,1-.73,0A.37.37,0,0,1,160.24,36.9Zm11.64,14.21H148.61V38h23.27Z"/>
      <path class="i" d="M146.82,53.16v1.76a.79.79,0,0,0,.82.75h25.21a.79.79,0,0,0,.82-.75V53.16Zm15.5,1.26h-4.15v-.84h4.15Z"/>
    </g>
    <g>
      <path class="i" d="M113.18,31.7s-1.2-2.24-2.32-4.39-4-1.11-6.19-1.72c-.68-.19-4.81,5.78-4.81,5.78s-4.14-6-4.82-5.78c-2.15.61-5.07-.43-6.19,1.72s-2.32,4.39-2.32,4.39,6,4.93,13.33,4.93S113.18,31.7,113.18,31.7Z"/>
      <path class="i" d="M103.63,20c-.84,1.88-2.71,4.05-3.9,4.05s-4-2.51-4.61-4.05a20.9,20.9,0,0,1-1-6.23,5,5,0,0,1,10,0C104.2,15.4,104.47,18.13,103.63,20Z"/>
      <path class="i" d="M104.68,19a1.9,1.9,0,0,1-1.12.77c-.25,0-.39-1.13-.51-1.44a4,4,0,0,1-.15-1.24c0-.33.14-1,.87-1A1.18,1.18,0,0,1,105,17.18,6.37,6.37,0,0,1,104.68,19Z"/>
      <path class="i" d="M94.09,18.94a1.94,1.94,0,0,0,1.16.82c.26,0,.46-1.12.6-1.42a3.72,3.72,0,0,0,.22-1.24,1.11,1.11,0,0,0-2.19,0A5.64,5.64,0,0,0,94.09,18.94Z"/>
      <path class="i" d="M101.91,23.32a3.46,3.46,0,0,1-2.07,1.16,4.82,4.82,0,0,1-2.38-1.16s.05.58.05,1.1a11.17,11.17,0,0,1,2.26,1.8,6.68,6.68,0,0,1,2.31-1.73C102,23.85,101.91,23.32,101.91,23.32Z"/>
      <g>
        <path class="i" d="M103.88,9.29h-9.7s-.57,4.52-.72,5.13c0,0,4.35-.79,5.57,1.93,1-3,5.57-2,5.57-2C104.45,13.73,103.88,9.29,103.88,9.29Z"/>
        <path class="i" d="M103.88,8.66h-9.7s-.57,4.53-.72,5.13c0,0,4.35-.78,5.57,1.94,1-3,5.57-1.94,5.57-1.94C104.45,13.19,103.88,8.66,103.88,8.66Z"/>
        <path class="i" d="M107.61,8.44a.45.45,0,0,1-.46.46H90.91a.46.46,0,0,1-.47-.46h0A.47.47,0,0,1,90.91,8h16.24a.46.46,0,0,1,.46.46Z"/>
        <polygon class="i" points="91.55 19.51 91.13 19.65 90.93 16.63 90.95 19.82 90.49 19.82 90.49 18.17 90.29 19.66 89.71 19.51 90.49 14.06 91.13 14.06 91.55 19.51"/>
        <path class="i" d="M91.34,14.06a.49.49,0,1,1-.49-.5A.49.49,0,0,1,91.34,14.06Z"/>
        <rect class="i" x="90.63" y="8.44" width="0.35" height="5.79"/>
      </g>
      <path class="i" d="M103.89,25.52c-1.06-.08-1.19-.76-1.52-.81s-1.91,1.09-2,1.59c.4.13.5.69.6.94s-.62.93-.62.93l.18,1.45A15.87,15.87,0,0,1,103.89,25.52Z"/>
      <path class="i" d="M95.72,25.52c1-.08,1.18-.76,1.51-.81s1.92,1.09,2,1.59c-.4.13-.5.69-.59.94s.61.93.61.93L99,29.62A16.1,16.1,0,0,0,95.72,25.52Z"/>
    </g>
    <g>
      <polygon class="i" points="20.67 95.4 28.79 101.29 31.81 101.29 20.67 93.21 9.53 101.29 12.55 101.29 20.67 95.4"/>
      <polygon class="i" points="27.83 101.29 13.51 101.29 20.67 96.09 27.83 101.29"/>
      <rect class="i" x="9.53" y="101.29" width="22.28" height="1.15"/>
      <rect class="i" x="10.31" y="102.72" width="20.64" height="1.15"/>
      <rect class="i" x="9.53" y="104.19" width="22.28" height="1.15"/>
      <rect class="i" x="9.61" y="118.3" width="22.28" height="1.15"/>
      <rect class="i" x="8.75" y="119.72" width="24.02" height="1.47"/>
      <g>
        <path class="i" d="M14.2,106.37a.23.23,0,0,0-.24.23.24.24,0,0,0,.24.24.23.23,0,0,0,.23-.24A.23.23,0,0,0,14.2,106.37Z"/>
        <path class="i" d="M11,106.07a.53.53,0,0,0-.53.53.53.53,0,0,0,1.06,0A.53.53,0,0,0,11,106.07Zm0,.93a.4.4,0,1,1,.4-.4A.4.4,0,0,1,11,107Z"/>
        <path class="i" d="M14.2,105.61H11a1,1,0,0,0,0,2v8.65H14.2v-8.65a1,1,0,1,0,0-2ZM11,107.33a.73.73,0,0,1-.73-.73.73.73,0,0,1,1.46,0A.73.73,0,0,1,11,107.33Zm3.25,0a.73.73,0,0,1-.73-.73.73.73,0,0,1,.73-.72.72.72,0,0,1,.72.72A.73.73,0,0,1,14.2,107.33Z"/>
        <path class="i" d="M11,106.37a.23.23,0,0,0-.24.23.24.24,0,0,0,.48,0A.23.23,0,0,0,11,106.37Z"/>
        <path class="i" d="M14.2,106.07a.53.53,0,0,0-.53.53.52.52,0,0,0,.53.53.53.53,0,0,0,.53-.53A.53.53,0,0,0,14.2,106.07Zm0,.93a.4.4,0,1,1,.4-.4A.4.4,0,0,1,14.2,107Z"/>
      </g>
      <g>
        <path class="i" d="M22.37,106.37a.23.23,0,0,0-.23.23.23.23,0,0,0,.23.24.24.24,0,0,0,.24-.24A.23.23,0,0,0,22.37,106.37Z"/>
        <path class="i" d="M19.12,106.07a.53.53,0,0,0-.53.53.54.54,0,0,0,1.07,0A.54.54,0,0,0,19.12,106.07Zm0,.93a.4.4,0,1,1,.4-.4A.4.4,0,0,1,19.12,107Z"/>
        <path class="i" d="M22.37,105.61H19.14a1,1,0,1,0,0,2v8.65h3.23v-8.65a1,1,0,1,0,0-2Zm-3.25,1.72a.73.73,0,0,1-.72-.73.72.72,0,0,1,.72-.72.73.73,0,0,1,.73.72A.73.73,0,0,1,19.12,107.33Zm3.25,0a.73.73,0,0,1-.72-.73.72.72,0,0,1,.72-.72.73.73,0,0,1,.73.72A.73.73,0,0,1,22.37,107.33Z"/>
        <path class="i" d="M19.12,106.37a.23.23,0,0,0-.23.23.23.23,0,0,0,.23.24.24.24,0,0,0,.24-.24A.23.23,0,0,0,19.12,106.37Z"/>
        <path class="i" d="M22.37,106.07a.53.53,0,0,0-.53.53.53.53,0,0,0,.53.53.52.52,0,0,0,.53-.53A.53.53,0,0,0,22.37,106.07Zm0,.93a.4.4,0,1,1,.4-.4A.4.4,0,0,1,22.37,107Z"/>
      </g>
      <g>
        <path class="i" d="M30.55,106.37a.23.23,0,0,0-.24.23.24.24,0,1,0,.47,0A.23.23,0,0,0,30.55,106.37Z"/>
        <path class="i" d="M27.3,106.07a.53.53,0,0,0-.53.53.52.52,0,0,0,.53.53.53.53,0,0,0,.53-.53A.53.53,0,0,0,27.3,106.07Zm0,.93a.4.4,0,1,1,.4-.4A.4.4,0,0,1,27.3,107Z"/>
        <path class="i" d="M30.55,105.61H27.31a1,1,0,1,0,0,2v8.65h3.24v-8.65a1,1,0,1,0,0-2Zm-3.25,1.72a.73.73,0,0,1-.73-.73.73.73,0,0,1,.73-.72.72.72,0,0,1,.72.72A.73.73,0,0,1,27.3,107.33Zm3.25,0a.73.73,0,0,1-.73-.73.73.73,0,1,1,.73.73Z"/>
        <path class="i" d="M27.3,106.37a.23.23,0,0,0-.24.23.24.24,0,0,0,.24.24.23.23,0,0,0,.23-.24A.23.23,0,0,0,27.3,106.37Z"/>
        <path class="i" d="M30.55,106.07a.54.54,0,0,0-.54.53.54.54,0,1,0,.54-.53Zm0,.93a.4.4,0,1,1,.39-.4A.39.39,0,0,1,30.55,107Z"/>
      </g>
      <rect class="i" x="10.69" y="116.52" width="3.78" height="0.62"/>
      <rect class="i" x="10.43" y="117.33" width="4.3" height="0.61"/>
      <rect class="i" x="18.87" y="116.52" width="3.78" height="0.62"/>
      <rect class="i" x="18.61" y="117.33" width="4.3" height="0.61"/>
      <rect class="i" x="27.04" y="116.52" width="3.78" height="0.62"/>
      <rect class="i" x="26.78" y="117.33" width="4.3" height="0.61"/>
    </g>
    <g>
      <g>
        <polygon class="i" points="180.5 114.85 158.79 110.8 170.45 106.9 192 109.75 180.5 114.85"/>
        <polygon class="i" points="191.11 112.72 179.6 117.82 180.5 117.99 192 112.89 191.11 112.72"/>
        <path class="i" d="M180.5,114.85l-21.71-4a2.72,2.72,0,0,0-.61,1.59,2,2,0,0,0,.61,1.54L180.5,118a3.08,3.08,0,0,1-.61-1.59A2.83,2.83,0,0,1,180.5,114.85Z"/>
        <polygon class="i" points="191.76 113.85 190.23 114.23 189.78 115.39 186.21 113.45 188.98 112.23 191.76 113.85"/>
      </g>
      <path class="j" d="M191.72,107.38l.89-3-21.55-2.85-11.66,3.9a2.67,2.67,0,0,0-.6,1.59,2,2,0,0,0,.6,1.55l21.71,4.05,7.74-3.43,1.54.84.45-1.17,1.53-.38Z"/>
      <g>
        <polygon class="i" points="181.11 108.22 159.41 104.17 171.06 100.27 192.61 103.12 181.11 108.22"/>
        <polygon class="i" points="191.72 106.09 180.21 111.19 181.11 111.36 192.61 106.26 191.72 106.09"/>
        <path class="i" d="M181.11,108.22l-21.71-4a2.67,2.67,0,0,0-.6,1.59,2,2,0,0,0,.6,1.55l21.71,4a3.08,3.08,0,0,1-.61-1.59A2.83,2.83,0,0,1,181.11,108.22Z"/>
        <polygon class="i" points="192.37 107.22 190.84 107.6 190.39 108.77 186.82 106.83 189.59 105.61 192.37 107.22"/>
      </g>
    </g>
    <g>
      <polygon class="k" points="63.12 146.69 60.98 147.4 59.96 131.79 60.05 148.27 57.69 148.27 57.69 139.77 56.63 147.48 53.65 146.69 57.69 118.47 60.98 118.47 63.12 146.69"/>
      <rect class="k" x="58.39" y="89.43" width="1.79" height="29.96"/>
      <path class="l" d="M126.89,90.59H76.77S73.8,114,73,117.12c0,0,22.49-4.05,28.82,10,5.13-15.35,28.81-10,28.81-10C129.86,114,126.89,90.59,126.89,90.59Z"/>
      <path class="m" d="M146.23,89.43a2.39,2.39,0,0,1-2.39,2.39h-84a2.39,2.39,0,0,1-2.39-2.39h0a2.39,2.39,0,0,1,2.39-2.38h84a2.39,2.39,0,0,1,2.39,2.38Z"/>
      <path class="n" d="M62.07,118.47a2.55,2.55,0,1,1-2.55-2.54A2.54,2.54,0,0,1,62.07,118.47Z"/>
    </g>
    <g>
      <path class="o" d="M77.35,169.16a7.64,7.64,0,0,1-3.09.55c-3.3,0-5.78-2.08-5.78-5.92a5.83,5.83,0,0,1,6.11-6.15,6.41,6.41,0,0,1,2.78.52L77,159.4a5.46,5.46,0,0,0-2.36-.49c-2.74,0-4.56,1.76-4.56,4.83,0,2.86,1.64,4.7,4.49,4.7A6.17,6.17,0,0,0,77,168Z"/>
      <path class="o" d="M82.07,159.12H78.51v-1.29h8.66v1.29H83.6v10.42H82.07Z"/>
      <path class="o" d="M89.6,157.83l2.33,5c.29.69.57,1.37.85,2.07h0c.21-.61.44-1.29.73-2.12l1.83-4.94H97l-2.44,6a23.35,23.35,0,0,1-2.19,4.45,3.34,3.34,0,0,1-2.66,1.44,2.93,2.93,0,0,1-.85-.1l.16-1.24a1.88,1.88,0,0,0,.55.05c1.22,0,1.93-1.18,2.29-2a.68.68,0,0,0,0-.71l-3.89-7.89Z"/>
      <path class="o" d="M105.35,157.83v10.48l1,0-.1,4h-1.18l-.11-2.81H97.6l-.1,2.81H96.32l-.11-4,.89,0a14.24,14.24,0,0,0,1.15-2.57,17.44,17.44,0,0,0,.55-4.94v-3Zm-5.14,3.46a16.25,16.25,0,0,1-.59,4.78,11.33,11.33,0,0,1-1,2.22h5.18v-9.2h-3.63Z"/>
      <path class="o" d="M114.34,164.05h-4.55v4.22h5.07v1.27h-6.58V157.83h6.32v1.27h-4.81v3.7h4.55Z"/>
      <path class="o" d="M118.33,157.83v4.9H124v-4.9h1.53v11.71H124v-5.49h-5.66v5.49h-1.51V157.83Z"/>
      <path class="o" d="M130.36,159.12H126.8v-1.29h8.66v1.29h-3.57v10.42h-1.53Z"/>
    </g>
  </g>
</svg>
